<svg id="Layer_1" enable-background="new 0 0 512 512" height="512" viewBox="0 0 512 512" width="512" xmlns="http://www.w3.org/2000/svg"><g><path d="m245 10.416c-28.009 0-54.914 4.713-79.982 13.367l-155.124 162.544c-6.429 21.914-9.894 45.096-9.894 69.09 0 135.31 109.69 245 245 245s245-109.69 245-245-109.69-245.001-245-245.001z" fill="#009cf2"/><path d="m97.97 127.597c-23.743 0-46.622 3.689-68.105 10.511-8.29 15.171-15.012 31.318-19.971 48.22 26.269-13.969 56.243-21.887 88.076-21.887 92.79 0 169.826 67.232 185.188 155.628 9.061-9.66 20.362-17.172 33.078-21.74-24.238-98.034-112.744-170.732-218.266-170.732z" fill="#85d249"/><path d="m97.97 127.597c-23.744 0-46.623 3.689-68.105 10.511-8.29 15.171-15.012 31.318-19.971 48.22 26.269-13.969 56.243-21.887 88.076-21.887 30.646 0 59.57 7.338 85.125 20.346.111-1.795-.079-3.619-.604-5.389-3.795-12.821 2.469-19.507 8.879-22.929 2.539-1.355 4.593-3.36 6-5.742-29.969-14.803-63.708-23.13-99.4-23.13z" fill="#60b550"/><path d="m97.97 90.754c-12.444 0-24.68.882-36.659 2.562-12.066 13.663-22.639 28.674-31.446 44.791 21.483-6.822 44.362-10.511 68.105-10.511 105.522 0 194.028 72.698 218.266 170.731 8.925-3.206 18.529-4.988 28.559-4.988 2.77 0 5.496.172 8.198.432-26.655-116.264-130.673-203.017-255.023-203.017z" fill="#fff442"/><path d="m97.97 90.754c-12.444 0-24.68.882-36.66 2.562-12.066 13.663-22.639 28.674-31.446 44.791 21.483-6.822 44.362-10.511 68.105-10.511 35.692 0 69.431 8.327 99.401 23.128 1.447-2.449 2.211-5.295 2.103-8.252-.333-9.16 4.917-14.843 9.996-18.178 2.333-1.532 4.137-3.637 5.315-6.056-35.157-17.58-74.822-27.484-116.814-27.484z" fill="#ffe400"/><path d="m105.485 54.015c61.527 1.524 118.406 21.69 165.275 55.023 3.642-2.277 7.853-3.729 12.379-4.068 2.699-8.684 8.147-16.151 15.316-21.409-38.841-29.005-84.181-49.783-133.436-59.777-21.335 7.365-41.33 17.596-59.534 30.231z" fill="#ff4155"/><path d="m165.019 23.783c-21.335 7.366-41.33 17.597-59.534 30.232 45.571 1.129 88.588 12.493 126.881 31.851 1.254-2.372 1.904-5.078 1.865-7.847-.171-12.113 7.749-17.373 14.128-19.643 1.939-.69 3.669-1.772 5.123-3.139-27.467-14.398-57.174-25.104-88.463-31.454z" fill="#e80054"/><path d="m372.294 159.469h-46.634c35.243 41.542 59.377 92.805 67.666 149.25 15.116 10.624 26.632 26.024 32.236 44.06 2.66.199 5.246.646 7.787 1.211.002-.509.019-1.014.019-1.523.002-71.851-22.603-138.417-61.074-192.998z" fill="#ff4155"/><path d="m285.202 159.469c-15.073 0-27.292-12.219-27.292-27.292 0-9.766 5.138-18.319 12.849-23.139-46.869-33.333-103.748-53.499-165.275-55.023-16.268 11.29-31.101 24.498-44.174 39.301 11.98-1.68 24.215-2.562 36.659-2.562 124.35 0 228.367 86.753 255.023 203.018 14.928 1.438 28.697 6.768 40.334 14.947-8.289-56.444-32.424-107.708-67.667-149.25z" fill="#fdca00"/><path d="m216.343 110.6c-.469-9.713 5.422-15.684 10.838-19.097 2.238-1.41 3.986-3.371 5.184-5.637-38.293-19.358-81.31-30.723-126.881-31.851-16.268 11.29-31.101 24.498-44.174 39.301 11.98-1.68 24.216-2.562 36.66-2.562 41.991 0 81.657 9.904 116.815 27.485 1.135-2.33 1.688-4.952 1.558-7.639z" fill="#ff951f"/><path d="m434.514 353.147c-1.849-.273-3.388-1.518-4.018-3.249-12.889-35.444-46.899-59.257-84.629-59.257-37.749 0-71.76 23.845-84.63 59.336-.792 2.185-3.073 3.514-5.427 3.165-2.883-.43-5.829-.648-8.755-.648-24.064 0-45.524 14.39-54.672 36.66-.682 1.66-2.087 2.813-3.758 3.085-19.181 3.119-33.102 19.506-33.102 38.964 0 14.225 7.721 27.411 20.151 34.41.478.271 1.054.302 1.56.089.506-.215.884-.651 1.024-1.182 2.898-11.007 12.456-18.973 23.785-19.819.726-.054 1.344-.547 1.561-1.242 5.496-17.69 21.647-29.575 40.188-29.575 18.601 0 35.214 12.469 40.4 30.321.267.917 1.214 1.462 2.135 1.224 2.142-.54 4.349-.814 6.56-.814 11.541 0 21.73 7.36 25.356 18.314.227.687.85 1.167 1.573 1.212 4.598.285 8.796 2.391 11.82 5.928.337.394.829.621 1.347.621h91.909c32.817 0 59.746-26.275 60.029-58.572.254-29.343-21.415-54.695-50.407-58.971z" fill="#b8e9fa"/><g><path d="m273.853 423.361c3.477-23.824 20.81-42.987 44.156-48.82 2.838-.709 5.749-1.212 8.65-1.493 2.369-.231 4.259-2.074 4.498-4.386 3.191-30.852 22.139-57.525 49.106-71.14-10.712-4.449-22.363-6.881-34.397-6.881-37.749 0-71.76 23.845-84.63 59.335-.792 2.185-3.073 3.514-5.427 3.165-2.883-.43-5.829-.648-8.755-.648-24.064 0-45.524 14.39-54.672 36.66-.682 1.66-2.087 2.813-3.759 3.085-19.181 3.119-33.102 19.506-33.102 38.964 0 14.225 7.721 27.411 20.15 34.41.479.271 1.054.302 1.56.089.506-.215.884-.651 1.024-1.182 2.897-11.007 12.456-18.972 23.785-19.819.726-.054 1.344-.547 1.561-1.242 5.496-17.69 21.648-29.575 40.188-29.575 11.085 0 21.462 4.43 29.138 11.786.476-.658.8-1.444.926-2.308z" fill="#8adaf9"/></g><path d="m323.513 461.122c-1.44-.343-2.586-1.236-3.146-2.449-4.93-10.693-15.717-17.602-27.481-17.602-.822 0-1.648.033-2.451.099-1.96.155-3.794-.994-4.58-2.865-7.136-16.989-23.648-27.965-42.066-27.965-18.751 0-35.377 11.244-42.357 28.645-.543 1.356-1.807 2.381-3.297 2.676h-.001c-14.232 2.83-24.462 15.428-24.326 29.956.155 16.524 14.04 29.966 30.951 29.966h113.429c11.559 0 21.01-9.153 21.067-20.404.05-9.591-6.424-17.838-15.742-20.057z" fill="#e6f8fc"/><path d="m203.809 482.617c-.136-14.529 10.093-27.126 24.326-29.956h.001c1.49-.295 2.753-1.32 3.297-2.676 6.947-17.317 23.447-28.532 42.087-28.64-8.101-6.964-18.563-11.005-29.73-11.005-18.751 0-35.376 11.244-42.357 28.645-.544 1.356-1.807 2.381-3.297 2.676h-.001c-14.232 2.83-24.462 15.428-24.326 29.956.155 16.524 14.04 29.966 30.951 29.966h6.172c-4.386-5.17-7.056-11.775-7.123-18.966z" fill="#b8e9fa"/><path d="m398.569 122.171c-.689-.123-1.25-.555-1.5-1.154-4.522-10.832-15.025-17.831-26.757-17.831-1.357 0-2.722.095-4.058.284-.865.124-1.697-.404-2.023-1.279-6.342-17.018-22.805-28.452-40.963-28.452-18.236 0-34.724 11.493-41.029 28.597-.234.634-.808 1.094-1.5 1.201-14.116 2.183-24.661 14.615-24.527 28.918.149 15.833 13.453 28.713 29.657 28.713h108.688c11.076 0 20.132-8.771 20.187-19.551.05-9.585-6.753-17.762-16.175-19.446z" fill="#b8e9fa"/><path d="m288.212 142.598c-.133-14.303 10.411-26.735 24.527-28.918.692-.107 1.266-.567 1.5-1.201 5.856-15.888 20.5-26.927 37.169-28.418-7.733-6.502-17.651-10.323-28.14-10.323-18.236 0-34.724 11.493-41.029 28.597-.234.634-.808 1.094-1.5 1.201-14.116 2.183-24.66 14.615-24.527 28.918.149 15.833 13.453 28.713 29.657 28.713h9.516c-4.406-5.01-7.106-11.492-7.173-18.569z" fill="#8adaf9"/><path d="m335.631 193.962c1.194-.243 2.239-1.129 2.794-2.37 5.763-12.868 18.589-21.183 32.679-21.183 1.231 0 2.471.063 3.687.188 1.866.197 3.56-.788 4.214-2.439 8.207-20.723 27.908-34.113 50.19-34.113 22.14 0 42.38 13.87 50.363 34.515.49 1.267 1.616 2.174 3.011 2.423h.001c17.216 3.094 29.593 18.051 29.429 35.566-.184 19.551-16.612 35.457-36.622 35.457h-134.213c-13.678 0-24.861-10.83-24.928-24.143-.059-11.544 8.097-21.596 19.395-23.901z" fill="#e6f8fc"/><g><path d="m368.929 235.543c-1.965-11.376 4.419-22.637 15.181-26.776 1.138-.437 2.022-1.483 2.364-2.799 3.559-13.643 14.836-23.962 28.732-26.289 1.214-.203 2.448-.346 3.668-.423 1.872-.114 3.381-1.365 3.753-3.101 3.55-16.562 14.351-30.036 28.974-37.17-6.921-3.182-14.542-4.94-22.406-4.94-22.282 0-41.983 13.391-50.19 34.113-.654 1.651-2.348 2.635-4.214 2.439-1.216-.126-2.456-.188-3.687-.188-14.09 0-26.916 8.315-32.679 21.183-.555 1.241-1.6 2.127-2.793 2.37-11.298 2.305-19.454 12.357-19.395 23.901.067 13.313 11.25 24.143 24.928 24.143h29.882c-.994-1.999-1.721-4.164-2.118-6.463z" fill="#b8e9fa"/></g></g></svg>