<svg id="Layer_1" enable-background="new 0 0 512 512" height="512" viewBox="0 0 512 512" width="512" xmlns="http://www.w3.org/2000/svg"><g><path d="m256 22c-135.31 0-245 109.69-245 245 0 102.031 62.377 189.483 151.071 226.333s126.478 22.047 208.387-9.677c77.638-41.101 130.542-122.694 130.542-216.656 0-135.31-109.69-245-245-245z" fill="#603f42"/><g><path d="m370.458 483.656c-2.035-5.77-1.854-12.413 1.407-18.613 8.118-15.432 24.411-32.884 57.099-39.693 4.097-.854 5.948-5.678 3.452-9.036-9.953-13.39-25.441-42.597 3.946-67.928 3.678-3.17 2.154-9.191-2.621-10.066-15.886-2.909-38.595-13.978-44.336-52.717-.733-4.942-6.944-6.711-10.129-2.862-12.556 15.175-37.932 38.58-72.536 34.292-4.257-.527-7.561 3.65-6.085 7.678 9.534 26.027 30.71 96.259-16.32 101.066-49.759 5.086-41.09-104.24-37.044-139.345.509-4.418-3.961-7.705-8.035-5.921-18.26 7.998-60.303 20.468-101.072-9.877-4.092-3.046-9.817.26-9.225 5.327 5.895 50.482-25.93 80.658-41.985 92.471-3.581 2.635-2.966 8.149 1.113 9.916 32.425 14.048 131.438 61.204 102.154 101.753-7.96 11.022-17.787 14.443-28.17 13.231 28.928 12.02 60.65 18.668 93.929 18.668 41.348 0 80.293-10.258 114.458-28.344z" fill="#feac00"/></g><path d="m128.959 275.962c5.895 50.482-25.93 80.658-41.985 92.471-3.581 2.635-2.966 8.149 1.113 9.916 32.425 14.048 131.438 61.204 102.154 101.753-7.96 11.022-17.787 14.443-28.17 13.231 28.928 12.019 60.651 18.667 93.929 18.667 33.167 0 64.786-6.606 93.633-18.552-14.466-2.837-15.77-17.863-15.77-17.863l-39.954-9.929c-29.458 15.835-42.271-6.091-42.271-6.091l-91.772-140.723c-33.5-7.091-21.682-48.207-21.682-48.207-4.092-3.046-9.817.26-9.225 5.327z" fill="#ff951f"/><g><path d="m163.546 44.815c10.34-1.893 25.12-9.098 28.857-34.312.477-3.216 4.52-4.368 6.593-1.863 8.172 9.877 24.689 25.11 47.212 22.32 2.771-.343 4.921 2.376 3.961 4.997-6.205 16.94-19.988 62.652 10.622 65.781 32.387 3.31 26.744-67.847 24.11-90.695-.332-2.875 2.578-5.015 5.23-3.854 11.885 5.206 39.249 13.322 65.785-6.428 2.663-1.982 6.389.169 6.005 3.467-3.837 32.857 16.877 52.498 27.327 60.187 2.331 1.715 1.93 5.304-.725 6.454-21.104 9.144-85.549 39.836-66.489 66.228 18.015 24.945 50.711-9.848 62.279-23.692 1.79-2.142 5.22-1.639 6.308.932 8.845 20.901 30.296 27.587 42.935 29.726 3.206.543 4.231 4.62 1.683 6.641-19.968 15.843-18.817 32.246-15.287 42.147 1.061 2.977-1.837 5.795-4.821 4.753-23.842-8.321-35.265 9.914-39.573 19.882-1.081 2.5-4.402 3.027-6.216.996-14.492-16.228-29.649-19.722-40.994-19.267-11.835.475-18.599 13.646-12.047 23.514 6.007 9.047 14.982 16.855 20.405 21.128 2.061 1.624 1.827 4.773-.403 6.156-11.908 7.387-15.832 18.458-17.034 26.403-.469 3.102-4.285 4.246-6.441 1.967-9.857-10.418-19.757-11.381-26.21-10.423-2.761.41-4.98-2.203-4.109-4.856 3.143-9.569 1.958-18.987-.124-26.195-1.802-6.238-9.849-7.919-14.024-2.95-2.733 3.253-7.414 3.883-10.89 1.441-12.497-8.775-28.18-8.383-28.18-8.383s-7.503-13.778-21.35-20.213c-3.853-1.79-5.647-6.159-4.197-10.152 2.216-6.1-3.264-12.229-9.567-10.67-7.268 1.797-15.993 5.468-22.703 12.941-1.879 2.093-5.271 1.532-6.305-1.084-2.398-6.067-8.183-14.156-22.131-17.484-3.051-.728-3.968-4.604-1.517-6.562 6.279-5.014 13.905-13.947 14.349-27.954.083-2.623 2.692-4.4 5.13-3.427 6.412 2.56 17.661 6.429 28.5 7.107 11.838.742 19.845-11.726 14.323-22.224-5.284-10.044-15.889-21.403-37.164-25.835-2.666-.555-3.872-3.695-2.247-5.882 6.478-8.715 16.559-27.725-2.568-44.213-2.398-2.062-1.406-5.981 1.702-6.55z" fill="#feac00"/></g><path d="m316.3 222.729c-4.024-6.061-3.02-13.364 1.093-18.209-.268-.136-.546-.252-.837-.33-10.02-2.702-10.087-11.349-9.299-16.093.3-1.807-.422-3.661-1.956-4.663-5.708-3.728-5.72-8.785-4.845-12.188.546-2.124-.561-4.28-2.516-5.275-8.916-4.541-10.034-13.705-9.83-19.138.083-2.202-1.319-4.235-3.454-4.785-6.61-1.704-8.086-7.724-8.336-11.548-.125-1.918-1.443-3.502-3.262-4.125-14.31-4.898-12.595-22.115-12.303-24.389.011-.083.01-.167.016-.251-30.586-3.146-16.808-48.842-10.604-65.779.96-2.621-1.19-5.34-3.961-4.997-22.523 2.791-39.039-12.443-47.211-22.32-2.073-2.505-6.116-1.354-6.593 1.863-3.737 25.215-18.518 32.419-28.857 34.312-3.108.569-4.1 4.488-1.706 6.551 19.127 16.487 9.047 35.498 2.568 44.213-1.625 2.186-.42 5.326 2.247 5.882 21.275 4.432 31.88 15.791 37.164 25.835 5.523 10.498-2.484 22.965-14.323 22.224-10.838-.678-22.088-4.547-28.5-7.107-2.437-.973-5.047.804-5.13 3.427-.444 14.006-8.07 22.94-14.349 27.954-2.451 1.958-1.534 5.834 1.517 6.562 13.948 3.327 19.732 11.417 22.131 17.484 1.034 2.616 4.426 3.177 6.305 1.084 6.71-7.473 15.436-11.144 22.703-12.941 6.303-1.559 11.783 4.57 9.567 10.67-1.451 3.993.344 8.362 4.197 10.152 13.848 6.435 21.35 20.213 21.35 20.213s15.683-.391 28.18 8.383c3.477 2.441 8.158 1.812 10.89-1.441 4.175-4.969 12.222-3.288 14.024 2.95 2.082 7.209 3.266 16.626.124 26.195-.871 2.653 1.347 5.265 4.109 4.856 6.454-.957 16.353.006 26.21 10.423 2.156 2.279 5.972 1.134 6.441-1.967 1.202-7.945 5.127-19.016 17.034-26.403 2.23-1.383 2.464-4.532.403-6.156-5.419-4.273-14.394-12.081-20.401-21.128z" fill="#ff951f"/><g fill="#fdca00"><path d="m374.738 351.261c-4.521-2.216-9.981-.347-12.196 4.173-.145.297-14.709 30.11-30.326 70.548-4.828 12.502-9.206 24.586-13.174 36.276-8.766-9.956-18.358-13.54-18.949-13.753-4.738-1.708-9.96.747-11.667 5.483-1.708 4.736.748 9.959 5.483 11.667.094.034 6.871 2.688 12.751 10.213 3.539 4.53 4.588 10.538 2.973 16.055-1.5 5.126-2.899 10.152-4.206 15.088 6.898-1.413 13.684-3.133 20.358-5.113 20.063-70.5 52.695-137.561 53.127-138.441 2.215-4.52.346-9.981-4.174-12.196z"/><path d="m172.318 322.178c-2.517-4.36-8.092-5.854-12.452-3.336-4.36 2.517-5.854 8.092-3.336 12.452l104.296 180.646c6.854-.132 13.643-.534 20.348-1.218z"/><path d="m396.631 163.587c-.342-5.022-4.695-8.816-9.713-8.474-3.037.206-65.409 4.62-117.748 21.058l77.56-134.338c2.517-4.36 1.024-9.935-3.336-12.452s-9.935-1.023-12.452 3.337l-77.56 134.338c-11.933-53.546-39.297-109.769-40.636-112.502-2.216-4.521-7.676-6.389-12.197-4.174-4.521 2.216-6.389 7.677-4.174 12.197.348.709 33.041 67.866 42.012 122.869.628 3.848-.122 7.792-2.071 11.168l-26.737 46.311c-2.312 4.005-1.503 9.234 2.173 12.041 4.456 3.402 10.74 2.055 13.464-2.662l26.889-46.574c1.95-3.377 4.99-5.998 8.638-7.378 52.078-19.712 126.626-24.998 127.415-25.052 5.02-.341 8.815-4.69 8.473-9.713z"/></g><path d="m305.3 183.434c-5.708-3.728-5.72-8.785-4.845-12.188.296-1.15.094-2.303-.452-3.283-10.32 2.328-20.762 5.045-30.834 8.208l18.366-31.811c-.591-1.114-1.599-1.982-2.879-2.313-6.61-1.704-8.086-7.724-8.336-11.548-.049-.746-.283-1.439-.652-2.047l-22.287 38.603c-11.933-53.546-39.297-109.769-40.636-112.502-2.216-4.521-7.676-6.389-12.197-4.174-4.521 2.216-6.389 7.677-4.173 12.197.348.709 33.041 67.866 42.012 122.869.628 3.848-.122 7.792-2.071 11.168l-26.737 46.311c-2.312 4.005-1.503 9.234 2.173 12.041 4.456 3.402 10.741 2.055 13.464-2.662l26.889-46.574c1.95-3.377 4.991-5.998 8.638-7.378 14.327-5.423 30.354-9.752 46.079-13.183-.345-.688-.85-1.296-1.522-1.734z" fill="#feac00"/><g><path d="m496.858 242.893c-.747-2.958-3.136-5.279-6.114-5.94-11.083-2.46-23.143.709-31.635 9.449-8.491 8.74-11.31 20.888-8.532 31.894.747 2.958 3.136 5.279 6.114 5.94 11.082 2.46 23.143-.709 31.634-9.449 8.492-8.74 11.311-20.887 8.533-31.894z" fill="#ffe400"/></g><g><path d="m61.423 309.034c-.747-2.958-3.136-5.279-6.114-5.94-11.082-2.46-23.143.709-31.635 9.449-8.491 8.74-11.31 20.887-8.532 31.894.747 2.958 3.136 5.279 6.114 5.94 11.083 2.46 23.143-.709 31.634-9.45 8.492-8.739 11.311-20.886 8.533-31.893z" fill="#ffe400"/></g><g><path d="m86.318 219.186c3.849-2.115 6.215-6.288 6.054-10.677-.601-16.335-9.399-31.987-24.663-40.641s-33.213-8.167-47.538-.295c-3.849 2.115-6.215 6.287-6.054 10.677.601 16.335 9.399 31.987 24.663 40.641 15.263 8.653 33.212 8.167 47.538.295z" fill="#feac00"/></g><path d="m78.263 175.936c-3.064-3.086-6.585-5.818-10.554-8.068-15.263-8.654-33.213-8.167-47.538-.295-3.849 2.115-6.215 6.287-6.054 10.677.601 16.335 9.399 31.987 24.663 40.641 5.101 2.892 10.504 4.741 15.97 5.657-21.407-18.429-4.824-54.054 23.513-48.612z" fill="#ff951f"/><path d="m46.869 337.243c-15.37 0-24.732-16.898-16.688-29.914-2.324 1.436-4.516 3.166-6.506 5.215-8.491 8.74-11.31 20.887-8.532 31.894.747 2.957 3.136 5.279 6.114 5.94 11.083 2.459 23.143-.709 31.635-9.45 2.203-2.268 4.016-4.768 5.457-7.415-3.232 2.337-7.189 3.73-11.48 3.73z" fill="#fdca00"/><path d="m467.936 239.865c-3.197 1.639-6.185 3.818-8.827 6.538-8.491 8.74-11.311 20.888-8.532 31.894.747 2.958 3.136 5.279 6.114 5.94 11.083 2.46 23.143-.709 31.635-9.449 2.503-2.576 4.499-5.453 6.018-8.504-16.872 8.693-35.141-9.489-26.408-26.419z" fill="#fdca00"/></g></svg>