<svg id="Layer_1" enable-background="new 0 0 512 512" height="512" viewBox="0 0 512 512" width="512" xmlns="http://www.w3.org/2000/svg"><g><path d="m76.292 429.165c9.669-13.626 27.635-18.678 42.881-12.676 6.152 2.423 13.085.438 16.851-4.997 12.881-18.594 37.638-25.72 58.496-16.527 5.499 2.423 11.892 1.041 16.009-3.335 24.487-26.024 66.435-26.058 90.943 0 4.117 4.378 10.511 5.757 16.011 3.334 20.839-9.18 45.598-2.091 58.488 16.516 3.769 5.44 10.709 7.427 16.868 5.003 15.25-6 33.202-.924 42.865 12.679.581.817 1.243 1.554 1.962 2.218 39.357-43.468 63.334-101.122 63.334-164.38 0-135.31-109.69-245-245-245s-245 109.69-245 245c0 63.258 23.977 120.912 63.334 164.381.718-.664 1.379-1.4 1.958-2.216z" fill="#fdca00"/><g><path d="m252.75 380.57c-4.398 0-7.964-3.565-7.964-7.964 0-17.05-2.475-25.355-5.094-34.147-2.831-9.5-5.758-19.323-5.758-38.695s2.927-29.195 5.758-38.695c2.62-8.793 5.094-17.098 5.094-34.148 0-17.049-2.475-25.353-5.094-34.146-2.831-9.499-5.758-19.323-5.758-38.694 0-4.398 3.566-7.964 7.964-7.964s7.964 3.565 7.964 7.964c0 17.049 2.475 25.353 5.094 34.146 2.831 9.499 5.758 19.322 5.758 38.694s-2.927 29.195-5.758 38.695c-2.62 8.793-5.094 17.098-5.094 34.147s2.475 25.354 5.094 34.147c2.831 9.5 5.758 19.324 5.758 38.695 0 4.4-3.566 7.965-7.964 7.965z" fill="#a3ea6e"/></g><path d="m252.75 380.57c4.398 0 7.964-3.565 7.964-7.963 0-19.372-2.927-29.196-5.758-38.696-5.91 11.312-15.264 4.548-15.264 4.548 2.62 8.793 5.095 17.098 5.095 34.148 0 4.398 3.565 7.963 7.963 7.963z" fill="#85d249"/><path d="m130.077 300.851h-15.947c.486 12.782 2.537 20.091 4.529 27.188 2.08 7.408 4.044 14.405 4.044 28.77s-1.964 21.361-4.044 28.77c-2.28 8.12-4.637 16.517-4.637 33.075 0 4.398 3.565 7.964 7.964 7.964 4.398 0 7.964-3.566 7.964-7.964 0-14.365 1.965-21.362 4.045-28.77 2.28-8.12 4.637-16.517 4.637-33.075s-2.357-24.954-4.637-33.075c-1.773-6.315-3.458-12.348-3.918-22.883z" fill="#a3ea6e"/><path d="m121.987 426.617c4.398 0 7.963-3.566 7.963-7.964 0-14.365 1.965-21.362 4.045-28.77.86-3.063 1.73-6.167 2.482-9.732-12.056 5.885-15.498-3.763-15.498-3.763-.676 3.326-1.487 6.229-2.318 9.19-2.28 8.12-4.637 16.517-4.637 33.075-.001 4.398 3.565 7.964 7.963 7.964z" fill="#85d249"/><g><path d="m277.427 390.14c-3.524 0-6.746-2.357-7.692-5.923-10.442-39.357 11.884-62.895 12.839-63.878 3.067-3.153 8.108-3.224 11.262-.158 3.142 3.055 3.223 8.072.191 11.227-.773.821-16.926 18.462-8.897 48.724 1.128 4.251-1.404 8.612-5.655 9.74-.686.181-1.372.268-2.048.268z" fill="#a3ea6e"/></g><path d="m269.735 384.216c.946 3.567 4.168 5.923 7.692 5.923.676 0 1.363-.087 2.047-.268 4.251-1.128 6.783-5.488 5.655-9.74-3.81-14.362-2.172-25.874.682-34.102-13.191 4.92-14.458-6.689-14.464-6.747-4.09 10.855-6.617 26.072-1.612 44.934z" fill="#85d249"/><g><path d="m68.453 322.004c-4.061 1.945-6.104 6.463-4.881 10.796 3.19 11.295 11.15 21.158 22.682 26.371 11.657 5.27 24.471 4.662 35.127-.561 3.783-1.853 5.746-6.195 4.638-10.259-3.119-11.449-11.127-21.471-22.785-26.741-11.531-5.212-24.194-4.673-34.781.394z" fill="#85d249"/></g><g><path d="m381.538 426.617c-4.398 0-7.963-3.566-7.963-7.964 0-16.558 2.357-24.954 4.637-33.075 2.08-7.408 4.044-14.405 4.044-28.77s-1.964-21.362-4.044-28.77c-2.28-8.12-4.637-16.517-4.637-33.075 0-16.556 2.357-24.951 4.637-33.071 2.08-7.407 4.044-14.403 4.044-28.765 0-4.398 3.565-7.964 7.964-7.964 4.398 0 7.964 3.565 7.964 7.964 0 16.556-2.358 24.951-4.637 33.071-2.079 7.407-4.044 14.403-4.044 28.765 0 14.365 1.965 21.362 4.044 28.77 2.28 8.12 4.637 16.517 4.637 33.074 0 16.558-2.358 24.955-4.637 33.075-2.079 7.408-4.044 14.405-4.044 28.77-.002 4.399-3.567 7.965-7.965 7.965z" fill="#a3ea6e"/></g><path d="m381.537 426.617c4.398 0 7.964-3.566 7.964-7.964 0-14.364 1.964-21.362 4.044-28.77.737-2.627 1.481-5.287 2.153-8.238-10.418 6.713-15.549-3.484-15.549-3.484-.591 2.609-1.257 4.994-1.938 7.418-2.28 8.12-4.637 16.517-4.637 33.075 0 4.397 3.565 7.963 7.963 7.963z" fill="#85d249"/><g><path d="m328.004 322.004c-4.061 1.945-6.104 6.463-4.881 10.796 3.19 11.295 11.15 21.158 22.682 26.371 11.658 5.27 24.471 4.662 35.127-.561 3.783-1.853 5.746-6.195 4.638-10.259-3.119-11.449-11.127-21.471-22.784-26.741-11.532-5.212-24.195-4.673-34.782.394z" fill="#85d249"/></g><g><path d="m189.45 230.994c-4.061 1.945-6.104 6.463-4.881 10.796 3.19 11.295 11.15 21.158 22.682 26.371 11.658 5.27 24.471 4.662 35.127-.561 3.783-1.853 5.746-6.195 4.638-10.259-3.119-11.449-11.127-21.471-22.784-26.741-11.532-5.213-24.195-4.673-34.782.394z" fill="#85d249"/></g><g><path d="m435.552 278.96c3.368 1.613 5.062 5.36 4.048 8.954-2.645 9.367-9.247 17.547-18.811 21.871-9.668 4.371-20.295 3.866-29.132-.465-3.137-1.537-4.765-5.138-3.846-8.508 2.587-9.495 9.228-17.807 18.896-22.177 9.563-4.324 20.065-3.877 28.845.325z" fill="#85d249"/></g><g><path d="m305.959 194.887c-8.779-4.202-19.282-4.65-28.846-.326-9.668 4.37-16.309 12.682-18.896 22.177-.919 3.371.709 6.971 3.846 8.508 8.837 4.331 19.464 4.836 29.132.465 9.564-4.323 16.166-12.503 18.811-21.87 1.015-3.594-.678-7.341-4.047-8.954z" fill="#85d249"/></g><g><path d="m278.273 291.152c-5.626-2.747-12.379-3.088-18.552-.355-6.241 2.762-10.554 8.075-12.266 14.169-.608 2.164.421 4.488 2.431 5.492 5.663 2.83 12.495 3.208 18.736.446 6.173-2.733 10.461-7.961 12.21-13.973.671-2.305-.4-4.724-2.559-5.779z" fill="#85d249"/></g><g><path d="m381.435 260.194c.547 3.045-1.151 5.999-4.058 7.057-7.578 2.759-16.274 2.282-23.812-2.053-7.62-4.382-12.428-11.77-13.796-19.808-.486-2.853 1.146-5.691 3.857-6.706 7.635-2.86 16.439-2.421 24.059 1.961 7.538 4.336 12.323 11.612 13.75 19.549z" fill="#85d249"/></g><g><path d="m98.729 430.29c-4.398 0-7.964-3.565-7.964-7.964 0-16.097-12.687-38.263-12.816-38.485-2.197-3.807-.896-8.677 2.91-10.878 3.806-2.2 8.673-.903 10.876 2.901.611 1.055 14.957 26.064 14.957 46.461.001 4.4-3.564 7.965-7.963 7.965z" fill="#a3ea6e"/></g><path d="m83.299 394.575c3.515 7.895 7.467 18.767 7.467 27.752 0 4.398 3.565 7.964 7.963 7.964s7.964-3.566 7.964-7.964c0-11.725-4.739-24.965-8.886-34.312-5.892 11.744-14.508 6.56-14.508 6.56z" fill="#85d249"/><g><path d="m389.728 376.384c-1.021 0-2.059-.197-3.061-.615-4.06-1.692-5.979-6.355-4.287-10.415 8.826-21.176 34.949-19.348 36.062-19.261 4.384.349 7.656 4.186 7.307 8.57-.348 4.373-4.169 7.645-8.537 7.309-.355-.022-15.792-.902-20.13 9.509-1.275 3.059-4.236 4.903-7.354 4.903z" fill="#a3ea6e"/></g><path d="m438.676 430.242c-1.121-.86-2.128-1.892-2.972-3.08-9.664-13.604-27.616-18.679-42.866-12.679-6.159 2.423-13.099.437-16.868-5.003-12.89-18.607-37.649-25.695-58.488-16.516-5.5 2.423-11.894 1.044-16.011-3.334-24.508-26.058-66.455-26.025-90.943 0-4.117 4.376-10.511 5.758-16.009 3.335-20.858-9.193-45.615-2.067-58.496 16.527-3.766 5.435-10.699 7.419-16.851 4.997-15.245-6.003-33.212-.95-42.881 12.676-.843 1.187-1.848 2.217-2.968 3.077 44.864 50.17 110.077 81.758 182.677 81.758 72.599 0 137.812-31.588 182.676-81.758z" fill="#725057"/><g><path d="m188.832 466.107c5.974-.651 10.819-5.044 12.197-10.893 8.194-34.781 44.505-55.784 78.759-45.471 5.754 1.733 11.981-.27 15.533-5.118 3.313-4.523 7.328-8.306 11.8-11.302-2.102-.748-4.048-1.99-5.649-3.692-24.508-26.058-66.455-26.025-90.943 0-4.117 4.376-10.511 5.758-16.009 3.335-20.858-9.193-45.615-2.067-58.496 16.527-3.766 5.435-10.699 7.419-16.851 4.997-15.246-6.003-33.211-.95-42.881 12.676-.843 1.187-1.848 2.217-2.968 3.077 22.12 24.736 49.193 44.942 79.652 59.084 7.486-12.578 20.58-21.556 35.856-23.22z" fill="#603f42"/></g><path d="m302.953 84.266c-2.188-1.43-2.188-4.612 0-6.042 14.686-9.596 23.763-21.958 14.731-37.601-9.066-15.703-24.335-13.913-39.932-6.035-2.332 1.178-5.087-.413-5.231-3.022-.967-17.524-7.131-31.566-25.197-31.566s-24.23 14.042-25.197 31.566c-.144 2.609-2.898 4.2-5.23 3.022-15.601-7.881-30.867-9.667-39.932 6.034-9.034 15.648.051 28.01 14.732 37.601 2.188 1.43 2.188 4.612 0 6.042-14.687 9.596-23.763 21.958-14.732 37.601 9.066 15.703 24.335 13.913 39.932 6.035 2.332-1.178 5.087.413 5.23 3.022.968 17.524 7.131 31.566 25.197 31.566 18.073 0 24.234-14.053 25.198-31.584.143-2.605 2.892-4.198 5.224-3.025 15.679 7.887 30.861 9.71 39.938-6.014 9.034-15.647-.051-28.009-14.731-37.6z" fill="#e6f8fc"/><path d="m176.965 40.622c-9.035 15.648.051 28.01 14.731 37.601 2.189 1.43 2.189 4.612 0 6.042-14.687 9.596-23.763 21.958-14.731 37.601 9.065 15.703 24.335 13.913 39.932 6.035 2.332-1.178 5.087.413 5.23 3.022.968 17.524 7.131 31.566 25.197 31.566 18.073 0 24.234-14.053 25.199-31.584.096-1.744 1.36-3.029 2.884-3.34-13.365-8.343-12.082-20.673-10.063-27.402.728-2.427-.82-4.955-3.327-5.326-24.471-3.617-28.519-22.79-29.163-30.228-.147-1.705-1.319-3.142-2.963-3.617-18.712-5.413-12.995-26.405-12.995-26.405-15.601-7.88-30.867-9.666-39.931 6.035z" fill="#b8e9fa"/><ellipse cx="247.324" cy="81.244" fill="#feac00" rx="24.417" ry="24.417" transform="matrix(.811 -.585 .585 .811 -.82 159.948)"/><path d="m222.907 81.244c0 13.485 10.932 24.417 24.417 24.417 7.127 0 13.54-3.056 18.004-7.926-.444-1.469-1.662-2.653-3.312-2.897-24.471-3.617-28.519-22.79-29.163-30.228-.075-.866-.416-1.66-.947-2.297-5.49 4.477-8.999 11.293-8.999 18.931z" fill="#ff951f"/><path d="m244.118 77.474c0 3.245-2.631 5.876-5.876 5.876s-5.876-2.631-5.876-5.876 2.631-5.876 5.876-5.876c3.245.001 5.876 2.631 5.876 5.876z" fill="#ff951f"/><path d="m254.708 69.741c0 2.039-1.653 3.692-3.692 3.692s-3.692-1.653-3.692-3.692 1.653-3.692 3.692-3.692 3.692 1.653 3.692 3.692z" fill="#ff951f"/><circle cx="246.433" cy="88.332" fill="#ff951f" r="9.567"/><path d="m432.862 187.982c-1.532-1.001-1.532-3.228 0-4.229 10.279-6.716 16.632-15.369 10.311-26.318-6.345-10.991-17.032-9.738-27.949-4.224-1.632.825-3.56-.289-3.661-2.115-.677-12.266-4.991-22.094-17.636-22.094s-16.959 9.828-17.636 22.094c-.101 1.826-2.029 2.94-3.661 2.115-10.92-5.516-21.605-6.766-27.949 4.223-6.323 10.952.036 19.605 10.311 26.318 1.532 1.001 1.532 3.228 0 4.229-10.28 6.717-16.633 15.369-10.311 26.318 6.345 10.991 17.032 9.738 27.949 4.224 1.632-.824 3.56.289 3.661 2.115.677 12.266 4.991 22.094 17.636 22.094 12.65 0 16.962-9.836 17.637-22.106.1-1.824 2.024-2.938 3.656-2.117 10.974 5.52 21.6 6.796 27.953-4.209 6.323-10.952-.037-19.605-10.311-26.318z" fill="#e6f8fc"/><path d="m344.68 157.435c-6.324 10.952.036 19.605 10.311 26.318 1.532 1.001 1.532 3.228 0 4.229-10.28 6.717-16.632 15.369-10.311 26.318 6.345 10.991 17.032 9.738 27.949 4.224 1.632-.825 3.56.289 3.661 2.115.677 12.266 4.991 22.094 17.636 22.094 12.649 0 16.962-9.836 17.637-22.106.067-1.221.952-2.12 2.019-2.337-9.355-5.84-8.456-14.469-7.043-19.18.51-1.699-.574-3.468-2.329-3.728-17.128-2.532-19.961-15.951-20.411-21.157-.103-1.193-.923-2.199-2.074-2.532-13.097-3.788-9.096-18.481-9.096-18.481-10.92-5.517-21.605-6.767-27.949 4.223z" fill="#b8e9fa"/><ellipse cx="393.926" cy="185.867" fill="#feac00" rx="17.09" ry="17.09" transform="matrix(.383 -.924 .924 .383 71.458 478.679)"/><path d="m376.836 185.867c0 9.438 7.652 17.09 17.09 17.09 4.989 0 9.477-2.139 12.602-5.548-.311-1.028-1.163-1.857-2.318-2.028-17.128-2.532-19.961-15.951-20.411-21.157-.052-.606-.291-1.162-.663-1.608-3.844 3.134-6.3 7.905-6.3 13.251z" fill="#ff951f"/><circle cx="387.569" cy="183.229" fill="#ff951f" r="4.113"/><path d="m399.094 177.816c0 1.427-1.157 2.584-2.584 2.584s-2.584-1.157-2.584-2.584 1.157-2.584 2.584-2.584 2.584 1.156 2.584 2.584z" fill="#ff951f"/><circle cx="393.302" cy="190.828" fill="#ff951f" r="6.696"/><ellipse cx="247.324" cy="405.166" fill="#603f42" rx="17.7" ry="17.7" transform="matrix(.924 -.383 .383 .924 -136.224 125.488)"/><ellipse cx="225.866" cy="420.106" fill="#603f42" rx="9.607" ry="9.607" transform="matrix(.23 -.973 .973 .23 -234.895 543.41)"/><circle cx="206.652" cy="444.265" fill="#603f42" r="9.607"/><ellipse cx="263.866" cy="453.873" fill="#603f42" rx="9.607" ry="9.607" transform="matrix(.23 -.973 .973 .23 -238.489 606.402)"/><path d="m163.689 250.729c-1.593-1.041-1.593-3.357 0-4.398 10.689-6.984 17.296-15.982 10.722-27.368-6.598-11.429-17.712-10.127-29.064-4.392-1.697.857-3.702-.301-3.807-2.199-.704-12.755-5.191-22.975-18.34-22.975-13.15 0-17.636 10.22-18.34 22.975-.105 1.899-2.109 3.057-3.807 2.199-11.355-5.736-22.467-7.036-29.064 4.392-6.576 11.389.037 20.387 10.722 27.368 1.593 1.041 1.593 3.357 0 4.398-10.69 6.985-17.296 15.982-10.722 27.368 6.598 11.43 17.712 10.127 29.064 4.392 1.698-.857 3.702.301 3.807 2.199.704 12.755 5.19 22.975 18.34 22.975 13.154 0 17.639-10.228 18.341-22.988.104-1.896 2.105-3.055 3.802-2.202 11.412 5.74 22.462 7.067 29.069-4.377 6.575-11.388-.038-20.386-10.723-27.367z" fill="#e6f8fc"/><path d="m71.989 218.963c-6.576 11.389.037 20.387 10.722 27.368 1.593 1.041 1.593 3.357 0 4.398-10.69 6.985-17.296 15.982-10.722 27.368 6.598 11.43 17.712 10.127 29.064 4.392 1.697-.857 3.702.301 3.807 2.199.704 12.755 5.191 22.975 18.34 22.975 13.154 0 17.639-10.228 18.341-22.988.07-1.269.99-2.204 2.099-2.431-9.728-6.073-8.794-15.047-7.324-19.945.53-1.767-.597-3.606-2.422-3.876-17.811-2.633-20.757-16.588-21.226-22.001-.107-1.241-.96-2.287-2.156-2.633-13.619-3.94-9.459-19.219-9.459-19.219-11.355-5.735-22.466-7.035-29.064 4.393z" fill="#b8e9fa"/><ellipse cx="123.2" cy="248.53" fill="#feac00" rx="17.772" ry="17.772" transform="matrix(.526 -.851 .851 .526 -152.982 222.67)"/><path d="m126.02 348.352c-3.119-11.449-11.127-21.471-22.785-26.741-2.96-1.338-5.995-2.291-9.049-2.892 4.468 3.7 7.316 9.288 7.316 15.543 0 11.14-9.031 20.171-20.17 20.171-1.175 0-2.319-.121-3.438-.314 2.526 1.967 5.315 3.677 8.362 5.054 11.657 5.27 24.471 4.662 35.127-.561 3.782-1.854 5.745-6.195 4.637-10.26z" fill="#60b550"/><path d="m105.428 248.53c0 9.815 7.957 17.772 17.772 17.772 5.188 0 9.855-2.224 13.104-5.769-.323-1.069-1.209-1.931-2.41-2.109-17.811-2.633-20.757-16.588-21.226-22.001-.054-.63-.303-1.209-.689-1.672-3.997 3.258-6.551 8.22-6.551 13.779z" fill="#ff951f"/><path d="m120.866 245.786c0 2.362-1.915 4.277-4.277 4.277s-4.276-1.915-4.276-4.277 1.915-4.277 4.276-4.277c2.363 0 4.277 1.915 4.277 4.277z" fill="#ff951f"/><circle cx="125.887" cy="240.157" fill="#ff951f" r="2.687"/><path d="m129.515 253.689c0 3.846-3.117 6.963-6.963 6.963s-6.963-3.117-6.963-6.963 3.118-6.963 6.963-6.963c3.845-.001 6.963 3.117 6.963 6.963z" fill="#ff951f"/><g fill="#60b550"><path d="m247.016 257.342c-3.119-11.449-11.127-21.471-22.784-26.741-2.289-1.035-4.623-1.833-6.976-2.424 3.142 3.885 5.027 8.829 5.027 14.214 0 11.898-9.186 21.643-20.85 22.549 1.823 1.208 3.761 2.292 5.819 3.222 11.658 5.27 24.471 4.662 35.127-.561 3.783-1.853 5.745-6.195 4.637-10.259z"/><path d="m279.333 203.432c0-4.046 1.285-7.785 3.453-10.856-1.913.488-3.811 1.143-5.673 1.985-9.668 4.37-16.309 12.682-18.896 22.177-.919 3.371.709 6.971 3.846 8.508 8.837 4.331 19.464 4.836 29.132.465 2.144-.969 4.13-2.142 5.966-3.469-9.933-.54-17.828-8.741-17.828-18.81z"/><path d="m262.6 296.003c0-2.453.694-4.739 1.877-6.696-1.604.309-3.198.802-4.755 1.491-6.241 2.762-10.554 8.075-12.266 14.169-.608 2.164.421 4.488 2.432 5.492 5.663 2.83 12.495 3.208 18.735.446 1.431-.633 2.755-1.406 3.975-2.285-5.729-1.348-9.998-6.478-9.998-12.617z"/><path d="m408.327 288.9c0-4.854 1.934-9.251 5.061-12.485-2.255.502-4.494 1.23-6.682 2.219-9.668 4.371-16.31 12.682-18.896 22.177-.919 3.371.708 6.971 3.846 8.508 8.837 4.331 19.464 4.836 29.132.465 1.852-.837 3.589-1.822 5.211-2.928-9.785-.162-17.672-8.132-17.672-17.956z"/><path d="m381.435 260.194c-1.427-7.937-6.213-15.213-13.751-19.548-1.424-.819-2.889-1.5-4.381-2.047 1.802 2.538 2.871 5.632 2.871 8.981 0 8.587-6.961 15.548-15.548 15.548-.057 0-.112-.008-.169-.009.979.749 2.01 1.448 3.107 2.079 7.538 4.335 16.234 4.811 23.812 2.053 2.908-1.058 4.607-4.012 4.059-7.057z"/><path d="m385.571 348.352c-3.119-11.449-11.127-21.471-22.785-26.741-1.96-.886-3.953-1.593-5.962-2.152 2.676 3.605 4.26 8.069 4.26 12.903 0 11.969-9.703 21.671-21.671 21.671-.747 0-1.485-.038-2.213-.112 2.59 2.049 5.46 3.828 8.606 5.25 11.657 5.27 24.471 4.662 35.126-.561 3.784-1.852 5.746-6.193 4.639-10.258z"/></g></g></svg>