<svg id="Layer_1" enable-background="new 0 0 512 512" height="512" viewBox="0 0 512 512" width="512" xmlns="http://www.w3.org/2000/svg"><g><path d="m256 22c-62.872 0-120.203 23.692-163.578 62.622l-74.941 238.557c25.395 108.232 122.542 188.821 238.519 188.821 135.31 0 245-109.69 245-245s-109.69-245-245-245z" fill="#009cf2"/><g><path d="m274.201 154.077c1.913 5.234 7.435 8.439 13.138 7.622 6.898-.989 13.963-1.111 21.099-.302l.59.067.496-.327c14.655-9.681 31.722-14.798 49.355-14.798 17.312 0 33.844 5.05 47.903 13.94.888-5.061 1.378-10.26 1.378-15.576 0-49.46-40.095-89.555-89.555-89.555-34.345 0-64.158 19.342-79.182 47.719 15.316 13.704 27.441 31.135 34.778 51.21z" fill="#ffe400"/></g><g><path d="m288.604 121.536c-4.749-22.991-.22-45.74 11.024-64.37-26.141 5.644-48.03 22.704-60.206 45.7 15.316 13.706 27.441 31.136 34.778 51.211 1.913 5.234 7.435 8.439 13.138 7.622 6.764-.97 13.689-1.1 20.683-.343-9.414-11.07-16.269-24.584-19.417-39.82z" fill="#fdca00"/></g><path d="m287.106 160.078c-4.88.699-9.676-1.933-11.368-6.563-18.132-49.61-65.718-85.032-121.605-85.032-21.788 0-42.307 5.402-60.324 14.909-50.779 44.889-82.809 110.503-82.809 183.608 0 19.974 2.408 39.383 6.918 57.971 6.574 1.599 13.425 2.459 20.454 2.459h24.467c2.255-19.563 17.479-35.797 37.305-38.83 2.882-.44 5.286-2.385 6.273-5.074 9.983-27.198 36.165-45.471 65.149-45.471 11.31 0 22.184 2.793 31.841 7.803 9.001-21.516 29.859-35.411 53.175-35.411 2.747 0 5.513.197 8.22.585 4.28.615 8.434-1.799 9.873-5.739 6.983-19.105 20.145-34.797 36.705-45.168-4.009-.587-8.108-.9-12.281-.9-4.072 0-8.076.292-11.993.853z" fill="#b8e9fa"/><g><path d="m318.605 33.822c-4.519 0-8.183-3.664-8.183-8.183v-17.456c0-4.519 3.664-8.183 8.183-8.183s8.183 3.664 8.183 8.183v17.457c0 4.518-3.663 8.182-8.183 8.182z" fill="#ffe400"/></g><g><path d="m259.081 49.775c-2.828 0-5.578-1.468-7.094-4.093l-8.728-15.118c-2.26-3.914-.919-8.918 2.995-11.178 3.913-2.259 8.917-.919 11.178 2.995l8.728 15.118c2.26 3.914.919 8.918-2.995 11.178-1.288.744-2.695 1.098-4.084 1.098z" fill="#ffe400"/></g><g><path d="m455.124 152.884h-17.457c-4.519 0-8.183-3.664-8.183-8.183s3.664-8.183 8.183-8.183h17.457c4.519 0 8.183 3.664 8.183 8.183-.001 4.52-3.664 8.183-8.183 8.183z" fill="#ffe400"/></g><g><path d="m421.724 93.355c-2.828 0-5.578-1.467-7.094-4.093-2.26-3.914-.919-8.918 2.995-11.178l15.118-8.728c3.914-2.259 8.919-.919 11.178 2.995 2.26 3.914.919 8.918-2.995 11.178l-15.118 8.728c-1.289.744-2.696 1.098-4.084 1.098z" fill="#ffe400"/></g><g><path d="m378.129 49.775c-1.388 0-2.795-.354-4.084-1.098-3.914-2.259-5.255-7.264-2.995-11.178l8.728-15.118c2.259-3.914 7.264-5.255 11.178-2.995s5.255 7.264 2.995 11.178l-8.728 15.118c-1.516 2.625-4.266 4.093-7.094 4.093z" fill="#ffe400"/></g><g><path d="m158.99 440.292c-.702 0-1.414-.091-2.123-.281-4.365-1.17-6.955-5.657-5.786-10.022l4.423-16.504c1.17-4.366 5.658-6.955 10.022-5.786 4.365 1.17 6.955 5.657 5.786 10.022l-4.423 16.504c-.98 3.655-4.287 6.067-7.899 6.067z" fill="#b8e9fa"/></g><path d="m149.693 466.785c-4.363-1.169-8.852 1.42-10.022 5.786l-2.356 8.794c4.868 2.701 9.839 5.24 14.903 7.612l3.261-12.171c1.17-4.364-1.421-8.851-5.786-10.021z" fill="#b8e9fa"/><g><path d="m259.378 440.292c-.702 0-1.414-.091-2.123-.281-4.365-1.17-6.955-5.657-5.786-10.022l4.423-16.504c1.17-4.366 5.66-6.955 10.022-5.786 4.365 1.17 6.955 5.657 5.786 10.022l-4.423 16.504c-.98 3.655-4.287 6.067-7.899 6.067z" fill="#b8e9fa"/></g><g><path d="m243.545 499.379c-.702 0-1.414-.091-2.123-.281-4.365-1.17-6.955-5.657-5.786-10.022l4.423-16.505c1.17-4.366 5.661-6.955 10.022-5.786 4.365 1.17 6.955 5.657 5.786 10.022l-4.423 16.505c-.979 3.655-4.286 6.067-7.899 6.067z" fill="#b8e9fa"/></g><g><path d="m108.797 440.292c-.702 0-1.413-.091-2.123-.281-4.365-1.17-6.956-5.656-5.786-10.022l4.422-16.504c1.17-4.366 5.659-6.955 10.022-5.786 4.365 1.17 6.956 5.656 5.787 10.022l-4.422 16.504c-.981 3.655-4.288 6.067-7.9 6.067z" fill="#b8e9fa"/></g><g><path d="m209.184 440.292c-.702 0-1.413-.091-2.123-.281-4.365-1.17-6.956-5.656-5.786-10.022l4.422-16.504c1.17-4.366 5.658-6.955 10.022-5.786 4.365 1.17 6.956 5.656 5.786 10.022l-4.422 16.504c-.98 3.655-4.286 6.067-7.899 6.067z" fill="#b8e9fa"/></g><g><path d="m193.352 499.379c-.702 0-1.414-.091-2.124-.281-4.365-1.17-6.955-5.657-5.786-10.022l4.423-16.505c1.17-4.366 5.659-6.955 10.022-5.786 4.365 1.17 6.955 5.657 5.786 10.022l-4.423 16.505c-.979 3.655-4.286 6.067-7.898 6.067z" fill="#b8e9fa"/></g><g><path d="m309.571 440.292c-.702 0-1.414-.091-2.124-.281-4.365-1.17-6.955-5.657-5.786-10.022l4.423-16.504c1.17-4.366 5.659-6.955 10.022-5.786 4.365 1.17 6.955 5.657 5.786 10.022l-4.423 16.504c-.978 3.655-4.285 6.067-7.898 6.067z" fill="#b8e9fa"/></g><g><path d="m293.739 499.379c-.702 0-1.414-.091-2.124-.281-4.365-1.17-6.955-5.657-5.786-10.022l4.423-16.505c1.17-4.366 5.66-6.955 10.022-5.786 4.365 1.17 6.955 5.657 5.786 10.022l-4.423 16.505c-.979 3.655-4.285 6.067-7.898 6.067z" fill="#b8e9fa"/></g><g><path d="m375.598 381.205c-.702 0-1.413-.091-2.123-.281-4.365-1.17-6.956-5.656-5.786-10.022l4.422-16.504c1.17-4.366 5.661-6.955 10.022-5.786 4.365 1.17 6.956 5.656 5.786 10.022l-4.422 16.504c-.98 3.655-4.287 6.067-7.899 6.067z" fill="#b8e9fa"/></g><g><path d="m359.765 440.292c-.702 0-1.414-.091-2.124-.281-4.365-1.17-6.955-5.657-5.786-10.022l4.423-16.504c1.17-4.366 5.658-6.955 10.022-5.786 4.365 1.17 6.955 5.657 5.786 10.022l-4.423 16.504c-.979 3.655-4.285 6.067-7.898 6.067z" fill="#b8e9fa"/></g><g><path d="m343.933 499.379c-.702 0-1.414-.091-2.123-.281-4.365-1.17-6.955-5.657-5.786-10.022l4.423-16.505c1.17-4.366 5.659-6.955 10.022-5.786 4.365 1.17 6.955 5.657 5.786 10.022l-4.423 16.505c-.98 3.655-4.286 6.067-7.899 6.067z" fill="#b8e9fa"/></g><g><path d="m425.792 381.205c-.702 0-1.413-.091-2.123-.281-4.365-1.17-6.956-5.656-5.786-10.022l4.422-16.504c1.17-4.366 5.66-6.955 10.022-5.786 4.365 1.17 6.956 5.656 5.786 10.022l-4.422 16.504c-.98 3.655-4.287 6.067-7.899 6.067z" fill="#b8e9fa"/></g><g><path d="m409.959 440.292c-.702 0-1.414-.091-2.124-.281-4.365-1.17-6.955-5.657-5.786-10.022l4.423-16.504c1.17-4.366 5.661-6.955 10.022-5.786 4.365 1.17 6.955 5.657 5.786 10.022l-4.423 16.504c-.979 3.655-4.285 6.067-7.898 6.067z" fill="#b8e9fa"/></g><path d="m450.698 209.438c-2.75-.42-5.066-2.243-6.025-4.855-12.828-34.947-46.399-59.882-85.794-59.882-39.437 0-73.017 24.996-85.812 60.004-1.194 3.267-4.579 5.125-8.022 4.631-2.764-.396-5.589-.602-8.463-.602-24.618 0-45.718 14.998-54.704 36.348 15.828 7.724 28.567 21.349 34.849 38.536 1.229 3.364 4.762 5.428 8.418 4.905 2.084-.299 4.214-.451 6.328-.451 17.98 0 34.063 10.733 40.972 27.344 1.058 2.547 3.273 4.335 5.923 4.785 5.673.962 10.681 3.556 14.628 7.227h127.57c32.746 0 60.14-26.062 60.432-58.808.266-29.939-21.646-54.799-50.3-59.182z" fill="#8adaf9"/><g><path d="m280.586 270.226c1.949-.831 3.282-2.629 3.619-4.72 3.012-18.739 16.944-34.746 36.554-39.437 2.281-.546 4.563-.919 6.831-1.129 2.827-.262 5.161-2.379 5.488-5.2 3.508-30.216 25.415-56.433 56.718-63.922 3.212-.769 6.425-1.305 9.624-1.642-12.217-6.06-25.978-9.475-40.54-9.475-39.437 0-73.017 24.996-85.811 60.004-1.194 3.267-4.579 5.125-8.023 4.631-2.764-.396-5.589-.602-8.462-.602-24.618 0-45.718 14.998-54.704 36.348 15.828 7.724 28.567 21.349 34.849 38.536 1.229 3.364 4.762 5.428 8.418 4.905 2.084-.299 4.213-.451 6.328-.451 3.91 0 7.729.509 11.385 1.474 2.814-8.509 9.16-15.669 17.726-19.32z" fill="#5ccbf7"/></g><g><path d="m99.843 286.634c2.148-.329 3.957-1.753 4.706-3.793 10.02-27.299 36.244-46.776 67.017-46.776 30.806 0 57.035 19.526 67.03 46.871.933 2.553 3.576 4.004 6.267 3.618 2.159-.31 4.366-.471 6.61-.471 19.298 0 35.832 11.797 42.808 28.569.779 1.872 2.421 3.249 4.419 3.588 14.44 2.45 25.425 15.045 25.359 30.198-.074 16.897-14.248 30.362-31.146 30.362h-185.155c-25.579 0-46.978-20.358-47.205-45.937-.208-23.388 16.908-42.806 39.29-46.229z" fill="#e6f8fc"/></g><path d="m44.912 313.188c-5.824-22.187 5.52-44.8 25.76-53.849 2.802-1.253 4.688-3.891 5.122-6.929 3.888-27.222 23.664-50.763 51.953-58.057 3.291-.848 6.586-1.446 9.868-1.808 4.089-.451 7.415-3.578 7.818-7.672 4.316-43.861 35.385-82.395 80.542-94.038.207-.053.415-.095.623-.147-20.677-14.006-45.605-22.205-72.465-22.205-21.788 0-42.307 5.402-60.324 14.909-50.779 44.889-82.809 110.503-82.809 183.608 0 19.974 2.408 39.383 6.918 57.971 6.574 1.599 13.425 2.459 20.454 2.459h13.101c-2.926-4.217-5.183-8.993-6.561-14.242z" fill="#8adaf9"/><path d="m111.005 332.863c-.208-23.388 16.908-42.806 39.291-46.23 2.148-.329 3.957-1.753 4.706-3.793 7.128-19.418 22.457-34.87 41.788-42.178-7.842-2.966-16.34-4.598-25.223-4.598-30.773 0-56.996 19.477-67.017 46.776-.748 2.04-2.558 3.464-4.706 3.793-22.382 3.423-39.499 22.842-39.291 46.23.228 25.578 21.626 45.937 47.205 45.937h50.452c-25.58 0-46.978-20.358-47.205-45.937z" fill="#b8e9fa"/><g fill="#fff442"><ellipse cx="334.164" cy="112.112" rx="20.438" ry="20.438" transform="matrix(.924 -.383 .383 .924 -17.467 136.413)"/><ellipse cx="364.821" cy="90.01" rx="7.897" ry="7.897" transform="matrix(.23 -.973 .973 .23 193.4 424.391)"/></g></g></svg>