<svg id="Layer_1" enable-background="new 0 0 512 512" height="512" viewBox="0 0 512 512" width="512" xmlns="http://www.w3.org/2000/svg"><g><path d="m256 22c-135.31 0-245 109.69-245 245 0 130.312 101.742 236.844 230.12 244.537l26.103.197c130.099-5.868 233.777-113.187 233.777-244.734 0-135.31-109.69-245-245-245z" fill="#8080c1"/><path d="m283.643 472.403h-17.526v28.769h17.526c7.944 0 14.385-6.44 14.385-14.385s-6.441-14.384-14.385-14.384z" fill="#515181"/><path d="m276.283 486.788c0-6.73 4.629-12.365 10.872-13.935-1.126-.283-2.298-.45-3.513-.45h-17.526v28.769h17.526c1.214 0 2.387-.167 3.513-.45-6.243-1.57-10.872-7.204-10.872-13.934z" fill="#41416b"/><path d="m241.12 367.549v143.988c4.924.295 9.882.463 14.88.463 3.763 0 7.502-.098 11.224-.266v-144.746c-3.754-.622-7.606-.956-11.536-.956-4.996 0-9.869.524-14.568 1.517z" fill="#e6f8fc"/><path d="m255.687 366.032c-4.996 0-9.868.523-14.567 1.517v49.454c0-5.993 4.718-10.873 10.702-11.199 1.279-.07 2.568-.105 3.865-.105.163 0 .327.001.49.002 6.127.043 11.046 5.083 11.046 11.21v-49.922c-3.754-.623-7.605-.957-11.536-.957z" fill="#b8e9fa"/><path d="m492.265 377.327c-16.81-113.105-116.971-200.008-238.02-200.008-121.456 0-221.868 87.494-238.169 201.158-.6 4.183 3.591 7.333 7.524 5.789 3.286-1.29 6.821-2.055 10.499-2.19 8.648-.317 16.572 2.754 22.559 7.988.506.442 1.06.789 1.632 1.091 11.033-119.063 94.498-211.623 195.845-211.623 101.614 0 185.25 93.05 195.928 212.568 1.728-.15 3.422-.818 4.815-2.036 5.987-5.234 13.912-8.305 22.561-7.987 2.714.1 5.35.544 7.865 1.288 3.825 1.132 7.547-2.092 6.961-6.038z" fill="#ffe400"/><g fill="#fdca00"><path d="m58.29 391.155c3.272-35.314 12.917-68.296 27.51-97.224-1.679-1.522-3.792-2.55-6.087-2.979-19.269-3.605-14.978-23.793-14.977-23.798-25.432 31.593-42.691 69.699-48.661 111.323-.6 4.183 3.591 7.333 7.524 5.789 3.285-1.29 6.821-2.055 10.499-2.19 8.648-.317 16.573 2.754 22.56 7.988.505.442 1.06.788 1.632 1.091z"/><path d="m450.063 392.1c1.728-.15 3.422-.818 4.815-2.036 5.987-5.234 13.912-8.305 22.56-7.987 2.714.1 5.35.544 7.865 1.288 3.826 1.132 7.548-2.091 6.961-6.038-5.596-37.652-20.439-72.392-42.203-101.997-2.14 17.769-13.979 20.546-20.891 20.612-1.789.017-3.529.459-5.109 1.236 13.823 28.401 22.932 60.564 26.002 94.922z"/></g><path d="m254.135 177.319c-101.959 0-185.628 93.733-195.845 213.836 2.901 1.556 6.315 1.219 9.018-.876 6.649-5.154 14.992-8.225 24.057-8.225 8.947 0 17.194 2.989 23.801 8.022.953.726 2.031 1.198 3.146 1.468 7.685-119.292 65.57-212.012 135.852-212.012 70.318 0 128.228 92.815 135.865 212.195 2.123.251 4.33-.288 6.12-1.651 6.607-5.032 14.854-8.022 23.801-8.022 9.064 0 17.408 3.071 24.057 8.225 1.831 1.419 3.888 2.067 6.055 1.82-9.865-120.544-93.708-214.78-195.927-214.78z" fill="#ff4155"/><g fill="#e80054"><path d="m67.308 390.279c6.648-5.154 14.992-8.225 24.057-8.225 8.947 0 17.194 2.99 23.801 8.022.954.726 2.031 1.198 3.146 1.468 1.813-28.151 6.425-54.819 13.333-79.141-2.15-.948-4.562-1.256-6.945-.782-22.811 4.538-32.583-7.035-36.41-14.458-.772-1.499-1.863-2.758-3.152-3.767-14.406 29.132-23.831 62.294-26.848 97.759 2.901 1.557 6.316 1.219 9.018-.876z"/><path d="m444.008 390.279c1.831 1.419 3.889 2.066 6.055 1.82-2.817-34.427-11.678-66.702-25.268-95.255-1.582.651-3.03 1.629-4.219 2.899-14.088 15.051-30.291 13.999-38.707 12.03-1.788-.418-3.626-.412-5.374-.02 7.026 24.55 11.713 51.503 13.534 79.974 2.123.251 4.33-.288 6.12-1.651 6.607-5.032 14.854-8.022 23.801-8.022 9.065 0 17.409 3.071 24.058 8.225z"/></g><path d="m254.164 177.319c-70.709 0-128.736 93.886-135.852 214.225 2.518.667 5.127.139 7.231-1.58 9.054-7.396 20.615-11.838 33.219-11.838 13.082 0 25.045 4.782 34.243 12.69.859.738 1.748 1.245 2.757 1.584 4.036-120.326 28.683-212.868 58.402-212.868 29.754 0 54.351 92.789 58.342 213.323 2.069.084 4.167-.582 5.863-2.04 9.198-7.908 21.161-12.69 34.243-12.69 12.604 0 24.165 4.442 33.219 11.838 1.274 1.041 2.644 1.602 4.198 1.764-7.054-120.451-65.11-214.408-135.865-214.408z" fill="#ffe400"/><g fill="#fdca00"><path d="m125.543 389.963c9.054-7.396 20.615-11.838 33.219-11.838 13.082 0 25.045 4.782 34.243 12.69.859.738 1.748 1.245 2.757 1.584.797-23.778 2.403-46.464 4.69-67.572-1.7-.133-3.428.098-5.064.705-33.958 12.61-51.997-1.237-59.391-9.887-1.318-1.542-2.977-2.707-4.801-3.424-6.759 24.413-11.218 51.142-12.885 79.323 2.519.666 5.128.138 7.232-1.581z"/><path d="m307.799 324.749c2.302 21.265 3.914 44.134 4.708 68.106 2.069.084 4.167-.582 5.862-2.04 9.199-7.908 21.161-12.69 34.243-12.69 12.604 0 24.165 4.442 33.219 11.838 1.274 1.041 2.644 1.602 4.198 1.764-1.667-28.464-6.185-55.446-13.043-80.06-2.024.365-3.95 1.232-5.554 2.6-24.493 20.894-49.04 15.025-59.006 11.236-1.491-.568-3.065-.814-4.627-.754z"/></g><g><path d="m204.747 390.174c12.787-13.502 30.876-21.929 50.94-21.929s38.154 8.427 50.94 21.929c1.62 1.711 3.699 2.611 5.879 2.68-3.761-121.612-28.406-215.536-58.342-215.536-29.899 0-54.593 93.69-58.402 215.081 3.077 1.065 6.606.287 8.985-2.225z" fill="#ff4155"/></g><path d="m306.627 390.174c1.62 1.711 3.699 2.611 5.879 2.68-.741-23.947-2.294-46.812-4.535-68.106-1.72.04-3.428.445-4.995 1.236-46.75 23.581-84.798 7.375-97.67.293-1.565-.861-3.282-1.346-5.023-1.457-2.228 21.138-3.776 43.824-4.521 67.579 3.077 1.065 6.605.287 8.984-2.225 12.787-13.502 30.877-21.929 50.941-21.929s38.154 8.427 50.94 21.929z" fill="#e80054"/><g fill="#b8e9fa"><path d="m46.651 157.426-4.544-22.204c-.514-2.51-3.672-3.356-5.372-1.439l-15.037 16.957c-7.123 8.032-3.302 20.752 7.067 23.53 10.37 2.779 20.038-6.326 17.886-16.844z"/><path d="m64.434 91.059-4.544-22.204c-.514-2.51-3.672-3.356-5.372-1.439l-15.037 16.957c-7.123 8.032-3.302 20.752 7.067 23.53 10.37 2.779 20.038-6.326 17.886-16.844z"/><path d="m82.217 24.692-4.544-22.204c-.514-2.51-3.672-3.356-5.372-1.439l-15.037 16.957c-7.122 8.032-3.302 20.752 7.067 23.53 10.37 2.779 20.038-6.327 17.886-16.844z"/><path d="m129.343 157.426-4.544-22.204c-.513-2.51-3.672-3.356-5.372-1.439l-15.037 16.957c-7.122 8.032-3.302 20.752 7.067 23.53 10.37 2.779 20.038-6.326 17.886-16.844z"/><path d="m147.126 91.059-4.544-22.204c-.513-2.51-3.672-3.356-5.372-1.439l-15.037 16.957c-7.122 8.032-3.302 20.752 7.067 23.53 10.37 2.779 20.038-6.326 17.886-16.844z"/><path d="m164.909 24.692-4.544-22.204c-.514-2.51-3.672-3.356-5.372-1.439l-15.037 16.957c-7.122 8.032-3.302 20.752 7.067 23.53 10.37 2.779 20.039-6.327 17.886-16.844z"/><path d="m229.819 91.059-4.544-22.204c-.514-2.51-3.672-3.356-5.372-1.439l-15.037 16.957c-7.123 8.032-3.302 20.752 7.067 23.53 10.37 2.779 20.038-6.326 17.886-16.844z"/><path d="m247.602 24.692-4.544-22.204c-.514-2.51-3.672-3.356-5.372-1.439l-15.037 16.957c-7.122 8.032-3.302 20.752 7.067 23.53 10.37 2.779 20.038-6.327 17.886-16.844z"/><path d="m312.511 91.059-4.543-22.204c-.514-2.51-3.672-3.356-5.372-1.439l-15.037 16.957c-7.123 8.032-3.302 20.752 7.067 23.53 10.369 2.779 20.037-6.326 17.885-16.844z"/><path d="m330.294 24.692-4.544-22.204c-.514-2.51-3.672-3.356-5.372-1.439l-15.037 16.957c-7.123 8.032-3.302 20.752 7.067 23.53 10.37 2.779 20.038-6.327 17.886-16.844z"/><path d="m377.421 157.426-4.544-22.204c-.514-2.51-3.672-3.356-5.372-1.439l-15.037 16.957c-7.122 8.032-3.302 20.752 7.067 23.53 10.37 2.779 20.038-6.326 17.886-16.844z"/><path d="m395.204 91.059-4.544-22.204c-.514-2.51-3.672-3.356-5.372-1.439l-15.037 16.957c-7.122 8.032-3.302 20.752 7.067 23.53 10.37 2.779 20.038-6.326 17.886-16.844z"/><path d="m412.987 24.692-4.544-22.204c-.514-2.51-3.672-3.356-5.372-1.439l-15.037 16.957c-7.123 8.032-3.302 20.752 7.067 23.53 10.37 2.779 20.038-6.327 17.886-16.844z"/><path d="m460.113 157.426-4.544-22.204c-.514-2.51-3.672-3.356-5.372-1.439l-15.037 16.957c-7.122 8.032-3.302 20.752 7.067 23.53 10.37 2.779 20.038-6.326 17.886-16.844z"/><path d="m477.896 91.059-4.544-22.204c-.514-2.51-3.672-3.356-5.372-1.439l-15.037 16.957c-7.122 8.032-3.302 20.752 7.067 23.53 10.37 2.779 20.038-6.326 17.886-16.844z"/><path d="m495.679 24.692-4.544-22.204c-.514-2.51-3.672-3.356-5.372-1.439l-15.037 16.957c-7.123 8.032-3.302 20.752 7.067 23.53 10.37 2.779 20.038-6.327 17.886-16.844z"/></g><path d="m254.245 178.425c4.806 0 9.575.152 14.312.423v-36.905c0-7.944-6.44-14.385-14.385-14.385-7.944 0-14.385 6.44-14.385 14.385v36.914c4.785-.277 9.602-.432 14.458-.432z" fill="#515181"/><g><path d="m278.564 184.711h-48.786c-4.583 0-8.299-3.715-8.299-8.299s3.715-8.299 8.299-8.299h48.786c4.583 0 8.299 3.715 8.299 8.299s-3.715 8.299-8.299 8.299z" fill="#656599"/></g></g></svg>