<svg id="Layer_1" enable-background="new 0 0 519.25 519.25" height="512" viewBox="0 0 519.25 519.25" width="512" xmlns="http://www.w3.org/2000/svg"><g><path d="m423.192 79.826c-42.667-36.069-97.822-57.826-158.067-57.826-135.31 0-245 109.69-245 245s109.69 245 245 245 245-109.691 245-245c0-1.072-.027-2.138-.04-3.207z" fill="#41416b"/><path d="m160.535 226.086c2.96-.452 5.43-2.449 6.443-5.211 10.254-27.935 37.146-46.704 66.916-46.704 11.617 0 22.786 2.869 32.705 8.014 9.245-22.099 30.668-36.371 54.617-36.371 2.822 0 5.662.202 8.443.601 4.396.632 8.662-1.848 10.14-5.895 7.173-19.623 20.691-35.741 37.7-46.393-4.118-.603-8.328-.924-12.614-.924-4.183 0-8.295.3-12.318.877-5.012.718-9.938-1.986-11.677-6.741-18.623-50.956-67.499-87.339-124.901-87.339-57.342 0-106.206 36.292-124.878 87.16-1.395 3.801-4.767 6.455-8.769 7.067-41.707 6.379-73.601 42.563-73.214 86.144.424 47.662 40.297 85.598 87.961 85.598h25.13c2.316-20.094 17.953-36.768 38.316-39.883z" fill="#b8e9fa"/><path d="m112.541 180.371c-.387-43.581 31.507-79.764 73.214-86.144 4.002-.611 7.374-3.266 8.769-7.067 12.698-34.594 39.368-62.431 73.164-76.712-15.892-6.718-33.357-10.448-51.7-10.448-57.341 0-106.205 36.292-124.877 87.16-1.395 3.801-4.767 6.455-8.769 7.067-41.707 6.379-73.601 42.563-73.214 86.144.424 47.661 40.297 85.598 87.961 85.598h25.13c1.238-10.737 6.281-20.495 13.814-27.732-14.362-15.18-23.292-35.446-23.492-57.866z" fill="#8adaf9"/><path d="m286.747 435.258h-16.026l9.518-16.485c2.321-4.02.944-9.16-3.076-11.481-4.02-2.322-9.16-.943-11.481 3.076l-14.37 24.89h-23.344v-23.344l24.889-14.37c4.02-2.321 5.397-7.461 3.076-11.481s-7.461-5.397-11.481-3.076l-16.485 9.518v-16.026c0-4.641-3.763-8.405-8.405-8.405s-8.405 3.764-8.405 8.405v16.026l-16.484-9.517c-4.02-2.322-9.16-.944-11.481 3.076s-.944 9.16 3.076 11.481l24.889 14.369v23.345h-23.343l-14.37-24.89c-2.321-4.02-7.461-5.397-11.481-3.076-4.019 2.321-5.397 7.461-3.076 11.481l9.517 16.485h-16.026c-4.642 0-8.405 3.762-8.405 8.405 0 4.641 3.763 8.405 8.405 8.405h16.026l-9.517 16.484c-2.321 4.02-.943 9.16 3.076 11.481 1.324.764 2.769 1.127 4.195 1.127 2.904 0 5.73-1.507 7.286-4.203l14.369-24.889h23.344v23.344l-24.887 14.367c-4.02 2.321-5.397 7.461-3.076 11.481 1.557 2.697 4.382 4.204 7.286 4.204 1.426 0 2.871-.363 4.195-1.128l16.484-9.517v16.026c0 4.642 3.763 8.405 8.405 8.405s8.405-3.763 8.405-8.405v-16.026l16.485 9.517c1.324.764 2.769 1.128 4.195 1.128 2.904 0 5.729-1.508 7.286-4.204 2.321-4.02.944-9.16-3.076-11.481l-24.889-14.37v-23.343h23.344l14.37 24.889c1.557 2.697 4.382 4.203 7.286 4.203 1.426 0 2.871-.363 4.195-1.127 4.02-2.321 5.397-7.461 3.076-11.481l-9.517-16.484h16.025c4.642 0 8.405-3.763 8.405-8.405-.002-4.642-3.765-8.404-8.407-8.404z" fill="#b8e9fa"/><path d="m396.151 374.84c-2.321-4.02-7.461-5.397-11.481-3.076l-14.167 8.179v-16.358c0-4.642-3.763-8.405-8.405-8.405s-8.405 3.763-8.405 8.405v16.358l-14.167-8.179c-4.02-2.322-9.16-.944-11.481 3.076s-.944 9.16 3.076 11.481l14.167 8.179-14.167 8.179c-4.02 2.321-5.397 7.461-3.076 11.481 1.557 2.697 4.382 4.204 7.286 4.204 1.426 0 2.871-.363 4.194-1.128l14.167-8.179v16.359c0 4.642 3.763 8.405 8.405 8.405s8.405-3.763 8.405-8.405v-16.359l14.167 8.179c1.324.765 2.769 1.128 4.195 1.128 2.904 0 5.729-1.508 7.286-4.204 2.321-4.02.944-9.16-3.076-11.481l-14.167-8.179 14.167-8.179c4.021-2.321 5.398-7.462 3.077-11.481z" fill="#e6f8fc"/><path d="m127.148 359.382c-2.321-4.021-7.461-5.396-11.481-3.076l-5.499 3.175v-6.349c0-4.642-3.763-8.405-8.405-8.405s-8.405 3.762-8.405 8.405v6.349l-5.499-3.175c-4.02-2.321-9.16-.943-11.481 3.076-2.321 4.02-.944 9.16 3.076 11.481l5.499 3.175-5.499 3.175c-4.02 2.321-5.397 7.461-3.076 11.481 1.557 2.696 4.382 4.204 7.286 4.204 1.426 0 2.871-.363 4.195-1.128l5.499-3.174v6.349c0 4.642 3.763 8.405 8.405 8.405s8.405-3.762 8.405-8.405v-6.349l5.499 3.175c1.324.765 2.769 1.128 4.195 1.128 2.904 0 5.729-1.508 7.286-4.204 2.321-4.02.944-9.16-3.076-11.481l-5.499-3.175 5.499-3.175c4.019-2.322 5.397-7.462 3.076-11.482z" fill="#8adaf9"/><g fill="#b8e9fa"><path d="m470.716 351.084c2.904 0 5.729-1.507 7.286-4.203 2.321-4.02.944-9.16-3.076-11.481l-5.499-3.175 5.499-3.175c4.02-2.321 5.397-7.461 3.076-11.481s-7.461-5.397-11.481-3.076l-5.498 3.175v-6.349c0-4.642-3.763-8.405-8.405-8.405s-8.405 3.763-8.405 8.405v6.349l-5.499-3.175c-4.02-2.322-9.16-.944-11.481 3.076s-.944 9.16 3.076 11.481l5.499 3.175-5.499 3.175c-4.02 2.321-5.397 7.461-3.076 11.481 1.557 2.697 4.382 4.203 7.286 4.203 1.426 0 2.871-.363 4.194-1.127l5.499-3.175v6.35c0 4.641 3.763 8.405 8.405 8.405s8.405-3.763 8.405-8.405v-6.349l5.498 3.175c1.325.762 2.77 1.126 4.196 1.126z"/><path d="m333.131 461.764c-5.405 1.115-9.01 5.788-9.01 10.993 0 6.123 4.972 11.206 11.206 11.206 6.172 0 11.206-5.029 11.206-11.206.001-7.062-6.511-12.371-13.402-10.993z"/><path d="m440.161 394.953c-5.375 1.108-9.01 5.734-9.01 10.994 0 6.256 5.126 11.206 11.206 11.206 6.288 0 11.206-5.149 11.206-11.206 0-7.068-6.5-12.369-13.402-10.994z"/></g><path d="m103.96 443.842c-6.83-1.375-13.402 3.872-13.402 10.993 0 6.139 5.009 11.206 11.206 11.206 6.027 0 11.206-4.878 11.206-11.206-.001-5.254-3.649-9.888-9.01-10.993z" fill="#8adaf9"/><path d="m372.319 58.926c6.216 0 11.206-5.044 11.206-11.206 0-5.446-3.944-10.02-9.01-10.982-7.068-1.426-13.403 4.089-13.403 10.982.001 6.141 5.013 11.206 11.207 11.206z" fill="#b8e9fa"/><path d="m58.48 303.691c-6.78-1.368-13.391 3.821-13.391 10.993 0 6.324 5.18 11.206 11.206 11.206 6.117 0 11.206-4.992 11.206-11.206 0-5.344-3.747-9.923-9.021-10.993z" fill="#b8e9fa"/><path d="m421.527 78.419c-38.431 1.922-70.755 26.959-83.379 61.497-1.227 3.356-4.703 5.264-8.24 4.757-2.839-.407-5.741-.619-8.692-.619-25.286 0-46.958 15.405-56.188 37.334 16.257 7.933 29.341 21.927 35.794 39.581 1.263 3.455 4.891 5.575 8.647 5.038 2.141-.307 4.328-.463 6.499-.463 18.468 0 34.986 11.024 42.083 28.086 1.087 2.616 3.362 4.453 6.084 4.915 5.827.989 10.97 3.652 15.024 7.423h130.953c-.312-75.431-34.705-142.814-88.585-187.549z" fill="#8adaf9"/><g><path d="m352.585 220.279c1.862-.934 3.061-2.779 3.264-4.851 1.815-18.569 14.511-35.122 33.466-40.919 2.205-.674 4.421-1.179 6.634-1.523 2.758-.429 4.919-2.649 5.068-5.436 1.506-28.036 19.14-53.598 46.333-64.275-7.996-8.893-16.617-17.213-25.823-24.857-38.431 1.922-70.755 26.959-83.379 61.497-1.227 3.356-4.703 5.264-8.24 4.757-2.839-.407-5.74-.619-8.692-.619-25.286 0-46.958 15.405-56.188 37.334 16.257 7.933 29.341 21.927 35.793 39.581 1.263 3.455 4.891 5.575 8.647 5.038 2.141-.307 4.328-.463 6.499-.463 8.606 0 16.787 2.396 23.79 6.679 2.99-5.014 7.38-9.211 12.828-11.943z" fill="#5ccbf7"/></g><path d="m160.227 224.066c2.206-.337 4.064-1.8 4.834-3.895 10.292-28.039 37.226-48.044 68.834-48.044 31.641 0 58.582 20.055 68.847 48.141.958 2.622 3.673 4.113 6.436 3.716 2.217-.318 4.484-.483 6.79-.483 19.822 0 36.803 12.117 43.969 29.344.8 1.923 2.486 3.337 4.539 3.685 14.831 2.517 26.115 15.453 26.047 31.016-.076 17.355-14.635 31.185-31.99 31.185h-190.177c-26.273 0-48.251-20.911-48.485-47.182-.213-24.022 17.367-43.967 40.356-47.483z" fill="#e6f8fc"/><path d="m175.871 271.549c-.213-24.022 17.367-43.967 40.356-47.483 2.206-.337 4.064-1.8 4.833-3.896 7.063-19.24 21.962-34.696 40.83-42.502-8.625-3.57-18.08-5.542-27.997-5.542-31.607 0-58.542 20.005-68.834 48.044-.769 2.095-2.627 3.558-4.833 3.896-22.99 3.516-40.57 23.461-40.356 47.483.234 26.272 22.212 47.182 48.485 47.182h56c-26.272 0-48.25-20.91-48.484-47.182z" fill="#b8e9fa"/><g fill="#8adaf9"><path d="m211.159 475.41-24.889 14.37c-4.02 2.321-5.397 7.461-3.076 11.481 1.557 2.697 4.382 4.204 7.286 4.204 1.426 0 2.871-.363 4.195-1.128l16.484-9.517v16.026c0 4.642 3.763 8.405 8.404 8.405 4.642 0 8.405-3.763 8.405-8.405v-16.026c-20.518-.001-16.809-19.41-16.809-19.41z"/><path d="m173.446 476.956 14.369-24.889c-8.84-8.84.001-16.809.001-16.809l-14.37-24.89c-2.321-4.02-7.461-5.397-11.481-3.076s-5.398 7.461-3.076 11.481l9.517 16.485h-16.026c-4.642 0-8.404 3.762-8.404 8.405 0 4.641 3.763 8.405 8.404 8.405h16.026l-9.517 16.484c-2.321 4.02-.943 9.16 3.076 11.481 1.324.764 2.768 1.127 4.195 1.127 2.905-.001 5.729-1.508 7.286-4.204z"/></g></g></svg>