<svg id="Layer_1" enable-background="new 0 0 512 512" height="512" viewBox="0 0 512 512" width="512" xmlns="http://www.w3.org/2000/svg"><g><path d="m423.468 83.193c-43.18-38.079-99.871-61.193-161.968-61.193-135.31 0-245 109.69-245 245s109.69 245 245 245c132.465 0 240.358-105.131 244.838-236.505z" fill="#8080c1"/><path d="m146.305 235.372c2.862-.438 5.249-2.366 6.228-5.032 10.795-29.409 39.104-49.167 70.443-49.167 11.458 0 22.47 2.529 32.728 7.517l1.376.669.642-1.389c10.136-21.93 32.275-36.1 56.404-36.1 2.959 0 5.94.212 8.86.631 4.43.634 8.732-1.86 10.223-5.935 7.654-20.942 22.207-38.074 40.499-49.221-3.283.114-6.522.402-9.707.859-5.232.75-10.374-2.073-12.189-7.037-19.442-53.189-70.46-91.167-130.379-91.167-59.856 0-110.862 37.883-130.352 90.981-1.456 3.968-4.976 6.738-9.153 7.377-43.535 6.659-76.828 44.429-76.424 89.92.442 49.751 42.064 89.35 91.817 89.35h8.447c2.42-21.284 18.972-38.958 40.537-42.256z" fill="#616196"/><path d="m109.001 188.278c-.405-45.491 32.888-83.261 76.423-89.92 4.178-.638 7.697-3.409 9.153-7.377 13.532-36.866 42.265-66.382 78.595-80.993-15.989-6.432-33.445-9.988-51.739-9.988-59.856 0-110.862 37.883-130.352 90.981-1.457 3.968-4.976 6.738-9.153 7.377-43.536 6.659-76.828 44.429-76.424 89.92.442 49.751 42.064 89.35 91.817 89.35h8.447c1.67-14.693 10.078-27.663 22.218-35.374-11.718-14.943-18.805-33.608-18.985-53.976z" fill="#515181"/><path d="m421.849 81.756c-41.434.812-76.544 27.341-90.05 64.294-1.28 3.503-4.909 5.495-8.601 4.966-2.963-.425-5.992-.646-9.073-.646-26.394 0-49.017 16.08-58.651 38.971 16.97 8.281 30.628 22.889 37.363 41.316 1.318 3.607 5.105 5.82 9.026 5.258 2.235-.321 4.518-.483 6.784-.483 19.277 0 36.52 11.507 43.928 29.317 1.134 2.73 3.509 4.648 6.351 5.13 6.082 1.032 11.451 3.812 15.683 7.749h131.648c.151-3.526.244-7.066.244-10.628-.001-73.991-32.8-140.321-84.652-185.244z" fill="#515181"/><g><path d="m345.26 225.281c1.923-1.013 3.137-2.963 3.305-5.131 1.51-19.417 14.417-36.956 34.079-43.398 2.287-.749 4.589-1.322 6.892-1.727 2.87-.505 5.079-2.866 5.177-5.778.992-29.322 18.904-56.389 47.113-68.076-6.292-6.838-12.953-13.329-19.978-19.415-41.434.812-76.544 27.341-90.05 64.294-1.281 3.503-4.909 5.495-8.601 4.965-2.963-.425-5.992-.646-9.073-.646-26.394 0-49.017 16.08-58.651 38.971 16.97 8.281 30.628 22.889 37.363 41.316 1.318 3.607 5.105 5.819 9.026 5.258 2.235-.321 4.518-.483 6.784-.483 7.866 0 15.392 1.917 22.05 5.395 2.926-6.519 7.963-12.069 14.564-15.545z" fill="#41416b"/></g><path d="m146.078 233.889c2.303-.352 4.243-1.879 5.046-4.066 10.743-29.268 38.858-50.15 71.852-50.15 33.028 0 61.15 20.934 71.866 50.252 1 2.737 3.835 4.293 6.719 3.879 2.315-.332 4.681-.505 7.087-.505 20.691 0 38.417 12.648 45.897 30.63.835 2.007 2.595 3.483 4.738 3.847 15.481 2.627 27.26 16.13 27.188 32.376-.079 18.116-15.276 32.552-33.393 32.552h-198.515c-27.425 0-50.367-21.827-50.611-49.251-.222-25.074 18.129-45.894 42.126-49.564z" fill="#7070ab"/><path d="m168.493 283.454c-.223-25.075 18.129-45.894 42.126-49.565 2.303-.352 4.243-1.879 5.046-4.066 6.988-19.037 21.329-34.518 39.577-43.021-9.804-4.57-20.734-7.129-32.266-7.129-32.993 0-61.108 20.882-71.852 50.15-.803 2.187-2.742 3.714-5.045 4.066-23.997 3.67-42.348 24.49-42.125 49.565.244 27.424 23.186 49.251 50.61 49.251h64.541c-27.426 0-50.368-21.827-50.612-49.251z" fill="#616196"/><g><g><path d="m98.731 448.432c-.755 0-1.521-.098-2.285-.302-4.696-1.259-7.483-6.086-6.225-10.782l4.758-17.756c1.258-4.696 6.09-7.478 10.782-6.225 4.696 1.259 7.483 6.086 6.225 10.782l-4.758 17.756c-1.053 3.934-4.61 6.527-8.497 6.527z" fill="#b8e9fa"/></g><g><path d="m206.731 448.432c-.755 0-1.521-.098-2.285-.302-4.696-1.259-7.483-6.086-6.225-10.782l4.758-17.756c1.259-4.696 6.088-7.478 10.782-6.225 4.696 1.259 7.483 6.086 6.225 10.782l-4.758 17.756c-1.053 3.934-4.611 6.527-8.497 6.527z" fill="#b8e9fa"/></g><g><path d="m189.698 512c-.755 0-1.521-.097-2.284-.302-4.696-1.259-7.483-6.085-6.225-10.782l4.757-17.757c1.258-4.697 6.089-7.483 10.782-6.225 4.696 1.259 7.483 6.085 6.225 10.782l-4.757 17.757c-1.054 3.932-4.611 6.527-8.498 6.527z" fill="#b8e9fa"/></g><g><path d="m152.731 448.432c-.755 0-1.521-.098-2.285-.302-4.696-1.259-7.483-6.086-6.225-10.782l4.758-17.756c1.259-4.696 6.089-7.478 10.782-6.225 4.696 1.259 7.483 6.086 6.225 10.782l-4.758 17.756c-1.053 3.934-4.61 6.527-8.497 6.527z" fill="#b8e9fa"/></g><g><path d="m260.731 448.432c-.755 0-1.521-.098-2.284-.302-4.696-1.259-7.483-6.086-6.225-10.782l4.758-17.756c1.259-4.696 6.087-7.478 10.782-6.225 4.696 1.259 7.483 6.086 6.225 10.782l-4.758 17.756c-1.054 3.934-4.612 6.527-8.498 6.527z" fill="#b8e9fa"/></g><g><path d="m243.698 512c-.755 0-1.521-.097-2.284-.302-4.696-1.259-7.483-6.085-6.225-10.782l4.757-17.757c1.259-4.697 6.089-7.483 10.782-6.225 4.696 1.259 7.483 6.085 6.225 10.782l-4.758 17.757c-1.053 3.932-4.61 6.527-8.497 6.527z" fill="#b8e9fa"/></g><g><path d="m331.763 384.865c-.755 0-1.521-.098-2.285-.302-4.696-1.259-7.483-6.086-6.225-10.782l4.758-17.756c1.259-4.697 6.089-7.478 10.782-6.225 4.696 1.258 7.483 6.086 6.225 10.782l-4.758 17.756c-1.053 3.933-4.61 6.527-8.497 6.527z" fill="#b8e9fa"/></g><g><path d="m314.731 448.432c-.755 0-1.521-.098-2.284-.302-4.696-1.259-7.483-6.086-6.225-10.782l4.758-17.756c1.259-4.696 6.09-7.478 10.782-6.225 4.696 1.259 7.483 6.086 6.225 10.782l-4.758 17.756c-1.054 3.934-4.612 6.527-8.498 6.527z" fill="#b8e9fa"/></g><g><path d="m297.698 512c-.755 0-1.52-.097-2.284-.302-4.696-1.259-7.483-6.085-6.225-10.782l4.757-17.757c1.259-4.697 6.088-7.483 10.782-6.225 4.696 1.259 7.483 6.085 6.225 10.782l-4.758 17.757c-1.053 3.932-4.611 6.527-8.497 6.527z" fill="#b8e9fa"/></g><g><path d="m385.763 384.865c-.755 0-1.521-.098-2.284-.302-4.696-1.259-7.483-6.086-6.225-10.782l4.758-17.756c1.259-4.697 6.088-7.478 10.782-6.225 4.696 1.258 7.483 6.086 6.225 10.782l-4.758 17.756c-1.054 3.933-4.611 6.527-8.498 6.527z" fill="#b8e9fa"/></g><g><path d="m368.731 448.432c-.755 0-1.521-.098-2.284-.302-4.696-1.259-7.483-6.086-6.225-10.782l4.758-17.756c1.259-4.696 6.089-7.478 10.782-6.225 4.696 1.259 7.483 6.086 6.225 10.782l-4.758 17.756c-1.055 3.934-4.612 6.527-8.498 6.527z" fill="#b8e9fa"/></g><g><path d="m351.698 512c-.755 0-1.52-.097-2.284-.302-4.696-1.259-7.483-6.085-6.225-10.782l4.758-17.757c1.259-4.697 6.087-7.483 10.782-6.225 4.696 1.259 7.483 6.085 6.225 10.782l-4.757 17.757c-1.055 3.932-4.613 6.527-8.499 6.527z" fill="#b8e9fa"/></g><g><path d="m439.763 384.865c-.755 0-1.521-.098-2.284-.302-4.696-1.259-7.483-6.086-6.225-10.782l4.758-17.756c1.259-4.697 6.091-7.478 10.782-6.225 4.696 1.258 7.483 6.086 6.225 10.782l-4.758 17.756c-1.054 3.933-4.612 6.527-8.498 6.527z" fill="#b8e9fa"/></g><g><path d="m169.764 384.865c-.755 0-1.521-.098-2.285-.302-4.696-1.259-7.483-6.086-6.225-10.782l4.758-17.756c1.259-4.697 6.089-7.478 10.782-6.225 4.696 1.258 7.483 6.086 6.225 10.782l-4.758 17.756c-1.053 3.933-4.611 6.527-8.497 6.527z" fill="#b8e9fa"/></g><g><path d="m223.764 384.865c-.755 0-1.521-.098-2.285-.302-4.696-1.259-7.483-6.086-6.225-10.782l4.758-17.756c1.259-4.697 6.088-7.478 10.782-6.225 4.696 1.258 7.483 6.086 6.225 10.782l-4.758 17.756c-1.053 3.933-4.611 6.527-8.497 6.527z" fill="#b8e9fa"/></g><g><path d="m61.765 384.865c-.755 0-1.521-.098-2.285-.302-4.696-1.259-7.483-6.086-6.225-10.782l4.758-17.756c1.259-4.697 6.089-7.478 10.782-6.225 4.696 1.258 7.483 6.086 6.225 10.782l-4.758 17.756c-1.054 3.933-4.611 6.527-8.497 6.527z" fill="#b8e9fa"/></g><g><path d="m115.764 384.865c-.755 0-1.521-.098-2.285-.302-4.696-1.259-7.483-6.086-6.225-10.782l4.758-17.756c1.259-4.697 6.088-7.478 10.782-6.225 4.696 1.258 7.483 6.086 6.225 10.782l-4.758 17.756c-1.053 3.933-4.61 6.527-8.497 6.527z" fill="#b8e9fa"/></g><g><path d="m277.764 384.865c-.755 0-1.521-.098-2.284-.302-4.696-1.259-7.483-6.086-6.225-10.782l4.758-17.756c1.259-4.697 6.091-7.478 10.782-6.225 4.696 1.258 7.483 6.086 6.225 10.782l-4.758 17.756c-1.055 3.933-4.612 6.527-8.498 6.527z" fill="#b8e9fa"/></g><g><path d="m422.73 448.432c-.755 0-1.521-.098-2.284-.302-4.696-1.259-7.483-6.086-6.225-10.782l4.758-17.756c1.259-4.696 6.088-7.478 10.782-6.225 4.696 1.259 7.483 6.086 6.225 10.782l-4.758 17.756c-1.054 3.934-4.611 6.527-8.498 6.527z" fill="#b8e9fa"/></g></g></g></svg>