<svg id="Layer_1" enable-background="new 0 0 512 512" height="512" viewBox="0 0 512 512" width="512" xmlns="http://www.w3.org/2000/svg"><g><path d="m390.674 58.8c-37.505-23.318-81.762-36.8-129.174-36.8-135.309 0-245 109.69-245 245s109.69 245 245 245c122.707 0 224.342-90.21 242.211-207.927z" fill="#41416b"/><path d="m389.27 57.924c-.711-.012-1.417-.042-2.13-.042-53.524 0-99.098 33.925-116.463 81.437-1.621 4.434-6.214 6.956-10.887 6.286-3.751-.538-7.586-.818-11.486-.818-26.95 0-50.789 13.248-65.405 33.577.259-.002.516-.015.775-.015 35.706 0 67.932 22.534 80.19 56.073 1.359 3.716 5.272 5.991 9.316 5.413 2.579-.37 5.214-.557 7.831-.557 22.253 0 42.159 13.284 50.71 33.843 1.175 2.825 3.627 4.809 6.56 5.307 14.596 2.477 25.758 13.499 28.779 27.451h130.944c1.83 0 3.642-.082 5.446-.2 1.999-12.601 3.05-25.516 3.05-38.679 0-88.49-46.918-166.015-117.23-209.076z" fill="#b8e9fa"/><g><path d="m303.561 228.157c2.124-1.261 3.388-3.544 3.454-6.013.589-22.12 14.22-42.768 36.158-51.216 2.552-.982 5.131-1.766 7.721-2.359 3.227-.739 5.596-3.546 5.54-6.856-.608-35.46 20.662-69.138 55.682-82.623 1.537-.592 3.081-1.12 4.629-1.619-8.681-7.119-17.857-13.658-27.474-19.547-.711-.012-1.417-.042-2.13-.042-53.524 0-99.098 33.925-116.463 81.437-1.621 4.434-6.214 6.956-10.888 6.286-3.751-.538-7.585-.818-11.485-.818-26.95 0-50.789 13.248-65.404 33.577.258-.002.516-.015.775-.015 35.706 0 67.932 22.534 80.19 56.073 1.359 3.716 5.272 5.991 9.316 5.413 2.579-.37 5.214-.557 7.832-.557 3.456 0 6.855.322 10.165.94 3.058-4.843 7.249-9.015 12.382-12.061z" fill="#8adaf9"/></g><path d="m46.6 40.877c1.736-.266 3.199-1.417 3.804-3.066 8.1-22.067 29.297-37.811 54.173-37.811 24.902 0 46.104 15.783 54.183 37.888.754 2.063 2.891 3.236 5.066 2.924 1.745-.25 3.529-.38 5.344-.38 15.6 0 28.965 9.536 34.604 23.094.63 1.513 1.957 2.626 3.573 2.9 11.672 1.981 20.552 12.161 20.499 24.41-.06 13.659-11.518 24.543-25.176 24.543h-149.673c-20.677 0-37.974-16.457-38.158-37.133-.168-18.906 13.668-34.602 31.761-37.369z" fill="#8adaf9"/><path d="m68.888 78.246c-.168-18.905 13.668-34.602 31.76-37.369 1.736-.266 3.199-1.417 3.804-3.066 4.919-13.401 14.674-24.461 27.144-31.089-8.06-4.285-17.252-6.722-27.019-6.722-24.875 0-46.073 15.744-54.173 37.811-.605 1.649-2.068 2.8-3.804 3.066-18.093 2.767-31.929 18.463-31.761 37.369.184 20.676 17.481 37.133 38.158 37.133h54.049c-20.677 0-37.974-16.457-38.158-37.133z" fill="#5ccbf7"/><path d="m445.746 368.244c.675.181 1.352.267 2.019.267 3.435 0 6.58-2.293 7.512-5.769l4.206-15.696c1.112-4.151-1.352-8.418-5.503-9.531-4.149-1.111-8.418 1.351-9.53 5.503l-4.206 15.695c-1.113 4.152 1.351 8.419 5.502 9.531z" fill="#b8e9fa"/><path d="m438.923 393.707c-4.148-1.112-8.418 1.351-9.531 5.503l-4.205 15.696c-1.112 4.151 1.352 8.418 5.503 9.531.675.181 1.352.267 2.019.267 3.435 0 6.58-2.294 7.512-5.77l4.206-15.696c1.111-4.152-1.353-8.419-5.504-9.531z" fill="#e6f8fc"/><path d="m382.072 368.244c.675.181 1.352.267 2.019.267 3.435 0 6.58-2.293 7.512-5.769l4.206-15.696c1.112-4.151-1.351-8.418-5.502-9.531-4.15-1.111-8.418 1.351-9.531 5.503l-4.206 15.695c-1.113 4.152 1.35 8.419 5.502 9.531z" fill="#b8e9fa"/><path d="m311.575 393.707c-4.147-1.112-8.418 1.351-9.531 5.503l-4.205 15.696c-1.112 4.151 1.352 8.418 5.503 9.531.675.181 1.352.267 2.019.267 3.435 0 6.58-2.294 7.512-5.77l4.205-15.696c1.112-4.152-1.351-8.419-5.503-9.531z" fill="#e6f8fc"/><path d="m296.519 449.897c-4.15-1.112-8.418 1.351-9.53 5.503l-4.205 15.696c-1.112 4.151 1.352 8.418 5.503 9.531.675.18 1.352.267 2.019.267 3.435 0 6.58-2.293 7.512-5.77l4.205-15.696c1.111-4.152-1.353-8.419-5.504-9.531z" fill="#b8e9fa"/><path d="m247.903 393.707c-4.148-1.112-8.419 1.351-9.531 5.503l-4.206 15.696c-1.112 4.151 1.351 8.418 5.503 9.531.675.181 1.352.267 2.019.267 3.435 0 6.58-2.293 7.512-5.77l4.206-15.696c1.111-4.152-1.352-8.419-5.503-9.531z" fill="#b8e9fa"/><path d="m232.845 449.897c-4.149-1.112-8.417 1.351-9.531 5.503l-4.205 15.696c-1.112 4.151 1.352 8.418 5.503 9.531.675.18 1.352.267 2.019.267 3.436 0 6.58-2.293 7.512-5.77l4.205-15.696c1.112-4.152-1.351-8.419-5.503-9.531z" fill="#e6f8fc"/><path d="m193.578 407.794c-2.148-3.722-6.908-4.997-10.63-2.848l-18.025 10.408v-20.815c0-4.297-3.484-7.782-7.782-7.782s-7.782 3.484-7.782 7.782v20.815l-18.025-10.408c-3.722-2.15-8.481-.874-10.63 2.848s-.874 8.481 2.848 10.63l18.026 10.407-18.026 10.407c-3.722 2.148-4.997 6.908-2.848 10.63 2.155 3.734 6.919 4.991 10.63 2.848l18.025-10.407v20.814c0 4.298 3.484 7.782 7.782 7.782s7.782-3.484 7.782-7.782v-20.814l18.025 10.407c3.707 2.141 8.472.889 10.63-2.848 2.149-3.722.874-8.481-2.848-10.63l-18.026-10.407 18.026-10.407c3.722-2.149 4.997-6.908 2.848-10.63z" fill="#b8e9fa"/><path d="m125.499 160.289c0-4.298-3.484-7.782-7.782-7.782h-5.966v-5.966c0-4.298-3.484-7.782-7.782-7.782s-7.782 3.484-7.782 7.782v5.966h-5.966c-4.298 0-7.782 3.484-7.782 7.782s3.484 7.782 7.782 7.782h5.966v5.966c0 4.298 3.484 7.782 7.782 7.782s7.782-3.484 7.782-7.782v-5.966h5.966c4.298-.001 7.782-3.485 7.782-7.782z" fill="#e6f8fc"/><g fill="#b8e9fa"><path d="m67.842 176.927c-2.149-3.723-6.908-4.997-10.63-2.848l-10.122 5.843v-11.688c0-4.297-3.484-7.782-7.782-7.782s-7.782 3.484-7.782 7.782v11.688l-10.122-5.843c-3.722-2.15-8.481-.874-10.63 2.848s-.874 8.481 2.848 10.63l10.122 5.843-10.122 5.844c-3.722 2.148-4.997 6.908-2.848 10.63 2.155 3.733 6.918 4.99 10.63 2.848l10.122-5.844v11.688c0 4.298 3.484 7.782 7.782 7.782s7.782-3.484 7.782-7.782v-11.688l10.122 5.844c3.707 2.139 8.472.889 10.63-2.848 2.149-3.722.874-8.482-2.848-10.63l-10.122-5.844 10.122-5.843c3.722-2.15 4.998-6.909 2.848-10.63z"/><circle cx="15.875" cy="135.908" r="10.376"/><path d="m338.919 482.443c6.559 0 11.444-6.013 10.168-12.399-.819-4.032-3.897-7.282-8.145-8.144-6.321-1.265-12.399 3.557-12.399 10.168.001 5.791 4.706 10.375 10.376 10.375z"/><path d="m88.411 436.033c5.665 0 10.376-4.633 10.376-10.376 0-4.847-3.397-9.173-8.352-10.178-6.308-1.27-12.399 3.552-12.399 10.178-.001 5.794 4.738 10.376 10.375 10.376z"/></g><path d="m383.073 449.48v-11.688l10.122 5.844c3.707 2.139 8.472.889 10.63-2.848 2.149-3.722.874-8.481-2.848-10.63l-10.122-5.844 10.122-5.843c3.722-2.149 4.997-6.908 2.848-10.63-2.149-3.723-6.908-4.997-10.63-2.848l-10.122 5.843v-11.688c0-4.297-3.484-7.782-7.782-7.782s-7.782 3.484-7.782 7.782v11.688l-10.122-5.843c-3.722-2.15-8.481-.874-10.63 2.848s-.874 8.481 2.848 10.63l10.122 5.843-10.122 5.844c-3.722 2.148-4.997 6.908-2.848 10.63 2.155 3.733 6.918 4.991 10.63 2.848l10.122-5.844v11.688c0 4.298 3.484 7.782 7.782 7.782s7.782-3.484 7.782-7.782z" fill="#e6f8fc"/><path d="m96.305 238.392c2.617-.4 4.821-2.135 5.733-4.62 12.206-33.254 44.15-56.979 81.636-56.979 37.526 0 69.477 23.785 81.652 57.095 1.137 3.109 4.357 4.877 7.634 4.407 2.63-.377 5.318-.573 8.053-.573 23.508 0 43.648 14.37 52.147 34.802.948 2.28 2.949 3.957 5.384 4.37 17.589 2.985 30.972 18.327 30.891 36.785-.09 20.583-17.357 36.985-37.94 36.985h-225.55c-31.159 0-57.226-24.8-57.503-55.958-.253-28.49 20.598-52.144 47.863-56.314z" fill="#e6f8fc"/><path d="m122.022 294.706c-.253-28.49 20.597-52.144 47.862-56.314 2.617-.4 4.821-2.135 5.733-4.62 7.923-21.585 24.168-39.146 44.841-48.82-11.171-5.229-23.633-8.16-36.785-8.16-37.486 0-69.43 23.726-81.636 56.98-.912 2.485-3.116 4.22-5.733 4.62-27.265 4.17-48.115 27.824-47.862 56.314.277 31.158 26.343 55.958 57.502 55.958h73.579c-31.158 0-57.224-24.8-57.501-55.958z" fill="#b8e9fa"/></g></svg>