<svg id="Layer_1" enable-background="new 0 0 512 512" height="512" viewBox="0 0 512 512" width="512" xmlns="http://www.w3.org/2000/svg"><g><path d="m505.564 239.907-186.541-211.236c-18.28-4.353-37.348-6.671-56.961-6.671-135.31 0-245 109.69-245 245s109.69 245 245 245 245-109.69 245-245c.001-9.159-.519-18.195-1.498-27.093z" fill="#ff7e3e"/><path d="m121.817 152.202c14.44-22.109 39.121-35.777 66.22-35.777 3.774 0 7.571.271 11.288.804 5.305.758 10.445-2.22 12.223-7.086 8.538-23.359 23.803-43.361 44.145-57.844 5.283-3.761 10.81-7.067 16.532-9.914-12.433-25.113-38.313-42.385-68.234-42.385-32.849 0-60.818 20.82-71.476 49.979-.995 2.722-3.813 4.269-6.682 3.858-2.302-.33-4.655-.502-7.049-.502-20.578 0-38.209 12.579-45.648 30.464-.83 1.996-2.581 3.464-4.713 3.826-15.397 2.613-27.112 16.043-27.041 32.2.079 18.018 15.193 32.376 33.212 32.376h47.223z" fill="#fee886"/><path d="m102.408 143.039c-2.564-15.952 6.89-31.035 21.636-36.002 2.042-.688 3.538-2.409 4.047-4.51 4.559-18.822 19.964-33.981 40.211-37.17 2.355-.371 4.697-.566 7.013-.597 2.886-.038 5.42-2.004 5.979-4.847 4.948-25.18 22.425-46.551 46.592-56.082-7.485-2.484-15.484-3.831-23.798-3.831-32.715 0-60.571 20.82-71.185 49.979-.991 2.722-3.798 4.269-6.655 3.858-2.293-.33-4.636-.502-7.02-.502-20.495 0-38.053 12.579-45.462 30.464-.827 1.996-2.571 3.464-4.694 3.826-15.335 2.613-27.001 16.043-26.931 32.2.079 18.018 15.132 32.376 33.076 32.376h30.134c-1.405-2.816-2.417-5.887-2.943-9.162z" fill="#fcde63"/><path d="m319.023 28.671c-50.107 3.043-92.147 35.882-108.652 81.042-1.618 4.427-6.203 6.944-10.869 6.275-3.745-.537-7.572-.817-11.466-.817-33.472 0-62.15 20.462-74.25 49.553-1.351 3.247-4.199 5.634-7.666 6.223-25.045 4.25-44.1 26.095-43.984 52.377.129 29.308 24.714 52.662 54.022 52.662h156.397c-.317-1.515-.489-3.081-.497-4.685-.051-11.753 8.308-21.708 19.877-23.671 2.054-.349 3.771-1.737 4.593-3.714 5.761-13.849 19.169-22.797 34.159-22.797 1.762 0 3.537.126 5.275.376 2.83.405 5.573-1.191 6.524-3.795 8.273-22.636 30.023-37.844 54.121-37.844 24.073 0 45.818 15.177 54.11 37.767.765 2.085 2.631 3.593 4.869 3.936 18.035 2.758 31.513 18.616 31.35 36.888-.003.338-.023.672-.035 1.007 7.258-5.443 13.581-12.05 18.662-19.548-11.387-103.504-87.239-187.589-186.54-211.235z" fill="#fff9e1"/><g><path d="m150.786 269.714c-4.259-25.935 11.113-50.511 35.174-58.658 3.331-1.128 5.767-3.935 6.588-7.354 7.361-30.635 32.452-55.364 65.506-60.642 3.844-.614 7.668-.942 11.451-1.002 4.713-.075 8.844-3.284 9.743-7.911 8.171-42.023 37.882-77.575 78.883-92.568-12.535-5.349-25.602-9.691-39.108-12.907-50.107 3.043-92.147 35.882-108.652 81.042-1.618 4.427-6.203 6.944-10.869 6.275-3.745-.537-7.572-.817-11.465-.817-33.472 0-62.15 20.462-74.25 49.553-1.351 3.247-4.199 5.634-7.666 6.223-25.045 4.25-44.1 26.095-43.984 52.377.129 29.308 24.714 52.662 54.022 52.662h36.076c-.6-2.036-1.096-4.124-1.449-6.273z" fill="#fff2b9"/></g><path d="m455.776 220.321c-1.772-.271-3.265-1.446-3.882-3.129-8.266-22.52-29.9-38.588-55.286-38.588-25.414 0-47.052 16.108-55.297 38.667-.77 2.106-2.95 3.303-5.17 2.985-1.781-.255-3.602-.388-5.453-.388-15.92 0-29.56 9.732-35.315 23.569-.642 1.544-1.997 2.68-3.646 2.96-11.912 2.021-20.975 12.411-20.92 24.912.061 13.94 11.754 25.048 25.694 25.048h152.747c21.102 0 38.755-16.795 38.943-37.896.171-19.296-13.95-35.316-32.415-38.14z" fill="#fff2b9"/><path d="m320.346 294.15c-2.069-12.328 5.201-24.043 16.632-27.958 1.582-.542 2.736-1.881 3.121-3.509 3.45-14.583 15.343-26.387 31.055-28.953 1.828-.298 3.646-.461 5.445-.496 2.241-.044 4.201-1.577 4.621-3.779 4.018-21.062 19.406-38.76 40.505-45.231-7.619-3.6-16.13-5.621-25.116-5.621-25.414 0-47.052 16.108-55.298 38.667-.77 2.106-2.95 3.303-5.169 2.985-1.781-.255-3.602-.388-5.453-.388-15.92 0-29.56 9.732-35.315 23.569-.642 1.544-1.997 2.68-3.646 2.96-11.912 2.021-20.975 12.411-20.92 24.912.061 13.94 11.754 25.048 25.694 25.048h24.326c-.192-.722-.356-1.456-.482-2.206z" fill="#fee886"/><g><path d="m176.815 364.863h-163.577c-4.584 0-8.301-3.485-8.301-7.785 0-4.299 3.716-7.785 8.301-7.785h163.207c15.581-1.345 30.249-7.801 41.338-18.2 31.332-29.385 10.56-80.127-28.311-80.127-18.649 0-37.206 12.632-37.206 31.137 0 22.739 25.599 34.495 40.907 20.14 3.241-3.04 8.497-3.04 11.739 0s3.242 7.969 0 11.009c-7.411 6.95-17.264 10.778-27.745 10.778-24.074 0-41.502-20.075-41.502-41.927 0-27.151 25.842-46.707 53.807-46.707 53.595 0 81.833 67.519 40.049 106.706-13.929 13.063-32.392 21.136-51.989 22.731-.238.021-.478.03-.717.03z" fill="#fff9e1"/></g><path d="m217.587 480.059c-7.147 7.147-12.167 15.621-15.096 24.633 5.382 1.344 10.828 2.524 16.344 3.505 2.203-5.986 5.692-11.601 10.491-16.399 13.549-13.549 35.596-13.549 49.145 0 3.241 3.242 8.497 3.242 11.739 0s3.242-8.497 0-11.739c-20.022-20.022-52.601-20.022-72.623 0z" fill="#fee886"/><path d="m254.126 404.461c-.239-.021-.478-.031-.718-.031h-194.193c3.878 5.713 8 11.247 12.334 16.601h181.492c41.97 3.798 80.946 35.404 81.851 79.961 5.534-1.721 10.98-3.639 16.338-5.733-3.951-50.962-48.871-86.612-97.104-90.798z" fill="#fee886"/><path d="m123.778 445.141c-.239-.021-.478-.031-.718-.031h-29.215c6.208 5.866 12.727 11.404 19.522 16.601h9.32c16.62 1.569 32.228 12.26 37.088 27.964 5.907 2.718 11.934 5.22 18.084 7.471-1.555-28.944-26.588-49.619-54.081-52.005z" fill="#fff2b9"/><g><path d="m319.677 383.911h-91.454c-4.584 0-8.301-3.716-8.301-8.301 0-4.584 3.716-8.301 8.301-8.301h91.077c17.86-1.7 34.777-15.196 34.777-34.419 0-8.462-3.295-16.417-9.279-22.401-9.234-9.234-24.259-9.234-33.494 0-6.755 6.755-6.757 17.69 0 24.447 3.242 3.241 3.242 8.497 0 11.739-3.241 3.242-8.497 3.242-11.739 0-13.244-13.244-13.245-34.68 0-47.925 15.707-15.707 41.265-15.707 56.971 0 9.119 9.119 14.141 21.243 14.141 34.14 0 28.284-23.919 48.701-50.284 50.989-.236.022-.476.032-.716.032z" fill="#fee886"/></g><g><path d="m401.112 415.342h-47.435c-4.584 0-8.301-3.716-8.301-8.301 0-4.584 3.716-8.301 8.301-8.301h47.05c10.802-1.08 21.316-9.182 21.316-20.943 0-8.597-6.098-17.465-15.198-17.465-5.972 0-12.312 4.177-12.312 10.498 0 2.462.959 4.776 2.699 6.516 3.242 3.242 3.242 8.497 0 11.739-3.241 3.242-8.497 3.242-11.739 0-4.876-4.876-7.562-11.359-7.562-18.255 0-15.708 13.798-27.099 28.914-27.099 18.484 0 31.799 16.33 31.799 34.066 0 20.772-17.453 35.834-36.815 37.514-.238.021-.478.031-.717.031z" fill="#fff2b9"/></g><path d="m238.138 178.604c-2.367.008-4.563 1.373-5.619 3.492-3.928 7.887-3.801 17.564 1.192 25.596 4.992 8.032 13.614 12.431 22.424 12.4 2.367-.008 4.563-1.373 5.619-3.492 3.928-7.886 3.8-17.564-1.192-25.596-4.992-8.033-13.613-12.431-22.424-12.4z" fill="#85d249"/><path d="m434.889 450.198c-.736-2.915-3.091-5.203-6.025-5.854-10.922-2.424-22.809.699-31.178 9.313s-11.147 20.586-8.408 31.434c.736 2.915 3.091 5.202 6.025 5.854 10.922 2.424 22.809-.699 31.178-9.313 8.368-8.614 11.147-20.586 8.408-31.434z" fill="#85d249"/><path d="m448.948 321.117c-2.256.487-4.075 2.233-4.653 4.468-2.151 8.317-.072 17.522 6.315 24.173s15.5 9.102 23.897 7.29c2.257-.487 4.075-2.233 4.653-4.468 2.151-8.317.071-17.521-6.316-24.173s-15.499-9.103-23.896-7.29z" fill="#ffe400"/><path d="m94.08 293.013c2.257.487 4.075 2.233 4.653 4.468 2.151 8.317.072 17.521-6.315 24.173-6.387 6.651-15.5 9.103-23.897 7.29-2.257-.487-4.075-2.233-4.653-4.468-2.151-8.317-.071-17.521 6.316-24.173 6.386-6.651 15.499-9.102 23.896-7.29z" fill="#85d249"/><g><path d="m453.314 423.299c-6.044 0-11.068-4.943-11.068-11.068 0-6.95 6.39-12.238 13.237-10.857 5.263 1.07 8.909 5.648 8.909 10.857 0 6.066-4.983 11.068-11.078 11.068z" fill="#fff9e1"/></g><g><path d="m264.522 350.153c-6.034 0-11.068-4.919-11.068-11.068 0-7.054 6.501-12.213 13.226-10.857 5.358 1.088 8.91 5.756 8.91 10.857 0 6.151-5.031 11.068-11.068 11.068z" fill="#fff9e1"/></g><g><path d="m31.073 197.564c-6.108 0-11.068-4.959-11.068-11.068 0-7.111 6.553-12.191 13.226-10.846 5.343 1.086 8.909 5.716 8.909 10.846.001 6.046-4.927 11.068-11.067 11.068z" fill="#fee886"/></g><g><path d="m198.05 464.482c-6.093 0-11.068-4.975-11.068-11.068 0-7.04 6.5-12.215 13.237-10.857 5.28 1.09 8.898 5.654 8.898 10.857.001 6.197-5.055 11.068-11.067 11.068z" fill="#fee886"/></g><path d="m88.142 319.375c-8.595 0-15.563-6.968-15.563-15.563 0-2.491.6-4.836 1.64-6.923-1.431.979-2.787 2.113-4.036 3.414-6.387 6.651-8.467 15.856-6.316 24.173.578 2.235 2.396 3.981 4.653 4.468 8.397 1.812 17.51-.639 23.897-7.29 1.271-1.323 2.363-2.75 3.293-4.248-2.241 1.25-4.819 1.969-7.568 1.969z" fill="#60b550"/><path d="m237.86 208.912c0-8.595 6.967-15.563 15.563-15.563 3.734 0 7.159 1.318 9.841 3.51-.645-2.012-1.536-3.98-2.702-5.856-4.993-8.033-13.614-12.431-22.424-12.4-2.367.008-4.563 1.373-5.619 3.492-3.928 7.887-3.801 17.564 1.192 25.596 1.358 2.184 2.991 4.09 4.816 5.721-.43-1.424-.667-2.934-.667-4.5z" fill="#60b550"/><path d="m455.042 347.794c0-8.595 6.967-15.563 15.563-15.563 2.124 0 4.148.429 5.993 1.199-1.021-1.783-2.265-3.475-3.753-5.024-6.387-6.651-15.5-9.103-23.897-7.29-2.256.487-4.075 2.233-4.653 4.468-2.151 8.317-.072 17.522 6.315 24.173 1.771 1.845 3.757 3.354 5.874 4.551-.916-1.984-1.442-4.185-1.442-6.514z" fill="#fdca00"/><path d="m420.019 477.121c-10.287 0-18.625-8.339-18.625-18.626 0-3.767 1.127-7.267 3.05-10.198-2.42 1.454-4.696 3.239-6.757 5.36-8.369 8.614-11.147 20.586-8.408 31.434.736 2.915 3.09 5.202 6.025 5.854 10.922 2.424 22.809-.699 31.177-9.313 2.878-2.963 5.079-6.328 6.638-9.902-3.366 3.33-7.991 5.391-13.1 5.391z" fill="#60b550"/></g></svg>