<svg id="Layer_1" enable-background="new 0 0 512 512" height="512" viewBox="0 0 512 512" width="512" xmlns="http://www.w3.org/2000/svg"><g><path d="m14.224 306.735c18.988 116.41 119.997 205.265 241.776 205.265 122.11 0 223.341-89.337 241.933-206.214l-96.306-235.814c-40.711-30.14-91.084-47.972-145.627-47.972-112.968 0-208.061 76.464-236.39 180.455z" fill="#009cf2"/><path d="m401.627 69.972c-18.77-10.337-40.333-16.226-63.276-16.226-56.719 0-105.012 35.95-123.414 86.297-1.718 4.699-6.585 7.371-11.538 6.662-3.975-.57-8.038-.867-12.171-.867-4.235 0-8.394.317-12.463.913 16.806 10.525 30.164 26.451 37.251 45.84 1.461 3.998 5.676 6.449 10.02 5.824 2.747-.393 5.554-.593 8.342-.593 23.703 0 44.906 14.149 54.015 36.048 1.264 3.039 3.902 5.172 7.056 5.707 18.335 3.111 31.582 18.888 31.5 37.513-.091 20.797-17.464 37.718-38.728 37.718h-1.746v1.738h169.361c15.184 0 29.564-3.901 42.099-10.759 2.008-12.635 3.065-25.587 3.065-38.787 0-80.767-39.089-152.397-99.373-197.028z" fill="#b8e9fa"/><g><path d="m289.083 199.56c2.744-.928 4.751-3.24 5.429-6.056 6.071-25.233 26.745-45.595 53.973-49.934 3.167-.505 6.317-.774 9.432-.822 3.882-.061 7.286-2.703 8.028-6.514 4.939-25.358 19.397-47.863 40.055-62.941-1.446-1.121-2.901-2.232-4.373-3.321-18.77-10.337-40.333-16.226-63.276-16.226-56.719 0-105.012 35.95-123.414 86.297-1.718 4.699-6.585 7.371-11.538 6.661-3.975-.57-8.038-.867-12.171-.867-4.235 0-8.394.317-12.463.913 16.807 10.525 30.164 26.451 37.251 45.84 1.461 3.998 5.676 6.449 10.02 5.824 2.748-.393 5.554-.593 8.342-.593 13.811 0 26.766 4.81 36.981 13.151 4.786-5.095 10.819-9.077 17.724-11.412z" fill="#8adaf9"/></g><g><path d="m235.801 393.116v56.096c0 1.265.675 2.433 1.77 3.065l20.174 11.647c1.095.632 2.444.632 3.539 0l20.174-11.647c1.095-.632 1.77-1.801 1.77-3.065v-56.096c0-1.264-.675-2.433-1.77-3.065l-20.174-11.648c-1.095-.632-2.444-.632-3.539 0l-20.174 11.648c-1.095.632-1.77 1.8-1.77 3.065z" fill="#8adaf9"/></g><g><path d="m337.028 352.928v19.403c0 1.265.675 2.433 1.77 3.065l12.718 7.343c1.095.632 2.444.632 3.539 0l12.718-7.343c1.095-.632 1.77-1.801 1.77-3.065v-19.403c0-1.264-.675-2.433-1.77-3.065l-12.718-7.343c-1.095-.632-2.444-.632-3.539 0l-12.718 7.343c-1.095.632-1.77 1.801-1.77 3.065z" fill="#8adaf9"/></g><g><path d="m181.22 481.715v19.403c0 1.264.675 2.433 1.77 3.065l12.718 7.343c1.095.632 2.444.632 3.539 0l12.718-7.343c1.095-.632 1.77-1.801 1.77-3.065v-19.403c0-1.264-.674-2.433-1.77-3.065l-12.718-7.343c-1.095-.632-2.444-.632-3.539 0l-12.718 7.343c-1.095.632-1.77 1.801-1.77 3.065z" fill="#8adaf9"/></g><g><path d="m141.801 392.327v28.202c0 1.265.675 2.433 1.77 3.065l18.808 10.859c1.095.632 2.444.632 3.539 0l18.808-10.859c1.095-.632 1.77-1.801 1.77-3.065v-28.202c0-1.264-.675-2.433-1.77-3.065l-18.808-10.859c-1.095-.632-2.444-.632-3.539 0l-18.808 10.859c-1.095.632-1.77 1.8-1.77 3.065z" fill="#8adaf9"/></g><g><path d="m417.541 372.031v14.328c0 1.264.675 2.433 1.77 3.065l9.206 5.315c1.095.632 2.444.632 3.539 0l9.206-5.315c1.095-.632 1.77-1.801 1.77-3.065v-14.328c0-1.264-.675-2.433-1.77-3.065l-9.206-5.315c-1.095-.632-2.444-.632-3.539 0l-9.206 5.315c-1.096.633-1.77 1.801-1.77 3.065z" fill="#8adaf9"/></g><g><path d="m317.951 457.782v14.328c0 1.264.675 2.433 1.77 3.065l9.206 5.315c1.095.632 2.444.632 3.539 0l9.206-5.315c1.095-.632 1.77-1.801 1.77-3.065v-14.328c0-1.264-.675-2.433-1.77-3.065l-9.206-5.315c-1.095-.632-2.444-.632-3.539 0l-9.206 5.315c-1.096.632-1.77 1.8-1.77 3.065z" fill="#8adaf9"/></g><g><path d="m80.958 355.466v14.328c0 1.265.674 2.433 1.77 3.065l9.206 5.315c1.095.632 2.444.632 3.539 0l9.206-5.315c1.095-.632 1.77-1.801 1.77-3.065v-14.328c0-1.264-.675-2.433-1.77-3.065l-9.206-5.315c-1.095-.632-2.444-.632-3.539 0l-9.206 5.315c-1.095.632-1.77 1.8-1.77 3.065z" fill="#8adaf9"/></g><g><path d="m212.928 356.796c-5.918 0-10.727-4.854-10.727-10.738 0-6.79 6.242-11.84 12.829-10.512 5.164 1.064 8.624 5.549 8.624 10.512.001 6.004-4.903 10.738-10.726 10.738z" fill="#e6f8fc"/></g><g><path d="m119.605 475.67c-6.004 0-10.727-4.904-10.727-10.727 0-6.757 6.222-11.844 12.829-10.512 5.177 1.069 8.624 5.523 8.624 10.512.001 5.856-4.742 10.727-10.726 10.727z" fill="#e6f8fc"/></g><g><path d="m384.557 431.894c-5.891 0-10.727-4.825-10.727-10.727 0-4.928 3.426-9.466 8.635-10.523 6.539-1.318 12.818 3.692 12.818 10.523.001 5.989-4.908 10.727-10.726 10.727z" fill="#e6f8fc"/></g><g><path d="m483.243 361.538c-5.951 0-10.727-4.868-10.727-10.727 0-6.655 6.113-11.866 12.829-10.512 4.859.924 8.624 5.303 8.624 10.512.001 6.061-4.958 10.727-10.726 10.727z" fill="#b8e9fa"/></g><g><circle cx="40.227" cy="379.194" fill="#b8e9fa" r="10.727"/></g><path d="m295.738 237.864c-2.597-.441-4.73-2.229-5.742-4.662-9.064-21.791-30.545-37.118-55.618-37.118-2.917 0-5.784.209-8.589.611-3.495.501-6.93-1.385-8.142-4.701-12.986-35.528-47.064-60.896-87.088-60.896-39.981 0-74.052 25.305-87.071 60.773-.973 2.65-3.324 4.501-6.114 4.927-6.295.963-12.268 2.903-17.764 5.655-5.602 20.568-8.61 42.205-8.61 64.547 0 13.531 1.115 26.8 3.225 39.735 9.67 6.206 21.178 9.81 33.432 9.81h240.563c21.954 0 40.37-17.494 40.466-39.447.086-19.688-14.188-36.051-32.948-39.234z" fill="#e6f8fc"/><path d="m159.831 38.082c1.618-.247 2.98-1.32 3.544-2.856 7.546-20.558 27.295-35.226 50.469-35.226 23.199 0 42.953 14.704 50.479 35.298.703 1.922 2.693 3.015 4.719 2.725 1.626-.233 3.288-.354 4.978-.354 14.533 0 26.985 8.884 32.238 21.515.586 1.41 1.823 2.446 3.328 2.702 10.874 1.845 19.148 11.33 19.098 22.741-.056 12.725-10.73 22.865-23.456 22.865h-139.437c-19.263 0-35.378-15.332-35.549-34.594-.157-17.614 12.733-32.238 29.589-34.816z" fill="#e6f8fc"/><path d="m177.842 72.897c-.157-17.613 12.734-32.237 29.589-34.815 1.618-.247 2.98-1.32 3.544-2.856 4.763-12.975 14.389-23.598 26.665-29.674-7.172-3.551-15.249-5.552-23.796-5.552-23.175 0-42.923 14.668-50.469 35.226-.564 1.536-1.927 2.609-3.544 2.856-16.855 2.578-29.746 17.202-29.589 34.815.171 19.263 16.286 34.594 35.549 34.594h47.6c-19.263 0-35.378-15.331-35.549-34.594z" fill="#b8e9fa"/><path d="m48.434 261.77c-.253-28.49 20.597-52.144 47.862-56.314 2.617-.4 4.821-2.135 5.733-4.62 11.568-31.516 40.87-54.459 75.812-56.772-13.843-8.23-30.005-12.965-47.281-12.965-39.981 0-74.052 25.305-87.071 60.773-.973 2.65-3.323 4.501-6.114 4.928-6.295.963-12.268 2.903-17.764 5.655-5.603 20.566-8.611 42.203-8.611 64.545 0 13.531 1.115 26.8 3.225 39.735 9.67 6.206 21.178 9.81 33.432 9.81h46.625c-25.746-5.268-45.607-27.6-45.848-54.775z" fill="#b8e9fa"/><g><path d="m254.883 400.369v12.118c0 1.069.57 2.058 1.497 2.592l7.786 4.495c.926.535 2.067.535 2.993 0l7.786-4.495c.926-.535 1.497-1.523 1.497-2.592v-12.118c0-1.069-.571-2.057-1.497-2.592l-7.786-4.495c-.926-.535-2.067-.535-2.993 0l-7.786 4.495c-.927.534-1.497 1.522-1.497 2.592z" fill="#b8e9fa"/></g><g><path d="m160.797 396.758v10.339c0 .912.487 1.756 1.277 2.212l6.643 3.835c.79.456 1.764.456 2.554 0l6.643-3.835c.79-.456 1.277-1.299 1.277-2.212v-10.339c0-.913-.487-1.756-1.277-2.212l-6.643-3.835c-.79-.456-1.764-.456-2.554 0l-6.643 3.835c-.791.457-1.277 1.3-1.277 2.212z" fill="#b8e9fa"/></g><g><path d="m193.911 484.319v7.401c0 .653.348 1.257.914 1.583l4.755 2.745c.566.327 1.262.327 1.828 0l4.755-2.745c.566-.327.914-.93.914-1.583v-7.401c0-.653-.348-1.257-.914-1.583l-4.755-2.745c-.566-.326-1.262-.326-1.828 0l-4.755 2.745c-.566.326-.914.929-.914 1.583z" fill="#b8e9fa"/></g><g><path d="m428.561 374.036v5.165c0 .456.243.877.638 1.105l3.318 1.916c.395.228.881.228 1.276 0l3.318-1.916c.395-.228.638-.649.638-1.105v-5.165c0-.456-.243-.877-.638-1.105l-3.318-1.916c-.395-.228-.881-.228-1.276 0l-3.318 1.916c-.395.228-.638.649-.638 1.105z" fill="#b8e9fa"/></g><g><path d="m328.659 459.713v5.164c0 .456.243.877.638 1.105l3.318 1.916c.395.228.881.228 1.276 0l3.318-1.916c.395-.228.638-.649.638-1.105v-5.164c0-.456-.243-.877-.638-1.105l-3.318-1.916c-.395-.228-.881-.228-1.276 0l-3.318 1.916c-.395.228-.638.649-.638 1.105z" fill="#b8e9fa"/></g><g><path d="m354.296 355.714v5.164c0 .456.243.877.638 1.105l3.318 1.916c.395.228.881.228 1.276 0l3.318-1.916c.395-.228.638-.649.638-1.105v-5.164c0-.456-.243-.877-.638-1.105l-3.318-1.916c-.395-.228-.881-.228-1.276 0l-3.318 1.916c-.395.228-.638.649-.638 1.105z" fill="#b8e9fa"/></g><g><path d="m92.262 357.089v5.164c0 .456.243.877.638 1.105l3.318 1.916c.395.228.881.228 1.276 0l3.318-1.916c.395-.228.638-.649.638-1.105v-5.164c0-.456-.243-.877-.638-1.105l-3.318-1.916c-.395-.228-.881-.228-1.276 0l-3.318 1.916c-.395.228-.638.649-.638 1.105z" fill="#b8e9fa"/></g></g></svg>