<svg id="Layer_1" enable-background="new 0 0 512 512" height="512" viewBox="0 0 512 512" width="512" xmlns="http://www.w3.org/2000/svg"><g><path d="m89.01 443.336c44.065 42.509 104.01 68.664 170.072 68.664 54.171 0 104.225-17.594 144.789-47.361l99.859-184.495c.23-4.353.353-8.734.353-13.145 0-135.31-109.69-245-245-245s-245 109.69-245 245c0 18.48 2.06 36.478 5.938 53.788z" fill="#41416b"/><path d="m120.915 253.803c18.455 0 36.318 5.356 51.656 15.488l.519.343.618-.07c7.45-.846 14.861-.719 22.082.316 5.968.856 11.747-2.499 13.749-7.976 3.778-10.336 8.781-19.992 14.783-28.856-51.063-29.815-85.507-85.162-85.75-148.027-.099-25.59 5.395-49.885 15.324-71.739 3.727-8.204-5.201-16.411-13.108-12.089-53.84 29.434-90.218 86.81-89.622 152.633.361 39.819 14.442 76.554 37.735 105.648 10.091-3.682 20.9-5.671 32.014-5.671z" fill="#ffe400"/><path d="m114.557 204.406c-28.137-68.549-14.098-143.724 29.873-196.994 2.249-2.725 5.264-3.909 8.218-3.871-2.663-3.252-7.422-4.774-11.86-2.349-53.84 29.434-90.218 86.81-89.622 152.633.361 39.819 14.442 76.553 37.735 105.648 10.093-3.682 20.901-5.671 32.015-5.671 9.031 0 17.918 1.291 26.438 3.788-13.449-15.455-24.629-33.284-32.797-53.184z" fill="#fdca00"/><g><path d="m372.524 105.9c-4.573 0-8.279-3.707-8.279-8.279v-10.925c0-4.572 3.707-8.279 8.279-8.279s8.279 3.707 8.279 8.279v10.925c.001 4.572-3.706 8.279-8.279 8.279z" fill="#ffe400"/></g><g><path d="m372.524 60.289c-4.573 0-8.279-3.707-8.279-8.279v-10.925c0-4.572 3.707-8.279 8.279-8.279s8.279 3.707 8.279 8.279v10.925c.001 4.572-3.706 8.279-8.279 8.279z" fill="#ffe400"/></g><g><path d="m400.792 77.632h-10.925c-4.572 0-8.279-3.707-8.279-8.279s3.707-8.279 8.279-8.279h10.925c4.572 0 8.279 3.707 8.279 8.279.001 4.572-3.706 8.279-8.279 8.279z" fill="#ffe400"/></g><g><path d="m355.181 77.632h-10.924c-4.572 0-8.279-3.707-8.279-8.279s3.707-8.279 8.279-8.279h10.924c4.572 0 8.279 3.707 8.279 8.279s-3.707 8.279-8.279 8.279z" fill="#ffe400"/></g><g><path d="m426.919 149.297c-5.988 0-11.039-4.863-11.039-11.039 0-7.071 6.505-12.178 13.191-10.829 5.29 1.073 8.887 5.701 8.887 10.829 0 6.116-5.02 11.039-11.039 11.039z" fill="#9292dd"/></g><g><path d="m18.735 239.109c-5.858 0-10.817-4.75-10.817-10.817 0-6.928 6.371-11.932 12.927-10.612 5.18 1.051 8.708 5.572 8.708 10.612-.001 6.045-4.963 10.817-10.818 10.817z" fill="#ffe400"/></g><path d="m283.349 66.676c-1.668-.255-3.073-1.361-3.655-2.945-7.782-21.201-28.148-36.327-52.047-36.327-23.925 0-44.296 15.164-52.058 36.401-.725 1.982-2.777 3.11-4.867 2.81-1.677-.24-3.391-.365-5.134-.365-14.988 0-27.828 9.162-33.246 22.188-.605 1.454-1.88 2.523-3.432 2.786-11.214 1.903-19.746 11.684-19.695 23.452.058 13.123 11.066 23.58 24.189 23.58h143.799c19.866 0 36.484-15.811 36.661-35.676.161-18.164-13.132-33.245-30.515-35.904z" fill="#7070ab"/><g><path d="m177.201 111.983c1.434-.65 2.395-2.008 2.61-3.568 1.924-13.976 12.009-26.105 26.503-29.921 1.686-.444 3.375-.759 5.058-.953 2.097-.242 3.795-1.855 3.991-3.956 1.706-18.291 12.48-34.823 28.869-43.648-5.238-1.641-10.806-2.532-16.585-2.532-23.925 0-44.296 15.164-52.058 36.401-.725 1.982-2.777 3.11-4.867 2.81-1.677-.24-3.391-.366-5.134-.366-14.988 0-27.828 9.162-33.246 22.188-.605 1.454-1.88 2.523-3.433 2.786-11.214 1.903-19.746 11.684-19.695 23.452.058 13.123 11.066 23.58 24.189 23.58h30.41c-2.223-10.903 3.459-21.773 13.388-26.273z" fill="#616196"/></g><path d="m435.851 436.628c39.425-41.074 64.673-95.854 67.879-156.484-9.707-5.917-20.642-10.019-32.342-11.809-4.079-.624-7.514-3.328-8.935-7.201-19.026-51.833-68.818-88.815-127.248-88.815-58.492 0-108.296 37.074-127.273 88.996-1.772 4.846-6.791 7.602-11.898 6.87-4.099-.588-8.29-.894-12.551-.894-4.368 0-8.657.327-12.854.942 17.332 10.855 31.107 27.278 38.416 47.274 1.506 4.123 5.853 6.65 10.333 6.006 2.833-.406 5.728-.612 8.603-.612 24.445 0 46.31 14.592 55.704 37.176 1.304 3.134 4.024 5.333 7.276 5.885 9.74 1.653 18.08 6.777 23.874 13.978 9.704-11.677 24.298-18.842 40.001-18.842 21.706 0 41.313 13.685 48.79 34.054.761 2.075 2.615 3.575 4.839 3.915h.001c16.171 2.473 28.256 16.693 28.11 33.077-.021 2.22-.275 4.387-.725 6.484z" fill="#616196"/><g><path d="m269.225 304.359c2.63-.784 4.61-2.904 5.348-5.547 6.615-23.682 26.889-42.251 52.817-45.424 3.016-.369 6.007-.516 8.959-.455 3.678.076 6.991-2.309 7.824-5.892 6.181-26.563 23.429-49.365 47.181-62.574-17.108-7.799-36.121-12.148-56.15-12.148-58.492 0-108.296 37.074-127.273 88.996-1.772 4.846-6.791 7.602-11.898 6.87-4.099-.588-8.29-.894-12.551-.894-4.368 0-8.657.327-12.854.942 17.332 10.855 31.107 27.278 38.416 47.274 1.506 4.123 5.854 6.65 10.333 6.006 2.833-.406 5.728-.612 8.603-.612 5.957 0 11.759.873 17.267 2.511 5.155-8.994 13.626-15.965 23.978-19.053z" fill="#515181"/></g><path d="m291.259 362.195c-2.678-.454-4.878-2.299-5.922-4.807-9.348-22.473-31.5-38.279-57.357-38.279-3.008 0-5.964.216-8.857.631-3.604.517-7.146-1.428-8.396-4.848-13.392-36.639-48.536-62.8-89.811-62.8-41.232 0-76.368 26.096-89.793 62.673-1.003 2.733-3.427 4.641-6.306 5.082-1.622.248-3.219.571-4.797.942 10.654 47.554 35.128 89.881 68.991 122.549h153.007c-.037-.493-.081-.985-.083-1.486-.046-10.449 7.386-19.299 17.671-21.044 2.046-.348 3.754-1.728 4.572-3.692 5.165-12.418 17.188-20.442 30.63-20.442 1.579 0 3.171.113 4.731.337 2.808.405 5.547-1.189 6.497-3.788 2.279-6.233 5.695-11.837 9.953-16.621-6.115-7.462-14.811-12.724-24.73-14.407z" fill="#8080c1"/><path d="m408.714 395.429c-1.614-.247-2.973-1.317-3.535-2.849-7.527-20.507-27.227-35.139-50.344-35.139-23.142 0-42.846 14.668-50.354 35.21-.701 1.917-2.687 3.008-4.708 2.718-1.622-.233-3.279-.354-4.966-.354-14.497 0-26.918 8.862-32.159 21.462-.585 1.406-1.818 2.44-3.32 2.695-10.847 1.841-19.1 11.302-19.05 22.685.056 12.694 10.704 22.809 23.398 22.809h139.093c.369 0 .734-.016 1.101-.027 12.267-9.002 23.663-19.116 34.043-30.198.189-1.403.304-2.83.317-4.283.156-17.57-12.702-32.157-29.516-34.729z" fill="#7070ab"/><g><path d="m311.064 445.136c1.333-.737 2.155-2.121 2.242-3.641.781-13.624 9.574-26.094 23.257-30.885 1.591-.558 3.196-.991 4.804-1.308 2.003-.394 3.517-2.08 3.544-4.121.249-18.368 9.99-35.665 26.042-45.266-5.088-1.603-10.501-2.473-16.119-2.473-23.142 0-42.846 14.668-50.354 35.21-.701 1.917-2.687 3.008-4.708 2.718-1.622-.233-3.279-.354-4.966-.354-14.497 0-26.918 8.862-32.159 21.462-.585 1.407-1.818 2.441-3.32 2.695-10.847 1.841-19.1 11.302-19.05 22.685.056 12.694 10.704 22.809 23.398 22.809h35.588c.18-8.027 4.6-15.551 11.801-19.531z" fill="#616196"/></g><path d="m60.467 398.481c-.259-29.086 21.028-53.236 48.864-57.494 2.671-.408 4.921-2.179 5.853-4.717 11.212-30.546 38.741-53.206 72.022-57.445-17.184-16.553-40.544-26.735-66.291-26.735-41.232 0-76.368 26.096-89.793 62.673-1.003 2.733-3.427 4.641-6.306 5.082-1.622.248-3.219.571-4.796.942 7.636 34.086 22.375 65.486 42.581 92.568-1.34-4.735-2.088-9.717-2.134-14.874z" fill="#7070ab"/></g></svg>