<svg id="Layer_1" enable-background="new 0 0 512 512" height="512" viewBox="0 0 512 512" width="512" xmlns="http://www.w3.org/2000/svg"><g><path d="m496.322 219.185-8.459-31.515c-32.966-96.374-124.319-165.67-231.863-165.67-106.683 0-197.423 68.194-231.05 163.362l-7.833 27.028c-3.998 17.562-6.117 35.838-6.117 54.61 0 51.666 16.007 99.586 43.311 139.102h403.378c27.304-39.516 43.311-87.436 43.311-139.102 0-16.365-1.618-32.349-4.678-47.815z" fill="#009cf2"/><path d="m256 123.386c-117.747 0-213.542 95.794-213.542 213.541 0 23.828 3.926 46.756 11.16 68.175 44.124 64.536 118.302 106.898 202.382 106.898s158.258-42.362 202.382-106.899c7.234-21.418 11.16-44.346 11.16-68.174 0-117.747-95.795-213.541-213.542-213.541z" fill="#ffe400"/><path d="m160.088 362.841c-33.88-83.174-11.324-175.537 49.671-234.398-95.59 21.186-167.302 106.611-167.302 208.484 0 23.828 3.926 46.756 11.16 68.175 44.125 64.536 118.303 106.898 202.383 106.898 31.316 0 61.257-5.88 88.784-16.59-79.294-4.988-152.77-54.194-184.696-132.569z" fill="#fdca00"/><g><path d="m262.225 93.511c1.427 0 2.879-.219 4.311-.679 7.402-2.38 11.474-10.309 9.093-17.711l-18.087-65.345c-2.376-7.403-10.309-11.477-17.711-9.096-7.402 2.38-11.474 10.309-9.093 17.711l18.087 65.346c1.918 5.97 7.45 9.774 13.4 9.774z" fill="#ffe400"/></g><path d="m487.863 187.67-16.18 16.449c-4.213 4.645-4.741 11.339-1.766 16.492.714 1.236 1.629 2.384 2.744 3.394 5.762 5.221 14.665 4.783 19.884-.98l3.777-3.839c-2.132-10.776-4.964-21.299-8.459-31.516z" fill="#ffe400"/><path d="m33.143 216.544c7.598 1.644 15.095-3.188 16.733-10.79 1.64-7.6-3.19-15.091-10.791-16.73l-14.134-3.663c-3.107 8.792-5.735 17.81-7.834 27.03z" fill="#ffe400"/><g><path d="m383.099 129.236c1.236.713 2.603 1.25 4.073 1.567 7.6 1.64 15.091-3.19 16.73-10.791l17.009-65.635c1.644-7.599-3.189-15.094-10.79-16.733-7.6-1.64-15.091 3.19-16.73 10.791l-17.009 65.635c-1.325 6.13 1.564 12.19 6.717 15.166z" fill="#ffe400"/></g><g><path d="m77.268 51.068c-1.236.714-2.384 1.629-3.394 2.744-5.22 5.762-4.783 14.665.98 19.885l48.337 47.548c5.758 5.223 14.667 4.786 19.886-.978 5.221-5.762 4.783-14.665-.98-19.884l-48.337-47.549c-4.645-4.213-11.338-4.741-16.492-1.766z" fill="#ffe400"/></g><g fill="#fff442"><ellipse cx="292.759" cy="290.926" rx="52.172" ry="52.172" transform="matrix(.235 -.972 .972 .235 -58.816 507.122)"/><circle cx="371.016" cy="234.505" r="20.159"/></g></g></svg>