<svg id="Layer_1" enable-background="new 0 0 512 512" height="512" viewBox="0 0 512 512" width="512" xmlns="http://www.w3.org/2000/svg"><g><path d="m266.512 511.761 185.097-97.237c30.999-41.038 49.391-92.131 49.391-147.524 0-135.31-109.69-245-245-245s-245 109.69-245 245 109.69 245 245 245c3.523 0 7.025-.092 10.512-.239z" fill="#41416b"/><path d="m451.609 414.524c-122.842-30.1-214.307-141.289-214.815-272.467-.171-44.183 9.842-86.006 27.816-123.27 5.474-11.349-6.751-23.03-17.956-17.266-91.551 47.103-153.947 142.897-152.948 253.174 1.043 115.173 72.165 214.606 172.806 257.066 75.608-3.193 142.347-40.642 185.097-97.237z" fill="#ffe400"/><path d="m169.114 270.09c-20.784-102.835 17.253-203.652 90.732-267.959-3.67-2.377-8.518-3.014-13.191-.61-91.552 47.103-153.948 142.897-152.949 253.174 1.043 115.173 72.164 214.606 172.807 257.066 36.441-1.539 70.809-11.055 101.437-26.817-98.019-28.241-177.422-108.9-198.836-214.854z" fill="#fdca00"/><path d="m423.302 187.991c2.051-1.999.919-5.482-1.915-5.895l-20.312-2.952c-1.125-.163-2.099-.87-2.602-1.89l-9.084-18.405c-1.268-2.568-4.93-2.568-6.198 0l-9.084 18.405c-.503 1.02-1.476 1.727-2.602 1.89l-20.312 2.952c-2.834.412-3.966 3.896-1.915 5.895l14.698 14.327c.814.794 1.186 1.938.994 3.059l-3.47 20.229c-.484 2.823 2.479 4.976 5.014 3.643l18.167-9.551c1.007-.529 2.21-.529 3.216 0l18.167 9.551c2.535 1.333 5.499-.82 5.014-3.643l-3.469-20.229c-.193-1.121.179-2.265.994-3.059z" fill="#ffe400"/><path d="m424.09 305.478c1.279-1.247.573-3.419-1.194-3.676l-12.667-1.841c-.702-.102-1.309-.543-1.623-1.179l-5.665-11.478c-.791-1.602-3.075-1.602-3.865 0l-5.665 11.478c-.314.636-.921 1.077-1.623 1.179l-12.667 1.841c-1.768.257-2.474 2.429-1.195 3.676l9.166 8.935c.508.495.74 1.208.62 1.908l-2.164 12.616c-.302 1.761 1.546 3.103 3.127 2.272l11.329-5.956c.628-.33 1.378-.33 2.006 0l11.33 5.956c1.581.831 3.429-.511 3.127-2.272l-2.164-12.616c-.12-.699.112-1.413.62-1.908z" fill="#ffe400"/><g><path d="m483.609 278.722c-6.672 0-11.868-5.465-11.868-11.868 0-5.496 3.818-10.466 9.554-11.631 7.191-1.461 14.183 4.05 14.183 11.631 0 6.649-5.423 11.868-11.869 11.868z" fill="#616196"/></g><g><path d="m55.555 311.828c-6.672 0-11.868-5.465-11.868-11.868 0-5.496 3.818-10.466 9.554-11.631 7.191-1.461 14.183 4.05 14.183 11.631 0 6.65-5.423 11.868-11.869 11.868z" fill="#616196"/></g><g><path d="m348.23 108.572c-4.916 0-8.901-3.985-8.901-8.901v-11.746c0-4.916 3.985-8.901 8.901-8.901s8.901 3.985 8.901 8.901v11.746c.001 4.916-3.984 8.901-8.901 8.901z" fill="#7070ab"/></g><g><path d="m348.23 59.533c-4.916 0-8.901-3.985-8.901-8.901v-11.746c0-4.916 3.985-8.901 8.901-8.901s8.901 3.986 8.901 8.901v11.746c.001 4.916-3.984 8.901-8.901 8.901z" fill="#7070ab"/></g><g><path d="m378.623 78.18h-11.746c-4.916 0-8.901-3.985-8.901-8.901s3.985-8.901 8.901-8.901h11.746c4.916 0 8.901 3.985 8.901 8.901.001 4.915-3.985 8.901-8.901 8.901z" fill="#7070ab"/></g><g><path d="m329.584 78.18h-11.746c-4.916 0-8.901-3.985-8.901-8.901s3.985-8.901 8.901-8.901h11.746c4.916 0 8.901 3.985 8.901 8.901 0 4.915-3.985 8.901-8.901 8.901z" fill="#7070ab"/></g><path d="m163.155 436.832c26.589-2.754 47.324-25.226 47.324-52.543 0-29.177-23.652-52.829-52.829-52.829-18.516 0-34.797 9.534-44.23 23.953 11.906 29.972 28.841 57.457 49.735 81.419z" fill="#feac00"/><path d="m240.895 282.483c10.864 0 21.082-2.76 29.994-7.617-19.306-35.465-31.213-75.452-33.63-117.831-32.979 1.885-59.144 29.216-59.144 62.668 0 34.672 28.108 62.78 62.78 62.78z" fill="#fdca00"/><path d="m237.259 157.035c-21.533 1.231-40.156 13.314-50.492 30.862 13.98 1.143 27.665 6.939 38.525 17.462 21.233 20.574 24.802 52.497 10.438 76.895 1.705.139 3.424.229 5.165.229 10.864 0 21.082-2.761 29.994-7.617-19.306-35.465-31.214-75.451-33.63-117.831z" fill="#feac00"/><circle cx="285.459" cy="419.247" fill="#fdca00" r="23.788"/><path d="m285.459 395.459c-10.211 0-18.917 6.435-22.29 15.47 2.906-1.265 6.111-1.97 9.483-1.97 13.138 0 23.789 10.65 23.789 23.789 0 2.926-.532 5.728-1.499 8.318 8.418-3.664 14.306-12.051 14.306-21.818-.001-13.139-10.651-23.789-23.789-23.789z" fill="#feac00"/><g fill="#fdca00"><path d="m377.928 305.477 9.166 8.935c.508.495.74 1.208.62 1.907l-2.164 12.616c-.302 1.761 1.546 3.103 3.127 2.272l11.329-5.956c.628-.33 1.378-.33 2.006 0l11.33 5.956c1.581.831 3.429-.511 3.127-2.272l-2.164-12.616c-21.723 3.794-22.516-16.359-22.516-16.359l-12.667 1.841c-1.767.257-2.473 2.43-1.194 3.676z"/><path d="m349.278 187.991 14.698 14.327c.814.794 1.186 1.938.994 3.059l-3.47 20.229c-.484 2.823 2.479 4.976 5.014 3.643l18.168-9.551c1.007-.529 2.209-.529 3.216 0l18.167 9.551c2.536 1.333 5.498-.82 5.015-3.643l-3.47-20.229c-35.585 8.017-36.105-26.232-36.105-26.232l-20.311 2.952c-2.835.411-3.967 3.895-1.916 5.894z"/></g></g></svg>