<svg id="Layer_1" enable-background="new 0 0 512 512" height="512" viewBox="0 0 512 512" width="512" xmlns="http://www.w3.org/2000/svg"><g><path d="m245.001 11c-82.191 0-154.922 40.476-199.365 102.577v284.847c44.444 62.101 117.175 102.576 199.365 102.576 135.31 0 245-109.69 245-245s-109.691-245-245-245z" fill="#ff7e3e"/><path d="m244.306 106.293c-27.226-17.129-59.447-27.047-93.989-27.047-39.18 0-75.377 12.757-104.681 34.331-28.724 40.136-45.636 89.303-45.636 142.423s16.912 102.287 45.636 142.423c29.304 21.575 65.5 34.331 104.68 34.331 34.506 0 66.695-9.897 93.903-26.993-71.089-43.14-103.441-132.473-72.526-212.737 14.476-37.583 40.572-67.328 72.613-86.731z" fill="#ffe400"/><path d="m158.896 394.597c-91.095-35.087-136.5-137.378-101.413-228.473 14.088-36.576 39.015-65.776 69.696-85.368-30.256 3.959-58.106 15.565-81.544 32.821-28.723 40.136-45.635 89.303-45.635 142.423s16.912 102.287 45.636 142.424c29.304 21.574 65.5 34.331 104.68 34.331 34.506 0 66.695-9.897 93.903-26.993-.307-.186-.607-.38-.912-.568-27.691 3.318-56.573.125-84.411-10.597z" fill="#fdca00"/><g><ellipse cx="335.198" cy="256" fill="#7070ab" rx="176.755" ry="176.755" transform="matrix(.707 -.707 .707 .707 -82.842 312.002)"/></g><path d="m371.362 295.987c.01-1.504-1.101-2.739-2.585-2.985-6.021-.996-7.639-5.391-8.044-8.262-.204-1.446-1.401-2.545-2.86-2.594-42.133-1.413-53.216-35.035-55.402-43.853-.292-1.179-1.274-2.071-2.479-2.225-6.294-.807-8.167-5.389-8.713-8.403-.27-1.491-1.578-2.539-3.091-2.48-28.703 1.105-25.084-26.698-25.084-26.698l-20.124-27.555c-34.499-12.776-20.885-50.181-20.561-51.056-22.605 18.694-40.869 43.272-52.163 72.594-35.087 91.095 10.317 193.386 101.413 228.473 62.76 24.173 130.831 10.137 178.582-30.719-75.517-5.222-78.989-78.91-78.889-94.237z" fill="#616196"/><g><ellipse cx="329.336" cy="261.349" fill="#515181" rx="45.096" ry="45.096" transform="matrix(.472 -.882 .882 .472 -56.478 428.421)"/></g><path d="m319.058 305.258c16.981 3.975 33.957-2.225 44.564-14.621-1.924-1.776-2.64-4.126-2.89-5.897-.204-1.446-1.401-2.545-2.86-2.594-42.133-1.413-53.216-35.035-55.402-43.853-.292-1.179-1.274-2.071-2.479-2.225-2.747-.352-4.651-1.424-5.971-2.77-4.023 5.058-7.022 11.061-8.593 17.772-5.676 24.251 9.381 48.512 33.631 54.188z" fill="#41416b"/><g><ellipse cx="249.344" cy="187.408" fill="#515181" rx="17.665" ry="17.665" transform="matrix(.912 -.41 .41 .912 -54.922 118.73)"/></g><g><ellipse cx="344.456" cy="145.022" fill="#616196" rx="26.611" ry="26.611" transform="matrix(.198 -.98 .98 .198 134.204 454.013)"/></g><g><g><path d="m294.358 331.527c-3.488-2.439-4.339-7.244-1.901-10.733 4.661-6.668 5.852-15.616 6.147-20.356.264-4.249 3.938-7.487 8.17-7.214 4.249.264 7.479 3.922 7.214 8.17-.483 7.763-2.418 18.963-8.898 28.232-2.445 3.5-7.253 4.333-10.732 1.901z" fill="#515181"/></g></g><g><g><path d="m379.115 239.743c-12.586 0-22.388-4.682-22.954-4.957-3.826-1.866-5.416-6.479-3.551-10.305 1.861-3.818 6.459-5.406 10.278-3.564.285.134 13.83 6.398 26.686 1.622 3.989-1.483 8.426.549 9.909 4.54 1.483 3.99-.55 8.426-4.54 9.909-5.445 2.024-10.854 2.755-15.828 2.755z" fill="#616196"/></g></g><g><g><path d="m262.004 293.713c-2.632-3.345-2.054-8.191 1.291-10.823 12.146-9.557 13.25-21.546 13.258-21.665.277-4.248 3.942-7.481 8.192-7.189 4.248.276 7.466 3.944 7.189 8.192-.05.764-1.422 18.861-19.107 32.776-3.367 2.649-8.209 2.033-10.823-1.291z" fill="#515181"/></g></g><g><path d="m150.315 56.126c-3.227 0-6.234-2.042-7.311-5.272l-6.166-18.498c-1.346-4.038.837-8.403 4.875-9.749 4.037-1.346 8.403.836 9.749 4.875l6.166 18.497c1.346 4.038-.837 8.403-4.875 9.749-.808.27-1.63.398-2.438.398z" fill="#ffe400"/></g><g><path d="m156.481 489.791c-3.227 0-6.234-2.042-7.311-5.272l-6.166-18.497c-1.346-4.038.837-8.403 4.875-9.749 4.037-1.346 8.403.836 9.749 4.875l6.166 18.498c1.346 4.038-.837 8.403-4.875 9.749-.808.268-1.63.396-2.438.396z" fill="#ffe400"/></g><g><path d="m268.694 456.417c-1.818 0-3.643-.639-5.111-1.941l-14.589-12.936c-3.185-2.824-3.477-7.695-.653-10.88s7.694-3.478 10.88-.653l14.589 12.936c3.185 2.824 3.477 7.695.653 10.88-1.522 1.717-3.641 2.594-5.769 2.594z" fill="#ffe400"/></g><g><path d="m254.116 83.936c-.512 0-1.032-.051-1.554-.158-4.17-.854-6.859-4.926-6.005-9.096l3.909-19.102c.853-4.17 4.92-6.861 9.096-6.005 4.17.854 6.859 4.926 6.005 9.096l-3.909 19.102c-.746 3.648-3.957 6.163-7.542 6.163z" fill="#ffe400"/></g><g><g><path d="m404.997 316.732c-5.692 0-10.276-4.651-10.276-10.277 0-6.374 5.817-11.336 12.291-10.081 4.8.99 8.262 5.154 8.262 10.081 0 5.767-4.705 10.277-10.277 10.277z" fill="#8080c1"/></g></g><g><g><path d="m232.702 266.275c-5.719 0-10.276-4.666-10.276-10.277 0-6.499 5.974-11.343 12.281-10.071 4.922.999 8.272 5.284 8.272 10.071 0 5.696-4.631 10.277-10.277 10.277z" fill="#8080c1"/></g></g><g><g><path d="m329.34 314.159c-3.973 0-8.007-.452-12.038-1.396-28.349-6.637-46.015-35.099-39.379-63.449 6.637-28.35 35.096-46.017 63.449-39.379 28.349 6.637 46.014 35.099 39.379 63.449-5.693 24.318-27.446 40.775-51.411 40.775zm-.005-90.203c-16.971 0-32.372 11.651-36.403 28.871-4.699 20.074 7.809 40.228 27.883 44.926 20.075 4.699 40.228-7.81 44.926-27.883 4.699-20.074-7.809-40.228-27.883-44.926-2.853-.667-5.711-.988-8.523-.988zm43.911 47.672h.01z" fill="#616196"/></g></g><path d="m317.301 312.763c4.032.944 8.065 1.396 12.038 1.396 16.249 0 31.474-7.572 41.373-20.024-.466-.584-1.144-1.001-1.935-1.132-6.021-.996-7.639-5.391-8.044-8.262-.098-.696-.43-1.308-.907-1.765-8.543 12.01-23.796 18.339-39.011 14.777-20.074-4.699-32.582-24.853-27.883-44.926 1.46-6.236 4.416-11.736 8.392-16.222-.387-.28-.839-.473-1.333-.536-6.294-.807-8.167-5.389-8.713-8.403-.131-.725-.511-1.342-1.038-1.781-5.851 6.429-10.199 14.381-12.317 23.429-6.636 28.349 11.029 56.812 39.378 63.449z" fill="#515181"/><ellipse cx="101.903" cy="181.106" fill="#fff442" rx="29.913" ry="29.913" transform="matrix(.443 -.896 .896 .443 -105.611 192.135)"/><ellipse cx="138.932" cy="140.013" fill="#fff442" rx="11.558" ry="11.558" transform="matrix(.102 -.995 .995 .102 -14.472 264)"/><g><path d="m352.604 127.665c5.312 2.017 7.983 7.958 5.966 13.269-2.017 5.312-7.958 7.983-13.269 5.966-5.312-2.017-7.983-7.958-5.966-13.27 2.017-5.311 7.958-7.982 13.269-5.965z" fill="#7070ab"/></g></g></svg>