<svg id="Layer_1" enable-background="new 0 0 512 512" height="512" viewBox="0 0 512 512" width="512" xmlns="http://www.w3.org/2000/svg"><g><path d="m498.621 301.136-1.24-76.247c-19.965-115.243-120.432-202.889-241.381-202.889-135.31 0-245 109.69-245 245s109.69 245 245 245c123.724 0 226.009-91.716 242.621-210.864z" fill="#41416b"/><g><path d="m232.924 48.281c-4.558 0-8.253-3.695-8.253-8.253v-10.89c0-4.558 3.695-8.253 8.253-8.253s8.253 3.695 8.253 8.253v10.89c0 4.558-3.695 8.253-8.253 8.253z" fill="#ffe400"/></g><g><path d="m232.924 93.747c-4.558 0-8.253-3.695-8.253-8.253v-10.889c0-4.558 3.695-8.253 8.253-8.253s8.253 3.695 8.253 8.253v10.889c0 4.558-3.695 8.253-8.253 8.253z" fill="#ffe400"/></g><g><path d="m261.103 65.569h-10.89c-4.558 0-8.253-3.695-8.253-8.253s3.695-8.253 8.253-8.253h10.89c4.558 0 8.253 3.695 8.253 8.253s-3.695 8.253-8.253 8.253z" fill="#ffe400"/></g><g><path d="m215.636 65.569h-10.89c-4.558 0-8.253-3.695-8.253-8.253s3.695-8.253 8.253-8.253h10.89c4.558 0 8.253 3.695 8.253 8.253s-3.695 8.253-8.253 8.253z" fill="#ffe400"/></g><path d="m145.487 221.386 1.171.011.498-.659c11.015-14.568 26.631-24.151 44.093-27.422-27.057-29.444-43.665-68.593-43.83-111.367-.096-24.666 5.2-48.083 14.77-69.147 3.593-7.907-5.014-15.818-12.634-11.652-51.897 28.37-86.961 83.674-86.387 147.12.313 34.598 11.377 66.778 30 93.328 14.073-12.694 32.616-20.212 52.319-20.212z" fill="#ffe400"/><path d="m111.156 161.825c-14.325-60.268 6.211-120.515 48.406-159.818-2.647-2.11-6.436-2.811-10.008-.858-51.896 28.371-86.961 83.675-86.386 147.121.313 34.598 11.377 66.778 30 93.328 12.51-11.285 28.555-18.463 45.804-19.922-12.882-17.408-22.525-37.59-27.816-59.851z" fill="#fdca00"/><g><g><path d="m322.275 74.465c-6.09 0-11.004-4.963-11.004-11.004 0-6.962 6.398-12.144 13.15-10.784 5.31 1.082 8.858 5.676 8.858 10.784 0 5.989-4.879 11.004-11.004 11.004z" fill="#ffe400"/></g></g><path d="m497.382 224.888c-11.174-17.692-29.649-30.313-51.203-33.61-3.42-.523-6.302-2.791-7.494-6.039-15.957-43.471-57.715-74.487-106.719-74.487-49.056 0-90.824 31.093-106.74 74.638-1.486 4.064-5.695 6.376-9.979 5.761-3.438-.493-6.952-.749-10.527-.749-24.7 0-46.549 12.142-59.944 30.773.237-.002.472-.014.71-.014 32.725 0 62.261 20.653 73.496 51.392 1.246 3.406 4.832 5.491 8.539 4.961 2.364-.339 4.779-.511 7.178-.511 20.396 0 38.639 12.175 46.477 31.017 1.077 2.59 3.325 4.408 6.012 4.864 13.378 2.27 23.607 12.371 26.377 25.159h120.012c27.494 0 51.938-14.782 65.045-36.91 1.555-11.155 2.378-22.547 2.378-34.133 0-14.361-1.248-28.429-3.618-42.112z" fill="#616196"/><g><path d="m273.574 243.236c2.496-.842 4.323-2.943 4.941-5.504 5.538-22.942 24.353-41.446 49.116-45.374 2.88-.457 5.745-.7 8.579-.742 3.53-.053 6.627-2.453 7.305-5.918 4.978-25.46 20.505-47.752 42.52-61.27-16.08-8.716-34.492-13.677-54.068-13.677-49.056 0-90.824 31.093-106.74 74.638-1.485 4.064-5.695 6.376-9.979 5.761-3.438-.493-6.952-.749-10.527-.749-24.7 0-46.548 12.142-59.944 30.773.237-.002.472-.014.71-.014 32.725 0 62.261 20.653 73.496 51.392 1.246 3.406 4.832 5.491 8.539 4.961 2.364-.339 4.779-.511 7.178-.511 4.121 0 8.152.505 12.029 1.454.918-16.012 11.537-30.054 26.845-35.22z" fill="#515181"/></g><g><path d="m122.728 452.405c-.708 0-1.426-.092-2.142-.283-4.403-1.18-7.015-5.706-5.836-10.108l4.461-16.646c1.18-4.403 5.709-7.011 10.108-5.836 4.403 1.18 7.015 5.706 5.836 10.108l-4.461 16.646c-.987 3.688-4.322 6.119-7.966 6.119z" fill="#8080c1"/></g><g><path d="m223.978 452.405c-.708 0-1.426-.092-2.142-.283-4.403-1.18-7.015-5.706-5.836-10.108l4.461-16.646c1.18-4.403 5.708-7.011 10.108-5.836 4.403 1.18 7.015 5.706 5.836 10.108l-4.461 16.646c-.988 3.688-4.323 6.119-7.966 6.119z" fill="#8080c1"/></g><g><path d="m208.01 512c-.708 0-1.426-.091-2.141-.283-4.403-1.18-7.015-5.705-5.836-10.108l4.46-16.647c1.18-4.403 5.709-7.015 10.108-5.836 4.403 1.18 7.016 5.705 5.836 10.108l-4.46 16.647c-.989 3.687-4.324 6.119-7.967 6.119z" fill="#8080c1"/></g><g><path d="m173.353 452.405c-.708 0-1.426-.092-2.142-.283-4.403-1.18-7.015-5.706-5.836-10.108l4.461-16.646c1.18-4.403 5.708-7.011 10.108-5.836 4.403 1.18 7.015 5.706 5.836 10.108l-4.461 16.646c-.987 3.688-4.322 6.119-7.966 6.119z" fill="#8080c1"/></g><g><path d="m157.385 512c-.708 0-1.426-.092-2.142-.283-4.403-1.18-7.015-5.706-5.836-10.108l4.461-16.647c1.18-4.403 5.709-7.011 10.108-5.836 4.403 1.18 7.015 5.706 5.836 10.108l-4.461 16.647c-.987 3.687-4.323 6.119-7.966 6.119z" fill="#8080c1"/></g><g><path d="m274.602 452.405c-.708 0-1.426-.092-2.142-.283-4.403-1.18-7.015-5.706-5.836-10.108l4.461-16.646c1.18-4.403 5.707-7.011 10.108-5.836 4.403 1.18 7.015 5.706 5.836 10.108l-4.461 16.646c-.987 3.688-4.322 6.119-7.966 6.119z" fill="#8080c1"/></g><g><path d="m258.634 512c-.708 0-1.426-.091-2.141-.283-4.403-1.18-7.016-5.705-5.836-10.108l4.46-16.647c1.181-4.403 5.708-7.015 10.108-5.836 4.403 1.18 7.016 5.705 5.836 10.108l-4.46 16.647c-.988 3.687-4.323 6.119-7.967 6.119z" fill="#8080c1"/></g><g><path d="m341.195 392.812c-.708 0-1.426-.092-2.142-.283-4.403-1.18-7.015-5.706-5.836-10.108l4.461-16.646c1.181-4.403 5.708-7.011 10.108-5.836 4.402 1.18 7.015 5.706 5.836 10.108l-4.461 16.646c-.987 3.687-4.322 6.119-7.966 6.119z" fill="#8080c1"/></g><g><path d="m325.227 452.405c-.708 0-1.426-.092-2.142-.283-4.403-1.18-7.015-5.706-5.836-10.108l4.461-16.646c1.18-4.403 5.71-7.011 10.108-5.836 4.403 1.18 7.015 5.706 5.836 10.108l-4.461 16.646c-.987 3.688-4.322 6.119-7.966 6.119z" fill="#8080c1"/></g><g><path d="m309.259 512c-.708 0-1.425-.091-2.141-.283-4.403-1.18-7.016-5.705-5.836-10.108l4.46-16.647c1.18-4.403 5.707-7.015 10.108-5.836 4.403 1.18 7.016 5.705 5.836 10.108l-4.46 16.647c-.988 3.687-4.324 6.119-7.967 6.119z" fill="#8080c1"/></g><g><path d="m391.82 392.812c-.708 0-1.426-.092-2.142-.283-4.403-1.18-7.015-5.706-5.836-10.108l4.461-16.646c1.18-4.403 5.707-7.011 10.108-5.836 4.403 1.18 7.015 5.706 5.836 10.108l-4.461 16.646c-.988 3.687-4.323 6.119-7.966 6.119z" fill="#8080c1"/></g><g><path d="m375.852 452.405c-.708 0-1.426-.092-2.142-.283-4.403-1.18-7.015-5.706-5.836-10.108l4.461-16.646c1.18-4.403 5.708-7.011 10.108-5.836 4.403 1.18 7.015 5.706 5.836 10.108l-4.461 16.646c-.988 3.688-4.323 6.119-7.966 6.119z" fill="#8080c1"/></g><g><path d="m359.884 512c-.708 0-1.425-.091-2.141-.283-4.403-1.18-7.016-5.705-5.836-10.108l4.46-16.647c1.18-4.403 5.707-7.015 10.108-5.836 4.403 1.18 7.016 5.705 5.836 10.108l-4.46 16.647c-.989 3.687-4.324 6.119-7.967 6.119z" fill="#8080c1"/></g><g><path d="m442.445 392.812c-.708 0-1.426-.092-2.142-.283-4.403-1.18-7.015-5.706-5.836-10.108l4.461-16.646c1.18-4.403 5.71-7.011 10.108-5.836 4.403 1.18 7.015 5.706 5.836 10.108l-4.461 16.646c-.988 3.687-4.323 6.119-7.966 6.119z" fill="#8080c1"/></g><g><path d="m426.477 452.405c-.708 0-1.426-.092-2.142-.283-4.402-1.18-7.015-5.706-5.836-10.108l4.461-16.646c1.18-4.403 5.707-7.011 10.108-5.836 4.403 1.18 7.015 5.706 5.836 10.108l-4.461 16.646c-.988 3.688-4.323 6.119-7.966 6.119z" fill="#8080c1"/></g><g><g><path d="m40.189 252.601c-6.09 0-11.004-4.963-11.004-11.004 0-6.962 6.398-12.144 13.15-10.784 5.31 1.081 8.858 5.676 8.858 10.784 0 5.989-4.878 11.004-11.004 11.004z" fill="#9292dd"/></g></g><path d="m63.434 276.639c2.417-.37 4.453-1.972 5.296-4.268 11.275-30.719 40.784-52.635 75.412-52.635 34.665 0 64.18 21.972 75.427 52.742 1.05 2.872 4.024 4.505 7.051 4.071 2.429-.348 4.913-.53 7.438-.53 21.716 0 40.321 13.275 48.171 32.148.876 2.107 2.724 3.656 4.973 4.037 16.249 2.757 28.611 16.929 28.536 33.98-.083 19.014-16.033 34.166-35.048 34.166h-208.351c-28.784 0-52.863-22.909-53.118-51.691-.234-26.317 19.026-48.168 44.213-52.02z" fill="#7070ab"/><path d="m77.945 328.659c-.234-26.318 19.027-48.169 44.213-52.021 2.417-.37 4.453-1.972 5.295-4.268 7.9-21.522 24.756-38.71 46.045-47.081-9.094-3.577-18.992-5.554-29.357-5.554-34.628 0-64.137 21.917-75.412 52.635-.843 2.295-2.878 3.898-5.295 4.268-25.187 3.852-44.447 25.703-44.213 52.021.256 28.783 24.335 51.691 53.119 51.691h58.724c-28.784.001-52.864-22.908-53.119-51.691z" fill="#616196"/></g></svg>