<svg id="Layer_1" enable-background="new 0 0 512 512" height="512" viewBox="0 0 512 512" width="512" xmlns="http://www.w3.org/2000/svg"><g><path d="m245 11c-39.621 0-77.038 9.417-110.155 26.116l-56.39 398.55c27.289 25.308 60.35 44.472 96.993 55.302l132.311 1.905c104.901-27.721 182.241-123.259 182.241-236.873 0-135.31-109.69-245-245-245z" fill="#fdca00"/><path d="m491.618 37.145c-3.332 0-210.111-.017-356.773-.029-15.463 7.797-29.982 17.191-43.353 27.953l-74.541 280.612c4.176 10.605 9.066 20.851 14.617 30.675l209.863-1.324 270.542 1.752.027-319.253c.001-11.212-9.17-20.385-20.382-20.386z" fill="#515181"/><path d="m134.845 37.116c-15.463 7.797-29.982 17.191-43.353 27.953l-74.541 280.612c4.176 10.605 9.066 20.851 14.617 30.675l81.851-.516v-291.56c0-20.878 12.513-38.964 30.404-47.163-3.015-.001-6.01-.001-8.978-.001z" fill="#41416b"/><path d="m482.508 65.096c-95.225-.008-273.135-.022-391.014-.032-55.786 44.907-91.494 113.746-91.494 190.936 0 31.664 6.008 61.924 16.945 89.705 98.939.008 346.666.029 465.54.038.878 0 1.59-.711 1.59-1.589.001-10.998.022-263.823.023-277.468-.001-.879-.712-1.59-1.59-1.59z" fill="#00adf4"/><path d="m482.508 65.096c-95.225-.008-273.135-.022-391.014-.032-55.786 44.907-91.494 113.746-91.494 190.936 0 31.664 6.008 61.924 16.945 89.705 98.939.008 346.666.029 465.54.038.878 0 1.59-.711 1.59-1.589.001-10.998.022-263.823.023-277.468-.001-.879-.712-1.59-1.59-1.59z" fill="#00adf4"/><path d="m91.494 65.064c-55.786 44.907-91.494 113.746-91.494 190.936 0 31.664 6.008 61.925 16.945 89.705 24.46.002 58.022.005 96.475.008v-261.433c0-6.782 1.332-13.263 3.727-19.214-8.811-.001-17.384-.002-25.653-.002z" fill="#009cf2"/><path d="m482.508 65.096c-95.227-.008-273.136-.022-391.014-.032-19.404 15.62-36.38 34.13-50.267 54.888 2.195 13.011 8.781 27.46 22.292 42.985 45.666 52.473-27.356 103.599 43.267 128.406 32.833 11.533 47.453 33.822 53.705 54.374 110.52.009 243.995.02 321.994.026.878 0 1.59-.711 1.59-1.589.001-10.998.022-263.823.023-277.468-.001-.879-.712-1.59-1.59-1.59z" fill="#5ccbf7"/><path d="m41.227 119.952c2.196 13.011 8.781 27.459 22.292 42.985 45.667 52.473-27.356 103.599 43.267 128.406 2.303.809 4.507 1.676 6.634 2.586v-209.649c0-6.782 1.332-13.263 3.727-19.214-8.811-.001-17.384-.002-25.653-.002-19.404 15.62-36.38 34.13-50.267 54.888z" fill="#00adf4"/><g><path d="m482.508 65.096c-48.258-.004-117.754-.01-189.91-.016-1.474 14.52 1.905 32.264 22.126 43.737 39.273 22.283-15.939 38.185 5.806 64.062 21.075 25.08-7.861 65.747-28.241 45.368s-30.606-57.902-63.134-57.902-40.441 46.899-10.246 62.592c16.064 8.349 50.136 19.575 61.277 54.392 11.141 34.816 55.992 45.862 74.001 27.853s30.071-72.418 63.684-72.418 28.095 34.335 20.649 41.78c-6.541 6.541 4.141 43.769 45.557 42.202.006-68.147.02-238.912.021-250.059-.001-.88-.712-1.591-1.59-1.591z" fill="#85d249"/></g><g fill="#60b550"><path d="m443.994 253.568c.031.307.057.615.078.922.004-.012.094-.344-.078-.922z"/><path d="m400.387 238.357c-46.33-7.225-10.17-59.275-41.67-66.961s-29.874-41.812-29.874-41.812c-3.116 13.229-22.809 26.046-8.314 43.295 21.075 25.08-7.862 65.748-28.241 45.368-20.38-20.38-30.606-57.902-63.134-57.902s-40.441 46.899-10.246 62.592c16.064 8.349 50.136 19.575 61.277 54.392 11.141 34.816 55.992 45.862 74.002 27.853 14.48-14.48 25.118-52.482 46.2-66.825z"/><path d="m484.077 316.745c.001-10.881.002-24.381.003-39.427-21.328-2.325-39.993-22.809-40.008-22.825.586 8.412-2.299 16.798-5.552 20.051-6.541 6.541 4.142 43.768 45.557 42.201z"/></g><g><path d="m235.024 266c2.519 1.731 3.599 5.005 2.431 7.83-1.167 2.825-1.359 6.862 3.198 11.174 8.531 8.073 5.193 13.031.419 15.181-3.895 1.753-17.317 9.023-26.092.72s.294-23.746-15.544-29.955c-15.111-5.926.418-29.118 35.588-4.95z" fill="#60b550"/></g><g><ellipse cx="267.355" cy="182.711" fill="#ff4155" rx="25.937" ry="25.937" transform="matrix(.139 -.99 .99 .139 49.209 422.031)"/></g><g><ellipse cx="274.059" cy="173.93" fill="#f98ca1" rx="8.781" ry="8.781" transform="matrix(.231 -.973 .973 .231 41.614 400.489)"/></g><g><path d="m161.228 171.395c-3.97 0-7.511-2.808-8.294-6.852-.888-4.585 2.11-9.023 6.696-9.91 3.465-.671 6.624-2.353 9.136-4.864 9.459-9.459 9.459-24.849 0-34.308-6.579-6.58-15.676-10.018-24.98-9.437-4.649.28-8.677-3.25-8.969-7.913-.292-4.661 3.251-8.677 7.912-8.969 14.133-.886 27.986 4.349 37.996 14.359 23.157 23.156 10.575 62.23-17.881 67.738-.542.106-1.083.156-1.616.156z" fill="#b8e9fa"/></g><g><path d="m171.722 205.418c-9.525-5.499-16.337-14.378-19.184-25.001-1.796-6.703-1.552-13.702.705-20.241 1.524-4.415 6.339-6.758 10.754-5.234s6.758 6.339 5.234 10.754c-1.152 3.335-1.275 6.913-.355 10.343 1.677 6.259 5.691 11.49 11.303 14.73 14.253 8.228 32.003-.265 39.071-14.491 2.077-4.183 7.152-5.89 11.337-3.811 4.183 2.078 5.889 7.153 3.811 11.337-11.273 22.693-39.558 34.962-62.676 21.614z" fill="#b8e9fa"/></g><g><path d="m106.585 215.861c-13.973-21.046-10.488-51.744 12.62-65.086 9.524-5.498 20.618-6.959 31.244-4.113 6.701 1.796 12.641 5.507 17.175 10.73 3.062 3.527 2.685 8.869-.843 11.93-3.528 3.063-8.869 2.685-11.93-.842-2.314-2.666-5.351-4.561-8.781-5.48-6.258-1.679-12.797-.818-18.408 2.423-14.259 8.231-15.767 27.855-6.986 41.082 2.584 3.891 1.523 9.14-2.368 11.723-3.882 2.579-9.134 1.534-11.723-2.367z" fill="#b8e9fa"/></g><path d="m303.487 433.618c-33.632-.003-104.304-.009-124.121-.01l-2.278 43.431c-.246 4.686-.8 9.337-1.64 13.93 22.051 6.516 45.389 10.031 69.552 10.031 21.696 0 42.728-2.834 62.76-8.127-1.046-5.206-1.724-10.493-2.003-15.824z" fill="#b8e9fa"/><path d="m225.085 484.221c.003-.055.006-.109.009-.163l1.666-31.763c.548-10.446 9.147-18.637 19.596-18.681-28-.002-55.72-.005-66.99-.006l-2.278 43.431c-.246 4.686-.801 9.337-1.64 13.93 18.112 5.353 37.095 8.676 56.688 9.694-4.67-3.931-7.398-9.979-7.051-16.442z" fill="#8adaf9"/><path d="m78.455 435.666c142.363.012 409.341.034 413.13.034 11.211.001 20.384-9.171 20.385-20.382l.003-41.621c-12.273-.001-343.799-.028-481.914-.04 12.737 23.218 29.129 44.141 48.396 62.009z" fill="#e6f8fc"/><path d="m30.06 373.658c12.736 23.217 29.128 44.14 48.395 62.009 18.528.001 39.169.003 61.063.005-15.56-8.976-26.099-25.782-26.099-44.941v-17.066c-31.61-.003-60.205-.006-83.359-.007z" fill="#b8e9fa"/><g><path d="m255.38 404.679c-.001 7.705-6.247 13.951-13.952 13.95s-13.95-6.247-13.95-13.952c.001-7.705 6.247-13.951 13.952-13.95 7.705 0 13.951 6.247 13.95 13.952z" fill="#b8e9fa"/></g><path d="m482.508 65.096c-29.618-.002-67.235-.006-108.557-.009 1.594 8.226 7.099 19.34 24.292 25.787 29.711 11.142-29.196 25.752 0 47.353 25.069 18.547-2.553 48.745 40.853 55.245 23.204 3.474 34.816-8.83 44.993-13.263.005-56.672.009-107.603.009-113.522-.001-.88-.712-1.591-1.59-1.591z" fill="#a3ea6e"/><g><path d="m141.749 222.372c-16.054-16.054-16.054-42.174 0-58.228 4.906-4.906 11.088-8.195 17.88-9.51 4.58-.886 9.023 2.109 9.911 6.695s-2.109 9.023-6.695 9.911c-3.467.671-6.626 2.353-9.137 4.864-9.459 9.459-9.459 24.849 0 34.308 6.579 6.579 15.689 10.019 24.979 9.436 4.654-.285 8.677 3.25 8.969 7.912.292 4.661-3.25 8.677-7.912 8.969-14.219.889-28.041-4.403-37.995-14.357z" fill="#e6f8fc"/></g><g><path d="m161.238 171.396c-.916 0-1.845-.15-2.759-.465-4.415-1.524-6.759-6.339-5.236-10.754 1.152-3.337 1.275-6.914.356-10.343-3.462-12.922-16.789-20.619-29.712-17.155-8.987 2.408-16.519 8.573-20.662 16.914-2.077 4.182-7.153 5.89-11.337 3.811-4.183-2.078-5.889-7.153-3.811-11.337 6.301-12.685 17.758-22.062 31.432-25.727 21.931-5.875 44.551 7.185 50.427 29.115 1.796 6.701 1.553 13.699-.704 20.239-1.209 3.503-4.487 5.702-7.994 5.702z" fill="#e6f8fc"/></g><g><path d="m172.027 179.211c-6.703-1.796-12.643-5.507-17.177-10.732-3.061-3.528-2.683-8.869.845-11.93s8.87-2.683 11.93.845c2.313 2.665 5.349 4.56 8.779 5.479 6.259 1.678 12.796.817 18.409-2.424 14.253-8.228 15.772-27.848 6.986-41.082-2.584-3.891-1.524-9.14 2.367-11.723 3.892-2.584 9.14-1.523 11.723 2.368 23.19 34.923-5.088 79.588-43.862 69.199z" fill="#e6f8fc"/></g></g></svg>