<svg id="Layer_1" enable-background="new 0 0 512 512" height="512" viewBox="0 0 512 512" width="512" xmlns="http://www.w3.org/2000/svg"><g><g><path d="m256 22c-135.31 0-245 109.69-245 245 0 45.142 12.222 87.423 33.518 123.74l173.004 118.244c12.536 1.978 25.385 3.016 38.478 3.016 135.31 0 245-109.69 245-245s-109.69-245-245-245z" fill="#ff4155"/><path d="m416.552 389.784h-112.029c-11.261 0-20.462-8.953-20.51-19.958-.043-9.855 6.966-18.203 16.666-19.849 2.004-.34 3.678-1.691 4.478-3.614 4.068-9.781 12.639-16.663 22.732-18.699-15.107-22.635-40.859-37.554-70.116-37.554-22.069 0-42.146 8.493-57.171 22.374.512 3.124 2.467 5.903 5.378 7.48 35.661 19.326 57.815 56.508 57.815 97.034 0 14.571-2.782 28.653-8.091 41.682h145.382c19.956 0 36.696-15.902 36.784-35.858.065-14.722-8.71-27.394-21.318-33.038z" fill="#8adaf9"/><g><path d="m246.15 357.14c6.183-3.862 13.189-6.531 20.696-7.679 2.546-.389 4.689-2.077 5.577-4.494 6.138-16.722 17.416-30.956 31.908-40.817-13.335-8.867-29.338-14.039-46.557-14.039-22.069 0-42.147 8.492-57.171 22.374.512 3.124 2.467 5.903 5.378 7.48 16.614 9.003 30.292 21.886 40.169 37.175z" fill="#5ccbf7"/></g><g><path d="m274.06 70.593c-16.76 0-30.396-13.636-30.396-30.396s13.636-30.396 30.396-30.396 30.396 13.636 30.396 30.396c0 16.761-13.636 30.396-30.396 30.396zm0-43.331c-7.133 0-12.936 5.803-12.936 12.936s5.803 12.936 12.936 12.936 12.936-5.803 12.936-12.936-5.803-12.936-12.936-12.936z" fill="#e6f8fc"/></g><path d="m206.812 318.429c-2.842-1.541-4.608-4.439-4.608-7.565v-262.149c0-26.861-21.854-48.715-48.716-48.715s-48.715 21.854-48.715 48.715v262.286c0 3.04-1.78 5.894-4.645 7.448-28.545 15.483-48.344 41.807-55.612 72.292 8.512 14.516 18.492 28.062 29.707 40.47l94.822 64.877c15.472 5.876 31.685 10.247 48.475 12.896 4.571-3.201 8.943-6.762 13.075-10.683 22.535-21.378 34.945-50.251 34.945-81.303.001-41.167-22.503-78.937-58.728-98.569z" fill="#e6f8fc"/><path d="m205.04 484.751c-.094-3.543-2.618-6.553-6.117-7.121-32.044-5.203-24.289-31.44-24.289-31.44l-19.605-36.108c-51.663-5.5-39.915-64.007-39.915-64.007l-41.836-7.4c-14.134 14.42-24.066 32.371-28.761 52.065 8.512 14.516 18.492 28.062 29.707 40.47l94.822 64.877c15.472 5.876 31.685 10.247 48.475 12.896 2.955-2.069 5.817-4.306 8.594-6.676-17.564-.997-20.896-10.808-21.075-17.556z" fill="#b8e9fa"/><path d="m148.943 32.04c-23.916-9.543-8.149-30.351-8.149-30.351-20.724 5.6-36.021 24.556-36.021 47.027v262.286c0 3.04-1.78 5.894-4.645 7.448-28.545 15.483-48.344 41.807-55.612 72.292 8.512 14.516 18.492 28.062 29.707 40.47l74.718 51.122v-450.294z" fill="#b8e9fa"/><g><path d="m202.204 95.829h-31.429c-4.822 0-8.73-3.909-8.73-8.73s3.909-8.73 8.73-8.73h31.429c4.822 0 8.73 3.909 8.73 8.73s-3.909 8.73-8.73 8.73z" fill="#5ccbf7"/></g><g><path d="m202.204 144.912h-31.429c-4.822 0-8.73-3.909-8.73-8.73s3.909-8.73 8.73-8.73h31.429c4.822 0 8.73 3.909 8.73 8.73s-3.909 8.73-8.73 8.73z" fill="#5ccbf7"/></g><g><path d="m202.204 193.995h-31.429c-4.822 0-8.73-3.909-8.73-8.73s3.909-8.73 8.73-8.73h31.429c4.822 0 8.73 3.909 8.73 8.73s-3.909 8.73-8.73 8.73z" fill="#5ccbf7"/></g><g><path d="m202.204 243.078h-31.429c-4.822 0-8.73-3.909-8.73-8.73s3.909-8.73 8.73-8.73h31.429c4.822 0 8.73 3.909 8.73 8.73s-3.909 8.73-8.73 8.73z" fill="#5ccbf7"/></g><g><path d="m202.204 292.161h-31.429c-4.822 0-8.73-3.909-8.73-8.73s3.909-8.73 8.73-8.73h31.429c4.822 0 8.73 3.909 8.73 8.73s-3.909 8.73-8.73 8.73z" fill="#5ccbf7"/></g><path d="m442.487 325.671c-1.535-.235-2.828-1.253-3.363-2.71-7.16-19.507-25.899-33.425-47.889-33.425-22.013 0-40.756 13.952-47.898 33.493-.667 1.824-2.556 2.861-4.478 2.585-1.543-.221-3.12-.336-4.724-.336-13.79 0-25.605 8.43-30.59 20.415-.556 1.338-1.73 2.322-3.158 2.564-10.318 1.751-18.169 10.751-18.121 21.578.053 12.074 10.182 21.696 22.256 21.696h132.309c18.279 0 33.569-14.548 33.732-32.825.149-16.713-12.082-30.589-28.076-33.035z" fill="#e6f8fc"/><g><path d="m346.238 388.716c-3.273-10.321 1.537-21.252 10.864-25.999 1.292-.657 2.118-1.946 2.25-3.389 1.186-12.926 9.95-24.495 23.113-28.606 1.531-.478 3.071-.838 4.609-1.087 1.917-.31 3.411-1.863 3.504-3.803.618-12.95 6.185-25.17 15.376-34.13-4.661-1.403-9.6-2.166-14.719-2.166-22.013 0-40.756 13.952-47.898 33.493-.667 1.824-2.556 2.861-4.478 2.585-1.543-.221-3.12-.336-4.724-.336-13.79 0-25.604 8.43-30.59 20.415-.556 1.338-1.729 2.321-3.158 2.564-10.318 1.751-18.169 10.751-18.121 21.578.053 12.074 10.182 21.696 22.256 21.696h42.837c-.431-.899-.811-1.836-1.121-2.815z" fill="#b8e9fa"/></g><path d="m153.489 31.429c-9.532 0-17.287 7.755-17.287 17.286v89.467h34.573v-89.467c0-9.531-7.755-17.286-17.286-17.286z" fill="#8adaf9"/><path d="m191.837 346.061c-12.991-7.04-21.062-20.527-21.062-35.197v-174.682h-34.573v174.819c0 14.578-8.08 28.017-21.088 35.074-27.122 14.711-43.29 43.017-42.197 73.87.135 3.799.545 7.536 1.202 11.193 25.822 28.595 58.293 51.06 94.974 64.981 14.861-2.891 28.593-9.918 39.873-20.619 16.216-15.384 25.146-36.16 25.146-58.502 0-29.624-16.198-56.805-42.275-70.937z" fill="#ff4155"/><path d="m72.917 419.945c.135 3.799.545 7.536 1.202 11.193 25.822 28.595 58.293 51.06 94.974 64.981 12.51-2.434 24.213-7.809 34.334-15.829-1.089-1.378-2.659-2.361-4.504-2.66-32.044-5.203-24.289-31.44-24.289-31.44l-19.605-36.108c-51.663-5.5-39.915-64.007-39.915-64.007-27.122 14.711-43.29 43.016-42.197 73.87z" fill="#e80054"/><g fill="#f98ca1"><ellipse cx="171.801" cy="423.511" rx="22.856" ry="22.856" transform="matrix(1 -.024 .024 1 -10.04 4.213)"/><path d="m211.52 393.639c.605 4.84-2.829 9.254-7.669 9.858s-9.254-2.829-9.858-7.669 2.829-9.254 7.669-9.858 9.254 2.829 9.858 7.669z"/></g></g><path d="m387.294 109.76h-33.431v-33.183h37.672c8.679 0 15.714-7.035 15.714-15.714s-7.035-15.714-15.714-15.714h-53.387c-8.679 0-15.714 7.035-15.714 15.714v131.719c0 8.679 7.035 15.714 15.714 15.714s15.714-7.035 15.714-15.714v-51.393h33.431c8.679 0 15.714-7.035 15.714-15.714.001-8.679-7.034-15.715-15.713-15.715z" fill="#ffa6bb"/><path d="m322.434 60.863v131.719c0 8.679 7.035 15.714 15.714 15.714s15.714-7.035 15.714-15.714v-51.393h33.431c8.679 0 15.714-7.035 15.714-15.714s-7.036-15.714-15.714-15.714h-33.431v-33.184c-29.996-4.172-15.714-31.429-15.714-31.429-8.678 0-15.714 7.036-15.714 15.715z" fill="#f98ca1"/></g></svg>