<svg id="Layer_1" enable-background="new 0 0 512 512" height="512" viewBox="0 0 512 512" width="512" xmlns="http://www.w3.org/2000/svg"><g><path d="m245 11c-135.31 0-245 109.69-245 245 0 35.279 7.471 68.809 20.894 99.115l273.88 140.821c111.444-22.999 195.226-121.681 195.226-239.936 0-135.31-109.69-245-245-245z" fill="#85d249"/><g><path d="m467.18 401.835h-366.842c-24.714 0-44.821-20.107-44.821-44.821v-259.525c0-24.714 20.107-44.821 44.821-44.821h366.842c24.714 0 44.821 20.107 44.821 44.821v259.525c-.001 24.714-20.107 44.821-44.821 44.821z" fill="#515181"/></g><path d="m236.184 52.668h-135.846c-24.714 0-44.821 20.107-44.821 44.821v259.525c0 24.714 20.107 44.821 44.821 44.821h135.38v-316.284c0-.692-.248-1.367-.706-1.885-4.475-5.056-2.211-9.111-.165-11.277.996-1.055 1.08-2.657.192-3.805-5.329-6.88-1.818-12.207.41-14.542.373-.393.618-.87.735-1.374z" fill="#41416b"/><path d="m100.338 77.567c-10.985 0-19.922 8.937-19.922 19.922v259.525c0 10.985 8.937 19.922 19.922 19.922h366.842c10.985 0 19.922-8.937 19.922-19.922v-259.525c0-10.985-8.937-19.922-19.922-19.922z" fill="#e6f8fc"/><path d="m230.699 357.014v-259.525c0-10.985 8.937-19.922 19.922-19.922h-150.283c-10.985 0-19.922 8.937-19.922 19.922v259.525c0 10.985 8.937 19.922 19.922 19.922h150.283c-10.985 0-19.922-8.937-19.922-19.922z" fill="#b8e9fa"/><g><path d="m467.179 383.852h-366.841c-14.799 0-26.838-12.039-26.838-26.838v-259.525c0-14.799 12.039-26.839 26.838-26.839h366.842c14.799 0 26.838 12.04 26.838 26.839v259.525c-.001 14.799-12.04 26.838-26.839 26.838zm-366.841-299.369c-7.171 0-13.005 5.834-13.005 13.006v259.525c0 7.171 5.834 13.005 13.005 13.005h366.842c7.171 0 13.005-5.834 13.005-13.005v-259.525c0-7.171-5.834-13.006-13.005-13.006z" fill="#8080c1"/></g><path d="m235.718 370.02h-135.38c-7.171 0-13.005-5.834-13.005-13.005v-259.526c0-7.171 5.834-13.006 13.005-13.006h135.17c-.119-.297-.282-.575-.497-.817-4.475-5.056-2.211-9.111-.165-11.277.466-.494.725-1.108.785-1.738h-135.293c-14.799 0-26.838 12.04-26.838 26.838v259.525c0 14.799 12.039 26.838 26.838 26.838h135.38z" fill="#7070ab"/><path d="m410.388 151.977c-1.281-.184-2.367-1.022-2.824-2.233-6.117-16.204-21.842-27.661-40.17-27.493-18.347.168-33.863 11.941-39.666 28.282-.542 1.525-2.108 2.404-3.712 2.189-1.287-.173-2.603-.257-3.94-.244-9.238.085-17.368 4.701-22.314 11.715.089-.001.177-.007.266-.008 12.24-.112 23.357 7.511 27.665 18.969.478 1.27 1.826 2.037 3.211 1.826.883-.135 1.786-.207 2.683-.216 7.628-.07 14.493 4.421 17.49 11.441.411.965 1.258 1.637 2.265 1.799 5.011.803 8.872 4.546 9.951 9.32l44.886-.411c15.235-.14 27.868-12.382 27.864-27.617-.005-13.93-10.306-25.402-23.655-27.319z" fill="#5ccbf7"/><g><path d="m343.102 176.179c.871-.466 1.416-1.355 1.486-2.34.628-8.822 6.437-16.824 15.346-19.807 1.036-.347 2.08-.614 3.125-.805 1.301-.238 2.297-1.317 2.333-2.639.287-10.522 5.381-20.429 13.804-26.787-3.753-1.044-7.711-1.589-11.801-1.551-18.348.168-33.863 11.941-39.666 28.282-.542 1.525-2.108 2.404-3.713 2.189-1.287-.173-2.603-.257-3.939-.244-9.238.085-17.368 4.701-22.314 11.715.089-.001.177-.007.266-.008 12.24-.112 23.357 7.511 27.665 18.969.478 1.27 1.826 2.037 3.21 1.826.883-.135 1.786-.207 2.683-.216 1.455-.013 2.882.142 4.26.446 1.078-3.786 3.639-7.096 7.255-9.03z" fill="#2ebcf6"/></g><g><path d="m262.665 263.381c-.593 0-1.195-.077-1.794-.237-3.69-.989-5.88-4.781-4.891-8.471l2.053-7.663c.989-3.691 4.786-5.876 8.471-4.891 3.69.989 5.88 4.781 4.891 8.471l-2.053 7.662c-.828 3.091-3.623 5.129-6.677 5.129z" fill="#5ccbf7"/></g><g><path d="m299.801 263.381c-.593 0-1.195-.077-1.794-.237-3.69-.989-5.879-4.781-4.891-8.471l2.053-7.663c.989-3.691 4.785-5.876 8.471-4.891 3.69.989 5.879 4.781 4.891 8.471l-2.053 7.662c-.829 3.091-3.624 5.129-6.677 5.129z" fill="#5ccbf7"/></g><g><path d="m336.937 263.381c-.593 0-1.195-.077-1.794-.237-3.69-.989-5.879-4.781-4.891-8.471l2.053-7.663c.989-3.691 4.786-5.876 8.471-4.891 3.69.989 5.879 4.781 4.891 8.471l-2.053 7.662c-.829 3.091-3.623 5.129-6.677 5.129z" fill="#5ccbf7"/></g><g><path d="m370.397 263.381c-.593 0-1.195-.077-1.795-.238-3.69-.989-5.879-4.781-4.89-8.471l2.054-7.663c.989-3.69 4.782-5.878 8.471-4.89 3.69.989 5.879 4.781 4.89 8.471l-2.054 7.663c-.828 3.09-3.622 5.128-6.676 5.128z" fill="#5ccbf7"/></g><g><path d="m407.533 263.381c-.593 0-1.195-.077-1.794-.237-3.69-.989-5.879-4.781-4.891-8.471l2.053-7.663c.989-3.691 4.787-5.876 8.471-4.891 3.69.989 5.879 4.781 4.891 8.471l-2.053 7.662c-.828 3.091-3.624 5.129-6.677 5.129z" fill="#5ccbf7"/></g><g><path d="m219.237 266.497c-1.232-12.633-15.768-15.227-16.121-27.982-.006-.201 0-.399.002-.598h-149.666c.002.199.008.397.002.598-.353 12.755-14.889 15.349-16.121 27.982-.741 7.592 3.867 13.743 7.994 18.339 4.127 4.597 8.714 10.811 7.912 18.39-.902 8.523-7.929 12.24-10.764 19.766-2.932 7.783-.542 18.08 3.865 24.129s10.342 8.855 16.071 11.487h64.229 3.291 64.229c5.729-2.632 11.663-5.438 16.07-11.487s6.796-16.346 3.865-24.129c-2.835-7.526-9.862-11.243-10.764-19.766-.802-7.578 3.784-13.793 7.912-18.39 4.127-4.597 8.735-10.747 7.994-18.339z" fill="#41416b"/></g><g><path d="m219.237 266.497c-1.232-12.633-15.767-15.227-16.121-27.982-.006-.201 0-.399.002-.598h-149.666c.002.199.008.397.003.598-.354 12.755-14.889 15.349-16.122 27.982-.74 7.592 3.867 13.742 7.994 18.339 4.128 4.597 8.714 10.811 7.912 18.39-.238 2.248-.909 4.156-1.809 5.893l.007-.002s22.583-32.325 59.281-10.854h36.698s33.564-17.462 57.933 11.262c.01.012.021.022.031.034-1.02-1.854-1.79-3.893-2.048-6.333-.802-7.578 3.784-13.792 7.912-18.39 4.127-4.597 8.733-10.747 7.993-18.339z" fill="#34345b"/></g><path d="m65.64 206.459c.922-3.015 2.162-5.595 3.81-7.452 1.492-1.68 2.312-3.642 2.372-5.676 0 0 6.553-29.857 31.396-31.404 0 0 16.849-3.213 31.72 21.199 12.335 20.25 41.518 27.115 56.834 23.449 3.35-2.129 9.004-3.344 12.913-1.945.001-17.79.001-25.038.001-27.694 0-.965 0-1.326 0-1.364 0-38.541-30.871-71.29-75.884-71.29-44.747 0-75.885 32.641-75.885 71.29v29.058c3.836-1.374 9.353-.227 12.723 1.829z" fill="#41416b"/><path d="m142.384 131.582c-11.146-18.359 14.875-22.031 15.735-22.147-8.839-3.304-18.678-5.154-29.319-5.154-44.747 0-75.885 32.641-75.885 71.29v29.058c3.837-1.375 9.354-.227 12.725 1.829.922-3.015 2.162-5.595 3.81-7.452 1.492-1.68 2.312-3.643 2.372-5.676 0 0 6.553-29.857 31.396-31.404 0 0 8.829-1.676 19.344 6.651l.567-1.6c-.001.001 30.589-16.728 19.255-35.395z" fill="#34345b"/><path d="m117.588 465.299v-28.292c0-12.136-5.203-24.159-7.12-24.554-.322-.066-.641.003-.9.175-1.768 1.183-4.078 1.093-5.744-.224-18.665-14.759-35.396-35.411-42.066-57.77-.414-1.399-.725-2.346-.864-3.054-.347-1.767-2.097-2.856-3.828-2.362-14.583 4.16-29.303 5.485-36.172 5.897 20.303 45.839 54.246 84.288 96.694 110.184z" fill="#5ccbf7"/><path d="m282.327 387.834c-11.998-23.995-33.055-30.696-42.65-32.538 0 0-19.943-.382-39.756-5.96-1.436-.404-2.837.514-3.163 1.97-.004.019-.009.039-.014.059-7.659 30.484-32.6 52.842-42.968 61.039-1.664 1.315-3.969 1.407-5.739.228-.55-.37-1.297-.21-1.654.343-6.354 9.835-6.544 23.447-6.55 24.032v39.853c0 .154-.023.302-.046.45 31.879 15.183 67.551 23.69 105.213 23.69 17.055 0 33.701-1.747 49.774-5.064-.918-44.092-4.53-92.267-12.447-108.102z" fill="#5ccbf7"/><path d="m47.547 401.031c18.128-6.318 39.804-2.124 39.804-2.124l-.575-2.34c-11.288-12.311-20.481-26.726-25.017-41.933-.415-1.399-.725-2.346-.864-3.054-.347-1.767-2.097-2.856-3.829-2.362-14.583 4.16-29.302 5.485-36.172 5.897 7.23 16.322 16.196 31.701 26.653 45.916z" fill="#2ebcf6"/><path d="m118.216 385.017c1.733.958 2.996 2.416 3.653 4.215.051.14.128.27.228.381 2.012 2.266 3.935 4.756 5.714 7.4.44.657 1.528.657 1.968 0 1.775-2.637 3.702-5.13 5.73-7.411.099-.111.176-.24.227-.38.658-1.795 1.919-3.249 3.647-4.205 26.843-14.846 33.706-36.37 35.451-46.989-14.295-10.408-13.9-20.939-13.9-31.145-7.911 7.072-21.477 16.083-32.649 16.353-11.173-.27-24.739-9.281-32.65-16.353 0 9.591.734 19.933-12.957 30.435 3.023 18.59 14.782 36.219 35.538 47.699z" fill="#fca870"/><path d="m128.285 323.236c-11.173-.27-24.739-9.281-32.649-16.353 0 9.591.734 19.933-12.958 30.435 2.456 15.102 10.677 29.57 24.804 40.623.322-.245.643-.491.951-.742 16.854-13.809 20.822-38.645 21.56-54.083-.574.055-1.146.106-1.708.12z" fill="#f99055"/><g><path d="m129.526 397.448c-5.63-8.701-11.181-13.271-11.181-13.271l-14.342 23.035c10.332 6.65 12.178 22.897 12.506 28.131.858-16.822 7.228-29.607 13.017-37.895z" fill="#8adaf9"/></g><path d="m116.401 437.007v27.552c7.878 4.868 16.052 9.299 24.49 13.266.077-.311.128-.631.128-.965 0-9.278 0-31.301 0-39.853 0 0 .179-21.814 12.578-29.794l-14.342-23.035c0-.001-22.854 18.778-22.854 52.829z" fill="#b8e9fa"/><path d="m118.791 383.979c-28.603-15.819-34.116-39.371-35.174-48.392-.188-1.598-2.037-2.387-3.334-1.436l-19.361 14.195c-1.033.758-1.529 2.065-1.217 3.308 7.703 30.662 32.467 53.049 43.383 61.68 2.778 2.197 6.831 1.56 8.808-1.379 2.796-4.156 6.752-10.034 10.016-14.885 3.049-4.529 1.657-10.448-3.121-13.091z" fill="#b8e9fa"/><g fill="#8adaf9"><path d="m107.87 376.759c-19.157-15.058-23.347-33.445-24.253-41.172-.188-1.597-2.037-2.387-3.334-1.436l-19.361 14.195c-1.033.758-1.529 2.066-1.217 3.308 4.929 19.621 16.843 35.845 27.646 47.253 8.575-28.152 18.14-23.792 20.519-22.148z"/><path d=""/></g><g fill="#e6f8fc"><path d="m196.678 348.347-19.361-14.195c-1.297-.951-3.146-.162-3.334 1.436-1.058 9.021-6.571 32.573-35.174 48.392-4.778 2.643-6.17 8.561-3.122 13.091 3.264 4.851 7.22 10.729 10.016 14.885 1.977 2.939 6.03 3.576 8.808 1.379 10.916-8.631 35.68-31.018 43.383-61.68.314-1.243-.182-2.551-1.216-3.308z"/><path d="m134.715 427.707c0 2.671-2.165 4.836-4.836 4.836s-4.836-2.165-4.836-4.836 2.165-4.836 4.836-4.836c2.67 0 4.836 2.165 4.836 4.836z"/><path d="m133.636 451.696c0 2.671-2.165 4.836-4.836 4.836s-4.836-2.165-4.836-4.836 2.166-4.836 4.836-4.836c2.671-.001 4.836 2.165 4.836 4.836z"/></g><g><path d="m285.491 309.524h-26.377c-3.82 0-6.916-3.097-6.916-6.916 0-3.82 3.097-6.916 6.916-6.916h26.377c3.82 0 6.916 3.097 6.916 6.916 0 3.82-3.097 6.916-6.916 6.916z" fill="#8adaf9"/></g><g><path d="m272.302 335.342h-13.189c-3.82 0-6.916-3.097-6.916-6.916 0-3.82 3.097-6.916 6.916-6.916h13.189c3.82 0 6.916 3.097 6.916 6.916s-3.096 6.916-6.916 6.916z" fill="#b8e9fa"/></g><g><path d="m352.279 309.524h-26.377c-3.82 0-6.916-3.097-6.916-6.916 0-3.82 3.096-6.916 6.916-6.916h26.377c3.82 0 6.917 3.097 6.917 6.916-.001 3.82-3.097 6.916-6.917 6.916z" fill="#8adaf9"/></g><g><path d="m339.09 335.342h-13.189c-3.82 0-6.916-3.097-6.916-6.916 0-3.82 3.096-6.916 6.916-6.916h13.189c3.82 0 6.916 3.097 6.916 6.916.001 3.819-3.096 6.916-6.916 6.916z" fill="#b8e9fa"/></g><g><path d="m419.067 309.524h-26.377c-3.82 0-6.916-3.097-6.916-6.916 0-3.82 3.097-6.916 6.916-6.916h26.377c3.82 0 6.917 3.097 6.917 6.916 0 3.82-3.097 6.916-6.917 6.916z" fill="#8adaf9"/></g><g><path d="m405.879 335.342h-13.189c-3.82 0-6.916-3.097-6.916-6.916 0-3.82 3.097-6.916 6.916-6.916h13.188c3.82 0 6.917 3.097 6.917 6.916s-3.097 6.916-6.916 6.916z" fill="#b8e9fa"/></g><g><path d="m447.54 114.926h-18.444c-3.82 0-6.916-3.097-6.916-6.916 0-3.82 3.096-6.916 6.916-6.916h18.444c3.82 0 6.916 3.097 6.916 6.916s-3.096 6.916-6.916 6.916z" fill="#b8e9fa"/></g><path d="m268.267 185.042c.896-.145 1.646-.747 1.95-1.602 4.08-11.437 14.955-19.671 27.805-19.788 12.863-.118 23.891 7.935 28.169 19.315.399 1.062 1.509 1.658 2.63 1.487.9-.138 1.821-.213 2.759-.222 8.058-.074 15.007 4.789 17.985 11.766.332.779 1.023 1.347 1.859 1.481 6.039.968 10.674 6.185 10.704 12.512.034 7.056-5.833 12.733-12.889 12.797l-77.315.709c-10.681.098-19.694-8.321-19.887-19.001-.176-9.764 6.897-17.938 16.23-19.454z" fill="#b8e9fa"/><path d="m280.037 204.497c-.176-9.765 6.897-17.939 16.23-19.454.896-.145 1.646-.747 1.95-1.602 2.502-7.014 7.566-12.811 14.067-16.283-4.251-2.268-9.104-3.553-14.262-3.505-12.85.118-23.725 8.351-27.805 19.788-.305.855-1.055 1.456-1.95 1.602-9.333 1.515-16.406 9.689-16.23 19.454.193 10.68 9.206 19.099 19.887 19.001l24.955-.229c-9.293-1.349-16.668-9.127-16.842-18.772z" fill="#8adaf9"/><path d="m202.991 202.79c-3.536-2.462-9.611-.157-12.085 1.974-.142.142-.27.278-.405.418 3.881 14.215 1.409 36.324.995 38.971-.02.09-.043.179-.063.269 7.306.499 12.662-3.859 12.662-10.277 0-2.108.189-4.209.559-6.285 1.204-6.761 7.196-18.901-1.663-25.07z" fill="#fca870"/><g><path d="m200.919 223.096c-3.31 0-6.29-1.388-8.411-3.605.563 11.5-.725 22.815-1.013 24.662-.021.09-.043.179-.064.269 7.307.499 12.662-3.858 12.662-10.277 0-2.108.189-4.209.559-6.285.307-1.723.925-3.797 1.529-6.031-1.581.804-3.366 1.267-5.262 1.267z" fill="#f99055"/></g><path d="m66.117 244.209c-1.51-8.773-2.772-26.396.248-38.029-.415-.462-.854-.931-1.34-1.417-2.474-2.131-8.549-4.436-12.085-1.974-8.859 6.17-2.867 18.31-1.662 25.071.37 2.076.559 4.177.559 6.285 0 6.883 6.157 11.401 14.275 10.096 0 0 .006-.017.007-.026z" fill="#fca870"/><path d="m64.551 221.722c-1.635.875-3.501 1.374-5.485 1.374-4.681 0-8.705-2.768-10.555-6.75.679 4.239 2.218 8.435 2.767 11.515.37 2.076.559 4.177.559 6.285 0 6.883 6.156 11.401 14.275 10.096 0 0 .006-.017.007-.026l-.001-.006c-.919-5.336-1.74-13.944-1.567-22.488z" fill="#f99055"/><path d="m134.938 181.063c-14.87-24.413-31.72-21.199-31.72-21.199-24.843 1.547-31.396 31.404-31.396 31.404-.061 2.034-.881 3.996-2.372 5.677-8.22 9.262-6.42 36.325-4.502 47.466 4.247 18.746 10.399 35.092 18.283 48.584 8.004 13.697 20.124 24.35 35.051 30.808 6.686 2.891 14.352 2.892 21.037 0 14.927-6.458 27.048-17.111 35.051-30.808 7.883-13.489 14.035-29.835 18.291-48.618 1.47-9.343 3.01-27.996-.646-39.919-15.251 3.795-44.678-3.04-57.077-23.395z" fill="#fbbc8d"/><path d="m120.461 292.994c-7.884-13.493-14.036-29.838-18.283-48.585-1.918-11.141-3.718-38.203 4.502-47.466 1.492-1.68 2.312-3.643 2.372-5.677 0 0 3.303-15.003 14.076-24.289-10.762-8.845-19.911-7.115-19.911-7.115-24.843 1.547-31.396 31.404-31.396 31.404-.06 2.034-.88 3.996-2.372 5.677-8.22 9.262-6.42 36.325-4.502 47.466 4.247 18.746 10.399 35.092 18.283 48.585 8.003 13.697 20.124 24.35 35.051 30.808 6.686 2.892 14.352 2.892 21.037 0 2.801-1.212 5.503-2.571 8.097-4.07-11.233-6.492-20.452-15.61-26.954-26.738z" fill="#fca870"/></g></svg>