<svg id="Layer_1" enable-background="new 0 0 512 512" height="512" viewBox="0 0 512 512" width="512" xmlns="http://www.w3.org/2000/svg"><g><path d="m500.907 273.668-119.323-217.061c-36.726-21.969-79.676-34.607-125.584-34.607-135.31 0-245 109.69-245 245s109.69 245 245 245c133.079 0 241.373-106.105 244.907-238.332z" fill="#8080c1"/><path d="m164.035 285.542h-54.317l-35.898 117.068c-.455 1.485.655 2.987 2.208 2.987h31.882c1.505 0 2.608 1.416 2.239 2.875l-11.662 46.171c3.079 2.587 6.221 5.1 9.426 7.536l53.894-85.653c.968-1.538-.138-3.539-1.955-3.539h-29.376c-1.654 0-2.771-1.687-2.126-3.21z" fill="#ffe400"/><path d="m316.022 285.542h-74.22l-49.387 161.059c-.455 1.485.655 2.986 2.208 2.986h45.796c1.505 0 2.607 1.416 2.239 2.875l-14.634 57.938c6.84.778 13.762 1.283 20.762 1.486l65.01-103.319c.968-1.538-.138-3.539-1.955-3.539h-42.95c-1.654 0-2.771-1.687-2.126-3.21z" fill="#ffe400"/><path d="m228.024 510.401c3.775.429 7.578.766 11.402 1.025l36.883-77.454c1.651-3.467-.878-7.472-4.718-7.472h-35.277c-3.623 0-6.146-3.596-4.914-7.003l48.466-133.955h-38.064l-49.387 161.059c-.456 1.485.655 2.986 2.208 2.986h45.796c1.504 0 2.607 1.416 2.239 2.875z" fill="#fdca00"/><path d="m425.367 285.542h-48.572l-20.841 67.968c-.455 1.485.655 2.986 2.208 2.986h31.882c1.505 0 2.608 1.415 2.239 2.875l-17.593 69.654c-.644 2.549 2.793 4.021 4.194 1.795l65.058-103.395c.968-1.538-.138-3.539-1.955-3.539h-29.377c-1.654 0-2.772-1.687-2.126-3.21z" fill="#ffe400"/><g><path d="m336.604 468.355c-.657 0-1.323-.085-1.988-.263-4.087-1.095-6.513-5.296-5.418-9.383l4.141-15.453c1.095-4.088 5.297-6.512 9.383-5.418 4.087 1.095 6.513 5.296 5.418 9.383l-4.141 15.453c-.917 3.423-4.013 5.681-7.395 5.681z" fill="#b8e9fa"/></g><g><path d="m471.881 357.71c-.657 0-1.324-.085-1.988-.263-4.087-1.095-6.512-5.296-5.417-9.383l4.141-15.453c1.095-4.088 5.298-6.512 9.384-5.417 4.087 1.095 6.512 5.296 5.417 9.383l-4.141 15.453c-.918 3.423-4.014 5.68-7.396 5.68z" fill="#b8e9fa"/></g><g><path d="m457.057 413.032c-.657 0-1.323-.085-1.988-.263-4.087-1.095-6.513-5.296-5.418-9.383l4.14-15.453c1.096-4.087 5.299-6.511 9.383-5.418 4.087 1.095 6.513 5.296 5.418 9.383l-4.141 15.453c-.916 3.424-4.012 5.681-7.394 5.681z" fill="#b8e9fa"/></g><g><path d="m324.921 512c-.657 0-1.323-.085-1.988-.263-4.087-1.095-6.513-5.296-5.418-9.383l4.14-15.453c1.096-4.088 5.299-6.511 9.383-5.418 4.087 1.095 6.513 5.296 5.418 9.383l-4.141 15.453c-.916 3.423-4.012 5.681-7.394 5.681z" fill="#b8e9fa"/></g><g><path d="m154.236 468.355c-.657 0-1.323-.085-1.988-.263-4.087-1.095-6.513-5.296-5.418-9.383l4.141-15.453c1.095-4.088 5.297-6.512 9.383-5.418 4.087 1.095 6.513 5.296 5.418 9.383l-4.141 15.453c-.917 3.423-4.013 5.681-7.395 5.681z" fill="#b8e9fa"/></g><g><path d="m142.553 512c-.657 0-1.323-.085-1.988-.263-4.087-1.095-6.513-5.296-5.418-9.383l4.14-15.453c1.096-4.088 5.299-6.511 9.383-5.418 4.087 1.095 6.513 5.296 5.418 9.383l-4.141 15.453c-.916 3.423-4.012 5.681-7.394 5.681z" fill="#b8e9fa"/></g><g><path d="m389.419 468.355c-.657 0-1.323-.085-1.988-.263-4.087-1.095-6.513-5.296-5.418-9.383l4.141-15.453c1.095-4.088 5.297-6.512 9.383-5.418 4.087 1.095 6.513 5.296 5.418 9.383l-4.14 15.453c-.918 3.423-4.014 5.681-7.396 5.681z" fill="#b8e9fa"/></g><g><path d="m56.866 357.71c-.657 0-1.324-.085-1.988-.263-4.087-1.095-6.512-5.296-5.417-9.383l4.141-15.453c1.095-4.088 5.298-6.512 9.384-5.417 4.087 1.095 6.512 5.296 5.417 9.383l-4.141 15.453c-.917 3.423-4.013 5.68-7.396 5.68z" fill="#b8e9fa"/></g><g><path d="m42.043 413.032c-.657 0-1.323-.085-1.988-.263-4.087-1.095-6.513-5.296-5.418-9.383l4.14-15.453c1.096-4.087 5.299-6.511 9.383-5.418 4.087 1.095 6.513 5.296 5.418 9.383l-4.14 15.453c-.917 3.424-4.013 5.681-7.395 5.681z" fill="#b8e9fa"/></g><path d="m410.726 337.5h-20.742c-2.647 0-4.521-2.586-3.696-5.101l15.356-46.857h-24.851l-20.841 67.968c-.455 1.485.655 2.986 2.208 2.986h31.882c1.504 0 2.607 1.415 2.239 2.875l-17.593 69.654c-.358 1.418.547 2.5 1.661 2.801l37.954-88.908c1.097-2.567-.786-5.418-3.577-5.418z" fill="#fdca00"/><path d="m126.405 388.667h-19.304c-2.919 0-4.993-2.841-4.103-5.621l31.201-97.504h-24.481l-35.898 117.068c-.455 1.485.655 2.987 2.208 2.987h31.882c1.505 0 2.608 1.416 2.239 2.875l-11.662 46.171c1.693 1.423 3.41 2.818 5.141 4.195l26.752-64.206c1.184-2.838-.901-5.965-3.975-5.965z" fill="#fdca00"/><path d="m381.584 56.607c-12.711-4.525-26.396-6.995-40.661-6.995-52.356 0-96.936 33.185-113.923 79.66-1.586 4.338-6.078 6.804-10.65 6.149-3.669-.526-7.42-.8-11.235-.8-3.909 0-7.749.293-11.505.843 15.514 9.716 27.844 24.417 34.386 42.315 1.348 3.691 5.24 5.953 9.249 5.376 2.536-.363 5.127-.548 7.7-.548 21.881 0 41.452 13.061 49.86 33.276 1.167 2.805 3.602 4.774 6.513 5.268 16.924 2.872 29.153 17.435 29.078 34.628-.084 19.198-16.121 34.817-35.75 34.817h-1.612v1.604h156.336c19.474 0 37.51-6.958 51.537-18.532.059-2.216.093-4.438.093-6.668 0-89.403-47.894-167.609-119.416-210.393z" fill="#41416b"/><g><path d="m237.245 183.155c2.536-.363 5.127-.548 7.7-.548 10.196 0 19.889 2.838 28.186 7.913 8.494-21.791 27.238-39.15 51.746-44.816 3.456-.799 6.911-1.336 10.345-1.628 4.279-.363 7.832-3.539 8.36-7.8 3.747-30.257 19.702-57.754 43.837-76.059-1.928-1.228-3.871-2.434-5.835-3.609-12.711-4.525-26.396-6.995-40.661-6.995-52.357 0-96.936 33.185-113.922 79.66-1.586 4.338-6.079 6.804-10.65 6.149-3.669-.526-7.42-.8-11.235-.8-3.909 0-7.749.293-11.505.843 15.514 9.716 27.844 24.417 34.386 42.315 1.347 3.69 5.239 5.952 9.248 5.375z" fill="#34345b"/></g><path d="m63.093 181.663c2.576-.394 4.746-2.102 5.644-4.549 12.017-32.74 43.468-56.099 80.374-56.099 36.946 0 68.404 23.417 80.39 56.213 1.119 3.061 4.289 4.802 7.515 4.339 2.589-.371 5.236-.564 7.928-.564 23.145 0 42.974 14.148 51.341 34.264.934 2.245 2.903 3.896 5.3 4.303 17.318 2.939 30.493 18.043 30.413 36.216-.089 20.265-17.088 36.414-37.354 36.414h-222.059c-30.678 0-56.341-24.416-56.614-55.093-.249-28.049 20.279-51.338 47.122-55.444z" fill="#616196"/><g><path d="m65.471 251.607c-.249-28.049 20.279-51.338 47.123-55.444 2.576-.394 4.746-2.102 5.644-4.549 11.82-32.203 42.446-55.314 78.569-56.063-13.627-9.172-30.03-14.536-47.695-14.536-36.906 0-68.356 23.359-80.374 56.099-.898 2.447-3.068 4.155-5.644 4.549-26.844 4.106-47.372 27.394-47.123 55.444.273 30.676 25.937 55.093 56.614 55.093h11.465c-11.248-10.031-18.435-24.441-18.579-40.593z" fill="#515181"/></g><path d="m176.133 35.153c1.493-.228 2.751-1.218 3.271-2.637 6.966-18.976 25.196-32.516 46.588-32.516 21.415 0 39.649 13.573 46.597 32.583.649 1.774 2.486 2.783 4.356 2.515 1.501-.215 3.035-.327 4.595-.327 13.415 0 24.909 8.201 29.759 19.861.541 1.301 1.683 2.258 3.072 2.494 10.039 1.703 17.676 10.458 17.629 20.992-.052 11.746-9.905 21.107-21.652 21.107h-128.714c-17.782 0-32.657-14.153-32.815-31.934-.145-16.259 11.754-29.758 27.314-32.138z" fill="#515181"/><path d="m182.819 76.291c-.145-16.258 11.754-29.757 27.314-32.137 1.493-.228 2.751-1.218 3.271-2.637 6.401-17.44 22.318-30.278 41.458-32.245-8.131-5.835-18.097-9.272-28.87-9.272-21.393 0-39.622 13.54-46.588 32.517-.52 1.418-1.778 2.408-3.271 2.637-15.56 2.38-27.458 15.879-27.314 32.137.158 17.781 15.034 31.934 32.815 31.934h11.308c-6.146-5.783-10.043-13.886-10.123-22.934z" fill="#41416b"/></g></svg>