<svg id="Layer_1" enable-background="new 0 0 512 512" height="512" viewBox="0 0 512 512" width="512" xmlns="http://www.w3.org/2000/svg"><g><path d="m326.449 362.973 174.362-104.163.039.016c-4.314-131.524-112.277-236.826-244.85-236.826-135.31 0-245 109.69-245 245 0 34.063 6.958 66.498 19.519 95.973z" fill="#41416b"/><path d="m256 512c135.31 0 245-109.69 245-245 0-3.081-.077-6.144-.189-9.197-24.909-74.456-89.026-130.949-167.845-144.943-12.398 27.2-39.824 46.164-71.615 46.164-24.227 0-45.924-11.014-60.368-28.291-17.844 8.55-34.344 19.454-49.086 32.326v171.803c0 2.997 1.693 5.776 4.418 7.253 34.73 18.822 56.304 55.031 56.304 94.499 0 24.457-8.04 47.499-22.886 66.31 21.078 5.908 43.302 9.076 66.267 9.076z" fill="#5ccbf7"/><path d="m256 512c97.18 0 181.142-56.581 220.747-138.596-11.619-14.527-10.184-28.822-35.806-28.822-41.5 0-53.965-30.012-53.965-30.012-8.464-30.012-37.94-32.187-37.94-32.187l-69.754-72.941c-4.659-14.805-17.932-27.861-17.932-27.861-5.772-6.02-7.645-14.084-7.148-22.885-21.322-1.931-40.212-12.406-53.219-27.964-17.843 8.55-34.344 19.454-49.086 32.326v171.803c0 2.997 1.693 5.776 4.418 7.252 34.73 18.822 56.304 55.031 56.304 94.499 0 24.457-8.04 47.499-22.886 66.31 21.078 5.91 43.302 9.078 66.267 9.078z" fill="#009cf2"/><g><path d="m281.707 370.416c7.146-10.544 13.233-23.413 9.739-35.663-2.846-9.978-11.471-17.207-20.388-22.513-14.345-8.535-30.643-13.766-47.275-15.173-6.246-.528-12.639-.545-18.571-2.57s-11.486-6.606-12.536-12.785c-1.327-7.805 4.583-14.707 8.965-21.3s6.98-16.642.743-21.518c-2.148-1.68-4.908-2.299-7.454-3.276-16.625-6.376-21.801-31.588-9.032-43.997 2.154-2.094 4.826-4.103 5.296-7.069.911-5.754-6.395-8.706-11.802-10.873-8.266-3.312-14.86-9.826-18.998-17.674-2.895 2.28-5.723 4.641-8.496 7.063v171.795c0 2.997 1.693 5.776 4.418 7.253 34.729 18.821 56.303 55.031 56.303 94.499 0 7.632-.787 15.124-2.314 22.396 7.157-9.727 20.735-15.42 33.157-13.859 7.923.996 15.675 4.202 23.62 3.406s16.159-8.176 13.654-15.758c-12.691-1.088-19.684-16.628-17.238-29.13 2.445-12.502 11.064-22.71 18.209-33.254z" fill="#60b550"/></g><path d="m500.811 257.81c-24.91-74.452-89.035-130.931-167.858-144.921-8.623 18.898-24.497 33.812-44.059 41.148.804 2.875 1.393 5.781.6 8.602-.893 3.178-3.382 5.604-5.609 8.041-.03.033-.06.065-.089.097-4.681 5.141.915 13.138 7.378 10.573 13.093-5.197 23.344-20.545 28.678-7.557 8.556 20.831 26.069 14.259 26.069 14.259 8.904-4.68 19.728-1.544 29.26 1.67 9.872 3.329 22.365 11.244 14.402 22.062-1.269 1.723-2.932 3.059-4.814 3.998-5.184 2.587-8.037 8.486-6.639 14.109 1.144 4.604 5.114 9.13 15.447 10.974 16.993 2.941 32.796 12.295 43.549 25.777 1.51 1.893 2.978 4.007 3.133 6.424.229 3.566-2.423 6.629-5.11 8.985-17.376 15.238-44.114 20.82-54.376 41.527-6.565 13.247-4.201 29.223.818 43.128 4.575 12.675 11.225 24.598 19.605 35.149 5.317 6.694 11.575 13.363 12.852 21.816 1.113 7.371-1.812 14.687-4.678 21.568-2.62 6.291-5.24 12.582-7.86 18.874 60.351-44.625 99.49-116.294 99.49-197.113 0-3.079-.076-6.139-.189-9.19z" fill="#a3ea6e"/><path d="m401.51 464.113c31.878-23.571 57.833-54.69 75.233-90.715-11.614-14.525-10.183-28.816-35.801-28.816-41.427 0-53.918-29.901-53.962-30.007-2.429 2.673-4.539 5.635-6.207 9.002-6.565 13.247-4.201 29.223.818 43.128 4.574 12.675 11.225 24.598 19.605 35.149 5.317 6.694 11.575 13.363 12.852 21.816 1.112 7.371-1.813 14.687-4.678 21.568-2.62 6.293-5.24 12.584-7.86 18.875z" fill="#85d249"/><path d="m349.796 264.85c-1.457-1.375-2.839-2.818-4.03-4.43-3.462-4.684-4.839-11.812-.851-16.057 1.06-1.128 2.422-1.966 3.35-3.207 1.463-1.954 1.616-4.625 1.121-7.017-1.654-7.977-9.537-13.305-17.468-15.168s-16.215-1.123-24.34-1.73c-6.535-.489-10.34-2.861-14.219-7.088-1.955-2.13-4.742-3.31-7.629-3.151-8.716 1.073-14.16 9.833-17.576 17.922-2.036 4.822-3.715 10.721-.675 14.984 1.14 1.598 2.83 2.746 3.949 4.359 2.256 3.252 1.769 7.668 3.251 11.337 2.879 7.13 11.991 9.27 19.669 8.875 7.678-.394 15.718-2.256 22.82.688 6.061 2.513 10.231 8.068 13.999 13.44.347.495.696.992 1.047 1.489 3.876 5.487 11.605 6.515 16.824 2.286 5.466-4.429 5.876-12.702.758-17.532z" fill="#a3ea6e"/><circle cx="261.352" cy="80.349" fill="#ff4155" r="80.349"/><path d="m158.548 342.115c-2.725-1.477-4.418-4.256-4.418-7.253v-251.323c0-25.752-20.951-46.703-46.703-46.703-25.753 0-46.704 20.951-46.704 46.703v251.455c0 2.914-1.707 5.65-4.453 7.14-9.877 5.357-18.654 12.076-26.178 19.839 4.261 10.122 9.199 19.887 14.726 29.262l115.672 101.408c10.04 4.254 20.411 7.878 31.083 10.779 15.098-18.902 23.277-42.135 23.277-66.808.001-39.468-21.573-75.678-56.302-94.499z" fill="#e6f8fc"/><path d="m100.207 68.624c-21.439-6.416-13.074-27.144-13.074-27.144-15.616 7.564-26.411 23.574-26.411 42.058v251.455c0 2.914-1.707 5.65-4.453 7.14-9.877 5.357-18.654 12.076-26.178 19.839 4.261 10.122 9.199 19.887 14.727 29.262l55.388 48.558v-371.168z" fill="#b8e9fa"/><g><path d="m154.13 128.707h-30.131c-4.622 0-8.37-3.747-8.37-8.37s3.747-8.37 8.37-8.37h30.131c4.622 0 8.37 3.747 8.37 8.37s-3.748 8.37-8.37 8.37z" fill="#5ccbf7"/></g><g><path d="m154.13 175.763h-30.131c-4.622 0-8.37-3.747-8.37-8.37s3.747-8.37 8.37-8.37h30.131c4.622 0 8.37 3.747 8.37 8.37s-3.748 8.37-8.37 8.37z" fill="#5ccbf7"/></g><g><path d="m154.13 222.819h-30.131c-4.622 0-8.37-3.747-8.37-8.37s3.747-8.37 8.37-8.37h30.131c4.622 0 8.37 3.747 8.37 8.37s-3.748 8.37-8.37 8.37z" fill="#5ccbf7"/></g><g><path d="m154.13 269.876h-30.131c-4.622 0-8.37-3.747-8.37-8.37s3.747-8.37 8.37-8.37h30.131c4.622 0 8.37 3.747 8.37 8.37s-3.748 8.37-8.37 8.37z" fill="#5ccbf7"/></g><g><path d="m154.13 316.932h-30.131c-4.622 0-8.37-3.747-8.37-8.37s3.747-8.37 8.37-8.37h30.131c4.622 0 8.37 3.747 8.37 8.37s-3.748 8.37-8.37 8.37z" fill="#5ccbf7"/></g><path d="m123.999 121.64v-38.101c0-9.138-7.435-16.572-16.573-16.572s-16.573 7.435-16.573 16.572v38.101z" fill="#fc6379"/><path d="m144.191 368.606c-12.455-6.75-20.192-19.68-20.192-33.743v-214.526h-33.145v214.656c0 13.976-7.747 26.86-20.217 33.625-10.436 5.66-19.175 13.424-25.837 22.598 26.575 45.086 67.16 80.928 115.785 101.508.009-.009.019-.016.028-.025 15.547-14.748 24.108-34.667 24.108-56.086 0-28.4-15.53-54.459-40.53-68.007z" fill="#ff4155"/><path d="m138.406 481.984c-10.784-16.177-6.413-35.001-6.413-35.001l-19.385-34.148c-48-7.081-30.358-53.824-30.358-53.824l-.008-.001c-3.145 3.852-7.057 7.141-11.605 9.609-10.436 5.66-19.175 13.424-25.837 22.598 22.423 38.043 54.82 69.503 93.606 90.767z" fill="#e80054"/><path d="m261.351 160.698c26.218 0 49.498-12.562 64.163-31.991-47.417-.003-53.003-37.125-53.003-37.125l-31.6-43.031c-30.85 0-31.446-29.184-31.452-29.525-17.399 14.739-28.456 36.734-28.456 61.323 0 44.375 35.973 80.349 80.348 80.349z" fill="#e80054"/><path d="m302.02 68.779-32.777-32.777c-4.358-4.358-11.424-4.358-15.782 0l-32.516 32.515c-4.345 4.345-4.673 11.471-.408 15.895 4.345 4.507 11.522 4.557 15.929.149l10.486-10.486c1.196-1.196 3.241-.349 3.241 1.342v43.178c0 6.145 4.807 11.415 10.951 11.528 6.259.114 11.368-4.925 11.368-11.158v-43.547c0-1.691 2.045-2.538 3.241-1.342l10.223 10.224c4.345 4.345 11.471 4.673 15.895.409 4.507-4.345 4.557-11.523.149-15.93z" fill="#e6f8fc"/><g fill="#f98ca1"><ellipse cx="119.91" cy="430.701" rx="20.278" ry="20.279" transform="matrix(.614 -.789 .789 .614 -293.669 260.895)"/><path d="m155.15 404.198c.536 4.294-2.51 8.21-6.804 8.746s-8.21-2.51-8.746-6.804 2.51-8.21 6.804-8.746c4.293-.536 8.209 2.51 8.746 6.804z"/></g></g></svg>