<svg id="Layer_1" enable-background="new 0 0 512 512" height="512" viewBox="0 0 512 512" width="512" xmlns="http://www.w3.org/2000/svg"><g><path d="m470.99 384.569c19.126-34.902 30.01-74.963 30.01-117.569 0-135.31-109.69-245-245-245s-245 109.69-245 245c0 42.607 10.884 82.668 30.01 117.569z" fill="#ff4155"/><path d="m419.269 0h-326.538c-28.823 0-52.273 23.449-52.273 52.273v331.296c7.709 14.225 16.788 27.598 27.055 39.949l.001-.004h376.974l.001.004c10.267-12.35 19.345-25.724 27.054-39.948v-331.297c-.001-28.824-23.45-52.273-52.274-52.273z" fill="#515181"/><path d="m160.521 27.055s-14.528-12.527 0-27.055h-67.79c-28.823 0-52.273 23.449-52.273 52.273v331.296c7.709 14.225 16.788 27.598 27.054 39.949l.001-.004h94.347z" fill="#41416b"/><path d="m159.576 112.016c-35.777 17.579-66.694 18.113-92.063 10.942v300.555c44.94 54.062 112.691 88.487 188.487 88.487s143.547-34.425 188.487-88.487v-209.004c-87.839-18.187-155.09-166.281-284.911-102.493z" fill="#e6f8fc"/><path d="m133.934 479.449v-357.38c-25.087 7.315-47.326 6.286-66.421.889v300.555c18.584 22.357 41.079 41.342 66.421 55.936z" fill="#b8e9fa"/><g><path d="m273.109 348.987c-11.902 0-21.584-9.682-21.584-21.584s9.683-21.584 21.584-21.584 21.584 9.682 21.584 21.584-9.682 21.584-21.584 21.584zm0-27.617c-3.327 0-6.033 2.706-6.033 6.033s2.707 6.033 6.033 6.033c3.327 0 6.033-2.706 6.033-6.033s-2.706-6.033-6.033-6.033z" fill="#5ccbf7"/></g><g><g><path d="m326.02 416.411c-22.876 0-41.487-18.611-41.487-41.487s18.611-41.487 41.487-41.487c8.313 0 16.336 2.452 23.202 7.09 3.558 2.404 4.494 7.238 2.09 10.796-2.404 3.559-7.237 4.493-10.796 2.09-4.285-2.895-9.297-4.425-14.496-4.425-14.301 0-25.936 11.635-25.936 25.937 0 14.301 11.635 25.937 25.936 25.937 5.325 0 9.81-1.59 13.331-4.725.686-.611 1.342-1.288 1.95-2.013 2.758-3.29 7.662-3.72 10.954-.961 3.29 2.759 3.721 7.664.961 10.954-1.092 1.302-2.277 2.524-3.524 3.634-6.361 5.664-14.548 8.66-23.672 8.66z" fill="#5ccbf7"/></g></g><g><path d="m206.316 356.979h-44.059c-4.294 0-7.775-3.481-7.775-7.775s3.481-7.775 7.775-7.775h44.059c4.294 0 7.775 3.481 7.775 7.775s-3.481 7.775-7.775 7.775z" fill="#8adaf9"/></g><g><path d="m241.251 385.353h-78.993c-4.294 0-7.775-3.481-7.775-7.775s3.481-7.775 7.775-7.775h78.993c4.294 0 7.775 3.481 7.775 7.775 0 4.293-3.481 7.775-7.775 7.775z" fill="#b8e9fa"/></g><g><path d="m241.251 413.726h-78.993c-4.294 0-7.775-3.481-7.775-7.775s3.481-7.775 7.775-7.775h78.993c4.294 0 7.775 3.481 7.775 7.775s-3.481 7.775-7.775 7.775z" fill="#b8e9fa"/></g><g><path d="m159.576 114.016c129.821-63.788 197.072 84.306 284.911 102.493v-164.236c0-13.905-11.313-25.218-25.218-25.218h-326.538c-13.905 0-25.218 11.312-25.218 25.218v72.686c25.369 7.17 56.286 6.636 92.063-10.943z" fill="#5ccbf7"/></g><path d="m133.934 124.069v-63.185c0-16.318 11.376-30.101 26.588-33.829h-67.791c-13.905 0-25.218 11.313-25.218 25.218v72.686c19.095 5.396 41.334 6.425 66.421-.89z" fill="#2ebcf6"/><path d="m67.513 423.513c44.941 54.062 112.691 88.487 188.487 88.487 3.86 0 7.696-.101 11.513-.277-59.824-48.071-122.844-96.857-200-101.407z" fill="#5ccbf7"/><path d="m133.934 479.449v-54.107c-21.05-8.224-43.088-13.65-66.421-15.026v13.198c18.585 22.356 41.079 41.341 66.421 55.935z" fill="#2ebcf6"/><g><path d="m111.204 95.657c-5.534 0-10.021-4.487-10.021-10.02v-6.68c0-5.534 4.486-10.02 10.021-10.02 5.534 0 10.02 4.487 10.02 10.02v6.68c0 5.534-4.486 10.02-10.02 10.02z" fill="#b8e9fa"/></g><g><path d="m140.595 95.657c-5.534 0-10.02-4.487-10.02-10.02v-17.939c0-5.534 4.486-10.02 10.02-10.02s10.021 4.487 10.021 10.02v17.939c0 5.534-4.487 10.02-10.021 10.02z" fill="#b8e9fa"/></g><g><path d="m169.987 95.657c-5.534 0-10.021-4.487-10.021-10.02v-26.957c0-5.533 4.486-10.02 10.021-10.02 5.534 0 10.02 4.487 10.02 10.02v26.957c0 5.534-4.486 10.02-10.02 10.02z" fill="#b8e9fa"/></g><g><path d="m397.47 83.633h-20.403c-5.534 0-10.02-4.487-10.02-10.02 0-5.534 4.486-10.02 10.02-10.02h20.403c5.534 0 10.02 4.487 10.02 10.02s-4.486 10.02-10.02 10.02z" fill="#b8e9fa"/></g><path d="m213.549 228.654c.052-.001.103.005.155.005 5.443-7.336 14.123-12.134 23.962-12.224 1.462-.013 2.9.078 4.308.267 1.754.235 3.467-.726 4.06-2.394 3.571-10.055 10.504-18.528 19.46-24.049-7.56-9.937-19.506-16.357-32.956-16.357-22.858 0-41.388 18.53-41.388 41.388 0 6.809 1.655 13.228 4.568 18.894 5.105-3.428 11.223-5.47 17.831-5.53z" fill="#ffe400"/><g><path d="m211.291 188.439c1.077-4.032 2.716-7.763 4.807-11.135-14.677 6.361-24.948 20.972-24.948 37.987 0 6.809 1.655 13.228 4.568 18.894 5.105-3.428 11.222-5.47 17.831-5.531.052 0 .103.005.155.005 1.297-1.748 2.783-3.346 4.419-4.777-7.307-9.799-10.233-22.717-6.832-35.443z" fill="#fdca00"/></g><g><path d="m232.539 156.656c-4.178 0-7.564-3.386-7.564-7.563v-8.068c0-4.178 3.386-7.563 7.564-7.563 4.177 0 7.563 3.386 7.563 7.563v8.068c0 4.178-3.386 7.563-7.563 7.563z" fill="#ffe400"/></g><g><path d="m180.382 173.831-5.705-5.705c-2.954-2.954-2.954-7.743 0-10.697 2.954-2.952 7.742-2.952 10.697 0l5.705 5.705c2.953 2.954 2.953 7.743 0 10.697-2.955 2.953-7.742 2.952-10.697 0z" fill="#fdca00"/></g><g><path d="m166.342 222.854h-8.068c-4.177 0-7.563-3.386-7.563-7.563 0-4.178 3.386-7.563 7.563-7.563h8.068c4.177 0 7.563 3.386 7.563 7.563s-3.386 7.563-7.563 7.563z" fill="#fdca00"/></g><g><path d="m273.999 173.831c-2.954-2.953-2.954-7.743-.001-10.696l5.704-5.705c2.952-2.954 7.742-2.956 10.696-.001 2.955 2.954 2.955 7.743.001 10.696l-5.704 5.705c-2.951 2.953-7.741 2.955-10.696.001z" fill="#ffe400"/></g><path d="m335.423 213.883c-1.401-.201-2.588-1.118-3.088-2.442-6.689-17.72-23.885-30.249-43.927-30.065-20.063.184-37.03 13.058-43.377 30.927-.592 1.668-2.305 2.629-4.06 2.394-1.408-.189-2.846-.28-4.308-.267-10.102.093-18.993 5.141-24.402 12.811.097-.002.193-.007.29-.008 13.385-.123 25.542 8.214 30.253 20.744.522 1.388 1.997 2.228 3.511 1.997.965-.147 1.953-.227 2.934-.236 8.342-.077 15.849 4.835 19.125 12.512.45 1.055 1.376 1.79 2.477 1.967 5.48.878 9.702 4.971 10.882 10.191l49.085-.45c16.66-.153 30.475-13.54 30.47-30.2-.003-15.234-11.267-27.779-25.865-29.875z" fill="#5ccbf7"/><g><path d="m257.835 251.111c-2.354-6.507.439-13.61 6.273-16.879.808-.453 1.303-1.296 1.35-2.221.427-8.284 5.728-15.895 14.028-18.856.965-.344 1.939-.614 2.915-.812 1.216-.247 2.13-1.277 2.14-2.518.085-10.918 5.696-21.239 15.035-27.201-3.582-.848-7.322-1.285-11.168-1.249-20.064.184-37.031 13.058-43.377 30.927-.592 1.668-2.305 2.629-4.06 2.394-1.408-.189-2.846-.281-4.308-.267-10.102.093-18.993 5.141-24.402 12.811.097-.001.193-.008.29-.008 13.385-.123 25.542 8.213 30.253 20.744.522 1.388 1.997 2.228 3.511 1.997.965-.147 1.953-.227 2.934-.236 3.107-.028 6.097.637 8.797 1.878-.068-.169-.149-.33-.211-.504z" fill="#2ebcf6"/></g><path d="m180.008 250.041c.979-.159 1.8-.817 2.133-1.752 4.461-12.507 16.354-21.511 30.406-21.64 14.066-.129 26.126 8.677 30.804 21.122.437 1.161 1.65 1.813 2.877 1.626.984-.15 1.992-.233 3.016-.243 8.812-.081 16.411 5.237 19.667 12.866.363.852 1.119 1.473 2.033 1.62 6.603 1.059 11.673 6.763 11.706 13.683.037 7.716-6.379 13.924-14.095 13.995l-84.548.775c-11.68.107-21.536-9.1-21.747-20.778-.192-10.679 7.543-19.617 17.748-21.274z" fill="#b8e9fa"/><path d="m195.807 271.315c-.193-10.678 7.542-19.617 17.748-21.274.98-.159 1.8-.817 2.133-1.751 2.547-7.14 7.521-13.129 13.931-16.986-4.983-3.001-10.827-4.711-17.071-4.654-14.052.129-25.944 9.132-30.406 21.64-.333.935-1.154 1.593-2.133 1.751-10.206 1.657-17.941 10.596-17.748 21.274.211 11.679 10.067 20.885 21.747 20.778l30.036-.275c-10.077-1.55-18.048-10.019-18.237-20.503z" fill="#8adaf9"/><path d="m301.543 504.94h-91.086c-13.227 0-24.049-10.822-24.049-24.049 0-13.227 10.822-24.049 24.049-24.049h91.086c13.227 0 24.049 10.822 24.049 24.049 0 13.227-10.822 24.049-24.049 24.049z" fill="#85d249"/><path d="m186.409 480.891c0 13.227 10.822 24.049 24.049 24.049h30.321c.114-1.903.792-3.567 1.552-4.861 1.083-1.843 1.019-4.144-.284-5.839-8.419-10.948-3.255-21.612.208-26.635 1.178-1.709 1.255-3.986.102-5.712-1.217-1.821-1.749-3.516-1.856-5.051h-30.044c-13.227 0-24.048 10.822-24.048 24.049z" fill="#60b550"/><path d="m301.543 449.067h-91.085c-17.548 0-31.824 14.276-31.824 31.824 0 8.116 3.058 15.527 8.076 21.155 21.972 6.467 45.222 9.954 69.29 9.954s47.318-3.487 69.291-9.954c5.018-5.627 8.076-13.039 8.076-21.155 0-17.548-14.276-31.824-31.824-31.824zm0 48.098h-91.085c-8.973 0-16.274-7.301-16.274-16.274s7.301-16.274 16.274-16.274h91.085c8.973 0 16.274 7.301 16.274 16.274-.001 8.973-7.301 16.274-16.274 16.274z" fill="#a3ea6e"/><path d="m243.082 497.165h-32.624c-8.973 0-16.274-7.301-16.274-16.274s7.301-16.274 16.274-16.274h32.716c-.004-.952-.266-1.901-.816-2.724-4.206-6.295-.302-11.11 1.484-12.826h-33.384c-17.548 0-31.824 14.276-31.824 31.825 0 8.115 3.057 15.527 8.076 21.154 17.968 5.289 36.791 8.581 56.216 9.607-3.398-4.675-2.161-8.908-.594-11.574.529-.903.781-1.916.75-2.914z" fill="#85d249"/><g fill="#fff442"><ellipse cx="232.04" cy="195.833" rx="7.967" ry="7.967" transform="matrix(.413 -.911 .911 .413 -42.119 326.332)"/><path d="m247.617 188.25c-.115 1.696-1.583 2.979-3.279 2.864s-2.979-1.583-2.864-3.279 1.583-2.979 3.279-2.864c1.696.114 2.978 1.583 2.864 3.279z"/></g></g></svg>