<svg id="Layer_1" enable-background="new 0 0 512 512" height="512" viewBox="0 0 512 512" width="512" xmlns="http://www.w3.org/2000/svg"><g><path d="m6.844 324.666c12.032 49.866 39.309 93.78 76.633 126.535l320.096 2.545c52.872-44.94 86.428-111.919 86.428-186.746 0-135.31-109.69-245-245-245-88.383 0-165.826 46.806-208.918 116.976z" fill="#8080c1"/><path d="m463.385 106.2c10.419 21.196 10.649 46.051-.018 67.964-13.1 26.913-39.832 43.631-69.763 43.631-29.932 0-56.665-16.718-69.764-43.631-13.101-26.913-9.769-58.265 8.695-81.823l49.791-63.526c-23.269-18.057-52.484-28.815-84.217-28.815-59.353 0-109.889 37.619-129.145 90.305-1.798 4.918-6.891 7.714-12.074 6.971-4.16-.597-8.412-.907-12.736-.907-29.885 0-56.32 14.691-72.527 37.233.287-.002.572-.017.86-.017 39.594 0 75.33 24.988 88.923 62.18 1.507 4.121 5.846 6.644 10.331 6.003 2.86-.41 5.782-.618 8.684-.618 16.457 0 31.75 6.558 42.928 17.685 6.784-.823 13.686-1.257 20.688-1.257 50.693 0 96.287 22.222 127.576 57.426h49.431c49.283 0 90.512-39.224 90.949-88.505.311-35.006-19.528-65.387-48.612-80.299z" fill="#b8e9fa"/><g><path d="m210.655 159.696c2.93-1.236 4.943-3.928 5.46-7.066 4.628-28.119 25.638-52.073 55.109-59.006 3.428-.806 6.856-1.353 10.264-1.656 4.247-.378 7.762-3.544 8.27-7.776 3.803-31.705 21.109-60.409 47.247-78.602-12.335-3.633-25.386-5.59-38.896-5.59-59.353 0-109.89 37.619-129.145 90.305-1.798 4.917-6.891 7.714-12.074 6.971-4.16-.597-8.412-.907-12.736-.907-29.885 0-56.32 14.691-72.527 37.233.287-.002.572-.017.86-.017 39.594 0 75.33 24.988 88.923 62.18 1.506 4.121 5.846 6.644 10.331 6.003 2.86-.41 5.782-.618 8.684-.618.369 0 .734.021 1.101.027.967-18.061 12.187-34.335 29.129-41.481z" fill="#8adaf9"/></g><path d="m171.495 200.06c-3.634.521-7.204-1.44-8.465-4.887-13.5-36.938-48.932-63.313-90.544-63.313-12.881 0-25.17 2.531-36.403 7.116-22.88 37.257-36.083 81.097-36.083 128.024 0 19.865 2.381 39.172 6.844 57.666h78.807c23.06-57.222 76.262-99.171 139.835-106.076-11.385-11.812-27.359-19.166-45.062-19.166-3.032.001-6.013.218-8.929.636z" fill="#e6f8fc"/><path d="m455.578 91.63-55.503-70.813c-3.292-4.201-9.651-4.201-12.943 0l-55.502 70.813c-40.505 51.678-3.687 127.315 61.974 127.315 65.66 0 102.478-75.636 61.974-127.315z" fill="#2ebcf6"/><path d="m363.069 133.632c27.75-11.5 15.25-37.25 15.25-37.25l16.066-78.672c-2.664-.252-5.429.78-7.253 3.108l-55.503 70.813c-40.089 51.148-4.429 125.754 59.968 127.279-46.105-33.31-28.528-85.278-28.528-85.278z" fill="#009cf2"/><g><g><path d="m377.352 184.564c-1.113 0-2.245-.217-3.336-.675-4.394-1.844-6.462-6.902-4.617-11.296l33.583-80.021c1.844-4.393 6.9-6.461 11.296-4.617 4.394 1.844 6.462 6.902 4.617 11.296l-33.583 80.021c-1.387 3.304-4.589 5.292-7.96 5.292z" fill="#e6f8fc"/></g><g><path d="m370.926 135.298c-12.94 0-23.468-11.606-23.468-25.872s10.528-25.872 23.468-25.872 23.468 11.606 23.468 25.872-10.528 25.872-23.468 25.872zm0-34.486c-3.366 0-6.21 3.945-6.21 8.614s2.844 8.614 6.21 8.614 6.209-3.945 6.209-8.614-2.843-8.614-6.209-8.614z" fill="#e6f8fc"/></g><g><path d="m416.281 190.01c-12.94 0-23.468-11.606-23.468-25.872s10.527-25.873 23.468-25.873c12.94 0 23.468 11.607 23.468 25.873s-10.528 25.872-23.468 25.872zm0-34.487c-3.366 0-6.21 3.945-6.21 8.615 0 4.669 2.844 8.614 6.21 8.614s6.21-3.945 6.21-8.614c0-4.67-2.844-8.615-6.21-8.615z" fill="#e6f8fc"/></g></g><path d="m244.041 215.853c-95.222 0-172.414 77.192-172.414 172.414 0 22.21 4.202 43.437 11.851 62.934 26.389 23.159 57.8 40.728 92.381 50.887l134.581 1.06-.003.011c34.758-9.615 66.414-26.699 93.136-49.413 8.296-20.191 12.882-42.298 12.882-65.479 0-95.222-77.192-172.414-172.414-172.414z" fill="#515181"/><path d="m349.6 473.451c-.09-2.982-2.642-5.32-5.624-5.247-39.374.964-51.222-29.239-54.203-40.091-.593-2.157-2.419-3.768-4.642-4.012-13.756-1.513-16.474-11.374-16.853-17.247-.164-2.538-2.067-4.6-4.57-5.048-29.739-5.327-29.497-28.032-28.185-36.99.319-2.18-.719-4.315-2.59-5.478-15.425-9.59-13.277-26.006-11.304-33.461.608-2.296-.343-4.733-2.347-6.007-25.577-16.254-23.309-42.877-21.459-52.621.403-2.121-.505-4.227-2.232-5.522-4.366-3.277-4.324-7.513-3.435-10.615.659-2.301-.273-4.817-2.306-6.082-5.992-3.727-6.083-9.826-5.167-14.17.32-1.515-.01-3.015-.802-4.212-65.555 24.412-112.254 87.558-112.254 161.619 0 22.21 4.202 43.437 11.851 62.934 26.389 23.159 57.8 40.728 92.381 50.887l134.581 1.06-.003.011c16.996-4.701 33.243-11.2 48.542-19.258-.557-.332-1.174-.57-1.829-.688-5.986-1.084-7.431-5.823-7.55-9.762z" fill="#41416b"/><path d="m244.04 246.917c-77.94 0-141.349 63.409-141.349 141.35 0 41.046 17.592 78.056 45.626 103.903 29.664 12.754 62.345 19.83 96.683 19.83 32.967 0 64.405-6.527 93.114-18.334 28.992-25.904 47.276-63.554 47.276-105.399.001-77.94-63.409-141.35-141.35-141.35z" fill="#e6f8fc"/><path d="m343.976 468.205c-39.374.964-51.222-29.239-54.203-40.091-.593-2.157-2.419-3.768-4.642-4.012-13.756-1.513-16.474-11.374-16.853-17.247-.164-2.538-2.067-4.6-4.57-5.048-29.739-5.327-29.497-28.032-28.185-36.99.319-2.18-.719-4.315-2.59-5.478-15.425-9.59-13.277-26.006-11.304-33.461.608-2.296-.343-4.733-2.347-6.007-25.577-16.254-23.309-42.877-21.459-52.621.403-2.121-.505-4.227-2.232-5.522-1.996-1.498-3.063-3.197-3.557-4.896-52.281 20.76-89.343 71.85-89.343 131.436 0 41.046 17.592 78.056 45.625 103.903 29.664 12.754 62.346 19.83 96.684 19.83 32.967 0 64.405-6.527 93.114-18.334 4.779-4.27 9.259-8.865 13.422-13.738-1.4-1.908-1.872-4.312-1.937-6.477-.088-2.983-2.64-5.32-5.623-5.247z" fill="#b8e9fa"/><path d="m343.943 288.365c-35.122 35.122-82.904 82.904-99.903 99.902h141.35c.001-38.97-15.852-74.308-41.447-99.902z" fill="#ff4155"/><path d="m244.041 246.917v141.349c16.998-16.998 64.78-64.78 99.903-99.902-25.595-25.594-60.933-41.447-99.903-41.447z" fill="#f99300"/><path d="m244.04 246.917c-38.97 0-74.307 15.852-99.902 41.447l99.902 99.902z" fill="#ffe400"/><path d="m236.468 380.693c-1.838-6.174-1.485-12.19-.945-15.877.319-2.18-.719-4.315-2.59-5.478-15.425-9.59-13.277-26.006-11.304-33.461.608-2.296-.343-4.733-2.347-6.007-25.577-16.254-23.309-42.877-21.459-52.621.403-2.121-.505-4.227-2.232-5.522-1.996-1.498-3.063-3.197-3.557-4.896-18.088 7.183-34.356 17.993-47.895 31.533 30.812 30.813 71.362 71.363 92.329 92.329z" fill="#fdca00"/><path d="m144.138 288.365c-25.595 25.595-41.447 60.932-41.447 99.902h141.35c-16.998-16.998-64.78-64.78-99.903-99.902z" fill="#60b550"/><g><path d="m244.04 497.696c-21.114 0-41.628-6.056-59.324-17.514-4.001-2.59-5.144-7.932-2.553-11.933 2.59-4.002 7.932-5.144 11.933-2.553 14.896 9.645 32.167 14.743 49.944 14.743 17.778 0 35.049-5.098 49.946-14.743 4-2.592 9.343-1.447 11.933 2.553 2.59 4.001 1.447 9.343-2.553 11.933-17.698 11.458-38.211 17.514-59.326 17.514z" fill="#5ccbf7"/></g><path d="m244.04 238.288c-82.698 0-149.978 67.28-149.978 149.979 0 35.253 12.232 67.698 32.667 93.33 15.433 8.524 31.882 15.428 49.121 20.491-38.629-23.23-64.53-65.555-64.53-113.821 0-73.182 59.538-132.721 132.72-132.721 73.183 0 132.721 59.538 132.721 132.721 0 49.008-26.703 91.893-66.322 114.881 17.323-4.79 33.873-11.435 49.428-19.707 21.329-25.91 34.152-59.072 34.152-95.173.001-82.7-67.28-149.98-149.979-149.98z" fill="#8080c1"/><g fill="#7070ab"><path d="m175.85 502.088c-38.629-23.23-64.53-65.555-64.53-113.821 0-56.784 35.849-105.345 86.1-124.26-.399-.882-1.02-1.672-1.829-2.28-4.366-3.277-4.324-7.513-3.435-10.615.337-1.177.253-2.408-.177-3.501-57.112 21.207-97.917 76.253-97.917 140.655 0 35.253 12.233 67.698 32.667 93.33 15.432 8.525 31.882 15.429 49.121 20.492z"/><path d="m310.44 503.148c16.995-4.699 33.239-11.194 48.536-19.249-.556-.332-1.173-.568-1.827-.687-5.985-1.083-7.43-5.822-7.549-9.761-.037-1.235-.501-2.356-1.238-3.244-10.417 13.231-23.284 24.447-37.922 32.941z"/></g><path d="m289.312 352.761-40.544-51.728c-2.405-3.069-7.05-3.069-9.455 0l-40.544 51.728c-29.588 37.751-2.693 93.002 45.271 93.002s74.861-55.251 45.272-93.002z" fill="#515181"/><path d="m288.026 425.363c-.803-.686-1.8-1.141-2.895-1.261-13.756-1.513-16.474-11.374-16.853-17.247-.164-2.538-2.067-4.6-4.57-5.048-29.739-5.327-29.497-28.032-28.185-36.99.319-2.18-.719-4.315-2.59-5.478-15.425-9.59-13.277-26.006-11.304-33.461.211-.796.223-1.607.08-2.383l-22.939 29.267c-29.588 37.75-2.693 93.003 45.271 93.003 18.455-.001 33.786-8.186 43.985-20.402z" fill="#41416b"/><ellipse cx="244.041" cy="388.267" fill="#8080c1" rx="28.208" ry="28.208" transform="matrix(.515 -.857 .857 .515 -214.454 397.715)"/><path d="m267.336 404.152c-.823-1.203-2.112-2.073-3.628-2.345-29.739-5.327-29.497-28.032-28.185-36.99.167-1.143-.046-2.269-.549-3.253-11.117 3.786-19.14 14.322-19.14 26.704 0 15.554 12.654 28.208 28.208 28.208 9.665-.002 18.209-4.891 23.294-12.324z" fill="#7070ab"/><path d="m19.647 270.357c-.587-32.486 22.943-59.678 53.991-64.719 2.979-.484 5.475-2.485 6.489-5.329 8.047-22.56 24.043-41.371 44.642-53.031-15.059-9.75-33.005-15.419-52.283-15.419-12.881 0-25.17 2.531-36.403 7.116-22.88 37.258-36.083 81.098-36.083 128.025 0 19.865 2.381 39.172 6.844 57.666h45.189c-18.935-10.964-31.965-31.02-32.386-54.309z" fill="#b8e9fa"/></g></svg>