<svg id="Layer_1" enable-background="new 0 0 512 512" height="512" viewBox="0 0 512 512" width="512" xmlns="http://www.w3.org/2000/svg"><g><path d="m256 22c-135.31 0-245 109.69-245 245 0 48.022 13.828 92.809 37.703 130.619l333.982 79.123c70.915-42.926 118.315-120.797 118.315-209.742 0-135.31-109.69-245-245-245z" fill="#85d249"/><path d="m326.188 0h-220.989c-31.073 0-56.497 25.424-56.497 56.497v341.122c8.816 13.962 19.004 26.972 30.373 38.841l273.245 55.867c10.52-4.503 20.664-9.714 30.365-15.586v-420.244c0-31.073-25.423-56.497-56.497-56.497z" fill="#515181"/><path d="m48.702 56.497v341.121c8.816 13.962 19.004 26.972 30.373 38.841l63.966 13.078v-419.055c-9.002-25.899 15.752-30.482 15.752-30.482h-53.594c-31.073 0-56.497 25.424-56.497 56.497z" fill="#41416b"/><path d="m256 512c34.198 0 66.755-7.016 96.323-19.672v-435.831c0-14.374-11.761-26.135-26.135-26.135h-35.858c-6.695 0-12.712 3.735-16.066 9.53-5.039 8.705-14.456 14.594-25.185 14.594h-66.769c-10.73 0-20.146-5.889-25.185-14.594-3.354-5.794-9.371-9.53-16.066-9.53h-35.859c-14.374 0-26.135 11.761-26.135 26.135v379.96c44.596 46.552 107.378 75.543 176.935 75.543z" fill="#5ccbf7"/><g><path d="m119.371 56.497c0-13.543 10.441-24.762 23.67-26.015-.654-.073-1.314-.12-1.983-.12h-35.858c-14.375 0-26.135 11.761-26.135 26.135v379.96c12.158 12.691 25.676 24.065 40.306 33.914z" fill="#2ebcf6"/></g><g><path d="m110.544 102.008c-6.211 0-11.245-5.035-11.245-11.245v-7.496c0-6.21 5.035-11.245 11.245-11.245 6.211 0 11.245 5.035 11.245 11.245v7.496c0 6.21-5.034 11.245-11.245 11.245z" fill="#b8e9fa"/></g><g><path d="m142.801 102.008c-6.211 0-11.245-5.035-11.245-11.245v-20.132c0-6.21 5.035-11.245 11.245-11.245 6.211 0 11.245 5.035 11.245 11.245v20.132c0 6.21-5.035 11.245-11.245 11.245z" fill="#b8e9fa"/></g><g><path d="m317.652 88.514h-22.897c-6.211 0-11.245-5.035-11.245-11.245s5.035-11.245 11.245-11.245h22.897c6.211 0 11.245 5.035 11.245 11.245s-5.034 11.245-11.245 11.245z" fill="#b8e9fa"/></g><g><path d="m211.516 156.021c-4.658 0-8.434-3.776-8.434-8.434v-11.61c0-4.658 3.776-8.434 8.434-8.434s8.434 3.776 8.434 8.434v11.61c0 4.658-3.776 8.434-8.434 8.434z" fill="#ffe400"/></g><g><path d="m164.619 162.413-5.805-10.054c-2.329-4.033-.947-9.192 3.087-11.521 4.033-2.33 9.192-.947 11.521 3.087l5.805 10.054c2.329 4.034.947 9.192-3.087 11.521-4.007 2.315-9.177.973-11.521-3.087z" fill="#fdca00"/></g><g><path d="m138.723 194.484-10.054-5.805c-4.034-2.329-5.416-7.487-3.087-11.521 2.329-4.035 7.486-5.417 11.521-3.087l10.054 5.805c4.034 2.329 5.416 7.487 3.087 11.521-2.337 4.047-7.499 5.41-11.521 3.087z" fill="#fdca00"/></g><g><path d="m132.331 235.206h-11.61c-4.658 0-8.434-3.776-8.434-8.434s3.776-8.434 8.434-8.434h11.61c4.658 0 8.434 3.776 8.434 8.434s-3.776 8.434-8.434 8.434z" fill="#fdca00"/></g><g><path d="m125.581 276.387c-2.329-4.034-.947-9.192 3.087-11.521l10.054-5.805c4.034-2.33 9.192-.947 11.521 3.087s.947 9.192-3.087 11.521l-10.054 5.805c-4.007 2.315-9.177.973-11.521-3.087z" fill="#fdca00"/></g><g><path d="m272.788 191.397c-2.329-4.034-.947-9.192 3.087-11.521l10.054-5.805c4.034-2.329 9.192-.947 11.521 3.087 2.329 4.033.947 9.192-3.087 11.521l-10.054 5.805c-4.016 2.319-9.182.965-11.521-3.087z" fill="#ffe400"/></g><g><path d="m246.891 165.5c-4.034-2.329-5.416-7.487-3.087-11.521l5.805-10.054c2.329-4.035 7.487-5.417 11.521-3.087 4.034 2.329 5.416 7.487 3.087 11.521l-5.805 10.054c-2.336 4.047-7.499 5.41-11.521 3.087z" fill="#ffe400"/></g><g><path d="m180.686 277.741c6.638-2.755 13.862-4.262 21.328-4.262h.004l1.028.003.506-.669c9.827-12.991 24.77-20.441 40.997-20.441 2.451 0 4.919.176 7.335.522 3.902.561 7.689-1.642 9.004-5.236 2.53-6.921 5.967-13.341 10.145-19.147.017-.579.044-1.155.044-1.738 0-32.895-26.666-59.56-59.56-59.56s-59.561 26.666-59.561 59.56c-.001 21.609 11.508 40.529 28.73 50.968z" fill="#ffe400"/></g><g><path d="m205.155 262.498c-27.483-18.075-35.11-55.008-17.035-82.491 2.751-4.183 5.944-7.899 9.469-11.141-26.173 6.273-45.634 29.81-45.634 57.907 0 21.609 11.508 40.529 28.73 50.969 6.639-2.756 13.862-4.262 21.328-4.262h.004l1.028.003.506-.669c2.028-2.681 4.284-5.111 6.714-7.303-1.733-.911-3.439-1.914-5.11-3.013z" fill="#fdca00"/></g><g><path d="m248.37 432.865h-59.56c-4.658 0-8.434-3.776-8.434-8.434s3.776-8.434 8.434-8.434h59.56c4.658 0 8.434 3.776 8.434 8.434s-3.777 8.434-8.434 8.434z" fill="#b8e9fa"/></g><g><path d="m233.48 463.227h-29.78c-4.658 0-8.434-3.776-8.434-8.434s3.776-8.434 8.434-8.434h29.78c4.658 0 8.434 3.776 8.434 8.434s-3.777 8.434-8.434 8.434z" fill="#e6f8fc"/></g><g><path d="m418.278 251.315c-2.461-.376-4.534-2.008-5.392-4.345-11.481-31.278-41.526-53.593-76.784-53.593-35.296 0-65.348 22.371-76.799 53.702-1.069 2.924-4.098 4.587-7.18 4.145-2.474-.355-5.002-.539-7.574-.539-17.772 0-33.492 8.736-43.13 22.142.171-.001.34-.01.511-.01 23.546 0 44.797 14.859 52.88 36.977.896 2.451 3.477 3.951 6.143 3.57 1.701-.244 3.439-.368 5.164-.368 14.674 0 27.801 8.76 33.44 22.317.775 1.863 2.392 3.171 4.326 3.5 9.625 1.633 16.985 8.901 18.978 18.102h86.349c29.307 0 53.824-23.326 54.085-52.632.239-26.797-19.372-49.046-45.017-52.968z" fill="#b8e9fa"/></g><g><path d="m287.002 299.286c1.657-.833 2.724-2.478 2.902-4.324 1.599-16.542 12.893-31.299 29.772-36.479 1.963-.603 3.937-1.054 5.908-1.363 2.457-.385 4.379-2.364 4.51-4.847 1.18-22.415 13.936-43.068 34.042-53.96-8.744-3.191-18.185-4.936-28.034-4.936-35.295 0-65.348 22.371-76.799 53.702-1.069 2.924-4.098 4.587-7.18 4.146-2.474-.355-5.002-.539-7.574-.539-17.772 0-33.492 8.736-43.13 22.142.17-.001.34-.01.511-.01 23.546 0 44.797 14.86 52.88 36.977.896 2.451 3.477 3.951 6.144 3.569 1.701-.244 3.439-.367 5.164-.367 2.581 0 5.11.285 7.563.806 2.481-6.164 7.13-11.404 13.321-14.517z" fill="#8adaf9"/></g><g><path d="m144.316 312.411c1.725-.264 3.179-1.408 3.78-3.047 8.049-21.929 29.114-37.574 53.833-37.574 24.746 0 45.816 15.685 53.844 37.651.749 2.05 2.873 3.216 5.034 2.906 1.734-.249 3.507-.378 5.31-.378 15.502 0 28.783 9.476 34.387 22.949.626 1.504 1.945 2.61 3.55 2.882 11.599 1.968 20.424 12.085 20.37 24.257-.06 13.573-11.445 24.389-25.019 24.389h-148.732c-20.547 0-37.737-16.354-37.919-36.9-.167-18.787 13.583-34.385 31.562-37.135z" fill="#e6f8fc"/></g><path d="m165.241 349.546c-.167-18.787 13.583-34.386 31.562-37.135 1.725-.264 3.179-1.408 3.78-3.047 4.969-13.536 14.9-24.672 27.586-31.217-7.862-4.059-16.78-6.357-26.24-6.357-24.719 0-45.784 15.645-53.833 37.574-.601 1.639-2.055 2.783-3.78 3.047-17.979 2.75-31.729 18.348-31.562 37.135.183 20.546 17.372 36.9 37.919 36.9h52.486c-20.546.001-37.735-16.353-37.918-36.9z" fill="#b8e9fa"/><g fill="#fff442"><circle cx="215.902" cy="214.367" r="15.896"/><path d="m245.887 197.176c0 3.392-2.75 6.142-6.142 6.142s-6.142-2.75-6.142-6.142 2.75-6.142 6.142-6.142c3.393 0 6.142 2.75 6.142 6.142z"/></g></g></svg>