<svg id="Layer_1" enable-background="new 0 0 512 512" height="512" viewBox="0 0 512 512" width="512" xmlns="http://www.w3.org/2000/svg"><g><path d="m245 11c-135.31 0-245 109.69-245 245 0 131.819 104.108 239.305 234.584 244.765l139.496-36.507c69.582-43.219 115.92-120.321 115.92-208.258 0-135.31-109.69-245-245-245z" fill="#009cf2"/><g><path d="m171.906 95.15c-2.659 0-5.136-1.683-6.023-4.344l-4.515-13.546c-1.109-3.327.689-6.923 4.016-8.032 3.325-1.109 6.923.689 8.032 4.016l4.515 13.546c1.109 3.327-.689 6.923-4.016 8.032-.666.223-1.343.328-2.009.328z" fill="#ffe400"/></g><g><path d="m176.422 412.716c-2.659 0-5.136-1.683-6.023-4.344l-4.515-13.545c-1.109-3.327.689-6.923 4.016-8.032 3.327-1.11 6.923.689 8.032 4.016l4.515 13.546c1.109 3.327-.689 6.923-4.016 8.032-.667.222-1.344.327-2.009.327z" fill="#fdca00"/></g><g><path d="m95.9 115.514c-1.498 0-3.001-.527-4.211-1.599l-10.683-9.473c-2.624-2.327-2.865-6.34-.538-8.965 2.326-2.623 6.34-2.865 8.965-.538l10.683 9.473c2.624 2.327 2.865 6.34.538 8.964-1.255 1.416-3 2.138-4.754 2.138z" fill="#fdca00"/></g><g><path d="m40.269 171.155c-.422 0-.85-.042-1.28-.13l-13.988-2.863c-3.436-.703-5.651-4.058-4.948-7.494s4.056-5.653 7.494-4.948l13.988 2.863c3.436.703 5.651 4.058 4.948 7.494-.614 3.006-3.26 5.078-6.214 5.078z" fill="#fdca00"/></g><g><path d="m6.351 251.676c-2.659 0-5.136-1.683-6.023-4.344-1.109-3.327.689-6.923 4.016-8.032l13.545-4.515c3.326-1.109 6.923.689 8.032 4.016s-.689 6.923-4.016 8.032l-13.545 4.515c-.666.222-1.343.328-2.009.328z" fill="#fdca00"/></g><g><path d="m30.787 333.847c-1.498 0-3.001-.527-4.211-1.599-2.624-2.327-2.865-6.341-.538-8.964l9.473-10.683c2.326-2.624 6.339-2.865 8.964-.538 2.624 2.327 2.865 6.34.538 8.965l-9.473 10.683c-1.254 1.414-2.999 2.136-4.753 2.136z" fill="#fdca00"/></g><g><path d="m93.046 392.793c-.422 0-.85-.042-1.28-.13-3.436-.703-5.651-4.058-4.948-7.494l2.863-13.988c.703-3.435 4.054-5.654 7.494-4.948 3.436.703 5.651 4.059 4.948 7.494l-2.863 13.988c-.614 3.006-3.26 5.078-6.214 5.078z" fill="#fdca00"/></g><path d="m171.907 111.375c-71.484 0-129.434 57.95-129.434 129.434 0 71.485 57.95 129.434 129.434 129.434 25.268 0 48.839-7.248 68.763-19.767l.063-219.295c-19.936-12.544-43.531-19.806-68.826-19.806z" fill="#ffe400"/><path d="m217.936 340.931c-71.484 0-129.435-57.95-129.435-129.434 0-36.052 14.745-68.656 38.526-92.125-49.363 18.249-84.555 65.732-84.555 121.438 0 71.485 57.95 129.434 129.435 129.434 25.268 0 48.839-7.248 68.763-19.767l.003-11.545c-7.381 1.309-14.978 1.999-22.737 1.999z" fill="#fdca00"/><path d="m329.642 103.015c0-29.003 13.753-54.84 35.063-71.381-9.016-12.485-23.683-20.634-40.227-20.634h-40.291c-27.351 0-49.602 22.251-49.602 49.602v440.163c3.455.144 6.924.235 10.415.235 47.373 0 91.596-13.459 129.08-36.742v-283.476c-26.573-15.746-44.438-44.703-44.438-77.767z" fill="#e6f8fc"/><path d="m234.584 60.602v440.163c3.456.144 6.925.235 10.416.235 19.337 0 38.149-2.245 56.193-6.483v-440.278c-7.553-3.121-7.868-8.414-6.87-12.211.705-2.684-.493-5.468-2.858-6.92-14.662-9.004-7.278-24.108-7.278-24.108-27.351 0-49.603 22.251-49.603 49.602z" fill="#b8e9fa"/><path d="m329.642 103.015c0-14.51 3.458-28.22 9.563-40.382v-2.031c0-8.12-6.606-14.727-14.727-14.727h-40.291c-8.12 0-14.727 6.607-14.727 14.727v115.229h69.745v-32.434c-6.104-12.162-9.563-25.872-9.563-40.382z" fill="#e80054"/><path d="m307.327 64.81c0-6.6-5.4-12-12-12h-23.614c-1.419 2.263-2.253 4.929-2.253 7.792v115.229h37.867z" fill="#ff4155"/><path d="m269.46 499.788c24.49-2.428 47.915-8.466 69.745-17.567v-46.478h-69.745z" fill="#60b550"/><path d="m307.327 435.742h-37.867v64.045c12.947-1.283 25.593-3.586 37.867-6.807z" fill="#85d249"/><path d="m269.46 175.831h69.745v129.956h-69.745z" fill="#ff951f"/><path d="m269.46 175.831h37.867v129.956h-37.867z" fill="#feac00"/><path d="m269.46 305.787h69.745v129.956h-69.745z" fill="#fdca00"/><path d="m269.46 305.787h37.867v129.956h-37.867z" fill="#ffe400"/><path d="m324.478 37.511h-40.291c-12.732 0-23.091 10.359-23.091 23.092v439.857c5.63-.365 11.208-.916 16.728-1.655v-438.202c0-3.509 2.854-6.364 6.363-6.364h40.291c3.509 0 6.363 2.855 6.363 6.364v424.922c5.679-2.125 11.257-4.455 16.728-6.98v-417.942c0-12.733-10.359-23.092-23.091-23.092z" fill="#b8e9fa"/><path d="m294.324 42.028c.412-1.569.159-3.165-.583-4.517h-9.554c-12.732 0-23.091 10.359-23.091 23.092v439.857c5.63-.365 11.208-.916 16.728-1.655v-438.202c0-3.509 2.854-6.364 6.363-6.364h17.007c-7.553-3.121-7.868-8.414-6.87-12.211z" fill="#8adaf9"/><circle cx="419.985" cy="103.015" fill="#616196" r="92.015"/><path d="m453.502 135.163-17.184-46.031-18.863-7.153-12.41-11.483c-34.396-4.656-26.71-49.497-26.7-49.554-29.894 15.196-50.376 46.242-50.376 82.074 0 50.819 41.197 92.015 92.015 92.015 25.668 0 48.877-10.514 65.567-27.465-35.108-2.341-32.049-32.403-32.049-32.403z" fill="#41416b"/><g><g><g><path d="m448.853 136.581s-.017 0-.026 0c-3.562-.011-6.727-2.277-7.884-5.646l-17.3-50.344c-1.501-4.369.823-9.127 5.191-10.628 4.369-1.502 9.127.824 10.628 5.191l9.469 27.554 9.696-27.662c1.527-4.359 6.298-6.656 10.66-5.126 4.359 1.528 6.654 6.3 5.126 10.66l-17.667 50.403c-1.175 3.354-4.341 5.598-7.893 5.598z" fill="#e6f8fc"/></g></g><g><g><path d="m391.771 136.581h-1c-14.403 0-25.685-10.935-25.685-24.895v-33.873c0-4.619 3.745-8.364 8.364-8.364s8.364 3.745 8.364 8.364v33.873c0 5.361 4.506 8.167 8.957 8.167h1c4.452 0 8.957-2.805 8.957-8.167v-33.873c0-4.619 3.745-8.364 8.364-8.364s8.364 3.745 8.364 8.364v33.873c0 13.96-11.283 24.895-25.685 24.895z" fill="#e6f8fc"/></g></g></g><path d="m283.007 168.816-56.332-39.641c-5.683-3.999-13.513.066-13.513 7.015v39.641 39.641c0 6.949 7.83 11.013 13.513 7.014l56.332-39.641c4.855-3.416 4.855-10.612 0-14.029z" fill="#616196"/><path d="m283.007 168.816-56.332-39.641c-5.683-3.999-13.513.066-13.513 7.015v39.641 39.641c0 6.949 7.83 11.013 13.513 7.014l56.332-39.641c4.855-3.416 4.855-10.612 0-14.029z" fill="#616196"/><path d="m245 200.547v-24.716-24.716c0-3.114 2.523-5.287 5.257-5.344l-23.583-16.595c-5.683-3.999-13.513.066-13.513 7.015v39.641 39.64c0 6.949 7.831 11.014 13.513 7.015l23.583-16.595c-2.734-.058-5.257-2.231-5.257-5.345z" fill="#41416b"/><g fill="#fff442"><ellipse cx="163.082" cy="205.955" rx="24.544" ry="24.544" transform="matrix(.978 -.208 .208 .978 -39.24 38.387)"/><ellipse cx="189.488" cy="169.042" rx="9.484" ry="9.484" transform="matrix(.85 -.527 .527 .85 -60.61 125.087)"/></g></g></svg>