<svg id="Layer_1" enable-background="new 0 0 512 512" height="512" viewBox="0 0 512 512" width="512" xmlns="http://www.w3.org/2000/svg"><g><path d="m65.464 421.002h381.073c34.053-42.079 54.463-95.653 54.463-154.002 0-135.31-109.69-245-245-245s-245 109.69-245 245c0 58.349 20.41 111.923 54.464 154.002z" fill="#ff4155"/><path d="m437.211 71.062h-303.063c-19.542 0-35.531-15.989-35.531-35.531 0-19.542 15.989-35.531 35.531-35.531h303.063c5.129 0 9.325 4.196 9.325 9.325v52.413c0 5.128-4.196 9.324-9.325 9.324z" fill="#515181"/><path d="m202.725 0h-68.578c-19.542 0-35.531 15.989-35.531 35.531 0 19.542 15.989 35.531 35.531 35.531h68.578v-53.504c-11.817-9.449 0-17.558 0-17.558z" fill="#41416b"/><path d="m420.769 19.761c1.125-.513.747-2.203-.491-2.203h-286.13c-17.701 0-32.486 10.19-35.115 23.391 2.629 16.995 17.414 30.113 35.115 30.113h292.256c-13.903-4.066-23.866-14.514-23.866-26.691 0-10.459 7.348-19.648 18.231-24.61z" fill="#e6f8fc"/><path d="m202.196 17.561c.176-.002.353-.003.53-.003h-68.578c-17.701 0-32.486 10.19-35.115 23.391 2.629 16.995 17.414 30.113 35.115 30.113h68.578c-.569 0-1.134-.013-1.697-.04-34.24-1.631-33.11-53.066 1.167-53.461z" fill="#b8e9fa"/><g><path d="m420.769 68.972v-49.211c-10.883 4.962-18.232 14.151-18.232 24.61.001 10.458 7.351 19.639 18.232 24.601z" fill="#b8e9fa"/></g><path d="m412.37 162.911v292.697c12.5-10.375 23.944-21.975 34.166-34.606v-361.29c0 5.129-4.196 9.325-9.325 9.325h-303.063c-18.862 0-34.409-14.897-35.469-33.506h-.062v65.677c.453-.017.907-.035 1.365-.035h303.063c5.129 0 9.325 4.196 9.325 9.325v50.387z" fill="#616196"/><path d="m198.543 69.037h-64.395c-18.862 0-34.409-14.897-35.469-33.506h-.062v65.677c.454-.017.907-.035 1.365-.035h98.562v-32.136z" fill="#515181"/><g><path d="m137.018 69.037h27.343v32.136h-27.343z" fill="#7070ab"/></g><path d="m216.808 44.366h-22.868c-1.236 0-2.237 1.002-2.237 2.237v22.433h27.342v-22.432c0-1.236-1.001-2.238-2.237-2.238z" fill="#fdca00"/><g><path d="m191.703 69.037h27.342v32.136h-27.342z" fill="#ffe400"/></g><g><path d="m404.058 171.223h-303.063c-19.542 0-35.531-15.989-35.531-35.531 0-19.542 15.989-35.531 35.531-35.531h303.063c5.129 0 9.325 4.196 9.325 9.325v52.413c0 5.128-4.196 9.324-9.325 9.324z" fill="#2ebcf6"/></g><path d="m169.189 100.161h-68.195c-19.542 0-35.531 15.989-35.531 35.531 0 19.542 15.989 35.531 35.531 35.531h68.195v-53.504c-11.27-9.413 0-17.558 0-17.558z" fill="#009cf2"/><g><path d="m387.616 119.922c1.125-.513.747-2.203-.491-2.203h-286.131c-17.701 0-32.486 10.19-35.115 23.391 2.629 16.995 17.414 30.113 35.115 30.113h292.256c-13.903-4.066-23.867-14.514-23.867-26.691.001-10.459 7.349-19.649 18.233-24.61z" fill="#e6f8fc"/></g><path d="m168.659 117.722c.176-.002.353-.003.53-.003h-68.195c-17.701 0-32.486 10.19-35.115 23.391 2.628 16.995 17.414 30.113 35.115 30.113h68.195c-.569 0-1.135-.013-1.697-.04-34.239-1.631-33.109-53.067 1.167-53.461z" fill="#b8e9fa"/><g><g><path d="m387.616 169.133v-49.211c-10.884 4.962-18.232 14.151-18.232 24.61 0 10.458 7.351 19.639 18.232 24.601z" fill="#b8e9fa"/></g></g><path d="m404.058 169.197h-303.063c-18.862 0-34.41-14.897-35.469-33.506h-.062v285.311c44.915 55.502 113.575 90.998 190.536 90.998 59.923 0 114.811-21.525 157.383-57.248v-294.879c0 5.128-4.197 9.324-9.325 9.324z" fill="#5ccbf7"/><path d="m160.127 244.253 9.063-18.205v-56.851h-68.195c-18.862 0-34.41-14.897-35.469-33.506h-.062v285.311c26.375 32.591 60.944 58.27 100.566 73.928-13.012-19.037-14.841-37.818-14.841-37.818s0-157.397 0-182.064c0-24.666 8.938-30.795 8.938-30.795z" fill="#2ebcf6"/><path d="m103.865 459.04c8.657 6.868 17.792 13.156 27.342 18.82v-308.663h-27.342z" fill="#8adaf9"/><g><path d="m183.654 144.527h-22.868c-1.236 0-2.237 1.002-2.237 2.237v22.433h27.342v-22.433c.001-1.235-1.001-2.237-2.237-2.237z" fill="#fdca00"/></g><g><path d="m158.549 169.197v73.26c0 1.596 1.93 2.395 3.058 1.267l9.346-9.346c.7-.7 1.834-.7 2.534 0l9.346 9.346c1.129 1.129 3.059.329 3.059-1.267v-73.26z" fill="#ffe400"/></g><g><path d="m278.624 211.066h-23.499c-4.195 0-7.595-3.4-7.595-7.595s3.4-7.595 7.595-7.595h23.499c4.195 0 7.595 3.4 7.595 7.595s-3.401 7.595-7.595 7.595z" fill="#f9ecc6"/></g><g><path d="m317.128 457.113h-125.836c-4.195 0-7.595-3.4-7.595-7.595s3.4-7.595 7.595-7.595h125.835c4.195 0 7.595 3.4 7.595 7.595s-3.399 7.595-7.594 7.595z" fill="#e6f8fc"/></g><g><path d="m317.128 487.493h-125.836c-4.195 0-7.595-3.4-7.595-7.595s3.4-7.595 7.595-7.595h125.835c4.195 0 7.595 3.4 7.595 7.595.001 4.195-3.399 7.595-7.594 7.595z" fill="#e6f8fc"/></g><circle cx="233.361" cy="340.645" fill="#ffe400" r="41.562"/><path d="m255.385 370.262c-22.954 0-41.562-18.608-41.562-41.562 0-11.216 4.451-21.387 11.673-28.864-19.192 3.677-33.697 20.545-33.697 40.809 0 22.954 18.607 41.562 41.561 41.562 11.738 0 22.332-4.873 29.889-12.698-2.547.488-5.174.753-7.864.753z" fill="#fdca00"/><g><path d="m233.361 281.765c-4.195 0-7.595-3.4-7.595-7.595v-8.101c0-4.195 3.4-7.595 7.595-7.595s7.595 3.4 7.595 7.595v8.101c0 4.195-3.4 7.595-7.595 7.595z" fill="#ffe400"/></g><g><path d="m180.986 299.012-5.729-5.729c-2.966-2.967-2.966-7.775 0-10.742 2.967-2.965 7.775-2.965 10.742 0l5.729 5.729c2.966 2.967 2.966 7.775 0 10.742-2.968 2.966-7.776 2.965-10.742 0z" fill="#fdca00"/></g><g><path d="m166.886 348.24h-8.101c-4.195 0-7.595-3.4-7.595-7.595s3.4-7.595 7.595-7.595h8.101c4.195 0 7.595 3.4 7.595 7.595s-3.4 7.595-7.595 7.595z" fill="#fdca00"/></g><g><path d="m274.996 299.012c-2.967-2.966-2.967-7.775-.001-10.741l5.728-5.729c2.965-2.967 7.774-2.968 10.741-.001 2.967 2.966 2.967 7.775.001 10.741l-5.728 5.729c-2.964 2.965-7.774 2.968-10.741.001z" fill="#ffe400"/></g><path d="m336.678 339.232c-1.407-.202-2.599-1.122-3.101-2.452-6.717-17.794-23.985-30.375-44.112-30.191-20.148.185-37.186 13.112-43.559 31.057-.595 1.675-2.315 2.64-4.077 2.404-1.414-.19-2.858-.282-4.326-.268-10.145.093-19.072 5.162-24.504 12.865.097-.002.194-.008.292-.008 13.441-.123 25.649 8.248 30.38 20.831.524 1.394 2.005 2.237 3.526 2.005.969-.148 1.961-.228 2.946-.237 8.377-.077 15.915 4.855 19.206 12.564.452 1.059 1.382 1.798 2.488 1.975 5.503.882 9.742 4.992 10.928 10.234l49.291-.452c16.73-.153 30.603-13.597 30.598-30.327-.006-15.298-11.317-27.895-25.976-30z" fill="#b8e9fa"/><g><path d="m263.221 368.365c.97-.484 1.596-1.443 1.704-2.522.964-9.663 7.59-18.265 17.462-21.262 1.148-.349 2.302-.609 3.455-.786 1.436-.221 2.563-1.373 2.643-2.824.71-12.74 7.825-24.476 19.046-30.932-5.569-2.275-11.672-3.509-18.066-3.45-20.147.185-37.185 13.112-43.559 31.057-.595 1.675-2.315 2.64-4.077 2.404-1.414-.189-2.858-.281-4.326-.268-10.145.093-19.072 5.162-24.504 12.865.098-.002.194-.007.292-.008 13.44-.123 25.649 8.248 30.379 20.83.524 1.394 2.005 2.237 3.525 2.006.97-.148 1.961-.228 2.946-.237 1.945-.018 3.841.245 5.653.74 1.529-3.227 4.094-5.95 7.427-7.613z" fill="#8adaf9"/></g><path d="m180.611 375.542c.983-.16 1.807-.82 2.142-1.759 4.48-12.56 16.423-21.601 30.533-21.73 14.126-.129 26.235 8.713 30.933 21.21.439 1.166 1.657 1.821 2.889 1.633.989-.151 2-.234 3.029-.244 8.849-.081 16.48 5.259 19.75 12.92.365.855 1.124 1.479 2.042 1.627 6.631 1.063 11.722 6.792 11.755 13.74.037 7.748-6.406 13.982-14.154 14.053l-84.902.779c-11.729.107-21.627-9.138-21.839-20.866-.195-10.724 7.572-19.7 17.822-21.363z" fill="#e6f8fc"/><path d="m191.803 396.905c-.194-10.723 7.573-19.699 17.822-21.363.983-.16 1.807-.82 2.142-1.759 2.861-8.02 8.771-14.591 16.339-18.337-4.462-2.215-9.497-3.442-14.819-3.393-14.111.129-26.053 9.171-30.534 21.731-.334.938-1.158 1.599-2.142 1.759-10.249 1.664-18.016 10.64-17.822 21.363.212 11.728 10.109 20.973 21.838 20.866l25.777-.236c-10.256-1.439-18.41-10.003-18.601-20.631z" fill="#b8e9fa"/><g fill="#fff442"><path d="m240.401 323.104c-.297 4.39-4.096 7.709-8.486 7.412s-7.709-4.096-7.412-8.486 4.096-7.709 8.486-7.412c4.39.296 7.708 4.096 7.412 8.486z"/><path d="m248.028 314.983c-.115 1.696-1.583 2.979-3.279 2.864s-2.979-1.583-2.864-3.279 1.583-2.979 3.279-2.864 2.979 1.583 2.864 3.279z"/></g></g></svg>