<svg id="Layer_1" enable-background="new 0 0 512 512" height="512" viewBox="0 0 512 512" width="512" xmlns="http://www.w3.org/2000/svg"><g><path d="m15.321 212.669 253.084 164.274s165.815 4.651 216.454-27.01c9.317-25.902 14.406-53.821 14.406-82.932 0-135.31-109.69-245-245-245-116.637-.001-214.227 81.507-238.944 190.668z" fill="#41416b"/><g><path d="m118.636 174.674c-.122 6.8-5.662 12.276-12.491 12.276s-12.369-5.477-12.491-12.276l-42.306 33.565v59.481c0 3.97 3.218 7.189 7.188 7.189h95.207c3.97 0 7.188-3.218 7.188-7.189v-59.489z" fill="#8e6877"/><path d="m160.226 270.811-34.532-90.536-7.058-5.6c-.122 6.8-5.662 12.276-12.491 12.276s-12.369-5.477-12.491-12.276l-7.065 5.605-34.532 90.537c1.157 2.418 3.62 4.093 6.48 4.093h95.207c2.861-.001 5.326-1.678 6.482-4.099z" fill="#fdca00"/></g><path d="m484.859 349.932c-6.31 2.325-11.32 5.162-23.542 5.162-20.709 0-20.709-8.146-41.418-8.146-20.706 0-20.706 8.146-41.412 8.146-20.707 0-20.707-8.146-41.414-8.146-20.706 0-20.706 8.146-41.411 8.146-20.706 0-20.706-8.146-41.411-8.146-10.015 0-15.185 1.907-20.198 3.875 7.419 17.105 12.26 33.183 16.892 48.045 1.044-.049 2.137-.078 3.306-.078 20.705 0 20.705 8.146 41.411 8.146s20.706-8.146 41.411-8.146c20.707 0 20.707 8.146 41.414 8.146 20.706 0 20.706-8.146 41.412-8.146 18.577 0 20.499 6.551 35.646 7.901 12.106-17.411 22.013-36.461 29.314-56.759z" fill="#616196"/><path d="m295.662 355.094c-20.706 0-20.706-8.146-41.411-8.146-10.016 0-15.185 1.907-20.198 3.875 7.419 17.105 12.26 33.183 16.893 48.045 1.043-.049 2.137-.078 3.306-.078 20.705 0 20.705 8.145 41.411 8.145s20.706-8.145 41.412-8.145c9.62 0 14.77 1.758 19.604 3.641-.021-1.594-.485-3.182-1.421-4.577-19.776-29.465 4.199-46.18 4.199-46.18-5.799-2.229-10.917-4.726-22.382-4.726-20.707.001-20.707 8.146-41.413 8.146z" fill="#515181"/><path d="m159.932 252.923v14.797c0 3.413-2.776 6.189-6.189 6.189h-95.207c-3.412 0-6.188-2.776-6.188-6.189v-54.269c-15.877-1.59-28.845-1.31-37.027-.783-3.957 17.477-6.056 35.659-6.056 54.332 0 28.583 4.911 56.015 13.908 81.519 4.819-3.152 10.446-5.155 16.485-5.598 12.332-.903 23.983 4.538 31.175 14.555 3.469 4.831 9.82 6.78 15.461 4.735 6.802-2.467 14.331-2.576 21.203-.307 5.831 1.925 12.297-.468 15.726-5.819 5.323-8.304 14.381-13.261 24.229-13.261 14.487 0 26.766 10.833 28.56 25.199.778 6.239 5.976 11.117 12.355 11.599 14.43 1.088 26.477 11.739 29.297 25.9.164.825.408 1.617.709 2.377 15.276-1.291 17.192-7.839 35.546-7.919-8.668-27.591-17.469-59.516-42.155-94.529-15.79-22.395-33.543-39.491-51.832-52.528z" fill="#725057"/><path d="m204.969 296.305c-14.015-17.976-29.326-32.182-45.037-43.381v14.797c0 3.413-2.776 6.188-6.189 6.188h-95.207c-3.412 0-6.188-2.776-6.188-6.188v-54.269c-15.877-1.589-28.845-1.31-37.027-.782-3.957 17.475-6.056 35.656-6.056 54.33 0 28.583 4.912 56.015 13.909 81.519 4.819-3.152 10.446-5.155 16.485-5.598 12.333-.903 23.983 4.538 31.175 14.555 3.469 4.831 9.82 6.78 15.461 4.735 6.801-2.467 14.331-2.576 21.203-.307 5.831 1.925 12.297-.468 15.726-5.819 5.323-8.304 14.381-13.261 24.229-13.261 8.297 0 15.866 3.558 21.159 9.294-.037-.767-.093-1.542-.179-2.328-5.047-45.802 36.217-53.427 36.536-53.485z" fill="#603f42"/><path d="m456.076 405.924c-15.643-1.24-17.382-7.949-36.177-7.949-20.706 0-20.706 8.145-41.412 8.145-20.707 0-20.707-8.145-41.413-8.145s-20.706 8.145-41.412 8.145-20.706-8.145-41.411-8.145c-18.914 0-20.558 6.795-36.486 7.97 1.301 5.607 5.948 9.793 11.708 10.472 19.706 2.323 36.727 15.168 44.421 33.523.921 2.196 2.456 3.967 4.336 5.198 2.039.736 4.237 1.409 6.862 1.915.766-.026 1.54-.119 2.313-.298 5.08-1.174 10.312-.847 15.157.853 14.131-1.564 16.405-7.793 34.511-7.793 20.707 0 20.707 8.146 41.413 8.146 19.793 0 20.679-7.438 38.803-8.094 14.609-13.03 27.642-27.783 38.787-43.943z" fill="#7070ab"/><path d="m295.662 406.121c-20.706 0-20.706-8.146-41.411-8.146-18.915 0-20.558 6.795-36.486 7.97 1.301 5.606 5.948 9.793 11.709 10.472 19.706 2.323 36.727 15.168 44.421 33.523.92 2.196 2.456 3.967 4.335 5.198 2.04.736 4.237 1.409 6.862 1.915.766-.026 1.54-.119 2.313-.298 5.08-1.174 10.312-.847 15.157.853 14.131-1.564 16.405-7.792 34.511-7.792 9.953 0 15.121 1.882 20.105 3.836.069-1.761-.383-3.542-1.378-5.085-12.967-20.119-6.518-33.787-1.125-40.431 1.528-1.883 2.203-4.252 1.946-6.542-4.818-1.875-9.965-3.62-19.549-3.62-20.704.001-20.704 8.147-41.41 8.147z" fill="#616196"/><path d="m309.997 505.628c40.989-9.535 78.024-29.362 108.246-56.605-19.059.424-19.619 8.125-39.756 8.125-20.707 0-20.707-8.146-41.413-8.146-18.953 0-20.568 6.821-36.584 7.976 3.597.953 7.031 2.634 10.09 5.015 6.6 5.138 10.329 12.598 10.502 21.004.188 9.083-4.207 17.433-11.085 22.631z" fill="#8080c1"/><path d="m309.997 505.628c16.041-3.732 31.473-9.046 46.132-15.758-9.096-14.478-4.427-25.852-.411-31.732 1.086-1.589 1.549-3.457 1.447-5.304-4.979-1.953-10.147-3.832-20.091-3.832-18.953 0-20.568 6.821-36.585 7.976 3.598.953 7.032 2.634 10.09 5.015 6.6 5.138 10.329 12.598 10.502 21.004.189 9.083-4.206 17.433-11.084 22.631z" fill="#7070ab"/><g><path d="m153.743 339.197c-4.142 0-7.5-3.358-7.5-7.5v-56.788c0-4.142 3.358-7.5 7.5-7.5s7.5 3.358 7.5 7.5v56.788c0 4.142-3.358 7.5-7.5 7.5z" fill="#ea7768"/></g><g><path d="m91.645 303.803h-33.109c-4.142 0-7.5-3.358-7.5-7.5s3.358-7.5 7.5-7.5h33.109c4.142 0 7.5 3.358 7.5 7.5s-3.358 7.5-7.5 7.5z" fill="#d85e41"/></g><g><path d="m91.645 325.538h-33.109c-4.142 0-7.5-3.358-7.5-7.5s3.358-7.5 7.5-7.5h33.109c4.142 0 7.5 3.358 7.5 7.5s-3.358 7.5-7.5 7.5z" fill="#d85e41"/></g><g><path d="m91.645 281.409c-4.142 0-7.5-3.358-7.5-7.5v-35.962c0-4.142 3.358-7.5 7.5-7.5s7.5 3.358 7.5 7.5v35.962c0 4.142-3.358 7.5-7.5 7.5z" fill="#d85e41"/></g><g><path d="m112.344 281.409c-4.142 0-7.5-3.358-7.5-7.5v-35.962c0-4.142 3.358-7.5 7.5-7.5s7.5 3.358 7.5 7.5v35.962c0 4.142-3.358 7.5-7.5 7.5z" fill="#d85e41"/></g><g><path d="m133.044 281.409c-4.142 0-7.5-3.358-7.5-7.5v-35.962c0-4.142 3.358-7.5 7.5-7.5s7.5 3.358 7.5 7.5v35.962c0 4.142-3.358 7.5-7.5 7.5z" fill="#d85e41"/></g><g><path d="m153.743 281.409c-4.142 0-7.5-3.358-7.5-7.5v-35.962c0-4.142 3.358-7.5 7.5-7.5s7.5 3.358 7.5 7.5v35.962c0 4.142-3.358 7.5-7.5 7.5z" fill="#d85e41"/></g><path d="m287.068 455.295c-4.846 1.12-9.867-1.348-11.789-5.934-7.755-18.499-25.014-32.003-45.629-34.433-5.248-.619-9.484-4.517-10.516-9.699-2.969-14.909-15.729-25.978-30.654-27.103-5.62-.424-10.282-4.696-10.981-10.288-1.821-14.583-14.253-26.513-30.047-26.513-10.707 0-20.113 5.561-25.491 13.951-2.993 4.669-8.727 6.943-13.993 5.204-7.205-2.379-15.036-2.272-22.185.321-4.994 1.811-10.633.116-13.731-4.2-7.135-9.939-19.124-16.156-32.502-15.176-6.168.452-11.929 2.466-16.887 5.643 33.179 95.988 124.333 164.932 231.602 164.932 20.367 0 40.148-2.502 59.067-7.186 5.852-5.492 9.425-13.355 9.25-21.848-.394-19.119-18.46-31.614-35.514-27.671z" fill="#8080c1"/><g><path d="m181.439 459.069c1.485-5.071-.443-10.495-4.808-13.474-12.556-8.568-17.746-24.644-12.939-38.817 1.81-5.337-.295-11.3-5.169-14.132-12.706-7.385-18.817-23.496-12.634-38.029 2.135-5.019 5.471-9.156 9.524-12.233-2.525-.685-5.19-1.06-7.961-1.06-10.706 0-20.113 5.561-25.491 13.952-2.993 4.668-8.727 6.943-13.993 5.204-7.205-2.378-15.036-2.272-22.185.321-4.995 1.811-10.633.116-13.731-4.2-7.135-9.939-19.124-16.156-32.502-15.176-6.167.452-11.929 2.466-16.887 5.643 25.884 74.883 87.054 133.305 163.631 155.376-7.151-12.922-9.213-28.496-4.855-43.375z" fill="#7070ab"/></g><path d="m181.875 200.987c0 10.456-12.074 16.289-20.265 9.79l-43.899-34.829v-30.062c0-.678-.07-1.338-.183-1.984l59.616 47.294c5.051 4.007 4.753 9.884 4.731 9.791z" fill="#d85e41"/><path d="m30.394 200.987c0-3.815 1.742-7.42 4.73-9.791l59.616-47.294c-.112.646-.183 1.306-.183 1.984v30.062l-43.899 34.829c-8.19 6.499-20.264.666-20.264-9.79z" fill="#b2381b"/><g><path d="m160.932 281.409h-109.584c-4.142 0-7.5-3.358-7.5-7.5s3.358-7.5 7.5-7.5h109.584c4.142 0 7.5 3.358 7.5 7.5s-3.358 7.5-7.5 7.5z" fill="#ea7768"/></g><g><path d="m160.932 245.447h-74.287c-4.142 0-7.5-3.358-7.5-7.5s3.358-7.5 7.5-7.5h74.287c4.142 0 7.5 3.358 7.5 7.5s-3.358 7.5-7.5 7.5z" fill="#ea7768"/></g><g><path d="m58.536 339.197c-4.142 0-7.5-3.358-7.5-7.5v-56.788c0-4.142 3.358-7.5 7.5-7.5s7.5 3.358 7.5 7.5v56.788c0 4.142-3.358 7.5-7.5 7.5z" fill="#ea7768"/></g><g><path d="m91.645 339.197c-4.142 0-7.5-3.358-7.5-7.5v-56.788c0-4.142 3.358-7.5 7.5-7.5s7.5 3.358 7.5 7.5v56.788c0 4.142-3.358 7.5-7.5 7.5z" fill="#ea7768"/></g><path d="m135.742 190.254-18.031-14.306v-30.063c0-.678-.07-1.338-.183-1.984l32.179 25.528c-.001.001-20.004 2.56-13.965 20.825z" fill="#b2381b"/><g><path d="m106.145 188.951c-6.905 0-12.503-5.597-12.503-12.503v-30.562c0-6.905 5.597-12.503 12.503-12.503 6.905 0 12.503 5.597 12.503 12.503v30.562c-.001 6.905-5.598 12.503-12.503 12.503z" fill="#ea7768"/></g><path d="m106.145 167.078c-6.905 0-12.502-5.597-12.502-12.503v21.872c0 6.905 5.597 12.503 12.502 12.503s12.503-5.597 12.503-12.503v-21.872c0 6.906-5.598 12.503-12.503 12.503z" fill="#d85e41"/><path d="m385.388 266.616c-52.345 1.905-90.624-49.169-74.173-98.805 1.975-5.958-4.366-11.319-9.887-8.334-23.816 12.878-39.895 38.23-39.476 67.301.577 40.022 33.034 72.946 73.044 74.064 21.85.61 41.666-8.105 55.772-22.455 4.38-4.456.963-11.998-5.28-11.771z" fill="#ffe400"/><path d="m357.113 281.278c-38.14-1.065-69.08-32.45-69.63-70.601-.287-19.925 7.556-38.017 20.425-51.174-1.912-1.054-4.31-1.252-6.579-.025-23.816 12.877-39.896 38.23-39.476 67.301.577 40.022 33.034 72.946 73.044 74.064 21.85.61 41.667-8.105 55.772-22.456 1.535-1.562 2.096-3.501 1.929-5.354-10.547 5.574-22.645 8.604-35.485 8.245z" fill="#fdca00"/><g><path d="m190.743 102.05h-99.098c-4.142 0-7.5-3.358-7.5-7.5s3.358-7.5 7.5-7.5h98.761c20.05-1.877 39.107-17.065 39.107-38.791 0-9.569-3.726-18.564-10.492-25.331-16.3-16.298-44.331-5.492-44.331 14.302 0 5.403 2.104 10.482 5.924 14.302 2.929 2.929 2.929 7.678 0 10.607s-7.678 2.929-10.607 0c-6.654-6.653-10.318-15.499-10.318-24.909 0-33.199 44.283-50.565 69.938-24.909 9.599 9.599 14.886 22.362 14.886 35.937 0 29.778-25.226 51.341-53.122 53.762-.215.021-.431.03-.648.03z" fill="#8080c1"/></g><g><path d="m326.784 136.108h-99.199c-4.142 0-7.5-3.358-7.5-7.5s3.358-7.5 7.5-7.5h98.855c6.795-.661 13.187-3.68 18.029-8.521 8.639-8.639 8.639-22.695 0-31.334-9.686-9.687-26.309-3.299-26.309 8.118 0 3.066 1.194 5.949 3.363 8.117 2.929 2.929 2.929 7.678 0 10.607-2.93 2.929-7.677 2.929-10.607 0-5.001-5.001-7.756-11.651-7.756-18.725 0-24.791 32.831-37.809 51.915-18.725 14.487 14.487 14.487 38.06 0 52.547-8.419 8.421-20.419 12.916-28.291 12.916z" fill="#616196"/></g><g><path d="m463.583 316.038h-51.4c-4.142 0-7.5-3.358-7.5-7.5s3.358-7.5 7.5-7.5h51.057c22.285-2.17 32.072-25.813 18.029-39.856-3.065-3.064-7.14-4.752-11.473-4.752-7.172 0-14.836 5.047-14.836 12.87 0 3.066 1.194 5.95 3.363 8.118 2.929 2.929 2.929 7.678 0 10.606-2.929 2.929-7.678 2.929-10.606 0-5.001-5.001-7.756-11.651-7.756-18.725 0-16.229 14.334-27.87 29.836-27.87 29.372 0 44.709 39.063 22.079 61.693-8.421 8.42-20.422 12.916-28.293 12.916z" fill="#8080c1"/></g><g><path d="m366.344 172.296c-5.651 0-10-4.618-10-10 0-6.365 5.858-11.029 11.95-9.8 4.795.973 8.05 5.129 8.05 9.8 0 5.456-4.431 10-10 10z" fill="#e6f8fc"/></g><g><path d="m217.763 245.416c-4.019 0-7.5-3.226-7.5-7.5 0-4.657 4.277-8.269 8.97-7.35 3.644.76 6.03 3.893 6.03 7.35 0 4.136-3.345 7.5-7.5 7.5z" fill="#e6f8fc"/></g><g><path d="m404.673 221.296c-8.064 0-15-6.514-15-15 0-8.795 7.65-15.822 16.48-14.92 7.251.752 12.733 6.398 13.45 13.45.882 8.585-5.908 16.47-14.93 16.47z" fill="#ffe400"/></g></g></svg>