<svg id="Layer_1" enable-background="new 0 0 501 501" height="512" viewBox="0 0 501 501" width="512" xmlns="http://www.w3.org/2000/svg"><g><path d="m245 8.482c-135.31 0-245 109.69-245 245 0 75.164 33.859 142.409 87.144 187.352l30.204 21.798c37.176 22.738 80.882 35.85 127.652 35.85 135.31 0 245-109.69 245-245s-109.69-245-245-245z" fill="#009cf2"/><path d="m87.144 94.592v346.241c9.482 7.997 19.572 15.295 30.204 21.798v-368.038c-4.011 3.607-9.296 5.822-15.101 5.822-5.807.001-11.092-2.216-15.103-5.823z" fill="#616196"/><g><path d="m102.246 100.415c-5.806 0-11.092-2.216-15.103-5.824v45.461c0-8.181 6.747-14.587 14.928-14.524.058.001.117.001.175.001s.116 0 .174-.001c8.181-.062 14.928 6.343 14.928 14.524v-45.46c-4.011 3.608-9.296 5.823-15.102 5.823z" fill="#515181"/></g><ellipse cx="222.007" cy="223.56" fill="#b8e9fa" rx="31.55" ry="98.031"/><g><path d="m222.007 242.41c-14.667 0-26.995-18.542-30.53-43.66-.665 7.924-1.02 16.237-1.02 24.809 0 54.141 14.125 98.031 31.55 98.031 17.424 0 31.549-43.89 31.549-98.031 0-8.572-.355-16.885-1.02-24.809-3.535 25.119-15.862 43.66-30.529 43.66z" fill="#8adaf9"/></g><path d="m465.703 183.215c-1.132-1.154-2.604-1.929-4.195-2.215-27.293-4.917-30.219 5.257-59-.58-29.633-6.01-27.41-16.974-57.043-22.984-29.629-6.01-31.853 4.954-61.483-1.056-26.224-5.319-27.513-14.515-48.001-20.727 10.414 16.013 17.575 49.359 17.575 87.907s-7.162 71.893-17.575 87.907c20.489-6.211 21.777-15.408 48.001-20.727 29.629-6.01 31.853 4.954 61.483-1.056 29.633-6.01 27.41-16.973 57.043-22.984 28.781-5.838 31.707 4.336 59-.58 1.591-.287 3.063-1.061 4.195-2.216 21.971-22.409 21.971-58.28 0-80.689z" fill="#e6f8fc"/><g><path d="m467.102 219.98c-1.215 1.067-2.741 1.729-4.349 1.896-27.585 2.862-29.741-7.503-58.878-3.833-30 3.778-28.602 14.877-58.602 18.655-29.996 3.777-31.394-7.322-61.389-3.544-.266.033-.529.067-.789.102-14.582 1.934-27.096-8.045-29.761-21.309.145 3.81.223 7.682.223 11.613 0 38.548-7.162 71.893-17.575 87.906 20.489-6.211 21.777-15.408 48.001-20.727 29.629-6.009 31.853 4.954 61.482-1.056 29.633-6.01 27.41-16.974 57.043-22.984 28.781-5.837 31.707 4.337 59-.58 1.591-.287 3.063-1.061 4.195-2.216 15.673-15.985 20.156-38.818 13.469-58.731-3.092 5.434-7.113 10.456-12.07 14.808z" fill="#b8e9fa"/></g><path d="m395.465 319.359c-2.281.492-4.118 2.257-4.703 4.516-2.174 8.406-.072 17.71 6.383 24.433 6.456 6.723 15.667 9.2 24.154 7.368 2.281-.492 4.118-2.257 4.703-4.516 2.174-8.406.072-17.71-6.384-24.433-6.455-6.722-15.666-9.2-24.153-7.368z" fill="#85d249"/><path d="m266.474 3.103c2.281.492 4.118 2.257 4.703 4.516 2.174 8.406.072 17.71-6.383 24.433-6.456 6.723-15.667 9.2-24.154 7.368-2.281-.492-4.118-2.257-4.703-4.516-2.174-8.406-.072-17.71 6.384-24.433 6.454-6.722 15.665-9.2 24.153-7.368z" fill="#ffe400"/><path d="m87.143 69.596h-39.648c-4.52 0-8.184 3.664-8.184 8.184s3.664 8.184 8.184 8.184h39.648c4.52 0 8.184-3.664 8.184-8.184s-3.664-8.184-8.184-8.184z" fill="#e6f8fc"/><path d="m171.645 40.711c-3.196-3.196-8.378-3.196-11.573 0-3.196 3.196-3.196 8.378 0 11.573l17.312 17.312h-60.035c-4.52 0-8.184 3.664-8.184 8.184s3.664 8.184 8.184 8.184h60.035l-17.312 17.312c-3.196 3.196-3.196 8.378 0 11.573 3.196 3.196 8.378 3.196 11.573 0l31.282-31.282c3.196-3.196 3.196-8.378 0-11.573z" fill="#e6f8fc"/><path d="m389.608 24.944c-15.795-15.796-41.498-15.797-57.293 0-13.275 13.274-13.275 34.875 0 48.149 3.196 3.196 8.378 3.196 11.573 0 3.196-3.196 3.196-8.378 0-11.573-12.025-12.025-2.06-32.074 17.073-32.074 6.449 0 12.513 2.512 17.073 7.072 6.087 6.087 9.439 14.18 9.439 22.788 0 19.555-17.2 33.273-35.347 34.995h-92.068c-4.52 0-8.184 3.664-8.184 8.184s3.664 8.184 8.184 8.184c98.183-.011 92.485.027 93.146-.031 13.722-1.19 26.65-7.218 36.404-16.971 18.947-18.948 18.947-49.777 0-68.723z" fill="#b8e9fa"/><path d="m440.603 70.468c-25.362 0-38.362 28.565-21.435 45.491 3.196 3.196 8.378 3.196 11.573 0 3.196-3.196 3.196-8.378 0-11.573-6.625-6.625-.892-17.55 9.862-17.55 13.844 0 21.492 20.004 9.863 31.633-4.308 4.308-9.992 7-16.036 7.601h-47.567c-4.52 0-8.184 3.664-8.184 8.184s3.664 8.184 8.184 8.184h47.946c7.767 0 19.233-4.398 27.231-12.395 21.868-21.871 6.998-59.575-21.437-59.575z" fill="#8adaf9"/><path d="m303.124 324.589c-16.811 0-32.419 12.619-32.419 30.286 0 7.688 2.994 14.915 8.429 20.35 3.197 3.196 8.377 3.195 11.574 0 3.196-3.196 3.195-8.378-.001-11.574-2.344-2.344-3.635-5.46-3.635-8.776 0-8.294 8.104-13.919 16.052-13.919 11.59 0 19.444 11.118 19.444 22.111 0 14.571-12.879 24.867-26.56 26.2h-78.628c-4.52 0-8.184 3.664-8.184 8.184s3.664 8.184 8.184 8.184c84.295-.011 79.048.027 79.711-.031 21.866-1.897 41.845-18.866 41.845-42.537-.001-19.935-14.921-38.478-35.812-38.478z" fill="#8adaf9"/><path d="m373.64 400.755c-6.867-1.383-13.05 3.96-13.05 10.693 0 5.957 4.851 10.912 10.912 10.912 5.95 0 10.912-4.807 10.912-10.912-.001-5.319-3.878-9.773-8.774-10.693z" fill="#ffe400"/><path d="m401.144 344.395c0-9.167 8.419-16.443 17.77-14.56 1.504.283 2.932.821 4.25 1.552-.986-1.648-2.159-3.216-3.545-4.659-6.456-6.723-15.666-9.201-24.154-7.369-2.281.492-4.119 2.257-4.703 4.516-2.175 8.406-.072 17.71 6.383 24.433 2.142 2.23 4.59 3.982 7.211 5.276-2.008-2.542-3.212-5.739-3.212-9.189z" fill="#60b550"/><path d="m492.217 140.961c-6.615-1.335-13.04 3.71-13.04 10.693 0 5.232 3.69 9.673 8.773 10.704 6.841 1.367 13.05-3.952 13.05-10.704 0-5.014-3.486-9.619-8.783-10.693z" fill="#85d249"/><path d="m193.642 345.564c-7.521-1.514-14.37 5.13-12.832 12.832 1.077 5.223 5.582 8.773 10.704 8.773 6.154 0 10.912-5.022 10.912-10.912 0-5.155-3.613-9.643-8.784-10.693z" fill="#85d249"/><ellipse cx="102.246" cy="77.78" fill="#7070ab" rx="23.754" ry="23.754" transform="matrix(.227 -.974 .974 .227 3.25 159.656)"/><circle cx="109.164" cy="72.159" fill="#8080c1" r="7.785"/><g><path d="m222.007 329.774c-8.682 0-20.952-5.966-30.099-34.389-6.213-19.304-9.634-44.812-9.634-71.825s3.422-52.521 9.634-71.826c9.148-28.423 21.417-34.389 30.099-34.389s20.952 5.966 30.099 34.389c6.212 19.304 9.634 44.812 9.634 71.826s-3.422 52.521-9.634 71.825c-9.148 28.423-21.417 34.389-30.099 34.389zm0-196.062c-2.856 0-9.079 6.135-14.519 23.036-5.705 17.727-8.847 41.454-8.847 66.811s3.142 49.084 8.847 66.811c5.44 16.901 11.663 23.036 14.519 23.036s9.079-6.135 14.519-23.036c5.705-17.727 8.847-41.455 8.847-66.811 0-25.357-3.142-49.084-8.847-66.811-5.44-16.9-11.663-23.036-14.519-23.036z" fill="#616196"/></g><g><path d="m113.496 212.783c-2.465 0-4.902-1.109-6.512-3.22-2.741-3.594-2.051-8.729 1.543-11.471l103.644-79.07c3.593-2.741 8.729-2.051 11.471 1.543 2.741 3.593 2.051 8.729-1.543 11.47l-103.644 79.07c-1.483 1.131-3.228 1.678-4.959 1.678z" fill="#e6f8fc"/></g><g><path d="m217.129 329.775c-1.731 0-3.475-.547-4.958-1.678l-103.644-79.07c-3.593-2.741-4.284-7.877-1.543-11.471 2.742-3.594 7.876-4.284 11.471-1.542l103.644 79.07c3.593 2.741 4.284 7.877 1.543 11.47-1.611 2.111-4.048 3.221-6.513 3.221z" fill="#e6f8fc"/></g><path d="m113.32 253.205h-21.405c-7.383 0-13.424-6.041-13.424-13.424v-32.442c0-7.383 6.041-13.424 13.424-13.424h21.405c7.383 0 13.424 6.041 13.424 13.424v32.442c.001 7.383-6.04 13.424-13.424 13.424z" fill="#8080c1"/><path d="m102.618 239.78v-32.442c0-6.924 5.313-12.667 12.063-13.355-.448-.046-.902-.069-1.361-.069h-21.404c-7.383 0-13.424 6.041-13.424 13.424v32.442c0 7.383 6.041 13.424 13.424 13.424h21.405c.459 0 .913-.023 1.361-.069-6.751-.688-12.064-6.431-12.064-13.355z" fill="#7070ab"/><path d="m322.332 155.883c13.509 41.692 13.509 93.661 0 135.353 5.949.574 12.909.521 23.133-1.552 15.524-3.149 22.306-7.657 29.505-12.1 8.368-34.352 8.368-73.695.001-108.047-7.199-4.443-13.981-8.952-29.505-12.1-10.225-2.075-17.184-2.127-23.134-1.554z" fill="#ff4155"/><path d="m345.273 236.698c-5.158.649-9.456.852-13.213.773-1.074 18.69-4.313 37.054-9.727 53.765 18.439 1.805 38.108-4.228 52.638-13.652 4.146-17.018 6.23-35.261 6.269-53.516-10.223 4.622-16.459 10.173-35.967 12.63z" fill="#e80054"/><path d="m261.504 28.593c-8.563 0-15.504-6.941-15.504-15.504 0-2.466.591-4.788 1.615-6.858-1.901 1.148-3.684 2.562-5.295 4.239-6.456 6.723-8.558 16.027-6.384 24.433.584 2.259 2.422 4.023 4.703 4.516 8.488 1.832 17.699-.646 24.154-7.368 1.544-1.608 2.832-3.367 3.879-5.223-2.145 1.123-4.58 1.765-7.168 1.765z" fill="#fdca00"/></g></svg>