<svg id="Layer_1" enable-background="new 0 0 512 512" height="512" viewBox="0 0 512 512" width="512" xmlns="http://www.w3.org/2000/svg"><g><path d="m17.056 212.669 253.084 164.273s165.815 4.651 216.454-27.01c9.317-25.902 14.406-53.821 14.406-82.932 0-135.31-109.69-245-245-245-116.637 0-214.227 81.508-238.944 190.669z" fill="#009cf2"/><path d="m352.343 285.841c29.426-2.66 52.486-27.382 52.486-57.5 0-31.894-25.855-57.75-57.75-57.75-31.894 0-57.75 25.855-57.75 57.75 0 8.27 1.751 16.127 4.882 23.239 24.554 1.224 45.888 14.611 58.132 34.261z" fill="#ffe400"/><path d="m338.295 253.2c-22.624-22.482-22.738-59.046-.257-81.67.095-.096.195-.184.291-.279-27.742 4.217-48.999 28.17-48.999 57.09 0 8.27 1.751 16.127 4.882 23.239 24.553 1.224 45.887 14.611 58.131 34.261 13.773-1.245 26.15-7.324 35.422-16.527-17.484 2.67-35.962-2.691-49.47-16.114z" fill="#fdca00"/><path d="m347.079 125.884c-4.142 0-7.5 3.358-7.5 7.5v10.518c0 4.142 3.358 7.5 7.5 7.5s7.5-3.358 7.5-7.5v-10.518c0-4.142-3.358-7.5-7.5-7.5z" fill="#ffe400"/><g fill="#fdca00"><path d="m285.237 155.893c-2.929-2.929-7.678-2.929-10.606 0-2.929 2.929-2.929 7.678 0 10.606l7.438 7.438c1.464 1.464 3.384 2.197 5.303 2.197s3.839-.732 5.303-2.197c2.929-2.929 2.929-7.678 0-10.606z"/><path d="m412.09 282.745c-2.929-2.929-7.678-2.929-10.606 0-2.929 2.929-2.929 7.678 0 10.607l7.438 7.438c1.464 1.464 3.384 2.197 5.303 2.197s3.839-.733 5.303-2.197c2.929-2.929 2.929-7.678 0-10.607z"/><path d="m262.64 220.841h-10.518c-4.142 0-7.5 3.358-7.5 7.5s3.358 7.5 7.5 7.5h10.518c4.142 0 7.5-3.358 7.5-7.5s-3.358-7.5-7.5-7.5z"/></g><path d="m442.036 220.841h-10.519c-4.142 0-7.5 3.358-7.5 7.5s3.358 7.5 7.5 7.5h10.519c4.142 0 7.5-3.358 7.5-7.5s-3.358-7.5-7.5-7.5z" fill="#ffe400"/><path d="m406.786 176.134c1.919 0 3.839-.732 5.304-2.197l7.438-7.438c2.929-2.929 2.928-7.678 0-10.607-2.93-2.929-7.677-2.928-10.607 0l-7.438 7.438c-2.929 2.929-2.928 7.678 0 10.607 1.465 1.465 3.384 2.197 5.303 2.197z" fill="#ffe400"/><path d="m372.148 87.075h-98.761c-19.934-1.866-39.108-16.971-39.108-38.791 0-16.631 12.008-33.285 29.696-33.285 12.432 0 25.128 8.913 25.128 22.256 0 5.403-2.104 10.482-5.924 14.302-2.929 2.929-2.929 7.677 0 10.606 2.929 2.93 7.678 2.929 10.606 0 6.654-6.653 10.318-15.499 10.318-24.909 0-21.615-19.217-37.254-40.128-37.254-26.026 0-44.696 23.233-44.696 48.285 0 29.78 25.228 51.341 53.123 53.762.499.044 22.662.021 99.747.028 4.142 0 7.5-3.358 7.5-7.5-.001-4.142-3.359-7.5-7.501-7.5z" fill="#e6f8fc"/><path d="m236.208 121.133h-51.057c-12.527-1.219-24.518-10.654-24.518-24.189 0-17.549 18.396-26.707 29.436-15.667 4.486 4.486 4.488 11.749 0 16.235-2.929 2.929-2.929 7.678-.001 10.607 2.929 2.93 7.678 2.929 10.607 0 10.349-10.348 10.351-27.099 0-37.449-20.579-20.581-55.042-4.532-55.042 26.273 0 9.925 3.865 19.256 10.883 26.274 8.419 8.42 20.42 12.915 28.292 12.915h51.4c4.142 0 7.5-3.358 7.5-7.5 0-4.141-3.358-7.499-7.5-7.499z" fill="#b8e9fa"/><g><path d="m212.273 306.315c9.729 13.799 17.774 28.244 24.596 44.161l.56 1.307 1.335-.489c4.033-1.478 8.91-2.845 17.222-2.845 10.068 0 14.969 1.928 20.156 3.969 5.22 2.053 10.618 4.177 21.255 4.177 10.638 0 16.035-2.124 21.255-4.177 5.188-2.041 10.088-3.969 20.156-3.969 10.069 0 14.97 1.928 20.158 3.969 5.22 2.053 10.618 4.177 21.256 4.177 10.637 0 16.035-2.124 21.255-4.177 5.188-2.041 10.088-3.969 20.157-3.969 10.07 0 14.971 1.928 20.16 3.969 1.041.409 2.091.821 3.186 1.218-3.924-9.994-12.865-17.467-23.727-19.31-2.04-.346-3.715-1.751-4.51-3.661-7.119-17.114-23.989-29.151-43.68-29.151-2.29 0-4.542.164-6.745.48-2.745.393-5.442-1.087-6.394-3.692-10.198-27.902-36.962-47.825-68.395-47.825-31.399 0-58.157 19.874-68.381 47.728-.764 2.082-2.61 3.535-4.802 3.87-2.671.409-5.265 1.049-7.769 1.884.567.783 1.137 1.563 1.696 2.356z" fill="#e6f8fc"/></g><g><path d="m237.429 351.783 1.335-.489c3.767-1.38 8.273-2.664 15.626-2.827 3.133-15.371 13.826-28.85 29.58-34.82 2.142-.812 4.306-1.456 6.477-1.941 2.706-.605 4.704-2.946 4.67-5.718-.227-19.199 7.206-37.726 20.422-51.443-7.518-2.627-15.593-4.067-24.009-4.067-31.399 0-58.157 19.874-68.381 47.728-.764 2.082-2.61 3.535-4.802 3.87-2.671.409-5.265 1.049-7.769 1.884.566.783 1.136 1.563 1.695 2.355 9.729 13.799 17.774 28.244 24.596 44.161z" fill="#b8e9fa"/></g><path d="m486.594 349.932c-6.31 2.326-11.32 5.162-23.542 5.162-20.709 0-20.709-8.146-41.418-8.146-20.706 0-20.706 8.146-41.412 8.146-20.707 0-20.707-8.146-41.414-8.146-20.706 0-20.706 8.146-41.411 8.146s-20.705-8.146-41.411-8.146c-10.015 0-15.185 1.907-20.198 3.875 7.419 17.105 12.26 33.183 16.892 48.045 1.044-.049 2.137-.078 3.306-.078 20.705 0 20.705 8.145 41.411 8.145s20.706-8.145 41.411-8.145c20.707 0 20.707 8.145 41.414 8.145 20.706 0 20.706-8.145 41.412-8.145 18.577 0 20.499 6.551 35.646 7.9 12.106-17.41 22.013-36.46 29.314-56.758z" fill="#5ccbf7"/><path d="m297.397 355.094c-20.706 0-20.706-8.145-41.411-8.145-10.016 0-15.185 1.907-20.198 3.874 7.419 17.105 12.26 33.183 16.893 48.045 1.043-.049 2.137-.078 3.306-.078 20.705 0 20.705 8.146 41.411 8.146s20.706-8.146 41.412-8.146c9.62 0 14.77 1.758 19.604 3.641-.022-1.594-.485-3.182-1.421-4.577-19.776-29.465 4.199-46.18 4.199-46.18-5.799-2.229-10.917-4.726-22.382-4.726-20.707.001-20.707 8.146-41.413 8.146z" fill="#2ebcf6"/><path d="m161.667 252.923v14.797c0 3.413-2.776 6.188-6.189 6.188h-95.207c-3.412 0-6.188-2.776-6.188-6.188v-54.269c-15.877-1.589-28.845-1.31-37.027-.783-3.957 17.477-6.056 35.659-6.056 54.332 0 28.583 4.911 56.015 13.909 81.519 4.819-3.152 10.446-5.155 16.485-5.598 12.332-.903 23.983 4.538 31.175 14.555 3.469 4.831 9.82 6.78 15.461 4.735 6.802-2.467 14.331-2.576 21.203-.307 5.831 1.925 12.297-.468 15.726-5.819 5.323-8.304 14.381-13.261 24.229-13.261 14.487 0 26.766 10.833 28.56 25.199.778 6.239 5.976 11.117 12.355 11.599 14.43 1.088 26.477 11.739 29.297 25.9.164.825.408 1.617.709 2.377 15.276-1.291 17.192-7.839 35.546-7.919-8.668-27.591-17.469-59.516-42.155-94.529-15.791-22.395-33.544-39.491-51.833-52.528z" fill="#fff2b9"/><path d="m206.704 296.305c-14.015-17.976-29.326-32.182-45.037-43.381v14.797c0 3.413-2.776 6.188-6.189 6.188h-95.207c-3.412 0-6.188-2.776-6.188-6.188v-54.269c-15.877-1.589-28.845-1.31-37.027-.782-3.957 17.475-6.056 35.657-6.056 54.33 0 28.583 4.912 56.015 13.909 81.519 4.819-3.152 10.446-5.155 16.485-5.598 12.333-.903 23.983 4.538 31.175 14.555 3.469 4.831 9.82 6.78 15.461 4.735 6.801-2.467 14.331-2.576 21.203-.307 5.831 1.925 12.297-.468 15.726-5.819 5.323-8.304 14.381-13.261 24.229-13.261 8.297 0 15.866 3.558 21.159 9.294-.037-.767-.093-1.542-.179-2.328-5.047-45.802 36.217-53.427 36.536-53.485z" fill="#fcde63"/><path d="m457.811 405.924c-15.643-1.24-17.382-7.949-36.177-7.949-20.706 0-20.706 8.145-41.412 8.145-20.707 0-20.707-8.145-41.413-8.145s-20.706 8.145-41.412 8.145c-20.705 0-20.705-8.145-41.411-8.145-18.914 0-20.558 6.795-36.486 7.97 1.301 5.606 5.948 9.792 11.709 10.472 19.706 2.323 36.727 15.169 44.421 33.523.921 2.196 2.456 3.967 4.336 5.198 2.039.736 4.237 1.409 6.862 1.915.766-.026 1.54-.119 2.313-.298 5.08-1.174 10.312-.847 15.157.853 14.131-1.564 16.405-7.793 34.511-7.793 20.707 0 20.707 8.146 41.413 8.146 19.793 0 20.679-7.438 38.803-8.094 14.608-13.03 27.641-27.783 38.786-43.943z" fill="#8adaf9"/><path d="m297.397 406.121c-20.706 0-20.706-8.146-41.411-8.146-18.915 0-20.558 6.795-36.486 7.97 1.301 5.606 5.948 9.792 11.708 10.472 19.706 2.323 36.727 15.168 44.421 33.523.92 2.196 2.456 3.967 4.336 5.198 2.039.736 4.237 1.409 6.862 1.915.766-.026 1.54-.119 2.314-.298 5.079-1.174 10.312-.847 15.157.853 14.131-1.564 16.405-7.793 34.511-7.793 9.953 0 15.121 1.882 20.104 3.836.069-1.761-.383-3.542-1.377-5.085-12.967-20.119-6.518-33.787-1.124-40.431 1.528-1.883 2.203-4.252 1.946-6.542-4.818-1.874-9.965-3.62-19.549-3.62-20.706.002-20.706 8.148-41.412 8.148z" fill="#5ccbf7"/><path d="m311.732 505.628c40.989-9.535 78.024-29.362 108.246-56.605-19.059.424-19.619 8.125-39.756 8.125-20.707 0-20.707-8.145-41.413-8.145-18.953 0-20.568 6.821-36.584 7.976 3.597.953 7.032 2.634 10.09 5.015 6.6 5.138 10.329 12.598 10.502 21.004.187 9.082-4.207 17.432-11.085 22.63z" fill="#b8e9fa"/><path d="m311.732 505.628c16.041-3.732 31.473-9.046 46.132-15.758-9.096-14.478-4.427-25.852-.411-31.732 1.085-1.589 1.549-3.457 1.447-5.304-4.979-1.953-10.147-3.832-20.091-3.832-18.953 0-20.568 6.821-36.585 7.976 3.598.953 7.032 2.634 10.09 5.015 6.6 5.138 10.329 12.598 10.502 21.004.189 9.083-4.206 17.433-11.084 22.631z" fill="#8adaf9"/><g><path d="m120.371 174.674c-.122 6.8-5.662 12.276-12.491 12.276s-12.369-5.477-12.491-12.276l-42.306 33.565v59.481c0 3.97 3.218 7.188 7.188 7.188h95.207c3.97 0 7.188-3.218 7.188-7.188v-59.489z" fill="#725057"/></g><path d="m95.388 174.674-42.306 33.565v59.482c0 3.97 3.218 7.188 7.188 7.188h33.11c0-27.05 0-64.472 0-72.473 0-12.833 14.5-15.486 14.5-15.486-6.83.001-12.37-5.476-12.492-12.276z" fill="#603f42"/><g><path d="m155.478 339.197c-4.142 0-7.5-3.358-7.5-7.5v-56.788c0-4.142 3.358-7.5 7.5-7.5s7.5 3.358 7.5 7.5v56.788c0 4.142-3.358 7.5-7.5 7.5z" fill="#ea7768"/></g><g><path d="m93.38 303.803h-33.109c-4.142 0-7.5-3.358-7.5-7.5s3.358-7.5 7.5-7.5h33.109c4.142 0 7.5 3.358 7.5 7.5s-3.358 7.5-7.5 7.5z" fill="#d85e41"/></g><g><path d="m93.38 325.539h-33.109c-4.142 0-7.5-3.358-7.5-7.5s3.358-7.5 7.5-7.5h33.109c4.142 0 7.5 3.358 7.5 7.5s-3.358 7.5-7.5 7.5z" fill="#d85e41"/></g><g><path d="m93.38 281.409c-4.142 0-7.5-3.358-7.5-7.5v-35.962c0-4.142 3.358-7.5 7.5-7.5s7.5 3.358 7.5 7.5v35.962c0 4.142-3.358 7.5-7.5 7.5z" fill="#d85e41"/></g><g><path d="m114.079 281.409c-4.142 0-7.5-3.358-7.5-7.5v-35.962c0-4.142 3.358-7.5 7.5-7.5s7.5 3.358 7.5 7.5v35.962c0 4.142-3.358 7.5-7.5 7.5z" fill="#d85e41"/></g><g><path d="m134.779 281.409c-4.142 0-7.5-3.358-7.5-7.5v-35.962c0-4.142 3.358-7.5 7.5-7.5s7.5 3.358 7.5 7.5v35.962c0 4.142-3.358 7.5-7.5 7.5z" fill="#d85e41"/></g><g><path d="m155.478 281.409c-4.142 0-7.5-3.358-7.5-7.5v-35.962c0-4.142 3.358-7.5 7.5-7.5s7.5 3.358 7.5 7.5v35.962c0 4.142-3.358 7.5-7.5 7.5z" fill="#d85e41"/></g><path d="m288.803 455.295c-4.846 1.12-9.867-1.348-11.789-5.934-7.755-18.499-25.014-32.003-45.629-34.433-5.248-.619-9.484-4.517-10.516-9.699-2.969-14.909-15.729-25.978-30.654-27.103-5.62-.424-10.282-4.696-10.981-10.288-1.821-14.583-14.253-26.513-30.047-26.513-10.707 0-20.113 5.561-25.491 13.951-2.993 4.669-8.727 6.943-13.993 5.205-7.205-2.379-15.036-2.272-22.185.321-4.994 1.811-10.633.116-13.731-4.2-7.135-9.939-19.124-16.156-32.503-15.176-6.168.452-11.929 2.466-16.887 5.643 33.18 95.987 124.334 164.931 231.603 164.931 20.367 0 40.148-2.502 59.067-7.186 5.852-5.492 9.425-13.355 9.25-21.848-.394-19.119-18.46-31.613-35.514-27.671z" fill="#85d249"/><g><path d="m183.174 459.069c1.485-5.071-.443-10.495-4.808-13.474-12.556-8.568-17.746-24.644-12.939-38.817 1.81-5.337-.295-11.3-5.169-14.132-12.705-7.385-18.817-23.496-12.634-38.029 2.135-5.019 5.471-9.156 9.524-12.233-2.525-.685-5.19-1.06-7.961-1.06-10.707 0-20.113 5.561-25.491 13.952-2.993 4.668-8.727 6.943-13.993 5.204-7.205-2.378-15.036-2.272-22.185.321-4.995 1.812-10.633.116-13.731-4.2-7.135-9.939-19.124-16.156-32.502-15.176-6.167.452-11.929 2.466-16.887 5.643 25.884 74.883 87.054 133.305 163.631 155.376-7.151-12.922-9.213-28.496-4.855-43.375z" fill="#60b550"/></g><path d="m183.61 200.987c0 10.456-12.074 16.289-20.265 9.79l-43.899-34.829v-30.062c0-.678-.07-1.338-.183-1.984l59.616 47.294c5.051 4.007 4.753 9.884 4.731 9.791z" fill="#d85e41"/><path d="m32.129 200.987c0-3.815 1.742-7.42 4.73-9.791l59.616-47.294c-.112.646-.183 1.306-.183 1.984v30.062l-43.899 34.829c-8.19 6.499-20.264.666-20.264-9.79z" fill="#b2381b"/><g><path d="m162.667 281.409h-109.584c-4.142 0-7.5-3.358-7.5-7.5s3.358-7.5 7.5-7.5h109.584c4.142 0 7.5 3.358 7.5 7.5s-3.358 7.5-7.5 7.5z" fill="#ea7768"/></g><g><path d="m162.667 245.447h-74.287c-4.142 0-7.5-3.358-7.5-7.5s3.358-7.5 7.5-7.5h74.287c4.142 0 7.5 3.358 7.5 7.5s-3.358 7.5-7.5 7.5z" fill="#ea7768"/></g><g><path d="m60.271 339.197c-4.142 0-7.5-3.358-7.5-7.5v-56.788c0-4.142 3.358-7.5 7.5-7.5s7.5 3.358 7.5 7.5v56.788c0 4.142-3.358 7.5-7.5 7.5z" fill="#ea7768"/></g><g><path d="m93.38 339.197c-4.142 0-7.5-3.358-7.5-7.5v-56.788c0-4.142 3.358-7.5 7.5-7.5s7.5 3.358 7.5 7.5v56.788c0 4.142-3.358 7.5-7.5 7.5z" fill="#ea7768"/></g><path d="m370.54 216.115c.974 7.165-4.045 13.764-11.211 14.737-7.165.974-13.763-4.045-14.737-11.211-.974-7.165 4.045-13.764 11.211-14.737 7.165-.974 13.764 4.046 14.737 11.211z" fill="#fff442"/><path d="m380.134 200.521c.376 2.769-1.563 5.318-4.332 5.695-2.769.376-5.318-1.563-5.694-4.332s1.563-5.318 4.332-5.694c2.768-.377 5.317 1.563 5.694 4.331z" fill="#fff442"/><path d="m137.477 190.255-18.031-14.306v-30.063c0-.678-.07-1.338-.183-1.984l32.179 25.528c-.001 0-20.004 2.559-13.965 20.825z" fill="#b2381b"/><g><path d="m107.88 188.951c-6.905 0-12.503-5.597-12.503-12.503v-30.562c0-6.905 5.597-12.503 12.503-12.503 6.905 0 12.503 5.597 12.503 12.503v30.562c-.001 6.905-5.598 12.503-12.503 12.503z" fill="#ea7768"/></g><path d="m107.88 167.078c-6.905 0-12.502-5.597-12.502-12.503v21.872c0 6.905 5.597 12.503 12.502 12.503s12.503-5.597 12.503-12.503v-21.872c0 6.906-5.598 12.503-12.503 12.503z" fill="#d85e41"/></g></svg>