<svg id="Layer_1" enable-background="new 0 0 512 512" height="512" viewBox="0 0 512 512" width="512" xmlns="http://www.w3.org/2000/svg"><g><path d="m256 22c-135.31 0-245 109.69-245 245 0 130.535 102.089 237.211 230.778 244.579l29.54-.07c128.173-7.909 229.682-114.346 229.682-244.509 0-135.31-109.69-245-245-245z" fill="#009cf2"/><path d="m241.778 284.501v227.078c4.708.27 9.447.421 14.222.421 5.147 0 10.251-.178 15.319-.491v-227.007c-4.603 1.7-9.577 2.634-14.77 2.634-5.195 0-10.168-.935-14.771-2.635z" fill="#7070ab"/><path d="m256.549 287.135c-5.194 0-10.168-.935-14.771-2.634v121.044c0-7.948 6.524-14.237 14.472-14.182.1 0 .199.001.299.001s.2 0 .299-.001c7.947-.055 14.471 6.234 14.471 14.182v-121.043c-4.603 1.7-9.577 2.633-14.77 2.633z" fill="#616196"/><g><path d="m39.265 389.161c-2.974-2.974-2.974-7.796 0-10.77l38.78-38.78-38.78-38.78c-2.974-2.974-2.974-7.796 0-10.77s7.796-2.974 10.77 0l44.165 44.164c2.974 2.974 2.974 7.796 0 10.77l-44.165 44.165c-2.974 2.975-7.796 2.975-10.77.001z" fill="#b8e9fa"/></g><g><path d="m83.43 389.161c-2.975-2.974-2.975-7.796 0-10.77l38.78-38.78-38.78-38.78c-2.975-2.974-2.975-7.796 0-10.77 2.974-2.974 7.796-2.974 10.77 0l44.165 44.165c1.428 1.428 2.231 3.365 2.231 5.385s-.802 3.957-2.231 5.385l-44.165 44.165c-2.975 2.974-7.796 2.974-10.77 0z" fill="#b8e9fa"/></g><path d="m458.735 334.225-44.165-44.165c-2.974-2.974-7.796-2.974-10.77 0-2.975 2.974-2.975 7.796 0 10.77l31.164 31.164h-346.149c-4.206 0-7.616 3.41-7.616 7.616s3.41 7.616 7.616 7.616h346.15l-31.164 31.164c-2.975 2.974-2.975 7.796 0 10.77 2.974 2.975 7.796 2.974 10.77 0l44.165-44.165c2.974-2.973 2.974-7.796-.001-10.77z" fill="#e6f8fc"/><g><path d="m370.884 486.073c-.83 0-1.673-.136-2.5-.424l-228.669-79.474c-3.973-1.381-6.074-5.721-4.693-9.694s5.722-6.073 9.694-4.694l228.669 79.474c3.972 1.381 6.074 5.721 4.693 9.694-1.094 3.146-4.043 5.118-7.194 5.118z" fill="#b8e9fa"/></g><g><path d="m142.214 486.073c-3.153 0-6.1-1.972-7.193-5.117-1.381-3.973.721-8.313 4.693-9.694l228.669-79.474c3.969-1.382 8.313.72 9.694 4.694 1.381 3.973-.721 8.313-4.693 9.694l-228.669 79.474c-.828.287-1.671.423-2.501.423z" fill="#e6f8fc"/></g><ellipse cx="256.549" cy="339.611" fill="#7070ab" rx="24.692" ry="24.692" transform="matrix(.707 -.707 .707 .707 -165 280.877)"/><circle cx="262.317" cy="333.825" fill="#8080c1" r="7.555"/><path d="m384.116 38.478c-.917-14.621-12.954-26.407-27.59-27.044-3.78-.165-7.407.398-10.755 1.559-2.751.953-5.792.247-7.837-1.825-6.806-6.894-16.259-11.168-26.711-11.168-15.301 0-28.464 9.157-34.307 22.29-1.031 2.317-3.086 4.041-5.587 4.458-12.991 2.165-22.758 13.858-21.863 27.656.779 12.007 9.831 21.871 21.365 24.06 4.285-23.741 25.086-41.812 50.043-41.812 20.62 0 38.401 12.34 46.379 30.018 10.509-4.806 17.645-15.712 16.863-28.192z" fill="#ff4155"/><path d="m276.916 22.29c-1.031 2.317-3.085 4.041-5.587 4.458-12.991 2.165-22.758 13.858-21.863 27.656.778 12.007 9.831 21.871 21.364 24.06 4.049-22.435 22.849-39.797 45.965-41.641-.001-.001-.002-.002-.004-.002-24.299-13.617-5.567-36.821-5.567-36.821-15.302 0-28.464 9.157-34.308 22.29z" fill="#e80054"/><path d="m393.518 140.284-14.293-27.906-7.982-.702v29.542c0 8.758-.972 17.288-2.801 25.495h8.919c13.572-.001 22.344-14.35 16.157-26.429z" fill="#ff4155"/><path d="m371.205 143.957c10.064-7.431 22.314-3.673 22.314-3.673l-14.293-27.906-7.982-.702v29.542c-.001.916-.018 1.828-.039 2.739z" fill="#e80054"/><path d="m101.574 60.257c50.056-7.811 55.363 64.036 55.572 67.194h29.591s-6.957-108.832-78.85-106.182c-39.574 1.459-54.957 33.915-60.348 51.123-1.336 4.263 2.741 8.248 6.981 6.841 5.168-1.715 12.073-3.638 19.812-4.843 5.159-6.73 13.679-12.017 27.242-14.133z" fill="#fc6379"/><path d="m156.589 43.007c-11.442-13.305-27.153-22.532-48.703-21.738-39.573 1.459-54.957 33.915-60.348 51.123-1.335 4.263 2.741 8.247 6.981 6.841 5.168-1.715 12.073-3.638 19.812-4.842 5.161-6.731 13.681-12.017 27.243-14.133 12.618-1.969 22.39 1.127 29.955 6.905 1.851-1.35 3.189-3.324 3.599-5.652 3.264-18.595 21.326-18.505 21.461-18.504z" fill="#ff4155"/><path d="m256.549 255.712c-14.927 0-29.319-2.766-42.639-7.825.655 22.994 19.487 41.437 42.639 41.437 23.225 0 42.102-18.558 42.645-41.652-13.21 5.189-27.595 8.04-42.645 8.04z" fill="#b8e9fa"/><path d="m257.979 255.695c-.477.006-.952.017-1.43.017h-.001c-14.926 0-29.318-2.767-42.639-7.826.654 22.994 19.487 41.437 42.639 41.437 4.705 0 9.226-.773 13.458-2.18-15.08-3.408-18.717-20.496-12.027-31.448z" fill="#8adaf9"/><path d="m410.193 101.647-39.821-21.481v43.029l39.299-14.352c3.206-1.17 3.524-5.576.522-7.196z" fill="#ffe400"/><path d="m384.175 109.062v-12.623c0-3.066 1.934-5.465 4.455-6.424l-18.257-9.849v43.029l19.982-7.297c-3.352-.344-6.18-3.152-6.18-6.836z" fill="#fdca00"/><path d="m102.254 59.038c-40.982 6.395-36.709 41.246-31.869 58.594.584 2.093 3.564 2.025 4.049-.093 1.798-7.854 7.348-18.021 23.679-21.229 27.83-5.466 38.18 31.141 38.18 31.141h22.449c-.001 0-4.473-76.53-56.488-68.413z" fill="#ff4155"/><path d="m128.41 68.688c1.683-.468 3.184-1.37 4.352-2.58-7.698-5.905-17.648-9.077-30.508-7.07-40.981 6.395-36.709 41.246-31.869 58.594.584 2.093 3.564 2.025 4.049-.093 1.798-7.854 7.348-18.021 23.679-21.229 7.533-1.479 13.783.126 18.896 3.252-8.926-21.613 3.276-28.617 11.401-30.874z" fill="#e80054"/><path d="m268.517 102.101v-14.584c0-28.916 23.441-52.357 52.357-52.357 28.916 0 52.357 23.441 52.357 52.357v53.7c0 64.442-52.24 116.683-116.682 116.683-58.36 0-108.666-42.054-117.893-99.68-1.512-9.44-2.362-19.679-2.362-30.769h106.874c13.999 0 25.349-11.35 25.349-25.35z" fill="#e6f8fc"/><path d="m280.866 207.433-43.949-79.982h-100.625c0 11.09.851 21.329 2.362 30.769 9.227 57.626 59.533 99.68 117.894 99.68h.001c14.301 0 27.999-2.578 40.661-7.286-31.953-13.567-16.344-43.181-16.344-43.181z" fill="#b8e9fa"/><path d="m343.618 82.391c0 6.663-5.401 12.064-12.064 12.064s-12.064-5.401-12.064-12.064 5.401-12.064 12.064-12.064c6.663-.001 12.064 5.401 12.064 12.064z" fill="#515181"/><path d="m276.693 124.202c-.476-.057-.96-.081-1.439-.081h-69.932c-6.712 0-11.923 5.802-11.282 12.483.244 2.542.56 5.004.941 7.386 5.958 37.213 38.445 64.37 76.131 64.37 54.087 0 56.065-78.078 5.581-84.158z" fill="#ff4155"/><path d="m242.374 143.99c-.229-2.383-.418-4.844-.564-7.386-.383-6.681 2.738-12.483 6.758-12.483h-43.246c-6.711 0-11.922 5.802-11.282 12.483.244 2.542.561 5.003.942 7.386 5.959 37.213 38.445 64.37 76.131 64.37 3.466 0 6.715-.325 9.753-.927-19.437-5.009-35.304-30.206-38.492-63.443z" fill="#e80054"/></g></svg>