<svg id="Layer_1" enable-background="new 0 0 512 512" height="512" viewBox="0 0 512 512" width="512" xmlns="http://www.w3.org/2000/svg"><g><path d="m313.824 28.882c-18.543-4.487-37.902-6.882-57.824-6.882-135.31 0-245 109.69-245 245s109.69 245 245 245 245-109.69 245-245c0-7.533-.359-14.981-1.024-22.341z" fill="#009cf2"/><path d="m117.36 152.829c14.5-22.2 39.282-35.924 66.493-35.924 3.789 0 7.602.272 11.334.807 5.327.762 10.488-2.229 12.274-7.115 8.573-23.455 23.901-43.54 44.327-58.082 5.305-3.777 10.854-7.096 16.6-9.954-12.484-25.218-38.471-42.561-68.515-42.561-32.984 0-61.069 20.906-71.77 50.185-.999 2.733-3.829 4.287-6.71 3.874-2.312-.331-4.674-.504-7.078-.504-20.663 0-38.366 12.631-45.836 30.59-.834 2.004-2.592 3.478-4.732 3.841-15.461 2.624-27.223 16.109-27.152 32.333.079 18.092 15.256 32.509 33.348 32.509h47.417z" fill="#2ebcf6"/><path d="m106.663 117.308c1.964-.925 3.261-2.818 3.524-4.972 2.365-19.306 16.019-36.233 35.92-41.79 2.315-.646 4.637-1.116 6.953-1.418 2.885-.377 5.193-2.635 5.42-5.536 2.133-27.251 18.873-51.894 44.381-63.531-.991-.039-1.987-.061-2.989-.061-32.984 0-61.069 20.906-71.77 50.185-.999 2.733-3.829 4.287-6.709 3.874-2.312-.331-4.675-.504-7.078-.504-20.663 0-38.366 12.631-45.835 30.59-.834 2.004-2.592 3.478-4.732 3.841-15.46 2.624-27.223 16.109-27.152 32.333.079 18.092 15.256 32.509 33.348 32.509h18.575c-2.758-14.661 4.843-29.252 18.144-35.52z" fill="#00adf4"/><path d="m313.824 28.882c-49.627 3.632-91.142 36.405-107.545 81.283-1.625 4.445-6.229 6.973-10.914 6.301-3.76-.539-7.604-.82-11.513-.82-33.61 0-62.406 20.546-74.556 49.757-1.356 3.26-4.216 5.658-7.697 6.249-25.148 4.268-44.282 26.202-44.166 52.592.129 29.429 24.815 52.879 54.244 52.879h157.043c-.319-1.521-.491-3.094-.499-4.704-.052-11.801 8.342-21.797 19.959-23.768 2.063-.35 3.787-1.745 4.612-3.729 5.784-13.906 19.248-22.891 34.299-22.891 1.769 0 3.552.127 5.297.377 2.841.407 5.595-1.196 6.551-3.811 8.307-22.729 30.147-38 54.344-38 24.172 0 46.007 15.24 54.333 37.922.768 2.094 2.642 3.608 4.889 3.952 18.109 2.769 31.642 18.693 31.479 37.04-.003.339-.023.675-.035 1.012 6.047-4.535 11.448-9.877 16.027-15.865-9.528-105.373-85.763-191.483-186.152-215.776z" fill="#8adaf9"/><g><path d="m135.201 268.475c-4.295-26.039 11.123-50.727 35.279-58.923 3.344-1.135 5.788-3.955 6.61-7.389 7.37-30.767 32.548-55.614 65.734-60.937 3.86-.619 7.699-.951 11.498-1.014 4.732-.079 8.877-3.304 9.778-7.95 8.285-42.763 38.774-78.887 80.784-93.613-10.049-3.914-20.417-7.192-31.06-9.767-49.627 3.632-91.142 36.405-107.544 81.283-1.625 4.445-6.229 6.973-10.914 6.301-3.76-.539-7.604-.82-11.513-.82-33.61 0-62.406 20.546-74.556 49.757-1.357 3.26-4.216 5.658-7.697 6.249-25.148 4.268-44.282 26.202-44.166 52.592.129 29.429 24.815 52.879 54.244 52.879h25.735c-.964-2.771-1.718-5.654-2.212-8.648z" fill="#5ccbf7"/></g><path d="m450.18 408.583c-5.848-1.177-11.814 2.543-13.069 8.724-1.375 6.88 3.897 13.28 10.891 13.28 6.188 0 11.113-5.019 11.113-11.102 0-5.238-3.657-9.826-8.935-10.902z" fill="#b8e9fa"/><path d="m262.822 329.58c-6.742-1.357-13.28 3.795-13.28 10.902 0 6.207 5.074 11.113 11.113 11.113 6.071 0 11.113-4.955 11.113-11.113.001-5.117-3.556-9.809-8.946-10.902z" fill="#e6f8fc"/><g fill="#b8e9fa"><path d="m24.067 176.374c-5.367 1.107-8.935 5.728-8.935 10.891 0 6.123 4.964 11.113 11.113 11.113 6.18 0 11.113-5.049 11.113-11.113 0-7.079-6.529-12.256-13.291-10.891z"/><path d="m196.077 444.379c-6.758-1.364-13.28 3.842-13.28 10.902 0 6.073 4.959 11.113 11.113 11.113 6.066 0 11.113-4.943 11.113-11.113 0-5.186-3.611-9.819-8.946-10.902z"/><path d="m430.081 454.618c-2.302-3.987-7.4-5.352-11.386-3.051l-10.878 6.281v-12.56c0-4.603-3.732-8.335-8.335-8.335s-8.335 3.732-8.335 8.335v12.56l-10.877-6.28c-3.987-2.301-9.084-.936-11.385 3.051-2.302 3.987-.936 9.084 3.051 11.386l10.878 6.28-10.878 6.28c-3.987 2.302-5.353 7.399-3.051 11.386 1.544 2.674 4.345 4.169 7.226 4.169 1.414 0 2.847-.36 4.16-1.118l10.877-6.28v12.56c0 4.603 3.732 8.335 8.335 8.335s8.335-3.732 8.335-8.335v-12.56l10.878 6.28c1.313.758 2.746 1.118 4.16 1.118 2.88 0 5.682-1.495 7.226-4.169 2.302-3.986.936-9.084-3.051-11.386l-10.878-6.28 10.878-6.28c3.986-2.303 5.352-7.401 3.05-11.387z"/></g><path d="m278.183 169.6c-2.301-3.987-7.4-5.352-11.386-3.051l-10.878 6.281v-12.56c0-4.603-3.732-8.335-8.335-8.335s-8.335 3.732-8.335 8.335v12.56l-10.877-6.28c-3.987-2.302-9.084-.935-11.386 3.051-2.302 3.987-.936 9.084 3.051 11.386l10.877 6.28-10.877 6.28c-3.987 2.302-5.353 7.399-3.051 11.386 1.544 2.674 4.345 4.169 7.226 4.169 1.414 0 2.847-.36 4.16-1.118l10.877-6.281v12.56c0 4.603 3.732 8.335 8.335 8.335s8.335-3.732 8.335-8.335v-12.56l10.878 6.281c1.313.757 2.746 1.118 4.16 1.118 2.88 0 5.682-1.495 7.226-4.169 2.302-3.986.936-9.084-3.051-11.386l-10.877-6.28 10.877-6.28c3.987-2.303 5.353-7.4 3.051-11.387z" fill="#e6f8fc"/><path d="m452.695 221.228c-1.779-.272-3.278-1.452-3.898-3.142-8.3-22.613-30.023-38.747-55.514-38.747-25.518 0-47.246 16.174-55.525 38.826-.773 2.114-2.963 3.317-5.191 2.997-1.788-.257-3.616-.39-5.476-.39-15.986 0-29.682 9.772-35.461 23.666-.645 1.551-2.005 2.691-3.661 2.972-11.961 2.03-21.061 12.462-21.006 25.014.062 13.997 11.803 25.151 25.8 25.151h153.376c21.189 0 38.915-16.864 39.103-38.052.173-19.374-14.006-35.459-32.547-38.295z" fill="#e6f8fc"/><g><path d="m314.299 297.45c-2.514-12.298 4.366-24.312 15.697-28.646 1.569-.6 2.679-1.985 3.008-3.632 2.944-14.757 14.46-27.023 30.136-30.156 1.823-.364 3.642-.592 5.446-.691 2.248-.123 4.16-1.731 4.503-3.956 3.372-21.836 18.882-40.544 40.701-47.375-6.389-2.363-13.296-3.656-20.506-3.656-25.518 0-47.246 16.174-55.525 38.826-.772 2.114-2.962 3.317-5.191 2.997-1.788-.257-3.616-.39-5.476-.39-15.986 0-29.682 9.772-35.461 23.666-.645 1.551-2.005 2.691-3.661 2.972-11.961 2.03-21.061 12.462-21.006 25.014.061 13.997 11.803 25.151 25.8 25.151h21.565c-.01-.041-.021-.082-.03-.124z" fill="#b8e9fa"/></g><path d="m185.294 227.751c-28.009 0-54.029 20.867-54.029 50.008 0 23.348 17.445 44.89 41.673 44.89 10.524 0 20.418-4.099 27.859-11.54 3.255-3.255 3.255-8.532 0-11.788-3.255-3.255-8.533-3.255-11.787 0-15.367 15.367-41.075 2.787-41.075-21.563 0-19.75 18.565-33.338 37.359-33.338 39.145 0 59.746 54.471 28.427 85.79-11.134 11.134-25.863 18.045-41.508 19.486h-146.89c2.028 5.656 4.257 11.215 6.68 16.67h140.581c.24 0 .481-.011.721-.031 19.677-1.708 38.217-10.351 52.203-24.337 41.832-41.831 13.698-114.247-40.214-114.247z" fill="#e6f8fc"/><path d="m249.986 466.933c-24.55 0-43.539 16.832-51.125 38.352 5.449 1.302 10.968 2.418 16.551 3.349 5.763-14.057 18.28-25.031 34.574-25.031 9.32 0 18.083 3.63 24.673 10.22 3.255 3.255 8.532 3.255 11.787 0s3.255-8.533 0-11.788c-9.738-9.738-22.687-15.102-36.46-15.102z" fill="#b8e9fa"/><path d="m320.835 439.051c-18.922-18.921-44.002-30.614-70.62-32.924-.24-.021-.48-.031-.721-.031h-195.187c3.963 5.735 8.151 11.303 12.576 16.67h182.242c22.585 2.044 43.854 12.005 59.922 28.073 14.348 14.348 21.214 31.965 22.122 49.396 5.511-1.775 10.938-3.737 16.271-5.884-2.058-19.62-10.444-39.14-26.605-55.3z" fill="#b8e9fa"/><path d="m119.33 446.974c-.313-.027-7.889-.031-29.578-.031 6.381 5.898 13.069 11.469 20.052 16.669h8.43c16.049 1.514 31.401 11.59 36.779 26.67 6.04 2.736 12.215 5.221 18.504 7.47-2.297-28.177-26.884-48.409-54.187-50.778z" fill="#e6f8fc"/><path d="m403.563 345.147c-15.146 0-29.033 11.411-29.033 27.211 0 6.924 2.697 13.434 7.593 18.33 3.255 3.255 8.532 3.255 11.787 0s3.255-8.532 0-11.787c-1.748-1.748-2.71-4.072-2.71-6.543 0-6.302 6.304-10.541 12.363-10.541 9.085 0 15.26 8.833 15.26 17.537 0 11.668-10.382 19.928-21.404 21.029h-47.244c-4.603 0-8.335 3.732-8.335 8.335s3.732 8.335 8.335 8.335c50.559-.011 47.671.028 48.351-.031 19.364-1.681 36.967-16.742 36.967-37.668 0-17.836-13.39-34.207-31.93-34.207z" fill="#e6f8fc"/><path d="m307.629 348.104c3.255-3.255 3.255-8.532 0-11.788-6.783-6.782-6.785-17.764 0-24.547 9.273-9.273 24.359-9.273 33.632-.001 12.402 12.403 12.402 32.584 0 44.986-6.872 6.872-15.952 11.149-25.603 12.068h-91.452c-4.603 0-8.335 3.732-8.335 8.335s3.732 8.335 8.335 8.335h91.83c.24 0 .481-.01.721-.031 13.68-1.188 26.569-7.197 36.292-16.919 18.902-18.902 18.902-49.658 0-68.56-15.771-15.772-41.434-15.772-57.206 0-13.298 13.298-13.3 34.823 0 48.123 3.254 3.254 8.532 3.254 11.786-.001z" fill="#8adaf9"/><path d="m118.222 265.077h-8.071l5.143-8.908c2.302-3.986.936-9.084-3.051-11.385-3.987-2.302-9.085-.936-11.386 3.051l-9.955 17.242h-13.789v-13.789l17.242-9.955c3.987-2.301 5.353-7.399 3.051-11.386s-7.399-5.351-11.386-3.051l-8.907 5.143v-8.071c0-4.603-3.732-8.335-8.335-8.335s-8.335 3.732-8.335 8.335v8.071l-8.907-5.143c-3.987-2.301-9.084-.936-11.386 3.051s-.936 9.084 3.051 11.386l17.242 9.955v13.789h-13.789l-9.954-17.242c-2.302-3.987-7.399-5.352-11.386-3.051-3.986 2.302-5.353 7.399-3.051 11.385l5.143 8.908h-8.071c-4.603 0-8.335 3.732-8.335 8.335s3.732 8.335 8.335 8.335h8.071l-5.142 8.907c-2.302 3.987-.936 9.084 3.051 11.386 1.313.758 2.746 1.118 4.16 1.118 2.88 0 5.682-1.495 7.226-4.169l9.955-17.242h13.789v13.789l-17.242 9.955c-3.987 2.302-5.353 7.399-3.051 11.386 1.544 2.674 4.345 4.169 7.226 4.169 1.414 0 2.847-.36 4.16-1.118l8.907-5.142v8.071c0 4.603 3.732 8.335 8.335 8.335s8.335-3.732 8.335-8.335v-8.071l8.907 5.142c1.313.758 2.746 1.118 4.16 1.118 2.88 0 5.682-1.495 7.226-4.169 2.302-3.986.936-9.084-3.051-11.386l-17.242-9.955v-13.789h13.789l9.955 17.242c1.544 2.674 4.346 4.169 7.226 4.169 1.414 0 2.847-.36 4.16-1.118 3.987-2.301 5.353-7.399 3.051-11.386l-5.143-8.907h8.071c4.603 0 8.335-3.732 8.335-8.335-.002-4.603-3.733-8.335-8.337-8.335z" fill="#b8e9fa"/></g></svg>