<svg id="Layer_1" enable-background="new 0 0 512 512" height="512" viewBox="0 0 512 512" width="512" xmlns="http://www.w3.org/2000/svg"><g><path d="m77.872 94.074c-5.527 5.546-10.789 11.356-15.767 17.409l-24.24 35.383c-6.465 11.468-12.045 23.501-16.622 36.02l-10.693 39.165c-2.702 14.573-4.129 29.593-4.129 44.949 0 10.651.682 21.142 2 31.435 0 0 295.43 49.107 484.706 8.721 2.155-13.068 3.294-26.478 3.294-40.156 0-135.31-109.69-245-245.001-245-52.365 0-100.885 16.438-140.703 44.421z" fill="#00adf4"/><path d="m475.912 302.35c-14.909 0-14.909 7.393-29.818 7.393-14.91 0-14.91-7.393-29.82-7.393-14.909 0-14.909 7.393-29.818 7.393s-14.909-7.393-29.818-7.393c-14.907 0-14.907 7.393-29.814 7.393-14.909 0-14.909-7.393-29.817-7.393-14.909 0-14.909 7.393-29.818 7.393s-14.909-7.393-29.818-7.393c-6.949 0-10.658 1.606-14.149 3.321 7.289 4.707 14.626 9.973 21.997 15.889 14.046 11.273 27.497 21.2 40.376 29.908 2.836-1.169 6.218-2.067 11.412-2.067 14.909 0 14.909 7.393 29.817 7.393 14.907 0 14.907-7.393 29.814-7.393 14.909 0 14.909 7.393 29.818 7.393s14.909-7.393 29.818-7.393c14.91 0 14.91 7.393 29.82 7.393 14.909 0 14.909-7.393 29.818-7.393 2.377 0 4.372.189 6.113.505 4.935-13.724 8.673-28.015 11.102-42.75-4.67-2.132-8.246-4.806-17.215-4.806z" fill="#5ccbf7"/><path d="m385.584 309.729c-14.034-.286-14.337-7.379-28.946-7.379-14.907 0-14.907 7.393-29.814 7.393-14.909 0-14.909-7.393-29.817-7.393-14.91 0-14.91 7.393-29.818 7.393-14.909 0-14.909-7.393-29.818-7.393-6.949 0-10.658 1.606-14.149 3.321 7.29 4.707 14.626 9.973 21.997 15.889 14.046 11.272 27.497 21.2 40.376 29.908 2.836-1.169 6.219-2.067 11.413-2.067 14.909 0 14.909 7.393 29.817 7.393 14.907 0 14.907-7.393 29.814-7.393 13.1 0 14.693 5.707 25 7.091-.113-3.039-1.073-6.027-2.932-8.585-11.7-16.103-1.062-29.831 4.658-35.448.844-.829 1.582-1.747 2.219-2.73z" fill="#2ebcf6"/><g><ellipse cx="378.74" cy="126.839" fill="#ffe400" rx="75.577" ry="75.577" transform="matrix(.472 -.882 .882 .472 88.197 400.914)"/></g><path d="m421.653 180.486c-41.674 0-75.578-33.904-75.578-75.577 0-20.545 8.251-39.192 21.601-52.829-36.447 5.37-64.514 36.844-64.514 74.759 0 41.674 33.903 75.577 75.577 75.577 21.128 0 40.247-8.725 53.975-22.748-3.611.533-7.303.818-11.061.818z" fill="#fdca00"/><g><path d="m378.74 31.698c-4.566 0-8.268-3.702-8.268-8.268v-15.162c0-4.566 3.702-8.268 8.268-8.268s8.268 3.702 8.268 8.268v15.162c0 4.566-3.702 8.268-8.268 8.268z" fill="#ffe400"/></g><g><path d="m378.74 253.679c-4.566 0-8.268-3.702-8.268-8.268v-15.161c0-4.566 3.702-8.268 8.268-8.268s8.268 3.702 8.268 8.268v15.161c0 4.566-3.702 8.268-8.268 8.268z" fill="#fdca00"/></g><g><path d="m319.875 41.418-7.581-13.13c-2.283-3.954-.928-9.011 3.026-11.294 3.953-2.282 9.011-.929 11.294 3.026l7.581 13.131c2.283 3.954.928 9.011-3.026 11.294-3.942 2.275-9.003.942-11.294-3.027z" fill="#fdca00"/></g><g><path d="m430.865 233.66-7.581-13.13c-2.283-3.954-.928-9.011 3.026-11.294 3.953-2.282 9.011-.929 11.294 3.026l7.581 13.13c2.283 3.954.929 9.011-3.026 11.294-3.941 2.275-9.003.942-11.294-3.026z" fill="#fdca00"/></g><g><path d="m285.05 82.295-13.13-7.581c-3.955-2.283-5.31-7.34-3.026-11.294 2.283-3.955 7.339-5.311 11.294-3.026l13.13 7.581c3.955 2.283 5.31 7.34 3.026 11.294-2.29 3.967-7.351 5.303-11.294 3.026z" fill="#fdca00"/></g><g><path d="m477.291 193.286-13.13-7.581c-3.955-2.283-5.31-7.34-3.026-11.294 2.283-3.955 7.34-5.31 11.294-3.026l13.13 7.581c3.955 2.283 5.31 7.34 3.026 11.294-2.29 3.966-7.351 5.303-11.294 3.026z" fill="#ffe400"/></g><g><path d="m497.311 135.108h-15.162c-4.566 0-8.268-3.702-8.268-8.268s3.702-8.268 8.268-8.268h15.162c4.566 0 8.268 3.702 8.268 8.268s-3.702 8.268-8.268 8.268z" fill="#ffe400"/></g><g><path d="m268.894 190.259c-2.283-3.954-.929-9.011 3.026-11.294l13.13-7.581c3.954-2.283 9.011-.929 11.294 3.026 2.283 3.954.928 9.011-3.026 11.294l-13.13 7.581c-3.937 2.274-9.001.947-11.294-3.026z" fill="#fdca00"/></g><g><path d="m461.135 79.269c-2.283-3.954-.929-9.011 3.026-11.294l13.13-7.581c3.954-2.285 9.011-.929 11.294 3.026 2.283 3.954.929 9.011-3.026 11.294l-13.13 7.581c-3.937 2.274-9.001.946-11.294-3.026z" fill="#ffe400"/></g><g><path d="m315.32 236.686c-3.955-2.283-5.31-7.34-3.026-11.294l7.581-13.13c2.283-3.955 7.339-5.311 11.294-3.026 3.955 2.283 5.31 7.34 3.026 11.294l-7.581 13.13c-2.29 3.966-7.351 5.303-11.294 3.026z" fill="#fdca00"/></g><g><path d="m426.31 44.444c-3.955-2.283-5.31-7.34-3.026-11.294l7.581-13.131c2.283-3.956 7.34-5.31 11.294-3.026 3.955 2.283 5.31 7.34 3.026 11.294l-7.581 13.13c-2.29 3.968-7.351 5.305-11.294 3.027z" fill="#ffe400"/></g><path d="m475.912 348.661c-14.909 0-14.909 7.393-29.818 7.393-14.91 0-14.91-7.393-29.82-7.393-14.909 0-14.909 7.393-29.818 7.393s-14.909-7.393-29.818-7.393c-14.907 0-14.907 7.393-29.814 7.393-14.909 0-14.909-7.393-29.817-7.393-5.609 0-9.108 1.047-12.084 2.352 74.523 50.556 129.904 60.239 170.184 52.167 11.159-16.657 20.321-34.76 27.162-53.966-1.799-.343-3.867-.553-6.357-.553z" fill="#8adaf9"/><path d="m384.697 399.575c-12.262-13.587-9.469-26.273-5.098-34.402 1.582-2.94 2.256-6.229 1.989-9.426-10.263-1.396-11.871-7.085-24.95-7.085-14.907 0-14.907 7.393-29.814 7.393-14.909 0-14.909-7.393-29.817-7.393-5.609 0-9.108 1.047-12.084 2.352 38.076 25.831 71.152 40.987 99.774 48.561z" fill="#5ccbf7"/><path d="m245.219 318.253c-98.545-79.089-191.372-45.714-236.797-19.817 5.1 39.813 19.761 76.632 41.598 108.094l.002-.011 52.887 55.333-.002.002c41.204 31.454 92.673 50.146 148.514 50.146 86.561 0 162.634-44.893 206.216-112.664-47.224 10.497-115.752-3.503-212.418-81.083z" fill="#fff2b9"/><path d="m189.69 504.144c-29.293-40.765 76.613-69.361 18.488-113.572-52.781-40.146-20.579-84.542-6.02-100.325-81.813-41.391-155.005-13.892-193.736 8.189 5.1 39.813 19.761 76.632 41.598 108.094l.002-.011 52.887 55.333-.002.002c25.469 19.442 54.863 34 86.783 42.29z" fill="#fcde63"/><path d="m81.993 173.439c-18.162-.851-39.319 1.106-60.75 9.447-4.607 12.602-8.195 25.693-10.694 39.167 4.976-1.795 10.865-1.623 17.343 2.962 1.284.909 3.058.653 4.018-.592 4.44-5.756 17.178-19.254 33.808-10.741 1.287.659 2.848.344 3.731-.802 1.304-1.694 3.455-4.133 6.346-6.223-3.117-7.394-3.376-15.983.006-23.932 1.515-3.559 3.649-6.66 6.192-9.286z" fill="#389f4d"/><g><path d="m42.933 214.433c6.009-3.534 13.832-5.335 22.786-.751 1.287.659 2.848.344 3.73-.802 1.304-1.694 3.456-4.133 6.346-6.223-3.117-7.394-3.375-15.983.006-23.932 1.514-3.56 3.648-6.661 6.191-9.287-13.944-.654-29.654.35-45.897 4.624 20.794 17.544 6.838 36.37 6.838 36.371z" fill="#2b8e3b"/></g><path d="m106.143 159.255c2.087-5.062 3.112-9.794 3.147-14.186-12.094-12.186-27.746-24.552-47.185-33.587-9.069 11.028-17.184 22.867-24.24 35.384 9.087-.108 21.008 2.612 26.417 16.144.579 1.447 2.069 2.297 3.597 1.992 4.396-.879 13.391-1.754 20.628 3.323 7.024-4.12 15.583-5.416 23.796-3.114-2.105-1.702-4.077-2.99-5.496-3.826-.708-.417-.993-1.333-.664-2.13z" fill="#60b550"/><g><path d="m106.806 161.385c-.707-.417-.992-1.333-.663-2.13 2.088-5.062 3.112-9.794 3.147-14.186-10.795-10.876-24.429-21.893-41.056-30.561 6.376 30.073-20.717 33.48-20.717 33.48l-.002.005c6.637 1.772 13.155 5.98 16.767 15.017.579 1.447 2.069 2.297 3.598 1.992 4.396-.879 13.391-1.754 20.628 3.323 7.024-4.12 15.583-5.416 23.796-3.114-2.107-1.702-4.079-2.99-5.498-3.826z" fill="#389f4d"/></g><path d="m77.871 94.075c5.567 5.404 9.72 13.195 7.908 24.124-.276 1.664.627 3.288 2.214 3.863 7.49 2.711 26.513 12.316 16.086 37.599-.654 1.585-.089 3.423 1.389 4.293.091.054.198.122.293.179 3.457.19 6.937.937 10.303 2.37l2.145.913.912-2.146c4.115-9.67 12.641-16.133 22.24-18.063-3.142-22.943-11.142-53.032-30.642-80.785-11.748 8.255-22.742 17.51-32.848 27.653z" fill="#85d249"/><g><path d="m118.208 167.415.912-2.146c4.115-9.671 12.641-16.133 22.24-18.063-2.357-17.217-7.453-38.459-18.087-59.718-9.369 27.216-38.433 17.294-38.433 17.294 1.314 3.832 1.791 8.274.938 13.416-.276 1.664.628 3.288 2.214 3.863 7.49 2.711 26.513 12.316 16.086 37.599-.654 1.585-.089 3.423 1.388 4.293.091.054.199.122.293.179 3.457.19 6.937.937 10.303 2.37z" fill="#60b550"/></g><path d="m137.066 208.796-2.633-1.121-2.634-1.121c-3.154 7.413-9.007 13.153-16.479 16.166-2.597 1.046-5.286 1.694-7.999 1.995-21.341 45.336-43.482 105.559-57.299 181.803 14.64 21.094 32.505 39.775 52.887 55.333 1.079-71.988 11.214-148.931 37.242-223.961-5.759-8.247-7.306-19.175-3.085-29.094z" fill="#ea7768"/><path d="m137.066 208.796-2.634-1.121-2.633-1.121c-3.154 7.413-9.007 13.154-16.479 16.166-2.597 1.046-5.286 1.694-7.999 1.995-9.778 20.772-19.722 44.679-28.958 71.81.163-.11 24.588-16.628 40.954 16.087l.007.012c5.376-24.955 12.23-49.949 20.828-74.734-5.76-8.247-7.307-19.175-3.086-29.094z" fill="#d85e41"/><g><path d="m256.139 387.527c13.61-83.767-25.484-137.423-60.443-167.616.102 4.265-.673 8.617-2.449 12.791-3.512 8.252-10.214 14.186-18.061 16.986 4.621 7.562 4.127 16.529 3.438 21.131-.261 1.75.785 3.393 2.458 3.969 21.613 7.439 20.518 30.12 19.21 38.917-.283 1.903.997 3.684 2.887 4.045 22.855 4.363 20.555 27.231 18.73 36.174-.385 1.887.801 3.74 2.674 4.189 14.171 3.395 21.134 17.685 24.53 29.845 1.039 3.718 6.407 3.377 7.026-.431z" fill="#389f4d"/></g><g><path d="m241.169 277.427c-12.31-24.609-29.327-43.571-45.473-57.516.102 4.265-.673 8.617-2.449 12.791-3.511 8.252-10.214 14.186-18.061 16.986 4.621 7.562 4.127 16.529 3.438 21.131-.262 1.75.785 3.393 2.458 3.969 13.266 4.566 17.971 14.874 19.328 24.189 9.177-32.333 40.426-21.665 40.759-21.55z" fill="#2b8e3b"/></g><g><path d="m364.111 271.443c-46.803-75.268-113.781-92.507-163.182-93.273-3.842 3.757-7.146 8.674-9.838 14.809-.423.967-1.473 1.492-2.441 1.222-3.273-.913-8.972-2.141-15.364-2 10.118 4.327 16.741 13.455 18.355 23.601 14.317-.973 23.331 10.291 26.844 15.786 1.027 1.607 3.041 2.199 4.808 1.482 22.821-9.271 38.001 9.922 43.171 17.992 1.119 1.746 3.419 2.286 5.21 1.239 21.65-12.648 35.984 7.551 40.838 16.106 1.024 1.805 3.3 2.47 5.139 1.507 13.913-7.283 29.691-.612 41.063 6.857 3.474 2.282 7.592-1.798 5.397-5.328z" fill="#60b550"/></g><g><path d="m200.929 178.17c-3.842 3.757-7.146 8.674-9.838 14.809-.423.967-1.473 1.492-2.441 1.222-3.273-.913-8.972-2.141-15.364-2 10.118 4.327 16.741 13.455 18.355 23.601 14.317-.973 23.331 10.291 26.844 15.786 1.027 1.607 3.041 2.199 4.808 1.482 8.05-3.27 15.144-2.99 21.188-.915-18.98-29.387 8.1-44.575 8.1-44.575l1.829-1.703c-18.84-5.373-37.126-7.453-53.481-7.707z" fill="#389f4d"/></g><g><path d="m400.181 132.644c-104.663-53.145-188.575-8.962-230.413 23.38 8.199 8.664 10.984 21.702 6.023 33.36l-.834 1.96 1.96.834c2.401 1.022 4.604 2.316 6.593 3.827 3.063.396 5.737 1.008 7.695 1.554 2.021.564 4.12-.497 4.963-2.418 13.444-30.64 38.051-22.017 46.794-17.713 1.852.911 4.05.33 5.283-1.325 15.933-21.387 40.758-12.129 50.073-7.555 2.015.989 4.449.198 5.52-1.775 12.954-23.859 37.559-13.194 46.853-7.994 1.961 1.098 4.442.437 5.605-1.487 8.799-14.549 27.152-17.222 41.875-16.685 4.499.163 6.024-5.925 2.01-7.963z" fill="#85d249"/></g><g><path d="m169.768 156.024c8.199 8.664 10.984 21.702 6.023 33.36l-.834 1.96 1.959.834c2.401 1.022 4.604 2.316 6.593 3.827 3.063.396 5.737 1.008 7.695 1.554 2.021.564 4.12-.497 4.963-2.418 13.444-30.64 38.051-22.017 46.794-17.713 1.852.911 4.05.33 5.283-1.325 1.777-2.385 3.669-4.37 5.634-6.042-38.716-6.385-29.843-45.93-29.84-45.944-22.144 9.32-40.49 21.255-54.27 31.907z" fill="#60b550"/></g><g><path d="m272.469 1.269c-82.207 18.075-115.192 93.839-128.262 145.506 5.012-.527 10.219.161 15.176 2.27 6.77 2.881 11.967 7.927 15.141 13.986-.23-23.913 15.261-30.096 21.703-31.622 1.549-.367 2.635-2.15 2.644-4.228.111-26.844 19.531-34.159 27.314-36.012 1.684-.401 2.82-2.495 2.585-4.733-2.835-27.068 17.086-33.112 25.141-34.446 1.7-.281 2.923-2.298 2.768-4.552-1.177-17.043 8.879-30.165 18.157-38.518 2.834-2.551 1.017-8.395-2.367-7.651z" fill="#a3ea6e"/></g><g><path d="m206.681 102.967c-34.44 13.871-39.298-16.966-39.351-17.306-11.163 20.957-18.435 42.583-23.123 61.113 5.012-.527 10.219.161 15.176 2.27 6.77 2.881 11.967 7.927 15.141 13.986-.23-23.913 15.261-30.096 21.703-31.622 1.549-.367 2.635-2.15 2.644-4.228.045-11.06 3.372-18.799 7.81-24.213z" fill="#85d249"/></g><g><path d="m177.338 191.125c.139-.301.282-.599.413-.907 7.142-16.783-.674-36.177-17.457-43.318-16.783-7.142-36.177.674-43.319 17.456-.131.308-.246.618-.367.927 16.226 6.92 23.811 25.741 16.916 41.978.302.139.6.283.907.414.308.131.618.246.927.367 6.921-16.227 25.742-23.812 41.98-16.917z" fill="#725057"/></g><g><path d="m148.485 174.65c4.372-10.274 13.341-17.163 23.486-19.342-3.138-3.519-7.052-6.44-11.677-8.409-16.783-7.142-36.177.674-43.319 17.456-.131.308-.246.618-.367.927 16.226 6.92 23.811 25.741 16.916 41.978.302.139.6.283.907.414.308.131.618.246.927.367 2.451-5.747 6.413-10.383 11.206-13.702-1.341-6.386-.828-13.229 1.921-19.689z" fill="#603f42"/></g><g><ellipse cx="164.82" cy="220.605" fill="#8e6877" rx="33.025" ry="33.024" transform="matrix(.737 -.676 .676 .737 -105.765 169.456)"/></g><g><path d="m182.456 245.294c-16.782-7.141-24.598-26.536-17.456-43.319 2.218-5.212 5.62-9.555 9.756-12.857-16.034-5.079-33.602 2.764-40.323 18.556-7.142 16.783.674 36.177 17.456 43.318 11.571 4.924 24.38 2.734 33.563-4.599-1.005-.318-2.006-.678-2.996-1.099z" fill="#7e5966"/></g><g><ellipse cx="104.045" cy="194.743" fill="#7e5966" rx="33.024" ry="33.025" transform="matrix(.91 -.416 .416 .91 -71.528 60.861)"/></g><g><path d="m121.681 219.432c-16.783-7.142-24.599-26.536-17.457-43.318 2.218-5.212 5.62-9.555 9.756-12.858-16.034-5.079-33.603 2.764-40.323 18.556-7.142 16.783.674 36.177 17.457 43.319 11.571 4.924 24.381 2.734 33.563-4.599-1.006-.319-2.006-.679-2.996-1.1z" fill="#725057"/></g><g fill="#fff442"><ellipse cx="396.673" cy="105.568" rx="16.16" ry="16.16" transform="matrix(.921 -.389 .389 .921 -9.828 162.589)"/><circle cx="418.25" cy="84.892" r="6.244"/></g></g></svg>