<svg id="Layer_1" enable-background="new 0 0 512 512" height="512" viewBox="0 0 512 512" width="512" xmlns="http://www.w3.org/2000/svg"><g><path d="m60.22 397.38c9.434 0 17.923 4.041 23.834 10.485 2.508 2.735 6.789 2.735 9.298 0 5.911-6.444 14.4-10.485 23.834-10.485s17.923 4.041 23.834 10.485c2.508 2.735 6.789 2.735 9.298 0 5.911-6.444 14.4-10.485 23.834-10.485s17.923 4.041 23.834 10.485c2.509 2.735 6.789 2.735 9.298 0 5.911-6.444 14.4-10.485 23.834-10.485s17.923 4.041 23.834 10.485c2.509 2.735 6.789 2.735 9.298 0 5.911-6.444 14.4-10.485 23.834-10.485s17.923 4.041 23.834 10.485c2.509 2.735 6.789 2.735 9.298 0 5.911-6.444 14.4-10.485 23.834-10.485s17.923 4.041 23.834 10.485c2.509 2.735 6.789 2.735 9.298 0 5.911-6.444 14.4-10.485 23.834-10.485s17.923 4.041 23.834 10.485c2.509 2.735 6.789 2.735 9.298 0 5.911-6.444 14.4-10.485 23.834-10.485 2.586 0 5.095.322 7.506.896 24.129-37.947 38.113-82.977 38.113-131.276 0-135.309-109.69-245-245-245s-245 109.69-245 245c0 48.299 13.984 93.329 38.113 131.276 2.411-.575 4.92-.896 7.506-.896z" fill="#009cf2"/><path d="m410.468 286.564c-6.895 6.743-16.843 9.382-26.135 6.997 15.512 25.498 37.774 69.309 38.391 111.414 1.106.924 2.155 1.912 3.129 2.973 2.509 2.735 6.789 2.735 9.298 0 5.911-6.444 14.4-10.485 23.834-10.485 2.57 0 5.065.314 7.461.883 1.109-1.743 2.195-3.503 3.261-5.276z" fill="#d85e41"/><path d="m435.586 331.723-25.117-45.159c-6.895 6.743-16.843 9.382-26.135 6.997 7.66 12.592 16.963 29.653 24.496 48.767 7.463-11.081 20.237-11.325 26.756-10.605z" fill="#b2381b"/><path d="m223.248 115.265-42.483 11.383 11.336 42.309 51.514 22.32z" fill="#7070ab"/><path d="m202.645 149.163 11.494-3.08c6.982-1.871 14.094.374 18.771 5.242l-9.663-36.061-42.484 11.384 9.083 33.897c2.169-5.401 6.744-9.76 12.799-11.382z" fill="#616196"/><path d="m84.055 407.949c2.509 2.735 6.789 2.735 9.298 0 5.911-6.444 14.4-10.485 23.834-10.485s17.923 4.04 23.834 10.485c2.509 2.735 6.789 2.735 9.298 0 5.911-6.444 14.4-10.485 23.834-10.485s17.924 4.04 23.834 10.485c2.509 2.735 6.789 2.735 9.298 0 5.911-6.444 14.4-10.485 23.834-10.485s17.923 4.04 23.834 10.485c2.509 2.735 6.789 2.735 9.298 0 5.911-6.444 14.4-10.485 23.834-10.485 3.986 0 7.801.729 11.326 2.048l-47.311-176.572-110.424-47.849c1.848 7.426-2.579 14.993-10.002 16.982s-15.04-2.35-17.153-9.706l-71.705 96.651 32.781 122.341c3.175 1.721 6.036 3.949 8.458 6.59z" fill="#fdca00"/><path d="m110.713 289.053c-10.209 0-12.291-11.385-12.291-11.385s0 0-7-23c-4.496-14.771-.124-34.068 3.58-45.993l-52.187 70.342 32.781 122.341c3.175 1.721 6.036 3.949 8.458 6.59 2.509 2.735 6.789 2.735 9.298 0 5.911-6.445 14.4-10.485 23.834-10.485s17.923 4.04 23.834 10.485c.895.976 2.017 1.597 3.203 1.876z" fill="#feac00"/><path d="m306.592 301.568c-2.729.379-5.019 2.234-5.958 4.824-2.345 6.471-1.352 13.968 3.296 19.707 4.648 5.74 11.774 8.27 18.591 7.322 2.728-.379 5.019-2.234 5.958-4.824 2.345-6.471 1.352-13.968-3.296-19.708-4.648-5.738-11.774-8.269-18.591-7.321z" fill="#85d249"/><path d="m53.896 147.963c-.372-1.934-1.782-3.502-3.666-4.076-4.708-1.435-10.026-.448-13.953 3.084s-5.47 8.716-4.541 13.549c.372 1.934 1.782 3.502 3.666 4.076 4.708 1.435 10.026.448 13.953-3.084s5.47-8.715 4.541-13.549z" fill="#85d249"/><g><path d="m269.329 140.877c-4.155 0-7.675-3.354-7.675-7.675 0-3.437 2.333-6.708 6.171-7.521 4.656-.936 9.18 2.616 9.18 7.521 0 4.289-3.505 7.675-7.676 7.675z" fill="#85d249"/></g><g><path d="m465.429 308.475c-5.717 0-10.234-4.668-10.234-10.223 0-5.605 4.563-10.244 10.234-10.244 5.547 0 10.234 4.508 10.234 10.244 0 5.635-4.578 10.223-10.234 10.223z" fill="#85d249"/></g><g><path d="m124.122 106.573c-4.845 0-9.04-3.386-10.039-8.228-1.258-6.295 3.571-12.24 10.039-12.24 5.539 0 10.234 4.493 10.234 10.234 0 5.652-4.589 10.234-10.234 10.234z" fill="#85d249"/></g><g><path d="m472.923 110.089h-79.999c-.207 0-.414-.008-.621-.025-31.634-2.567-60.969-25.53-60.969-58.047 0-14.747 6.116-28.584 17.22-38.959 18.634-17.411 48.956-17.411 67.59 0 7.672 7.169 11.898 16.741 11.898 26.953s-4.225 19.784-11.897 26.953c-3.097 2.895-7.954 2.73-10.848-.368s-2.729-7.955.368-10.848c4.532-4.234 7.027-9.823 7.027-15.736s-2.496-11.503-7.027-15.736c-12.856-12.012-33.774-12.012-46.631 0-7.964 7.441-12.349 17.293-12.349 27.743 0 24.204 23.135 40.701 46.559 42.721h79.679c4.239 0 7.675 3.436 7.675 7.675s-3.436 7.674-7.675 7.674z" fill="#e6f8fc"/></g><g><path d="m314.173 101.239c-43.246-.01-40.829.026-41.45-.029-18.875-1.638-36-16.306-36-36.647 0-29.758 32.97-43.406 51.758-24.619 9.765 9.765 9.765 25.654 0 35.419-2.997 2.997-7.857 2.997-10.854 0-2.998-2.997-2.998-7.857 0-10.854 3.78-3.78 3.78-9.93 0-13.711-5.474-5.473-14.378-5.473-19.852 0-12.373 12.373-3.705 33.145 15.966 35.089h40.432c4.239 0 7.675 3.436 7.675 7.675s-3.436 7.677-7.675 7.677z" fill="#b8e9fa"/></g><path d="m219.01 89.788-47.314 12.678c-7.505 2.011-11.959 9.726-9.948 17.231 2.011 7.506 9.726 11.959 17.231 9.948l47.313-12.677c7.506-2.011 11.96-9.726 9.949-17.231v-.001c-2.011-7.505-9.725-11.959-17.231-9.948z" fill="#8080c1"/><path d="m194.748 110.879c-1.681-6.273.887-12.67 5.927-16.178l-28.979 7.765c-7.506 2.011-11.96 9.726-9.949 17.231v.001c2.011 7.505 9.726 11.96 17.231 9.948l28.853-7.731c-6.06-.572-11.414-4.81-13.083-11.036z" fill="#7070ab"/><path d="m108.704 398.589c2.703-.733 5.547-1.125 8.482-1.125 9.434 0 17.923 4.04 23.834 10.485 2.348 2.56 6.247 2.723 8.793.492l-31.44-117.336c-.567-2.115-2.74-3.37-4.855-2.803l-28.235 7.566c-2.115.566-3.37 2.74-2.803 4.855z" fill="#b2381b"/><path d="m209.616 355.211-37.294 9.993c-2.115.567-4.289-.688-4.855-2.803l-21.112-78.793c-.567-2.115.688-4.288 2.803-4.855l37.295-9.993z" fill="#2ebcf6"/><path d="m186.451 268.76 23.164 86.451 37.295-9.993c2.115-.567 3.37-2.74 2.803-4.855l-21.113-78.793c-.567-2.115-2.74-3.37-4.855-2.803z" fill="#5ccbf7"/><path d="m259.602 512c87.745 0 164.701-46.137 207.974-115.464-2.736-.752-5.617-1.156-8.592-1.156-9.434 0-17.923 4.04-23.834 10.485-2.509 2.735-6.789 2.735-9.298 0-5.911-6.444-14.4-10.485-23.834-10.485s-17.923 4.04-23.834 10.485c-2.509 2.735-6.789 2.735-9.298 0-5.911-6.444-14.4-10.485-23.834-10.485s-17.923 4.04-23.834 10.485c-2.509 2.735-6.789 2.735-9.298 0-5.911-6.444-14.4-10.485-23.834-10.485s-17.923 4.04-23.834 10.485c-2.509 2.735-6.789 2.735-9.298 0-5.911-6.444-14.4-10.485-23.834-10.485s-17.923 4.04-23.834 10.485c-2.509 2.735-6.789 2.735-9.298 0-5.911-6.444-14.4-10.485-23.834-10.485s-17.923 4.04-23.834 10.485c-2.509 2.735-6.789 2.735-9.298 0-5.911-6.444-14.4-10.485-23.834-10.485s-17.923 4.04-23.834 10.485c-2.509 2.735-6.789 2.735-9.298 0-5.911-6.444-14.4-10.485-23.834-10.485-2.975 0-5.856.404-8.592 1.156 43.271 69.327 120.228 115.464 207.972 115.464z" fill="#85d249"/><g><path d="m162.362 491.933c1.057.22 2.102.492 3.132.816 3.54 1.115 7.247-1.026 8.052-4.649 1.897-8.536 7.228-16.28 15.398-20.997s17.542-5.462 25.883-2.837c3.54 1.114 7.247-1.026 8.052-4.649 1.897-8.537 7.229-16.28 15.399-20.997s17.542-5.462 25.884-2.837c3.54 1.115 7.247-1.026 8.052-4.649 1.897-8.536 7.228-16.28 15.399-20.997 8.17-4.717 17.542-5.462 25.883-2.837.277.087.554.147.831.195-.887-.338-1.716-.876-2.408-1.631-5.911-6.444-14.4-10.485-23.834-10.485s-17.924 4.041-23.834 10.485c-2.509 2.735-6.789 2.735-9.298 0-5.911-6.444-14.4-10.485-23.834-10.485s-17.923 4.041-23.834 10.485c-2.508 2.735-6.789 2.735-9.298 0-5.911-6.444-14.4-10.485-23.834-10.485s-17.923 4.041-23.834 10.485c-2.508 2.735-6.789 2.735-9.298 0-5.911-6.444-14.4-10.485-23.834-10.485s-17.923 4.041-23.834 10.485c-2.508 2.735-6.789 2.735-9.298 0-5.911-6.444-14.4-10.485-23.834-10.485-2.975 0-5.856.404-8.592 1.156 26.232 42.028 64.845 75.528 110.733 95.398z" fill="#60b550"/></g><path d="m307.376 430.168c2.728.379 5.019 2.235 5.958 4.824 2.345 6.471 1.352 13.968-3.296 19.707-4.648 5.74-11.774 8.27-18.591 7.322-2.728-.379-5.019-2.234-5.958-4.824-2.345-6.471-1.352-13.968 3.296-19.708 4.648-5.739 11.774-8.269 18.591-7.321z" fill="#a3ea6e"/><path d="m7.877 290.573c3.046 11.367 17.871 14.191 24.883 4.74l83.084-111.987-8.756-32.677c-.197-.736-.313-1.475-.379-2.21l-96.542 130.112c-2.558 3.447-3.401 7.875-2.29 12.022z" fill="#b2381b"/><path d="m280.14 206.211-148.663-64.41c.31.67.579 1.367.776 2.103l8.756 32.677 127.946 55.442c10.798 4.679 22.225-5.18 19.179-16.546-1.11-4.146-4.054-7.559-7.994-9.266z" fill="#d85e41"/><path d="m473.738 204.262c-4.51-18.403-22.34-29.854-40.471-27.011-3.34.524-6.394-1.987-6.391-5.367.016-16.783-15.553-30.239-32.371-27.252-3.265.58-6.274-1.654-6.659-4.948-1.867-15.979-17.524-27.671-34.113-23.606-7.028 1.722-12.602 5.881-16.254 11.247-2.772 4.071-7.378 6.504-12.303 6.504h-10.883c-9.931 0-18.365 8.127-18.178 18.057.181 9.628 8.043 17.377 17.714 17.377 5.038 0 8.773 4.817 7.355 9.652-.03.102-.059.204-.088.306-1.691 6.031-7.199 10.191-13.462 10.191h-25.021c-9.931 0-18.364 8.126-18.178 18.055.18 9.629 8.042 17.378 17.714 17.378 3.978 0 6.961 3.726 5.988 7.583-1.387 5.498-1.492 11.411-.043 17.325 4.784 19.523 24.777 31.581 44.561 26.118.002.009.003.018.005.027 4.418 18.028 24.843 26.487 40.557 17.521 1.588-.906 3.547-.908 5.167-.061 12.333 6.454 27.531 2.718 35.47-8.712 1.038-1.495 2.773-2.379 4.592-2.311 17.611.667 30.316-14.154 26.846-31.615-.177-.891-.149-1.81.137-2.671.529-1.591 1.821-2.803 3.436-3.254 18.505-5.173 29.455-21.833 24.873-40.533z" fill="#85d249"/><path d="m369.813 294.173c-14.401-16.236-13.591-40.513.915-55.758 2.68-2.817 2.187-7.371-1.005-9.592-15.749-10.958-18.225-34.333-4.482-48.204 2.631-2.656 2.61-6.942-.211-9.395-13.977-12.16-14.806-34.636-.138-47.646 2.507-2.224 5.236-3.953 8.085-5.235-5.644-2.919-12.362-3.951-19.245-2.264-7.028 1.722-12.602 5.881-16.254 11.247-2.772 4.071-7.378 6.504-12.303 6.504h-10.883c-9.932 0-18.365 8.127-18.178 18.057.181 9.628 8.043 17.377 17.714 17.377 5.038 0 8.773 4.817 7.355 9.652-.03.102-.059.204-.088.306-1.691 6.031-7.198 10.191-13.462 10.191h-25.021c-9.931 0-18.364 8.126-18.178 18.055.18 9.629 8.042 17.378 17.714 17.378 3.978 0 6.961 3.726 5.988 7.583-1.386 5.499-1.492 11.412-.043 17.325 4.784 19.523 24.778 31.581 44.561 26.119.002.009.003.018.005.027 4.159 16.972 22.503 25.457 37.749 18.913-.197-.216-.401-.421-.595-.64z" fill="#60b550"/><path d="m418.325 341.046c-9.376-9.375-18.747-13.168-26.483-14.407-7.041-1.127-12.988 5.251-11.5 12.224.86 4.03 4.043 7.238 8.11 7.902 4.085.667 9.504 2.858 15.4 8.753 3.996 3.996 10.477 3.997 14.473 0 3.996-3.996 3.996-10.476 0-14.472z" fill="#ea7768"/><path d="m132.254 143.904 8.756 32.677 25.215 10.926c-13.365-21.66 8.515-26.962 8.515-26.962l-43.263-18.744c.311.67.579 1.367.777 2.103z" fill="#b2381b"/><g><path d="m132.213 194.086c-7.506 2.011-15.22-2.443-17.231-9.949l-8.901-33.22c-2.011-7.506 2.443-15.22 9.948-17.231 7.506-2.011 15.22 2.443 17.231 9.949l8.901 33.22c2.012 7.506-2.442 15.22-9.948 17.231z" fill="#ea7768"/></g><path d="m142.162 176.855-6.02-22.468c-.666 6.179-5.022 11.609-11.385 13.314-5.738 1.537-11.582-.36-15.364-4.427l5.59 20.863c2.011 7.506 9.726 11.959 17.232 9.948 7.504-2.01 11.958-9.724 9.947-17.23z" fill="#d85e41"/></g></svg>