<svg id="Layer_1" enable-background="new 0 0 512 512" height="512" viewBox="0 0 512 512" width="512" xmlns="http://www.w3.org/2000/svg"><g><path d="m284.83 421.516s177.15-26.863 187.674-32.772c20.577-35.865 32.344-77.43 32.344-121.744 0-135.31-109.69-245-245-245s-245 109.69-245 245c0 43.797 11.504 84.901 31.637 120.479z" fill="#41416b"/><path d="m162.299 378.697c-21.562 0-21.562 10.692-43.125 10.692-21.562 0-21.562-10.692-43.124-10.692-15.758 0-20.006 5.708-29.566 8.782 14.318 25.302 33.005 47.799 55.038 66.477 4.343 1.924 9.428 3.48 17.651 3.48 21.562 0 21.562-10.692 43.125-10.692 21.561 0 21.561 10.692 43.123 10.692 3.673 0 6.71-.316 9.345-.831v-68.047c-2.635.515-5.672.831-9.345.831-21.561 0-21.561-10.692-43.122-10.692z" fill="#5ccbf7"/><path d="m162.299 378.696c-21.562 0-21.562 10.692-43.124 10.692s-21.562-10.692-43.124-10.692c-15.758 0-20.006 5.708-29.565 8.782 14.318 25.302 33.005 47.799 55.038 66.477 4.343 1.924 9.428 3.48 17.651 3.48 21.563 0 21.563-10.692 43.124-10.692 14.219 0 19.063 4.649 26.896 7.816 1.073-2.486.676-5.427-1.152-7.526-25.842-29.679-8.679-54.785-2.444-62.137-6.036-2.924-11.366-6.2-23.3-6.2z" fill="#2ebcf6"/><path d="m472.504 388.744c-2.397.404-5.123.645-8.334.645-16.173 0-20.217-6.014-30.325-9.021v59.099c14.975-15.107 28.001-32.147 38.659-50.723z" fill="#5ccbf7"/><path d="m435.449 343.856-96.722-76.738c-.141 7.85-6.537 14.173-14.421 14.173s-14.28-6.323-14.421-14.173l-96.722 76.738v114.097c14.211-2.181 16.769-10.141 35.377-10.141 21.562 0 21.562 10.692 43.123 10.692 21.562 0 21.562-10.692 43.124-10.692 21.563 0 21.563 10.692 43.126 10.692 21.562 0 21.562-10.692 43.125-10.692 1.418 0 2.73.052 3.973.139 3.581-3.27 7.056-6.652 10.436-10.127v-93.968z" fill="#fdca00"/><path d="m213.163 457.954c14.211-2.181 16.769-10.141 35.377-10.141 17.143 0 20.665 6.755 32.223 9.525v-85.507c-15.681 0-14.994-13.413-14.994-13.413s0-6.25 0-27.25 19.061-42.034 19.061-42.034l-1.772-.732-69.895 55.454z" fill="#feac00"/><g><path d="m435.449 229.491h-45.123v44.938l45.123 35.797z" fill="#7070ab"/></g><path d="m401.933 254.991h21.91c4.959 0 9.279 2.694 11.607 6.691v-32.191h-45.123v32.191c2.326-3.997 6.647-6.691 11.606-6.691z" fill="#616196"/><g><path d="m438.014 203.119h-50.253c-7.972 0-14.434 6.462-14.434 14.434 0 7.972 6.463 14.434 14.434 14.434h50.252c7.972 0 14.434-6.462 14.434-14.434v-.001c.001-7.971-6.461-14.433-14.433-14.433z" fill="#8080c1"/></g><path d="m408.66 217.553c0-6.924 4.712-12.732 11.1-14.434h-31.999c-7.972 0-14.434 6.462-14.434 14.434 0 7.972 6.463 14.434 14.434 14.434h31.999c-6.387-1.702-11.1-7.51-11.1-14.434z" fill="#7070ab"/><g><path d="m175.471 346.03c0 12.073 13.942 18.809 23.4 11.304l112.07-88.916v-34.707c0-.782.081-1.544.211-2.29l-130.219 103.303c-3.451 2.737-5.462 6.901-5.462 11.306z" fill="#b2381b"/></g><path d="m467.679 334.724-130.219-103.303c.13.746.211 1.508.211 2.29v34.707l112.07 88.916c9.458 7.504 23.4.768 23.4-11.304 0-4.405-2.012-8.569-5.462-11.306z" fill="#d85e41"/><path d="m337.671 233.711v34.707l20.555 16.309c-5.468-24.191 18.743-21.963 18.743-21.963l-39.51-31.343c.131.746.212 1.508.212 2.29z" fill="#b2381b"/><g><g><path d="m140.974 353.176c-3.477 0-6.658-2.32-7.601-5.838l-4.334-16.174c-1.125-4.201 1.367-8.519 5.568-9.645 4.202-1.124 8.519 1.368 9.645 5.568l4.334 16.174c1.125 4.201-1.367 8.519-5.568 9.645-.684.183-1.37.27-2.044.27z" fill="#b8e9fa"/></g><g><path d="m109.943 237.367c-3.477 0-6.658-2.32-7.601-5.838l-4.334-16.174c-1.125-4.201 1.367-8.519 5.568-9.645 4.202-1.124 8.519 1.368 9.645 5.568l4.334 16.174c1.125 4.201-1.367 8.519-5.568 9.645-.683.183-1.369.27-2.044.27z" fill="#b8e9fa"/></g><g><path d="m125.458 295.272c-3.477 0-6.658-2.32-7.601-5.838l-4.334-16.174c-1.125-4.201 1.367-8.519 5.568-9.645 4.203-1.123 8.519 1.367 9.645 5.568l4.334 16.174c1.125 4.201-1.367 8.519-5.568 9.645-.683.182-1.369.27-2.044.27z" fill="#b8e9fa"/></g></g><g><g><path d="m213.666 237.367c-3.477 0-6.658-2.32-7.601-5.838l-4.334-16.174c-1.125-4.201 1.367-8.519 5.568-9.645 4.203-1.124 8.519 1.368 9.645 5.568l4.334 16.174c1.125 4.201-1.367 8.519-5.568 9.645-.683.183-1.369.27-2.044.27z" fill="#b8e9fa"/></g></g><g><g><path d="m89.112 353.176c-3.477 0-6.658-2.32-7.601-5.838l-4.334-16.174c-1.125-4.201 1.367-8.519 5.568-9.645 4.201-1.124 8.519 1.368 9.645 5.568l4.334 16.174c1.125 4.201-1.367 8.519-5.568 9.645-.684.183-1.37.27-2.044.27z" fill="#b8e9fa"/></g><g><path d="m58.081 237.367c-3.477 0-6.658-2.32-7.601-5.838l-4.334-16.174c-1.125-4.201 1.367-8.519 5.568-9.645 4.202-1.124 8.519 1.368 9.645 5.568l4.334 16.174c1.125 4.201-1.367 8.519-5.568 9.645-.683.183-1.369.27-2.044.27z" fill="#b8e9fa"/></g><g><path d="m73.597 295.272c-3.477 0-6.658-2.32-7.601-5.838l-4.334-16.174c-1.125-4.201 1.367-8.519 5.568-9.645 4.202-1.123 8.519 1.367 9.645 5.568l4.334 16.174c1.125 4.201-1.367 8.519-5.568 9.645-.684.182-1.369.27-2.044.27z" fill="#b8e9fa"/></g></g><g><g><path d="m161.804 237.367c-3.477 0-6.658-2.32-7.601-5.839l-4.333-16.174c-1.125-4.201 1.368-8.518 5.568-9.644 4.198-1.124 8.518 1.368 9.644 5.568l4.333 16.174c1.125 4.201-1.368 8.518-5.568 9.644-.682.184-1.368.271-2.043.271z" fill="#b8e9fa"/></g><g><path d="m177.32 295.272c-3.477 0-6.658-2.32-7.601-5.838l-4.334-16.174c-1.125-4.201 1.367-8.519 5.568-9.645 4.201-1.123 8.519 1.367 9.645 5.568l4.334 16.174c1.125 4.201-1.367 8.519-5.568 9.645-.683.182-1.369.27-2.044.27z" fill="#b8e9fa"/></g></g><g><g><path d="m265.528 237.367c-3.477 0-6.658-2.32-7.601-5.838l-4.334-16.174c-1.125-4.201 1.367-8.519 5.568-9.645 4.201-1.124 8.519 1.368 9.645 5.568l4.334 16.174c1.125 4.201-1.367 8.519-5.568 9.645-.683.183-1.369.27-2.044.27z" fill="#b8e9fa"/></g></g><g><g><path d="m353.736 179.463c-3.477 0-6.658-2.32-7.601-5.838l-4.334-16.174c-1.125-4.201 1.367-8.519 5.568-9.645 4.203-1.123 8.519 1.367 9.645 5.568l4.334 16.174c1.125 4.201-1.367 8.519-5.568 9.645-.683.182-1.369.27-2.044.27z" fill="#b8e9fa"/></g></g><g><path d="m457.46 179.463c-3.477 0-6.658-2.32-7.601-5.838l-4.334-16.174c-1.125-4.201 1.367-8.519 5.568-9.645 4.203-1.123 8.519 1.367 9.645 5.568l4.334 16.174c1.125 4.201-1.367 8.519-5.568 9.645-.684.182-1.369.27-2.044.27z" fill="#b8e9fa"/></g><g><g><path d="m405.598 179.463c-3.477 0-6.658-2.32-7.601-5.838l-4.334-16.174c-1.125-4.201 1.367-8.519 5.568-9.645 4.203-1.123 8.519 1.367 9.645 5.568l4.334 16.174c1.125 4.201-1.367 8.519-5.568 9.645-.683.182-1.369.27-2.044.27z" fill="#b8e9fa"/></g></g><path d="m471.474 72.043c-1.642-.279-2.991-1.41-3.631-2.948-5.732-13.78-19.316-23.472-35.171-23.472-1.844 0-3.657.132-5.431.387-2.21.317-4.382-.876-5.149-2.973-8.211-22.467-29.762-38.509-55.072-38.509-25.283 0-46.828 16.002-55.061 38.431-.615 1.676-2.102 2.846-3.867 3.116-11.16 1.707-20.72 8.26-26.479 17.439 26.569 4.35 46.358 27.811 46.118 54.825-.01 1.16-.068 2.313-.151 3.46h139.14c13.883 0 25.529-11.063 25.589-24.945.055-12.451-8.971-22.798-20.835-24.811z" fill="#5ccbf7"/><path d="m350.386 59.132c1.844-.282 3.397-1.504 4.04-3.255 7.549-20.568 25.815-35.96 48.031-39.418-9.842-7.484-22.117-11.931-35.437-11.931-25.283 0-46.828 16.002-55.061 38.431-.615 1.676-2.102 2.846-3.866 3.116-11.161 1.707-20.72 8.26-26.479 17.438 15.338 2.511 28.406 11.399 36.676 23.655 4.312-14.592 16.76-25.69 32.096-28.036z" fill="#2ebcf6"/><g><path d="m281.296 61.828c-2.626-.402-4.839-2.143-5.754-4.637-12.252-33.377-44.315-57.191-81.94-57.191-37.665 0-69.736 23.873-81.956 57.308-1.141 3.121-4.373 4.895-7.662 4.424-2.64-.379-5.338-.576-8.082-.576-23.596 0-43.811 14.424-52.341 34.931-.952 2.289-2.96 3.972-5.404 4.387-17.655 2.996-31.087 18.395-31.006 36.922.091 20.66 17.421 37.123 38.081 37.123h110.248c-.224-1.068-.345-2.172-.35-3.302-.036-8.285 5.857-15.303 14.012-16.686 1.448-.246 2.658-1.225 3.238-2.618 4.061-9.762 13.512-16.07 24.079-16.07 1.242 0 2.493.089 3.719.265 1.995.286 3.928-.839 4.599-2.675 5.832-15.956 21.164-26.677 38.151-26.677 16.97 0 32.298 10.699 38.143 26.623.539 1.47 1.854 2.533 3.432 2.775 12.713 1.944 22.214 13.123 22.099 26.003-.002.238-.016.473-.025.71 13.636-10.227 22.594-26.284 22.756-44.512.257-28.599-20.671-52.341-48.037-56.527z" fill="#8adaf9"/></g><g><path d="m92.621 143.214c2.204-1.135 3.608-3.347 3.823-5.816 1.922-22.127 16.824-41.993 39.313-49.135 2.616-.831 5.247-1.46 7.878-1.898 3.277-.546 5.821-3.216 5.963-6.535 1.493-34.785 23.862-66.588 58.431-78.633-4.695-.781-9.512-1.197-14.427-1.197-37.665 0-69.736 23.873-81.956 57.308-1.14 3.121-4.373 4.895-7.662 4.423-2.64-.378-5.338-.575-8.083-.575-23.595 0-43.811 14.424-52.34 34.931-.952 2.289-2.96 3.972-5.404 4.387-17.655 2.996-31.087 18.395-31.006 36.921.091 20.66 17.421 37.123 38.082 37.123h27.247c.645-13.087 8.207-25.157 20.141-31.304z" fill="#5ccbf7"/></g><g><path d="m284.638 135.278c-1.249-.191-2.301-1.019-2.737-2.206-5.827-15.875-21.077-27.202-38.973-27.202-17.915 0-33.168 11.355-38.981 27.257-.543 1.484-2.08 2.328-3.644 2.104-1.255-.18-2.539-.274-3.844-.274-11.223 0-20.838 6.86-24.895 16.614-.453 1.089-1.408 1.889-2.57 2.086-8.397 1.425-14.786 8.749-14.747 17.561.043 9.826 8.286 17.657 18.113 17.657h107.675c14.875 0 27.319-11.839 27.452-26.714.121-13.6-9.832-24.893-22.849-26.883z" fill="#e6f8fc"/></g><path d="m204.103 171.435c1.087-.457 1.834-1.455 2.026-2.618 1.725-10.422 9.521-19.295 20.448-21.855 1.271-.297 2.542-.499 3.805-.61 1.574-.138 2.879-1.311 3.068-2.88 1.828-15.124 11.94-28.402 26.653-33.891-5.234-2.382-11.049-3.711-17.175-3.711-17.915 0-33.168 11.355-38.98 27.257-.543 1.484-2.08 2.329-3.644 2.104-1.256-.18-2.539-.274-3.844-.274-11.223 0-20.838 6.86-24.895 16.614-.453 1.088-1.408 1.889-2.57 2.086-8.397 1.425-14.786 8.749-14.747 17.561.043 9.827 8.286 17.657 18.112 17.657h20.943c-.474-7.498 3.874-14.526 10.8-17.44z" fill="#b8e9fa"/><g><path d="m248.54 447.813c19.001 0 21.266 8.299 36.29 10.272v-82.187c0-2.246-1.821-4.067-4.067-4.067h-29.989c-2.246 0-4.067 1.821-4.067 4.067v71.944c.595-.018 1.203-.029 1.833-.029z" fill="#b2381b"/></g><g><path d="m334.788 447.813c12.025 0 17.345 3.325 23.438 6.266v-82.248h-39.611c-2.246 0-4.067 1.821-4.067 4.067v76.61c4.984-2.439 10.337-4.695 20.24-4.695z" fill="#2ebcf6"/></g><g><path d="m377.914 458.505c12.387 0 17.66-3.527 23.99-6.53v-76.077c0-2.246-1.821-4.067-4.067-4.067h-39.611v82.249c4.832 2.333 10.15 4.425 19.688 4.425z" fill="#5ccbf7"/></g><g><g><path d="m324.306 283.429c-7.972 0-14.434-6.462-14.434-14.434v-35.284c0-7.972 6.462-14.434 14.434-14.434s14.434 6.462 14.434 14.434v35.284c0 7.972-6.462 14.434-14.434 14.434z" fill="#ea7768"/></g></g><path d="m324.306 251.929c-6.562 0-12.161-4.076-14.434-9.829v26.896c0 7.972 6.462 14.434 14.434 14.434s14.434-6.462 14.434-14.434v-26.896c-2.273 5.753-7.872 9.829-14.434 9.829z" fill="#d85e41"/><path d="m259.848 512c64.667 0 123.471-25.066 167.258-65.997-1.825-.207-3.824-.328-6.067-.328-21.562 0-21.562 10.692-43.125 10.692s-21.563-10.692-43.126-10.692c-21.562 0-21.562 10.692-43.124 10.692s-21.562-10.692-43.123-10.692c-21.559 0-21.559 10.692-43.118 10.692-21.562 0-21.562-10.692-43.123-10.692-21.562 0-21.562 10.692-43.125 10.692-10.018 0-15.381-2.308-20.415-4.78 43.068 37.617 99.413 60.413 161.088 60.413z" fill="#8adaf9"/><path d="m192.059 500.882c-18.182-18.182-9.249-36.8-3.529-45.094.464-.673.799-1.405 1.007-2.163-8.034-3.168-12.815-7.95-27.238-7.95-21.562 0-21.562 10.692-43.124 10.692-10.018 0-15.381-2.308-20.415-4.779 27.133 23.698 59.538 41.507 95.224 51.446-.552-.699-1.188-1.416-1.925-2.152z" fill="#5ccbf7"/></g></svg>