<svg id="Layer_1" enable-background="new 0 0 512 512" height="512" viewBox="0 0 512 512" width="512" xmlns="http://www.w3.org/2000/svg"><g><path d="m88.355 445.642h252.249l151.631-113.529c5.703-20.736 8.765-42.566 8.765-65.114 0-135.31-109.69-245-245.001-245-135.31 0-245 109.69-245 245 .001 70.453 29.749 133.949 77.356 178.643z" fill="#41416b"/><path d="m321.425 219.482c-.138 7.721-6.43 13.94-14.184 13.94s-14.046-6.219-14.184-13.94l-95.134 75.478v121.517c.276-.024.554-.058.832-.107 1.324-.234 2.687-.333 4.046-.295 10.79.304 19.243 9.006 19.242 19.809 0 .613-.037 1.224-.092 1.832 1.727-.283 3.499-.431 5.307-.431 9.52 0 18.086 4.077 24.051 10.58 2.531 2.76 6.851 2.76 9.382 0 5.965-6.503 14.531-10.58 24.051-10.58s18.086 4.077 24.051 10.58c2.531 2.76 6.851 2.76 9.382 0 5.965-6.503 14.531-10.58 24.051-10.58s18.086 4.077 24.051 10.58c2.531 2.76 6.851 2.76 9.382 0 5.964-6.503 14.531-10.58 24.051-10.58 6.168 0 11.93 1.72 16.849 4.693v-147.018z" fill="#fdca00"/><path d="m197.923 416.478c.276-.024.554-.058.833-.107 1.324-.234 2.686-.333 4.046-.295 10.79.305 19.243 9.006 19.242 19.809 0 .613-.037 1.224-.092 1.832 1.727-.283 3.499-.432 5.307-.432 9.52 0 18.087 4.077 24.051 10.58 2.531 2.76 6.851 2.76 9.382 0 .418-.456.852-.897 1.296-1.329v-124.061c-10.167-2.025-10-11.157-10-11.157s0-19.15 0-35.484c0-16.333 16.426-34.697 16.426-34.697l-1.26-1.103-69.23 54.926v121.518z" fill="#feac00"/><path d="m340.604 412.79h-38.961c-2.209 0-4-1.791-4-4v-82.314c0-2.209 1.791-4 4-4h38.961z" fill="#2ebcf6"/><path d="m340.604 322.476v90.314h38.961c2.209 0 4-1.791 4-4v-82.314c0-2.209-1.791-4-4-4z" fill="#5ccbf7"/><path d="m416.559 182.473h-44.382v44.2l44.382 35.209z" fill="#7070ab"/><path d="m386.936 209.473h14.864c6.537 0 12.16 3.856 14.759 9.41v-36.41h-44.382v36.41c2.599-5.554 8.222-9.41 14.759-9.41z" fill="#616196"/><path d="m251.309 447.865c2.531 2.76 6.851 2.76 9.382 0 2.237-2.439 4.84-4.537 7.723-6.206v-115.183c0-2.209-1.791-4-4-4h-29.497c-2.209 0-4 1.791-4 4.001v111.015c8.042.897 15.202 4.715 20.392 10.373z" fill="#b2381b"/><g fill="#b8e9fa"><path d="m166.526 205.897c-2.139-3.704-6.876-4.975-10.58-2.835l-8.168 4.716v-9.431c0-4.277-3.468-7.745-7.745-7.745s-7.745 3.468-7.745 7.745v9.431l-8.168-4.716c-3.705-2.141-8.441-.869-10.58 2.835-2.139 3.705-.87 8.441 2.835 10.58l8.168 4.716-8.168 4.716c-3.705 2.139-4.974 6.875-2.835 10.58 2.145 3.716 6.886 4.968 10.58 2.835l8.168-4.716v9.432c0 4.277 3.468 7.745 7.745 7.745s7.745-3.468 7.745-7.745v-9.431l8.168 4.716c3.69 2.131 8.432.884 10.58-2.835 2.139-3.705.87-8.441-2.835-10.58l-8.168-4.716 8.168-4.716c3.704-2.14 4.974-6.877 2.835-10.581z"/><path d="m326.124 126.455c-4.992 1.013-8.314 5.363-8.314 10.131 0 5.642 4.618 10.327 10.327 10.327 5.651 0 10.327-4.601 10.327-10.327 0-6.578-6.074-11.404-12.34-10.131z"/><path d="m455.652 215.595c-6.469-1.303-12.351 3.721-12.351 10.12 0 5.655 4.622 10.327 10.327 10.327 5.716 0 10.327-4.646 10.327-10.327 0-5.046-3.662-9.235-8.303-10.12z"/><path d="m77.187 195.252c5.784 0 10.327-4.729 10.327-10.327 0-4.706-3.258-9.091-8.313-10.121-6.32-1.273-12.34 3.584-12.34 10.121-.001 5.571 4.497 10.327 10.326 10.327z"/><path d="m150.598 333.074h-10.022l6.164-10.676c2.139-3.704.87-8.441-2.835-10.58-3.705-2.14-8.441-.871-10.58 2.835l-10.636 18.421h-15.831v-15.832l18.421-10.635c3.704-2.138 4.974-6.875 2.835-10.58s-6.876-4.975-10.58-2.835l-10.676 6.164v-10.022c0-4.278-3.468-7.745-7.745-7.745s-7.745 3.468-7.745 7.745v10.022l-10.676-6.164c-3.705-2.141-8.441-.87-10.58 2.835s-.87 8.441 2.835 10.58l18.421 10.635v15.832h-15.832l-10.635-18.421c-2.139-3.706-6.876-4.974-10.58-2.835-3.705 2.138-4.974 6.875-2.835 10.58l6.164 10.676h-10.023c-4.277 0-7.745 3.468-7.745 7.745 0 4.278 3.468 7.745 7.745 7.745h10.023l-6.164 10.676c-2.139 3.705-.87 8.441 2.835 10.58 3.69 2.131 8.432.884 10.58-2.835l10.635-18.421h15.832v15.832l-18.421 10.635c-3.704 2.138-4.974 6.875-2.835 10.58 2.145 3.716 6.886 4.968 10.58 2.835l10.676-6.164v10.022c0 4.277 3.468 7.745 7.745 7.745s7.745-3.468 7.745-7.745v-10.022l10.676 6.164c3.69 2.131 8.432.884 10.58-2.835 2.139-3.705.87-8.441-2.835-10.58l-18.421-10.635v-15.832h15.831l10.636 18.421c2.145 3.716 6.886 4.968 10.58 2.835 3.705-2.139 4.974-6.876 2.835-10.58l-6.164-10.676h10.022c4.277 0 7.745-3.468 7.745-7.745 0-4.278-3.467-7.745-7.745-7.745z"/></g><g><path d="m136.341 447.865c2.531 2.76 6.851 2.76 9.382 0 5.965-6.503 14.531-10.58 24.051-10.58s18.086 4.077 24.051 10.58c2.531 2.76 6.851 2.76 9.382 0 5.181-5.648 12.325-9.462 20.351-10.368.04-.532.063-1.069.063-1.612.001-11.637-9.143-21.057-20.776-21.386-1.493-.042-2.953.069-4.366.319-3.764.665-7.509-1.528-8.387-5.248-2.205-9.346-10.609-16.473-20.829-16.473-10.238 0-18.622 7.136-20.827 16.47-.879 3.721-4.623 5.917-8.388 5.251-1.412-.25-2.872-.361-4.366-.32-11.633.328-20.777 9.749-20.777 21.387 0 .512.024 1.017.06 1.52 8.441.686 15.976 4.573 21.376 10.46z" fill="#e6f8fc"/></g><path d="m160.85 297.098c0 11.874 13.713 18.5 23.015 11.119l110.23-87.456v-34.137c0-.769.08-1.519.207-2.253l-128.08 101.607c-3.393 2.693-5.372 6.788-5.372 11.12z" fill="#b2381b"/><path d="m448.259 285.978-128.08-101.607c.128.734.207 1.484.207 2.253v34.137l110.23 87.456c9.303 7.381 23.015.756 23.015-11.119 0-4.332-1.978-8.427-5.372-11.12z" fill="#d85e41"/><path d="m492.236 332.113c-4.399-8.028-12.803-13.519-22.639-13.797-1.863-.052-3.685.086-5.447.397-4.696.831-9.369-1.906-10.464-6.548-2.752-11.66-13.237-20.554-25.989-20.554-12.774 0-23.235 8.904-25.986 20.55-1.097 4.643-5.768 7.384-10.465 6.552-1.762-.312-3.584-.45-5.447-.399-14.515.409-25.924 12.164-25.923 26.684 0 1.421.111 2.816.325 4.176.738 4.692-2.224 9.057-6.831 10.214-11.491 2.885-20.188 13.281-20.188 25.897 0 1.597.141 3.161.41 4.68.818 4.611-2.022 9.182-6.579 10.264-11.643 2.764-20.523 13.235-20.523 25.981 0 2.991.493 5.867 1.401 8.55 1.203 3.554-.002 7.339-2.764 9.676 1.308 1.048 2.534 2.194 3.666 3.427 2.532 2.76 6.851 2.76 9.382 0 5.965-6.503 14.531-10.58 24.051-10.58s18.086 4.077 24.051 10.58c2.531 2.76 6.851 2.76 9.382 0 5.965-6.503 14.531-10.58 24.051-10.58 8.906 0 16.977 3.569 22.864 9.354 32.909-30.529 57.413-69.985 69.662-114.524z" fill="#b8e9fa"/><path d="m380.359 428.891c4.066-2.323 5.503-7.509 3.417-11.703-.686-1.381-1.263-2.842-1.713-4.375-3.558-12.103 1.854-24.53 12.064-30.539 4.093-2.41 5.704-7.433 3.672-11.726-.589-1.245-1.089-2.552-1.49-3.915-4.096-13.931 3.534-28.425 17.344-32.912 1.773-.575 3.56-.956 5.339-1.154 4.741-.527 8.45-4.474 8.192-9.238-.602-11.144 5.907-21.884 16.728-26.205-4.478-3.438-10.079-5.513-16.216-5.513-12.774 0-23.235 8.903-25.986 20.549-1.097 4.643-5.768 7.384-10.465 6.552-1.762-.311-3.584-.45-5.447-.398-14.515.409-25.924 12.164-25.923 26.684 0 1.421.111 2.816.325 4.177.738 4.692-2.224 9.057-6.831 10.214-11.49 2.885-20.188 13.281-20.188 25.897 0 1.597.141 3.161.41 4.68.818 4.611-2.022 9.182-6.579 10.264-11.643 2.764-20.523 13.235-20.523 25.98 0 2.991.493 5.868 1.401 8.55 1.203 3.554-.003 7.338-2.764 9.676 1.308 1.048 2.534 2.194 3.666 3.428 2.531 2.76 6.851 2.76 9.382 0 5.964-6.503 14.531-10.58 24.051-10.58s18.086 4.077 24.051 10.58c.268.292.559.546.863.776 1.075-8.232 5.965-15.605 13.22-19.749z" fill="#8adaf9"/><path d="m256 512c64.857 0 123.818-25.213 167.645-66.358-5.96-6.432-14.475-10.46-23.935-10.46-9.52 0-18.086 4.077-24.051 10.58-2.531 2.76-6.851 2.76-9.382 0-5.964-6.503-14.531-10.58-24.051-10.58s-18.086 4.077-24.051 10.58c-2.531 2.76-6.851 2.76-9.382 0-5.965-6.503-14.531-10.58-24.051-10.58s-18.086 4.077-24.051 10.58c-2.531 2.76-6.851 2.76-9.382 0-5.964-6.503-14.531-10.58-24.051-10.58s-18.086 4.077-24.051 10.58c-2.531 2.76-6.851 2.76-9.382 0-5.965-6.503-14.531-10.58-24.051-10.58s-18.087 4.077-24.051 10.58c-2.531 2.76-6.851 2.76-9.382 0-5.965-6.503-14.531-10.58-24.051-10.58-9.46 0-17.976 4.029-23.935 10.46 43.827 41.145 102.787 66.358 167.645 66.358z" fill="#e6f8fc"/><g><path d="m197.894 497.841c8.244-4.76 17.702-5.512 26.119-2.862 3.572 1.125 7.313-1.035 8.125-4.691 1.914-8.614 7.294-16.428 15.538-21.188 8.245-4.76 17.702-5.512 26.119-2.863 3.572 1.124 7.313-1.035 8.126-4.691 1.914-8.614 7.294-16.428 15.538-21.188.858-.495 1.732-.936 2.613-1.346-4.571-2.439-9.786-3.83-15.33-3.83-9.52 0-18.086 4.078-24.051 10.58-2.531 2.76-6.851 2.76-9.382 0-5.964-6.503-14.531-10.58-24.051-10.58s-18.086 4.078-24.051 10.58c-2.531 2.76-6.851 2.76-9.382 0-5.965-6.503-14.531-10.58-24.051-10.58s-18.087 4.078-24.051 10.58c-2.532 2.76-6.851 2.76-9.382 0-5.965-6.503-14.531-10.58-24.051-10.58-9.46 0-17.976 4.029-23.936 10.46 28.597 26.847 63.639 46.903 102.556 57.606 2.026-2.063 4.358-3.891 6.984-5.407z" fill="#b8e9fa"/></g><path d="m419.082 156.535h-49.428c-7.841 0-14.197 6.356-14.197 14.197 0 7.841 6.356 14.197 14.197 14.197h49.427c7.841 0 14.197-6.356 14.197-14.197v-.001c0-7.84-6.356-14.196-14.196-14.196z" fill="#8080c1"/><path d="m389.79 170.732c0-7.841 6.356-14.198 14.197-14.198h-34.333c-7.84 0-14.197 6.357-14.197 14.197 0 7.84 6.356 14.197 14.197 14.197h34.333c-7.84.001-14.197-6.356-14.197-14.196z" fill="#7070ab"/><path d="m413.276 59.247c-1.35-.229-2.46-1.159-2.986-2.425-4.714-11.333-15.885-19.303-28.924-19.303-1.517 0-3.008.109-4.466.318-1.818.261-3.604-.72-4.234-2.445-6.753-18.476-24.476-31.669-45.29-31.669-20.792 0-38.511 13.16-45.281 31.605-.506 1.378-1.728 2.341-3.18 2.563-9.178 1.404-17.04 6.793-21.776 14.341 21.85 3.577 38.124 22.872 37.927 45.087-.009.954-.056 1.902-.124 2.846h114.426c11.417 0 20.994-9.098 21.044-20.515.043-10.238-7.38-18.747-17.136-20.403z" fill="#5ccbf7"/><path d="m313.694 48.63c1.516-.232 2.794-1.237 3.322-2.677 6.208-16.915 21.23-29.573 39.5-32.417-8.093-6.155-18.188-9.813-29.142-9.813-20.792 0-38.511 13.16-45.281 31.605-.506 1.378-1.728 2.341-3.18 2.563-9.178 1.404-17.04 6.793-21.776 14.341 12.614 2.065 23.361 9.374 30.162 19.454 3.546-12.001 13.783-21.127 26.395-23.056z" fill="#2ebcf6"/><g><path d="m256.875 50.847c-2.16-.33-3.979-1.762-4.732-3.814-10.075-27.449-36.443-47.033-67.386-47.033-30.975 0-57.35 19.633-67.399 47.129-.938 2.566-3.596 4.026-6.301 3.638-2.171-.311-4.39-.473-6.647-.473-19.405 0-36.029 11.862-43.044 28.727-.783 1.882-2.434 3.266-4.444 3.607-14.519 2.464-25.566 15.128-25.499 30.364.075 16.99 14.327 30.529 31.318 30.529h90.667c-.184-.878-.284-1.786-.288-2.716-.03-6.814 4.816-12.585 11.523-13.723 1.191-.202 2.186-1.007 2.663-2.153 3.34-8.028 11.112-13.216 19.803-13.216 1.022 0 2.05.073 3.058.218 1.64.235 3.23-.69 3.782-2.2 4.796-13.122 17.405-21.939 31.375-21.939 13.956 0 26.562 8.799 31.369 21.894.443 1.209 1.525 2.083 2.822 2.282 10.455 1.599 18.268 10.792 18.174 21.384-.002.196-.013.389-.02.584 11.214-8.41 18.581-21.616 18.714-36.606.209-23.516-17.002-43.041-39.508-46.483z" fill="#8adaf9"/></g><g><path d="m101.711 117.778c1.812-.934 2.967-2.752 3.144-4.783 1.581-18.197 13.836-34.535 32.33-40.408 2.151-.683 4.315-1.201 6.478-1.561 2.695-.449 4.787-2.645 4.904-5.374 1.228-28.607 19.624-54.761 48.053-64.667-3.86-.643-7.821-.985-11.863-.985-30.975 0-57.35 19.633-67.4 47.129-.938 2.566-3.596 4.026-6.301 3.638-2.171-.311-4.39-.473-6.647-.473-19.405 0-36.029 11.862-43.044 28.727-.783 1.882-2.434 3.267-4.444 3.608-14.519 2.464-25.566 15.127-25.499 30.364.075 16.991 14.327 30.529 31.318 30.529h22.407c.531-10.763 6.75-20.689 16.564-25.744z" fill="#5ccbf7"/></g><g><path d="m259.624 111.251c-1.027-.157-1.893-.838-2.251-1.814-4.792-13.055-17.333-22.37-32.051-22.37-14.733 0-27.277 9.338-32.057 22.416-.446 1.221-1.71 1.915-2.997 1.73-1.033-.148-2.088-.225-3.161-.225-9.229 0-17.137 5.642-20.473 13.663-.372.895-1.158 1.554-2.114 1.716-6.906 1.172-12.16 7.195-12.128 14.442.035 8.081 6.814 14.521 14.895 14.521h88.551c12.233 0 22.467-9.736 22.576-21.969.1-11.186-8.085-20.473-18.79-22.11z" fill="#e6f8fc"/></g><path d="m193.393 140.986c.894-.376 1.508-1.196 1.666-2.153 1.419-8.571 7.83-15.868 16.816-17.974 1.045-.245 2.09-.41 3.129-.502 1.295-.114 2.367-1.078 2.523-2.368 1.503-12.438 9.819-23.358 21.919-27.871-4.304-1.959-9.087-3.052-14.125-3.052-14.733 0-27.277 9.338-32.057 22.416-.446 1.221-1.71 1.915-2.997 1.731-1.033-.148-2.088-.225-3.161-.225-9.229 0-17.137 5.642-20.473 13.663-.373.895-1.158 1.554-2.114 1.716-6.906 1.172-12.16 7.195-12.128 14.442.035 8.081 6.814 14.521 14.895 14.521h17.224c-.389-6.168 3.187-11.948 8.883-14.344z" fill="#b8e9fa"/><path d="m320.386 186.624v34.138l22.428 17.794c-6.506-23.112 16.462-23.167 16.462-23.167l-39.098-31.017c.129.733.208 1.483.208 2.252z" fill="#b2381b"/><g><path d="m307.241 235.526c-7.841 0-14.197-6.356-14.197-14.197v-34.704c0-7.841 6.356-14.197 14.197-14.197s14.197 6.356 14.197 14.197v34.704c0 7.841-6.356 14.197-14.197 14.197z" fill="#ea7768"/></g><path d="m307.241 210.01c-7.841 0-14.197-6.356-14.197-14.197v25.515c0 7.841 6.356 14.197 14.197 14.197s14.197-6.356 14.197-14.197v-25.515c0 7.841-6.356 14.197-14.197 14.197z" fill="#d85e41"/></g></svg>