<svg id="Layer_1" enable-background="new 0 0 512 512" height="512" viewBox="0 0 512 512" width="512" xmlns="http://www.w3.org/2000/svg"><g><path d="m36.957 376.834 233.671 11.088 226.651-78.19c2.441-13.877 3.721-28.155 3.721-42.732 0-135.31-109.69-245-245-245s-245 109.69-245 245c0 39.493 9.358 76.796 25.957 109.834z" fill="#009cf2"/><path d="m474.271 290.713c-5.973-1.497-9.818-7.157-8.858-13.24.28-1.773.425-3.59.425-5.443.001-18.854-14.812-34.115-33.658-34.647-2.419-.068-4.785.111-7.073.516-6.098 1.079-12.165-2.475-13.587-8.502-3.574-15.141-17.188-26.688-33.745-26.688-16.586 0-30.17 11.561-33.742 26.683-1.424 6.029-7.489 9.587-13.589 8.508-2.288-.405-4.654-.585-7.073-.517-11.251.317-21.062 5.886-27.145 14.333l20.454 115.998 11.71 12.379c2.462 2.603 3.203 6.437 1.888 9.769l-11.045 27.982c-1.373 3.479-3.435 6.56-6.127 9.156l-18.718 18.049c-4.218 4.067-4.449 10.662-.525 15.013l20.371 22.591c2.044 2.263 5.794.741 5.691-2.298l-.689-20.349c-.104-3.082 1.626-5.932 4.408-7.263l25.865-12.37c3.469-1.659 6.364-4.448 8.151-7.852l17.453-33.243c1.533-2.921 2.081-6.189 1.584-9.451l-3.735-24.485c-.229-1.501-.648-2.971-1.247-4.367l-5.763-13.449c-.69-1.609.727-3.328 2.448-2.938l34.666 7.878c10.453 2.377 20.232 6.66 29.065 12.733l7.671 5.273c8.394 5.77 17.647 9.997 27.503 12.563l3.97 1.025c12.437-22.823 21.347-47.843 26.006-74.329-4.387-9.416-12.863-16.473-23.01-19.018z" fill="#85d249"/><path d="m368.399 344.589 34.666 7.878c2.939.668 5.819 1.504 8.646 2.471 1.193-5.855-2.024-11.654-7.732-13.567-1.702-.57-3.381-1.28-5.024-2.135-16.725-8.702-23.425-28.888-15.197-45.852 1.056-2.177 2.308-4.193 3.723-6.036 3.772-4.911 3.421-11.934-1.27-15.978-11.781-10.16-15.74-27.567-8.096-42.254 4.856-9.332 13.283-15.44 22.639-17.691-6.089-5.402-14.11-8.717-22.978-8.717-16.586 0-30.17 11.561-33.742 26.683-1.424 6.029-7.489 9.587-13.589 8.507-2.288-.404-4.653-.584-7.073-.517-11.251.317-21.062 5.886-27.145 14.333l20.454 115.997 11.71 12.379c2.462 2.603 3.204 6.436 1.888 9.769l-11.045 27.982c-1.373 3.479-3.435 6.56-6.127 9.156l-18.718 18.049c-4.218 4.067-4.449 10.662-.525 15.013l20.372 22.591c2.044 2.264 5.794.741 5.691-2.298l-.689-20.349c-.104-3.082 1.625-5.932 4.408-7.263l25.865-12.37c3.469-1.659 6.364-4.448 8.151-7.853l17.453-33.243c1.533-2.921 2.081-6.189 1.583-9.451l-3.735-24.485c-.229-1.502-.648-2.971-1.247-4.367l-5.763-13.448c-.692-1.605.725-3.325 2.446-2.934z" fill="#60b550"/><path d="m115.598 377.574c4.161.616 8.362.925 12.568.925h17.885c11.782 0 23.438-2.425 34.242-7.125l36.202-15.747 6.753-3.573c17.486-9.252 37.631-12.18 57.028-8.289l11.586 2.324c3.649.732 6.983 2.577 9.54 5.281l17.205 18.188-28.793-163.294-106.795-57.812c1.204 7.628-3.912 14.845-11.548 16.192-7.637 1.346-14.912-3.686-16.389-11.266l-75.338 84.939c-3.312 3.734-4.735 8.779-3.862 13.694l21.831 122.916z" fill="#fdca00"/><path d="m142.429 260.193c-9.417 0-10.917-9.025-10.917-9.025s-2.667-14.334-6-32.544c-3.333-18.211 9.862-40.541 9.862-40.541l-1.705-.561-53.924 60.796c-3.313 3.734-4.735 8.779-3.862 13.694l21.831 122.916 17.883 2.647c4.161.616 8.362.925 12.569.925h17.885c5.428 0 10.829-.521 16.132-1.536z" fill="#feac00"/><path d="m358.243 103.182c1.658-.281 3.042-1.398 3.703-2.987 3.855-9.269 12.829-15.257 22.862-15.257 1.18 0 2.368.084 3.531.251 2.279.327 4.494-.966 5.265-3.075 3.04-8.316 8.773-15.144 15.985-19.651-6.142-12.706-19.129-21.482-34.188-21.482-1.839 0-3.647.132-5.416.386-2.204.316-4.37-.873-5.134-2.964-8.189-22.406-29.68-38.403-54.919-38.403-25.213 0-46.698 15.958-54.908 38.324-.614 1.672-2.096 2.838-3.856 3.108-18.338 2.805-32.362 18.714-32.192 37.876.001.178.014.352.018.53.286-.071.572-.145.865-.197l48.676-8.583c6.854-1.209 13.409 3.384 14.618 10.237 1.209 6.852-3.383 13.41-10.236 14.619l-4.038.712 3.583 20.318h72.796c.765-6.923 5.974-12.572 12.985-13.762z" fill="#8adaf9"/><path d="m470.943 83.672c-1.22-.187-2.248-.996-2.673-2.155-5.692-15.507-20.589-26.572-38.07-26.572-17.5 0-32.4 11.092-38.077 26.626-.53 1.45-2.032 2.274-3.56 2.055-1.227-.176-2.48-.267-3.755-.267-10.963 0-20.355 6.701-24.318 16.229-.442 1.063-1.375 1.845-2.511 2.038-8.203 1.392-14.443 8.546-14.405 17.154.042 9.599 8.094 17.248 17.693 17.248h105.181c14.531 0 26.686-11.565 26.815-26.095.118-13.285-9.605-24.316-22.32-26.261z" fill="#e6f8fc"/><path d="m323.723 116.945c-20.957 0-38.489-16.68-38.676-37.637-.17-19.162 13.854-35.072 32.192-37.876 1.76-.269 3.242-1.436 3.855-3.107 4.216-11.487 11.941-21.275 21.867-28.088-9.396-6.453-20.767-10.237-33.029-10.237-25.213 0-46.698 15.958-54.908 38.324-.614 1.671-2.096 2.838-3.856 3.107-18.338 2.805-32.362 18.714-32.191 37.876.001.178.015.353.019.529.286-.071.572-.145.865-.196l48.676-8.583c6.854-1.208 13.41 3.384 14.618 10.237 1.209 6.852-3.383 13.411-10.236 14.619l-4.038.712 3.582 20.318h72.796-21.536z" fill="#5ccbf7"/><g><path d="m400.848 115.789c1.026-.523 1.683-1.548 1.787-2.695.932-10.277 7.891-19.48 18.352-22.759 1.217-.381 2.44-.669 3.663-.868 1.523-.247 2.71-1.484 2.782-3.026.54-11.544 6.03-22.36 14.983-29.618-3.855-1.217-7.958-1.877-12.215-1.877-17.5 0-32.4 11.091-38.078 26.625-.53 1.45-2.032 2.274-3.56 2.055-1.227-.176-2.48-.268-3.755-.268-10.962 0-20.355 6.702-24.318 16.229-.442 1.063-1.375 1.845-2.511 2.038-8.203 1.392-14.443 8.546-14.405 17.154.042 9.599 8.094 17.247 17.693 17.247h30.848c-2.341-8.07 1.455-16.522 8.734-20.237z" fill="#b8e9fa"/></g><path d="m131.749 378.5h14.302c7.842 0 15.622-1.098 23.138-3.203l-19.796-112.27c-.384-2.176-2.458-3.628-4.634-3.245l-29.049 5.123c-2.176.383-3.629 2.459-3.245 4.634z" fill="#b2381b"/><path d="m235.475 335.494-38.369 6.766c-2.176.384-4.25-1.069-4.634-3.245l-14.294-81.063c-.384-2.176 1.069-4.251 3.245-4.634l38.369-6.766z" fill="#2ebcf6"/><path d="m219.793 246.552 15.683 88.942 38.369-6.766c2.176-.384 3.629-2.458 3.245-4.634l-14.293-81.063c-.384-2.176-2.458-3.629-4.634-3.245z" fill="#5ccbf7"/><path d="m270.282 95.487-43.707 7.707 7.675 43.529 49.821 26.967z" fill="#7070ab"/><path d="m240.696 130.324 26.086-4.6c3.528-.622 6.95.563 9.339 2.879l-5.839-33.116-43.708 7.707 5.971 33.86c1.309-3.398 4.303-6.051 8.151-6.73z" fill="#616196"/><path d="m403.414 353.032c10.602 2.41 20.65 6.812 29.609 12.971l4.094 2.814c2.659-17.767 8.614-34.984 12.153-44.178 1.654-4.296.78-9.147-2.269-12.596l-9.589-10.847c-4.112-4.652-6.382-10.646-6.382-16.855v-9.225c0-5.094-1.529-10.071-4.389-14.286l-6.168-9.092c-2.373-3.498-7.842-2.026-8.105 2.193-2.014 32.321-26.035 77.939-34.593 93.275z" fill="#ea7768"/><path d="m441.814 306.176-4.402-4.979c-4.112-4.652-6.382-10.646-6.382-16.855v-9.225c0-5.094-1.529-10.071-4.389-14.287l-6.168-9.092c-2.373-3.498-7.842-2.026-8.105 2.193-2.015 32.321-26.035 77.938-34.593 93.275l25.639 5.827c2.677.608 5.319 1.346 7.917 2.204-4.989-8.895.627-19.819.627-19.819s4.138-9 10.388-21.75c4.392-8.961 14.089-8.535 19.468-7.492z" fill="#d85e41"/><g><path d="m171.69 225.252c-3.661-2.213-4.835-6.974-2.622-10.634l6.28-10.39c2.041-3.376 5.251-5.837 9.04-6.931l17.008-4.911c.046-.014.083-.051.096-.099l7.991-30.587c1.081-4.138 5.309-6.616 9.451-5.536 4.139 1.081 6.617 5.313 5.536 9.451l-7.991 30.588c-1.386 5.304-5.519 9.544-10.785 11.065l-17.009 4.911-6.36 10.451c-2.216 3.666-6.979 4.832-10.635 2.622z" fill="#fff442"/></g><g><path d="m356.099 384.925c-.918 0-1.84-.076-2.758-.23l-7.166-1.2c-4.219-.707-7.066-4.699-6.359-8.918s4.694-7.065 8.918-6.359l7.166 1.2c.225.039.451.008.656-.088l13.468-6.202c3.887-1.79 8.486-.089 10.275 3.795 1.789 3.886.09 8.485-3.795 10.275l-13.468 6.202c-2.196 1.011-4.554 1.525-6.937 1.525z" fill="#d85e41"/></g><g><path d="m356.85 361.48c-2.789 0-5.546-.603-8.116-1.79l-12.636-5.832c-3.884-1.793-5.579-6.394-3.786-10.278s6.393-5.58 10.278-3.786l12.636 5.832c.728.336 1.533.44 2.323.302l9.376-1.647c4.208-.741 8.229 2.075 8.968 6.288.74 4.213-2.076 8.228-6.288 8.968l-9.376 1.647c-1.126.198-2.255.296-3.379.296z" fill="#d85e41"/></g><g><path d="m198.886 215.97-2.935-14.618c-.842-4.194 1.875-8.276 6.068-9.118 4.196-.842 8.276 1.875 9.118 6.068l2.935 14.618c.842 4.194-1.875 8.276-6.068 9.118-4.193.843-8.276-1.874-9.118-6.068z" fill="#fff442"/></g><path d="m93.557 315.882v-2.456c0-4.274-5.285-6.28-8.121-3.083l-39.519 44.551c-2.969 3.347-4.385 7.868-3.575 12.267 2.139 11.604 16.722 15.69 24.575 6.836l34.842-39.283c2.799-3.156 2.402-8.009-.873-10.668l-5.613-4.557c-1.085-.883-1.716-2.208-1.716-3.607z" fill="#b2381b"/><path d="m467.701 381.509c-9.651-2.512-18.79-6.687-27.007-12.336l-7.671-5.274c-8.959-6.159-19.007-10.561-29.609-12.971l-34.666-7.879c-2.967-.674-5.446 2.301-4.248 5.098l5.764 13.448c.546 1.274.928 2.612 1.137 3.982l3.735 24.486c.443 2.906-.055 5.878-1.421 8.48l-17.452 33.243c-1.642 3.127-4.25 5.639-7.436 7.163l-25.865 12.37c-3.347 1.601-5.428 5.031-5.303 8.739l.689 20.349c.053 1.574-1.887 2.358-2.942 1.188l-20.372-22.591c-3.332-3.695-3.134-9.367.448-12.821l18.718-18.05c2.836-2.735 5.053-6.047 6.5-9.712l11.046-27.982c1.546-3.916.685-8.374-2.209-11.432l-28.133-29.741c-2.558-2.704-5.891-4.549-9.541-5.281l-11.586-2.324c-19.398-3.891-39.544-.962-57.032 8.291l-6.749 3.571-36.202 15.747c-10.804 4.699-22.46 7.125-34.242 7.125h-17.886c-4.206 0-8.406-.309-12.567-.925l-28.768-4.257c-10.906-1.614-22.021-1.112-32.737 1.478l-17.136 4.142c40.269 80.156 123.226 135.167 219.042 135.167 93.487 0 174.734-52.368 216.034-129.363z" fill="#725057"/><path d="m169.19 375.297-.999-1.809c-7.205 1.923-14.646 2.908-22.139 2.908h-17.886c-4.206 0-8.406-.309-12.567-.925l-28.768-4.257c-10.906-1.614-22.021-1.112-32.737 1.478l-17.136 4.142c32.838 65.362 94.063 113.999 167.497 129.727-81.17-50.725-35.265-131.264-35.265-131.264z" fill="#603f42"/><path d="m173.535 424.58c3.787 1.975 8.467.514 10.449-3.284l4.915-9.42c1.525-2.923 3.892-5.241 6.845-6.703l3.899-1.93c1.475 1.801 3.213 3.35 5.2 4.607l20.574 13.024c1.856 1.175 2.964 3.188 2.964 5.385v18.521c0 4.277 3.468 7.745 7.745 7.745s7.745-3.468 7.745-7.745v-18.521c0-7.536-3.801-14.442-10.168-18.473l-20.574-13.024c-.75-.475-1.382-1.09-1.879-1.828l-4.549-6.762c-1.067-1.586-1.365-3.546-.82-5.379l7.762-26.028-18.573 8.079-4.033 13.523c-1.354 4.542-1.187 9.31.387 13.661l-2.552 1.264c-5.913 2.928-10.652 7.568-13.705 13.419l-4.915 9.42c-1.979 3.792-.509 8.47 3.283 10.449z" fill="#8e6877"/><path d="m150.4 120.841c-.134-.757-.185-1.51-.187-2.255l-57.69 65.035c-1.885 2.125-2.926 4.867-2.926 7.707v7.769c0 2.991 1.348 5.823 3.671 7.708l4.532 3.68c2.872 2.332 7.071 1.988 9.526-.779l49.001-55.246z" fill="#b2381b"/><path d="m319.474 191.915-143.778-77.823c.253.701.462 1.425.595 2.183l5.928 33.619 123.742 66.986c10.443 5.654 22.797-3.252 20.735-14.946-.752-4.267-3.412-7.957-7.222-10.019z" fill="#d85e41"/><path d="m268.263 69.504-48.677 8.583c-7.722 1.361-12.878 8.725-11.516 16.447 1.361 7.722 8.725 12.878 16.447 11.516l48.676-8.583c7.722-1.362 12.878-8.725 11.516-16.447v-.001c-1.362-7.72-8.725-12.876-16.446-11.515z" fill="#8080c1"/><path d="m241.629 88.657c-1.095-6.21 1.627-12.198 6.469-15.597l-28.511 5.027c-7.722 1.361-12.878 8.725-11.517 16.447h.001c1.361 7.722 8.725 12.878 16.447 11.516l28.352-4.999c-5.633-1.586-10.158-6.247-11.241-12.394z" fill="#7070ab"/><path d="m218.975 137.518-43.279-23.426c.253.701.462 1.425.596 2.183l5.928 33.619 22.792 12.338c-7.834-18.186 13.963-24.714 13.963-24.714z" fill="#b2381b"/><g><path d="m171.838 166.716c-7.722 1.362-15.085-3.794-16.447-11.516l-6.026-34.177c-1.362-7.722 3.794-15.085 11.516-16.447s15.085 3.794 16.447 11.516l6.026 34.177c1.361 7.723-3.794 15.086-11.516 16.447z" fill="#ea7768"/></g><path d="m183.354 150.27-3.812-21.619c-1.258 5.963-6.006 10.857-12.375 11.98-6.236 1.1-12.253-1.727-15.526-6.7l3.751 21.27c1.362 7.722 8.725 12.878 16.447 11.516 7.721-1.362 12.877-8.725 11.515-16.447z" fill="#d85e41"/></g></svg>