<svg id="Layer_1" enable-background="new 0 0 512 512" height="512" viewBox="0 0 512 512" width="512" xmlns="http://www.w3.org/2000/svg"><g><path d="m240.289 11.06s-181.218 99.251-111.218 253.68 233.62 141.165 344.81 78.797c10.404-27.187 16.119-56.692 16.119-87.537 0-135.31-109.69-245-245-245-1.575 0-3.143.03-4.711.06z" fill="#41416b"/><g><path d="m511.233 240.721c-2.245-25.692-13.74-49.851-32.887-67.127-43.046-38.837-106.825-29.789-146.791 13.806 3.329 2.082 5.642 5.631 6.019 9.749l62.106 49.269c4.323-11.14 12.364-20.112 23.834-25.318 47.083-21.369 72.409 15.902 82.476 36.996 1.449 3.037 6.021 2.028 6.011-1.337-.015-5.476-.324-10.952-.768-16.038z" fill="#8adaf9"/></g><g><path d="m456.571 183.434c36.719 14.899 49.242 50.764 53.44 76.253 1.112-.425 1.993-1.448 1.989-2.927-.014-5.476-.323-10.952-.768-16.038-2.245-25.691-13.739-49.851-32.887-67.126-43.045-38.837-106.825-29.79-146.791 13.806 3.329 2.082 5.642 5.631 6.019 9.749l19.678 15.611c13.378-17.74 46.759-50.656 99.32-29.328z" fill="#5ccbf7"/></g><path d="m425.089 192.565h-40.339v40.173l40.339 32.002z" fill="#7070ab"/><path d="m393.207 218.309h23.425c3.536 0 6.645 1.814 8.457 4.56v-30.305h-40.339v30.305c1.812-2.745 4.921-4.56 8.457-4.56z" fill="#616196"/><path d="m427.382 168.989h-44.925c-7.127 0-12.904 5.777-12.904 12.904 0 7.127 5.777 12.904 12.904 12.904h44.925c7.127 0 12.904-5.777 12.904-12.904 0-7.127-5.777-12.904-12.904-12.904z" fill="#8080c1"/><path d="m473.881 343.537c-3.645-2.893-8.211-4.694-13.243-4.859-1.569-.052-3.104.058-4.589.314-3.959.681-7.884-1.641-8.789-5.555-2.273-9.832-11.07-17.363-21.811-17.412-.715-.003-1.421.032-2.118.093v107.864c21.724-23.055 39.021-50.321 50.55-80.445z" fill="#85d249"/><path d="m424.08 393.835c2.263-10.244 9.505-18.819 19.26-22.731 5.288-2.122 7.688-8.129 5.87-13.529-.683-2.025-1.171-4.153-1.44-6.363-.608-4.98-.013-9.805 1.513-14.23-.973-.932-1.696-2.132-2.023-3.544-2.273-9.832-11.071-17.363-21.811-17.412-.716-.003-1.421.032-2.118.093v77.717h.749z" fill="#60b550"/><path d="m170.511 427.602 1.032-.156c1.278-.192 2.472-.286 3.65-.286 6.851 0 13.438 2.898 18.072 7.951 1.305 1.422 3.153 2.238 5.076 2.238 1.921 0 3.77-.816 5.074-2.237 5.649-6.159 14.141-9.115 22.629-7.52l2.085.392v-64.077c-22.908-14.473-41.822-30.555-57.036-47.409-9.504 5.89-16.645 15.065-20.608 26.795-8.487 25.118-1.237 56.324 19.395 83.479z" fill="#8adaf9"/><path d="m240.289 11.06c-133.134 2.513-240.289 111.205-240.289 244.94 0 52.77 16.686 101.642 45.066 141.632-.585-18.076 1.479-37.768 7.546-58.788 12.278-42.537 41.002-75.495 77.251-90.086-22.146-63.238-.641-122.115 50.332-136.188 83.412-23.028 115.541 45.198 126.674 82.696 1.603 5.399 9.423 4.925 10.287-.641 1.406-9.057 2.326-18.188 2.92-26.711 2.999-43.055-9.692-85.994-36.832-119.552-12.56-15.529-27.103-27.931-42.955-37.302z" fill="#8adaf9"/><path d="m425.089 294.805-86.467-68.603c-.126 7.018-5.844 12.671-12.892 12.671s-12.766-5.652-12.892-12.671l-86.468 68.603v133.404c5.687 1.069 10.73 3.962 14.488 8.059 2.039 2.223 5.517 2.223 7.556 0 4.804-5.237 11.703-8.521 19.37-8.521s14.566 3.284 19.369 8.521c2.039 2.223 5.518 2.223 7.556 0 4.804-5.237 11.703-8.521 19.37-8.521s14.566 3.284 19.37 8.521c2.039 2.223 5.517 2.223 7.556 0 4.804-5.237 11.703-8.521 19.37-8.521s14.566 3.284 19.37 8.521c2.038 2.223 5.517 2.223 7.556 0 4.803-5.237 11.703-8.521 19.37-8.521 3.831 0 7.466.827 10.747 2.3 2.617-2.593 5.173-5.247 7.671-7.954z" fill="#fdca00"/><path d="m278.071 278.835c0-16 20.409-39.943 20.409-39.943l-.687-.754-71.424 56.667v133.403c5.687 1.069 10.73 3.962 14.488 8.059 2.039 2.223 5.518 2.223 7.556 0 4.804-5.237 11.703-8.521 19.37-8.521 7.485 0 14.233 3.136 19.02 8.158v-116.091c-9.601-2.355-8.732-12.312-8.732-12.312s0-12.666 0-28.666z" fill="#feac00"/><path d="m356.053 401.901h-35.412c-2.008 0-3.636-1.628-3.636-3.636v-74.815c0-2.008 1.628-3.636 3.636-3.636h35.412z" fill="#2ebcf6"/><path d="m356.053 319.814v82.087h35.412c2.008 0 3.636-1.628 3.636-3.636v-74.815c0-2.008-1.628-3.636-3.636-3.636z" fill="#5ccbf7"/><path d="m267.784 427.746c7.667 0 14.566 3.284 19.369 8.521.898.978 2.076 1.5 3.286 1.617v-114.435c0-2.008-1.628-3.636-3.636-3.636h-26.81c-2.008 0-3.636 1.628-3.636 3.636v106.913c3.456-1.671 7.33-2.616 11.427-2.616z" fill="#b2381b"/><path d="m418.993 428.472c-3.676-1.957-7.868-3.072-12.323-3.072-7.667 0-14.566 3.284-19.37 8.521-2.039 2.223-5.518 2.223-7.556 0-4.804-5.237-11.703-8.521-19.37-8.521s-14.566 3.284-19.37 8.521c-2.038 2.223-5.517 2.223-7.556 0-4.804-5.237-11.703-8.521-19.37-8.521s-14.566 3.284-19.37 8.521c-2.038 2.223-5.517 2.223-7.556 0-4.803-5.237-11.703-8.521-19.369-8.521-7.667 0-14.566 3.284-19.37 8.521-2.039 2.223-5.517 2.223-7.556 0-4.804-5.237-11.703-8.521-19.37-8.521s-14.566 3.284-19.369 8.521c-2.039 2.223-5.518 2.223-7.556 0-4.804-5.237-11.703-8.521-19.37-8.521-2.23 0-4.392.286-6.459.809 21.833 29.811 61.566 57.266 123.443 70.236 49.1-9.579 92.953-33.812 126.817-67.973z" fill="#8adaf9"/><g><path d="m237.847 477.644c6.64-3.833 14.257-4.439 21.036-2.305 2.877.906 5.89-.833 6.544-3.778 1.541-6.938 5.874-13.232 12.514-17.064 6.64-3.834 14.257-4.439 21.035-2.306 2.877.906 5.89-.833 6.544-3.778 1.541-6.937 5.874-13.231 12.514-17.064 2.583-1.491 5.315-2.488 8.087-3.031-3.607-1.864-7.701-2.918-12.041-2.918-7.667 0-14.566 3.284-19.37 8.521-2.039 2.223-5.517 2.223-7.556 0-4.804-5.237-11.703-8.521-19.37-8.521s-14.566 3.284-19.37 8.521c-2.039 2.223-5.517 2.223-7.556 0-4.804-5.237-11.702-8.521-19.37-8.521-7.667 0-14.566 3.284-19.37 8.521-2.039 2.223-5.518 2.223-7.556 0-4.804-5.237-11.703-8.521-19.37-8.521-2.23 0-4.392.286-6.459.809 14.377 19.631 36.521 38.238 67.635 52.362.481-.321.971-.634 1.479-.927z" fill="#5ccbf7"/></g><path d="m192.674 296.748c0 10.793 12.464 16.814 20.919 10.106l100.189-79.489v-31.027c0-.699.073-1.381.189-2.048l-116.413 92.351c-3.086 2.447-4.884 6.169-4.884 10.107z" fill="#b2381b"/><path d="m453.902 286.641-116.413-92.351c.116.667.189 1.348.189 2.048v31.027l100.189 79.489c8.455 6.709 20.919.687 20.919-10.106-.001-3.938-1.799-7.66-4.884-10.107z" fill="#d85e41"/><path d="m337.677 227.365 26.225 20.806c-4.502-19.831 15.543-20.597 15.543-20.597l-41.956-33.284c.116.667.188 1.349.188 2.048z" fill="#b2381b"/><path d="m184.088 312.729c49.841-13.76 69.04 27.007 75.692 49.414.958 3.226 5.631 2.943 6.146-.383.84-5.411 1.39-10.868 1.745-15.961 1.792-25.727-5.792-51.385-22.008-71.437-53.06-65.607-165.331-37.886-194.74 63.994-5.791 20.062-8.041 38.955-7.77 56.514 44.186 64.104 118.103 106.13 201.847 106.13 18.371 0 36.263-2.037 53.479-5.871-164.939-31.81-177.696-164.923-114.391-182.4z" fill="#e6f8fc"/><path d="m245.662 274.363c-53.06-65.607-165.331-37.887-194.741 63.994-5.791 20.062-8.041 38.955-7.77 56.514 17.624 25.568 39.982 47.618 65.803 64.896-30.759-77.813-6.286-161.569 59.779-175.932 76.663-16.667 98.937 61.964 98.937 61.964 1.792-25.727-5.791-51.384-22.008-71.436z" fill="#b8e9fa"/><path d="m283.244 48.363c-12.56-15.53-27.103-27.932-42.955-37.303-133.134 2.513-240.289 111.206-240.289 244.94 0 52.771 16.686 101.643 45.066 141.633-.585-18.077 1.479-37.769 7.546-58.788 2.129-7.376 4.764-14.457 7.835-21.211-39.491-132.044 27.829-244.918 122.29-255.8 115.743-13.332 129.666 100.124 134.789 130.3 1.197-8.234 2.01-16.477 2.549-24.219 3-43.056-9.692-85.995-36.831-119.552z" fill="#5ccbf7"/><g><path d="m325.729 240.784c-7.127 0-12.904-5.777-12.904-12.904v-31.543c0-7.127 5.777-12.904 12.904-12.904s12.904 5.777 12.904 12.904v31.543c0 7.127-5.777 12.904-12.904 12.904z" fill="#ea7768"/></g><path d="m325.729 217.418c-6.126 0-11.285-4.103-12.904-9.707v20.169c0 7.127 5.777 12.904 12.904 12.904 7.126 0 12.904-5.777 12.904-12.904v-20.169c-1.619 5.605-6.778 9.707-12.904 9.707z" fill="#d85e41"/></g></svg>