<svg id="Layer_1" enable-background="new 0 0 512 512" height="512" viewBox="0 0 512 512" width="512" xmlns="http://www.w3.org/2000/svg"><g><path d="m13.702 303.445h271.298l202.332-117.282c-33.4-95.587-124.35-164.163-231.332-164.163-135.31 0-245 109.69-245 245 0 12.385.928 24.553 2.702 36.445z" fill="#41416b"/><path d="m108.17 462.375c41.09 31.139 92.298 49.625 147.83 49.625 58.857 0 112.861-20.762 155.104-55.351l-14.604-9.982h-267.5z" fill="#e6f8fc"/><path d="m291.304 509.459c-19.087-21.754-8.395-42.168.217-52.852 2.31-2.865 3.178-6.476 2.671-9.941h-165.192l-20.83 15.708c41.09 31.14 92.298 49.626 147.83 49.626 11.991 0 23.775-.876 35.304-2.541z" fill="#b8e9fa"/><path d="m107.661 254.921c5.101-2.519 10.424-4.928 20.604-4.928 6.013 0 10.332.84 13.911 2.047l11.695-50.29c.869-3.738 2.699-7.146 5.256-9.939-10.637-2.882-14.414-9.165-30.863-9.165-10.18 0-15.503 2.409-20.604 4.928v67.347z" fill="#2ebcf6"/><path d="m487.332 186.163c-4.334-1.937-9.39-3.516-17.631-3.516-15.508 0-19.752 5.585-29.1 8.64l13.477 14.639c2.156 2.342 3.812 5.181 4.79 8.212l11.57 35.866c15.968.19 19.72 6.438 30.427 9.236-.794-25.537-5.499-50.087-13.533-73.077z" fill="#2ebcf6"/><path d="m107.661 277.256 18.108-6.391c8.206-2.897 14.283-9.685 16.252-18.16l.382-1.642c-3.625-1.249-7.995-2.128-14.138-2.128-10.18 0-15.503 2.409-20.604 4.928z" fill="#5ccbf7"/><path d="m500.825 258.171c-10.752-2.824-14.488-9.127-30.73-9.23l2.634 8.164c.962 2.98 2.448 5.726 4.417 8.161l22.476 27.782c.904-8.56 1.378-17.248 1.378-26.048 0-2.957-.071-5.897-.175-8.829z" fill="#5ccbf7"/><path d="m478.38 264.267c-1.839-2.273-3.243-4.866-4.14-7.649l-13.861-42.968c-1.055-3.269-2.806-6.271-5.132-8.798l-37.117-40.316v20.34c0 7.801-6.346 14.147-14.147 14.147s-14.147-6.346-14.147-14.147v-4.673c-.002-9.55-7.773-17.319-17.322-17.319-9.552 0-17.323 7.77-17.323 17.322v24.152c0 7.801-6.347 14.147-14.148 14.147s-14.147-6.346-14.147-14.147v-53.668c-.001-9.551-7.772-17.32-17.322-17.32-9.552 0-17.322 7.77-17.322 17.322v90.402c0 7.801-6.347 14.147-14.148 14.147s-14.147-6.346-14.147-14.147v-73.766c-.002-9.549-7.773-17.318-17.323-17.318-9.552 0-17.322 7.77-17.322 17.322v12.874c0 7.801-6.346 14.148-14.147 14.148s-14.147-6.347-14.147-14.148v-21.129l-39.442 28.422c-4.663 3.36-7.95 8.296-9.252 13.894l-11.849 50.954c-1.838 7.903-7.582 14.322-15.234 17.023l-17.581 6.205v14.64c0 3.175 1.782 6.111 4.651 7.665 9.77 5.295 18.305 12.217 25.366 20.316 12.563 2.512 15.639 9.728 33.268 9.728 21.34 0 21.34-10.582 42.68-10.582s21.34 10.582 42.679 10.582c21.337 0 21.337-10.582 42.674-10.582 21.339 0 21.339 10.582 42.679 10.582s21.34-10.582 42.68-10.582c21.341 0 21.341 10.582 42.682 10.582 21.34 0 21.34-10.582 42.681-10.582 12.795 0 17.922 3.802 24.572 6.848 2.599-10.866 4.476-22.011 5.573-33.385z" fill="#e6f8fc"/><path d="m288.431 307.502c-22.706-21.889-5.202-52.943-5.202-52.943l-.01-.29c-1.588.619-3.309.971-5.114.971-7.801 0-14.147-6.346-14.147-14.147v-73.766c-.002-9.549-7.773-17.319-17.323-17.319-9.551 0-17.322 7.771-17.322 17.322v12.874c0 7.801-6.346 14.148-14.147 14.148s-14.147-6.347-14.147-14.148v-21.129l-39.442 28.421c-4.663 3.36-7.95 8.296-9.252 13.895l-11.849 50.954c-1.838 7.903-7.583 14.322-15.234 17.023l-17.581 6.205v14.64c0 3.174 1.782 6.111 4.651 7.665 9.77 5.295 18.305 12.217 25.365 20.315 12.564 2.512 15.639 9.728 33.268 9.728 21.34 0 21.34-10.582 42.68-10.582s21.34 10.582 42.679 10.582c18.829 0 21.051-8.236 35.974-10.173.286-3.716-1.006-7.506-3.847-10.246z" fill="#b8e9fa"/><path d="m416.281 162.527c-4.038-4.386-6.28-10.13-6.28-16.092v-42.057c0-2.763-.482-5.505-1.424-8.102l-25.548-70.432c-2.602-7.173-8.491-12.66-15.829-14.749l-35.771-10.185c-9.83-2.799-20.348 1.002-26.118 9.439l-18.629 27.239c-1.316 1.926-2.91 3.647-4.729 5.108l-14.093 11.325c1.271 5.182 1.959 10.591 1.959 16.159 0 32.279-22.656 59.348-52.897 66.19l-2.906 8.157c-1.618 4.541-4.579 8.483-8.491 11.301l-6.093 4.391v19.985c0 8.654 7.08 15.735 15.734 15.735s15.735-7.08 15.735-15.735v-12.874c0-8.654 7.081-15.735 15.735-15.735 8.652 0 15.733 7.078 15.735 15.731v73.767c0 8.654 7.08 15.735 15.734 15.735s15.735-7.081 15.735-15.735v-90.401c0-8.654 7.081-15.735 15.735-15.735 8.653 0 15.733 7.079 15.734 15.732v53.667c0 8.654 7.081 15.735 15.735 15.735s15.735-7.081 15.735-15.735v-24.152c0-8.654 7.08-15.735 15.735-15.735 8.653 0 15.732 7.079 15.734 15.731v4.673c0 8.654 7.08 15.735 15.735 15.735 8.654 0 15.734-7.081 15.734-15.735v-18.615z" fill="#8adaf9"/><path d="m267.86 54.021c1.271 5.183 1.959 10.591 1.959 16.16 0 32.279-22.656 59.348-52.897 66.189l-2.906 8.157c-1.618 4.542-4.58 8.483-8.491 11.302l-6.093 4.391v19.985c0 8.654 7.08 15.734 15.734 15.734s15.735-7.081 15.735-15.734v-12.874c0-8.654 7.081-15.734 15.735-15.734 8.653 0 15.733 7.078 15.735 15.73v73.767c0 8.654 7.08 15.735 15.734 15.735s15.735-7.081 15.735-15.735v-90.401c0-5.076 2.447-9.598 6.208-12.48l-.002-.016s16.183-35.804-5.317-47.882c-21.5-12.079-12.775-47.618-12.775-47.618z" fill="#5ccbf7"/><g><path d="m361.928 130.739c-13.052 0-23.671-10.619-23.671-23.671v-33.51c-.001-4.298-3.499-7.796-7.798-7.796-4.3 0-7.798 3.499-7.798 7.799 0 4.383-3.553 7.936-7.936 7.936s-7.936-3.553-7.936-7.936c0-13.052 10.619-23.671 23.671-23.671 13.05 0 23.669 10.617 23.671 23.667v33.511c0 4.3 3.498 7.798 7.798 7.798s7.798-3.498 7.798-7.798v-7.583c0-4.383 3.553-7.936 7.936-7.936s7.936 3.553 7.936 7.936v7.583c0 13.052-10.619 23.671-23.671 23.671z" fill="#b8e9fa"/></g><path d="m469.701 315.223c-21.34 0-21.34 10.582-42.681 10.582s-21.341-10.582-42.682-10.582c-21.34 0-21.34 10.582-42.68 10.582-21.339 0-21.339-10.582-42.679-10.582-21.337 0-21.337 10.582-42.674 10.582-21.339 0-21.339-10.582-42.679-10.582s-21.34 10.582-42.68 10.582c-18.647 0-21.002-8.079-35.537-10.118 15.661 16.674 24.748 38.894 24.748 62.493 0 4.589-.343 9.117-.997 13.564 3.157.852 6.911 1.408 11.787 1.408 21.34 0 21.34-10.582 42.68-10.582s21.34 10.582 42.679 10.582c21.337 0 21.337-10.582 42.674-10.582 21.34 0 21.34 10.582 42.679 10.582 21.34 0 21.34-10.582 42.68-10.582 21.341 0 21.341 10.582 42.682 10.582 21.34 0 21.34-10.582 42.681-10.582.815 0 1.588.02 2.343.05 10.073-18.783 17.779-39.026 22.694-60.339-6.883-3.079-11.948-7.058-25.038-7.058z" fill="#8adaf9"/><path d="m213.625 315.223c-21.34 0-21.34 10.582-42.68 10.582-18.647 0-21.002-8.079-35.537-10.118 15.661 16.674 24.748 38.893 24.748 62.492 0 4.589-.343 9.117-.997 13.563 3.157.853 6.911 1.409 11.787 1.409 21.34 0 21.34-10.582 42.68-10.582s21.34 10.582 42.679 10.582c19.257 0 21.139-8.617 37.009-10.297.407-3.48-.572-7.087-2.956-9.941-16.731-20.037-8.818-37.828-.762-48.185 2.072-2.663 2.947-5.929 2.677-9.095-14.918 1.939-17.142 10.173-35.969 10.173-21.339-.001-21.339-10.583-42.679-10.583z" fill="#5ccbf7"/><path d="m472.588 381.587c-.922-.045-1.873-.076-2.887-.076-21.34 0-21.34 10.582-42.681 10.582s-21.341-10.582-42.682-10.582c-21.34 0-21.34 10.582-42.68 10.582-21.339 0-21.339-10.582-42.679-10.582-21.337 0-21.337 10.582-42.674 10.582-21.339 0-21.339-10.582-42.679-10.582s-21.34 10.582-42.68 10.582c-4.808 0-8.528-.54-11.658-1.372-2.777 20.461-12.318 39.195-27.6 53.693-1.644 1.559-3.338 3.048-5.076 4.47.539-.015 1.085-.026 1.653-.026 21.34 0 21.34 10.582 42.68 10.582s21.34-10.582 42.68-10.582 21.34 10.582 42.679 10.582c21.337 0 21.337-10.582 42.674-10.582 21.34 0 21.34 10.582 42.679 10.582 21.34 0 21.34-10.582 42.68-10.582 14.16 0 18.929 4.657 26.766 7.792 25.159-20.601 46.135-46.11 61.485-75.063z" fill="#b8e9fa"/><path d="m293.394 381.786c-15.946 1.659-17.799 10.307-37.09 10.307-21.339 0-21.339-10.582-42.679-10.582s-21.34 10.582-42.68 10.582c-4.808 0-8.528-.54-11.658-1.372-2.777 20.46-12.318 39.195-27.6 53.692-1.643 1.559-3.338 3.048-5.075 4.47.539-.015 1.085-.026 1.653-.026 21.34 0 21.34 10.582 42.68 10.582s21.34-10.582 42.68-10.582 21.34 10.582 42.679 10.582c19.653 0 21.217-8.971 38.014-10.388.109-3.004-.806-6.051-2.735-8.57-17.626-23.02-9.207-41.033-1.159-50.819 1.891-2.301 2.872-5.077 2.97-7.876z" fill="#8adaf9"/><path d="m113.067 296.482c-2.356-1.276-3.819-3.679-3.819-6.27v-217.274c0-22.264-18.113-40.376-40.376-40.376-22.264 0-40.376 18.112-40.376 40.376v217.388c0 2.519-1.476 4.884-3.85 6.172-3.844 2.085-7.496 4.41-10.945 6.946 1.484 9.946 3.57 19.695 6.211 29.213l65.594 110.262c7.149 6.929 14.714 13.431 22.663 19.455 8.924-4.178 17.225-9.805 24.61-16.811 18.677-17.718 28.963-41.649 28.963-67.385.001-34.12-18.651-65.424-48.675-81.696z" fill="#e6f8fc"/><path d="m64.784 59.209c-20.195-5.434-10.239-24.011-10.239-24.011-15.21 5.794-26.049 20.521-26.049 37.741v217.388c0 2.519-1.476 4.884-3.85 6.172-3.844 2.085-7.496 4.41-10.945 6.946 1.484 9.946 3.57 19.695 6.211 29.213l44.871 75.427v-348.876z" fill="#b8e9fa"/><g><path d="m109.248 111.987h-26.049c-3.996 0-7.236-3.24-7.236-7.236s3.24-7.236 7.236-7.236h26.049c3.996 0 7.236 3.24 7.236 7.236 0 3.997-3.24 7.236-7.236 7.236z" fill="#5ccbf7"/></g><g><path d="m109.248 152.668h-26.049c-3.996 0-7.236-3.24-7.236-7.236s3.24-7.236 7.236-7.236h26.049c3.996 0 7.236 3.24 7.236 7.236 0 3.997-3.24 7.236-7.236 7.236z" fill="#5ccbf7"/></g><g><path d="m109.248 193.349h-26.049c-3.996 0-7.236-3.24-7.236-7.236s3.24-7.236 7.236-7.236h26.049c3.996 0 7.236 3.24 7.236 7.236s-3.24 7.236-7.236 7.236z" fill="#5ccbf7"/></g><g><path d="m109.248 234.03h-26.049c-3.996 0-7.236-3.24-7.236-7.236s3.24-7.236 7.236-7.236h26.049c3.996 0 7.236 3.24 7.236 7.236 0 3.997-3.24 7.236-7.236 7.236z" fill="#5ccbf7"/></g><g><path d="m109.248 274.711h-26.049c-3.996 0-7.236-3.24-7.236-7.236s3.24-7.236 7.236-7.236h26.049c3.996 0 7.236 3.24 7.236 7.236s-3.24 7.236-7.236 7.236z" fill="#5ccbf7"/></g><path d="m83.199 105.877v-32.939c0-7.9-6.427-14.327-14.327-14.327s-14.327 6.427-14.327 14.327v32.939z" fill="#fc6379"/><path d="m135.694 378.179c0-24.553-13.426-47.082-35.038-58.794-10.768-5.835-17.457-17.013-17.457-29.172v-185.461h-28.654v185.574c0 12.083-6.697 23.221-17.478 29.07-6.53 3.542-12.287 8.039-17.156 13.258 11.804 42.538 34.793 80.416 65.604 110.279 10.89-2.775 20.934-8.294 29.338-16.266 13.44-12.751 20.841-29.971 20.841-48.488z" fill="#ff4155"/><path d="m84.146 397.664-15.123-37.571c-37.873-10.134-25.932-44.87-25.932-44.87l-.007-.006c-1.827 1.583-3.833 2.994-6.018 4.179-6.53 3.542-12.287 8.039-17.156 13.258 11.17 40.253 32.36 76.328 60.712 105.393-10.512-21.922 3.524-40.383 3.524-40.383z" fill="#e80054"/><circle cx="201.943" cy="70.181" fill="#ff4155" r="69.463"/><path d="m201.943 139.644c22.666 0 42.792-10.86 55.47-27.657-40.993-.002-45.822-32.096-45.822-32.096l-27.319-37.201c-26.67 0-27.186-25.23-27.191-25.525-15.042 12.742-24.601 31.757-24.601 53.015 0 38.364 31.1 69.464 69.463 69.464z" fill="#e80054"/><path d="m237.102 60.178-28.337-28.337c-3.768-3.768-9.876-3.768-13.644 0l-28.11 28.11c-3.756 3.756-4.04 9.917-.353 13.742 3.756 3.896 9.961 3.939 13.771.129l9.065-9.065c1.034-1.034 2.802-.302 2.802 1.16v37.328c0 5.312 4.156 9.869 9.467 9.966 5.411.099 9.828-4.258 9.828-9.646v-37.647c0-1.462 1.768-2.194 2.802-1.16l8.839 8.839c3.756 3.756 9.917 4.04 13.742.353 3.895-3.757 3.938-9.961.128-13.772z" fill="#e6f8fc"/><g fill="#f98ca1"><circle cx="77.586" cy="378.474" r="20.279"/><path d="m115.411 355.813c.083 4.327-3.357 7.901-7.684 7.984s-7.901-3.357-7.985-7.684c-.083-4.327 3.357-7.901 7.684-7.984 4.328-.083 7.902 3.358 7.985 7.684z"/></g></g></svg>