<svg id="Layer_1" enable-background="new 0 0 512 512" height="512" viewBox="0 0 512 512" width="512" xmlns="http://www.w3.org/2000/svg"><g><path d="m117.788 469.305c.014.007 150.654 76.155 296.761-15.54 52.886-44.939 86.451-111.928 86.451-186.765 0-135.31-109.69-245.001-245-245.001s-245 109.691-245 245.001c0 84.032 42.313 158.172 106.788 202.305z" fill="#41416b"/><path d="m414.549 276.896h-35.937v35.79l35.937 28.51z" fill="#7070ab"/><path d="m387.469 300.664h18.223c3.785 0 7.083 2.058 8.857 5.111v-28.879h-35.937v28.879c1.774-3.052 5.072-5.111 8.857-5.111z" fill="#616196"/><path d="m326.031 318.151c-6.279 0-11.373-5.035-11.485-11.288l-77.033 61.117v44.432c12.997 6.167 23.109 17.426 27.754 31.204 1.417 4.202 5.586 6.807 9.988 6.275 13.509-1.632 26.727 5.558 32.719 17.716 1.86 3.774 6.168 5.805 10.256 4.809 4.29-1.044 8.702-.65 12.65.897 2.098-.423 4.28-.526 6.474-.261 2.815.34 5.48-1.326 6.386-4.012 4.553-13.504 17.315-23.229 32.354-23.229 12.091 0 22.705 6.288 28.77 15.769 3.295-2.524 6.523-5.13 9.683-7.815v-85.785l-77.033-61.117c-.109 6.253-5.204 11.288-11.483 11.288z" fill="#fdca00"/><path d="m288.533 327.502-51.02 40.479v44.432c12.998 6.167 23.109 17.426 27.754 31.204 1.417 4.202 5.586 6.807 9.988 6.275 5.581-.674 11.104.177 16.097 2.243v-61.875c-12.027-1.132-11.943-11.368-11.943-11.368s0-3.333 0-23.666c.001-11.544 4.893-21.376 9.124-27.724z" fill="#feac00"/><ellipse cx="232.609" cy="32.008" fill="#8080c1" rx="168.587" ry="32.008"/><path d="m64.022 32.008c0 17.193 71.404 31.219 160.981 31.974-.794-1.38-1.26-2.111-1.26-2.111-61.011-40.521 8.866-61.871 8.866-61.871-93.108 0-168.587 14.33-168.587 32.008z" fill="#7070ab"/><path d="m175.759 424.218c6.064-6.837 13.851-12.107 22.686-15.125-18.738-30.795-31.604-76.696 22.054-112.941 110.321-74.521 191.201-133.342 180.697-264.144h-.371c-5.7 16.698-78.827 29.907-168.216 29.907s-162.516-13.209-168.216-29.907h-.371s-2.626 58.85 72.477 133.953c71.033 71.033-121.015 149.533 39.26 258.257z" fill="#7070ab"/><path d="m223.743 61.871c-85.314-.839-153.84-13.72-159.35-29.862h-.371s-2.626 58.85 72.477 133.953c71.033 71.033-121.015 149.533 39.26 258.257 6.063-6.837 13.851-12.107 22.686-15.126-1.96-3.221-3.854-6.608-5.615-10.131-8.105 5.719-18.933 3.746-32.742-17.735-36-56-2.195-85.659 57.655-160.282 59.849-74.624 6-159.074 6-159.074z" fill="#616196"/><g><path d="m125.506 119.026c-59.136-21.189-83.688-48.657-84.704-49.816-2.869-3.271-2.542-8.249.729-11.117 3.265-2.862 8.23-2.543 11.101.711.272.306 23.703 26.139 79.513 45.861 87.371 30.875 191.68 26.237 282.185 10.152 4.284-.763 8.374 2.095 9.135 6.378.761 4.284-2.094 8.374-6.378 9.135-94.309 16.76-201.43 20.999-291.581-11.304z" fill="#8080c1"/></g><g><path d="m165.063 220.563c-34.243-15.735-47.797-34.261-48.357-35.042-2.536-3.535-1.726-8.457 1.809-10.993 3.524-2.529 8.429-1.732 10.972 1.78.264.355 12.563 16.621 43.386 30.499 52.286 23.542 116.535 22.204 161.227 16.935 4.314-.514 8.236 2.58 8.746 6.901.51 4.32-2.58 8.236-6.901 8.746-55.924 6.594-119.696 4.694-170.882-18.826z" fill="#8080c1"/></g><g><path d="m133.094 299.113c-20.328-14.263-30.151-29.554-30.559-30.198-2.329-3.675-1.239-8.542 2.436-10.872 3.669-2.327 8.526-1.242 10.86 2.418.087.135 8.9 13.688 26.879 26.148 23.898 16.56 51.938 23.511 83.34 20.66 4.334-.393 8.165 2.8 8.558 7.133s-2.8 8.165-7.133 8.558c-35.898 3.261-68.326-5.567-94.381-23.847z" fill="#8080c1"/></g><path d="m207.494 369.711c0 9.615 11.104 14.98 18.636 9.003l89.257-70.816v-27.642c0-.623.065-1.23.168-1.824l-103.711 82.275c-2.748 2.18-4.35 5.496-4.35 9.004z" fill="#b2381b"/><path d="m440.218 360.707-103.711-82.275c.103.594.168 1.201.168 1.824v27.642l89.257 70.816c7.533 5.977 18.636.612 18.636-9.003.001-3.508-1.601-6.824-4.35-9.004z" fill="#d85e41"/><path d="m336.676 280.257v27.642l20.498 16.263c-4.748-18.564 13.801-18.386 13.801-18.386l-34.466-27.343c.102.594.167 1.201.167 1.824z" fill="#b2381b"/><path d="m321.498 463.391h26.867c1.791-3.22 4.086-6.115 6.781-8.588v-64.543h-33.649c-1.789 0-3.239 1.45-3.239 3.239v66.652c.001 1.789 1.452 3.24 3.24 3.24z" fill="#2ebcf6"/><path d="m265.267 443.616c1.417 4.202 5.586 6.807 9.988 6.276 6.817-.824 13.558.605 19.336 3.78v-60.172c0-1.789-1.45-3.239-3.239-3.239h-23.885c-1.789 0-3.239 1.45-3.239 3.24v47.328c.369.917.721 1.844 1.039 2.787z" fill="#b2381b"/><path d="m382.363 191.554c-2.801.39-5.152 2.294-6.115 4.952-2.407 6.642-1.387 14.336 3.383 20.227s12.085 8.489 19.082 7.516c2.8-.389 5.152-2.293 6.115-4.952 2.407-6.642 1.387-14.336-3.383-20.228-4.77-5.891-12.085-8.488-19.082-7.515z" fill="#85d249"/><path d="m85.47 199.719c-2.8.389-5.152 2.294-6.115 4.952-2.407 6.642-1.388 14.336 3.382 20.227s12.085 8.489 19.082 7.515c2.8-.389 5.152-2.293 6.115-4.952 2.407-6.642 1.387-14.336-3.383-20.228-4.77-5.89-12.084-8.487-19.081-7.514z" fill="#fff442"/><path d="m459.331 69.769c-1.429-2.592-4.17-4.177-7.129-4.124-7.393.133-14.533 4.01-18.506 10.877-3.973 6.868-3.775 14.99-.204 21.466 1.429 2.592 4.17 4.178 7.129 4.124 7.393-.133 14.533-4.01 18.507-10.878 3.972-6.867 3.773-14.99.203-21.465z" fill="#85d249"/><path d="m116.275 410.692c-.281-2.813-2.092-5.237-4.711-6.302-6.543-2.662-14.272-1.941-20.343 2.597-6.072 4.539-8.95 11.747-8.249 18.777.281 2.813 2.092 5.237 4.711 6.302 6.543 2.662 14.272 1.941 20.343-2.597 6.072-4.539 8.951-11.748 8.249-18.777z" fill="#85d249"/><g><path d="m452.649 326.263c-5.84 0-10.504-4.737-10.504-10.504 0-6.756 6.213-11.57 12.552-10.294 5.096 1.035 8.455 5.465 8.455 10.294.001 5.716-4.654 10.504-10.503 10.504z" fill="#fff442"/></g><g><path d="m427.041 171.005c-5.803 0-10.504-4.706-10.504-10.504 0-6.722 6.18-11.577 12.552-10.294 5.036 1.025 8.456 5.391 8.456 10.294 0 5.776-4.721 10.504-10.504 10.504z" fill="#f99300"/></g><g><path d="m82.871 362.039c-5.721 0-10.504-4.638-10.504-10.504 0-6.718 6.205-11.574 12.552-10.304 5.063 1.028 8.455 5.463 8.455 10.304.001 5.756-4.701 10.504-10.503 10.504z" fill="#fff442"/></g><g><path d="m326.031 319.854c-6.349 0-11.496-5.147-11.496-11.496v-28.101c0-6.349 5.147-11.496 11.496-11.496s11.496 5.147 11.496 11.496v28.101c0 6.349-5.147 11.496-11.496 11.496z" fill="#ea7768"/></g><path d="m326.031 296.354c-6.349 0-11.496-5.147-11.496-11.496v23.5c0 6.349 5.147 11.496 11.496 11.496s11.496-5.147 11.496-11.496v-23.5c0 6.349-5.147 11.496-11.496 11.496z" fill="#d85e41"/><path d="m416.593 255.893h-40.023c-6.349 0-11.496 5.147-11.496 11.496 0 6.349 5.147 11.496 11.496 11.496h40.023c6.349 0 11.496-5.147 11.496-11.496-.001-6.35-5.148-11.496-11.496-11.496z" fill="#8080c1"/><path d="m391.699 267.389c0-6.349 5.147-11.496 11.496-11.496h-26.625c-6.349 0-11.496 5.147-11.496 11.496v.001c0 6.349 5.147 11.496 11.496 11.496h26.625c-6.349-.002-11.496-5.149-11.496-11.497z" fill="#7070ab"/><path d="m376.096 445.811c4.129 0 8.075.755 11.738 2.098v-54.409c0-1.789-1.45-3.239-3.239-3.239h-31.548v64.543c6.074-5.574 14.155-8.993 23.049-8.993z" fill="#5ccbf7"/><path d="m344.335 490.87c.001-14.387-13.572-23.606-26.104-20.554-4.088.995-8.396-1.035-10.256-4.809-5.993-12.158-19.211-19.348-32.719-17.716-4.402.532-8.572-2.074-9.988-6.275-7.122-21.122-27.084-36.334-50.608-36.334-23.525 0-43.487 15.212-50.609 36.334-1.417 4.202-5.586 6.807-9.989 6.275-13.502-1.629-26.723 5.554-32.718 17.713-.802 1.626-2.059 2.925-3.556 3.801 39.343 26.931 86.934 42.695 138.212 42.695 30.913 0 60.482-5.741 87.718-16.189.399-1.587.617-3.241.617-4.941z" fill="#a3ea6e"/><g><path d="m180.819 486.225c4.192-.362 7.625-3.663 8.183-7.833 1.795-13.435 12.024-24.47 25.347-27.239 4.341-.902 7.461-4.703 7.461-9.137.001-12.232 4.243-24.008 11.748-33.391-5.875-2.225-12.244-3.444-18.899-3.444-23.524 0-43.487 15.212-50.609 36.335-1.417 4.202-5.586 6.807-9.989 6.275-13.502-1.629-26.723 5.554-32.718 17.712-.802 1.626-2.059 2.925-3.556 3.802 14.862 10.173 30.903 18.749 47.872 25.488 3.538-4.761 9.011-8.036 15.16-8.568z" fill="#85d249"/></g><path d="m376.096 443.71c-15.039 0-27.802 9.725-32.354 23.229-.906 2.686-3.571 4.352-6.386 4.012-8.632-1.042-17.084 3.551-20.917 11.324-1.191 2.415-3.948 3.711-6.565 3.076-7.998-1.94-16.67 3.928-16.682 13.121-.005 3.941 1.782 7.491 4.56 9.969 40.191-6.901 77.03-23.591 107.986-47.53-5.882-10.276-16.951-17.201-29.642-17.201z" fill="#85d249"/><g fill="#60b550"><path d="m359.415 481.293c2.708-.838 4.463-3.446 4.194-6.268-1.156-12.131 4.312-24.171 14.503-31.246-.668-.039-1.338-.069-2.015-.069-15.039 0-27.801 9.725-32.354 23.229-.906 2.686-3.571 4.352-6.386 4.012-8.632-1.042-17.084 3.551-20.917 11.324-1.191 2.415-3.948 3.711-6.564 3.076-7.998-1.94-16.67 3.928-16.682 13.121-.005 3.941 1.782 7.491 4.56 9.97 16.661-2.861 32.743-7.409 48.072-13.454 1.96-6.409 6.992-11.654 13.589-13.695z"/><path d="m451.212 89.878c-7.732 0-14-6.268-14-14 0-1.646.299-3.219.821-4.687-1.676 1.498-3.151 3.277-4.338 5.33-3.973 6.868-3.775 14.99-.204 21.466 1.429 2.592 4.17 4.178 7.129 4.124 7.393-.133 14.533-4.01 18.507-10.878 1.081-1.869 1.842-3.831 2.322-5.827-2.557 2.746-6.191 4.472-10.237 4.472z"/><path d="m383.213 215.991c0-7.732 6.268-14 14-14 2.637 0 5.094.742 7.2 2.01-.74-1.732-1.723-3.395-2.968-4.932-4.77-5.891-12.085-8.488-19.082-7.515-2.801.39-5.152 2.293-6.115 4.952-2.407 6.642-1.387 14.336 3.383 20.227 1.312 1.621 2.822 2.982 4.459 4.099-.557-1.511-.877-3.137-.877-4.841z"/><path d="m107.895 426.625c-7.732 0-14-6.268-14-14 0-3.263 1.125-6.257 2.996-8.637-1.983.685-3.898 1.675-5.67 2.999-6.071 4.539-8.95 11.747-8.248 18.777.281 2.814 2.092 5.237 4.711 6.302 6.543 2.662 14.272 1.941 20.343-2.597 1.329-.994 2.495-2.121 3.514-3.34-1.164.312-2.383.496-3.646.496z"/></g><path d="m86.02 223.307c0-7.732 6.268-14 14-14 2.583 0 4.994.712 7.071 1.932-.68-1.397-1.519-2.744-2.539-4.004-4.77-5.891-12.085-8.488-19.082-7.515-2.8.39-5.152 2.294-6.115 4.952-2.407 6.642-1.387 14.336 3.383 20.228 1.327 1.639 2.857 3.014 4.517 4.137-.787-1.752-1.235-3.687-1.235-5.73z" fill="#fdca00"/></g></svg>