<svg id="Layer_1" enable-background="new 0 0 512 512" height="512" viewBox="0 0 512 512" width="512" xmlns="http://www.w3.org/2000/svg"><g><path d="m98.084 449.522s101.237 41.895 193.19 41.895c91.944 0 169.729-82.189 169.746-82.207 28.63-40.097 45.48-89.185 45.48-142.21 0-135.31-109.69-245.001-245-245.001s-245 109.691-245 245.001c0 72.517 31.515 137.664 81.584 182.522z" fill="#fdca00"/><g><path d="m208.255 122.059c.929 3.097 3.731 5.187 6.964 5.262 6.082.141 11.709 2.665 15.86 6.743 8.091 1.683 15.047 6 20.12 11.894-.674-7.714 1.59-17.487 8.451-28.324 20.96-33.107 4.038-72.737-18.076-79.933-15.518-5.05-20.632-16.495-22.303-22.872-.328-1.253-2.092-1.297-2.454-.055-1.965 6.732-3.767 20.026 6.836 32.338 14.996 17.413 6.81 43.499-10.429 42.213-12.957-.966-13.78-13.367-13.389-19.467.075-1.175-1.337-1.826-2.168-.992-5.052 5.076-15.475 17.96-11.467 34.618 10.363 1.26 19.064 8.607 22.055 18.575z" fill="#ff951f"/><path d="m232.897 45.393c-16.126-12.055-15.015-28.386-14.638-31.493-.588-.105-1.237.171-1.442.873-1.965 6.732-3.767 20.026 6.836 32.338 14.997 17.414 6.81 43.499-10.429 42.213-12.957-.966-13.78-13.367-13.389-19.467.075-1.175-1.337-1.826-2.167-.992-5.052 5.076-15.475 17.96-11.467 34.618 10.363 1.261 19.064 8.608 22.055 18.576.93 3.097 3.731 5.188 6.964 5.262 6.083.141 11.709 2.665 15.86 6.743.184.039.365.085.548.127-2.981-7.178-3.764-16.887 5.102-26.964 17.676-20.097 21.249-43.084-3.833-61.834z" fill="#ff7e3e"/></g><path d="m440.018 173.631c-1.149-1.729-3.833-.619-3.414 1.414 2.067 10.029 1.65 25.642-14.302 39.379-26.026 22.413-58.48-11.886-27.466-60.875 31.015-48.989 5.975-107.63-26.747-118.279-22.963-7.473-30.53-24.407-33.002-33.844-.485-1.853-3.095-1.92-3.632-.081-2.908 9.961-5.574 29.632 10.115 47.851 22.19 25.767 10.077 64.366-15.432 62.463-19.173-1.43-20.39-19.779-19.812-28.806.111-1.739-1.978-2.702-3.207-1.467-9.277 9.321-30.818 36.429-8.564 69.931 8.829 13.292 5.206 31.005-7.463 39.416 5.446 4.766 9.49 11.217 11.246 18.605l1.216 5.113 1.727-4.964c4.094-11.763 15.172-19.667 27.567-19.667 8.505 0 16.271 3.506 21.866 9.873 5.57 6.338 8.152 14.701 7.084 22.944-.272 2.105.321 4.166 1.67 5.805 1.38 1.676 3.433 2.719 5.634 2.861 8.412.543 16.172 4.84 21.288 11.79 5.176 7.031 6.999 15.803 5.003 24.066-.53 2.191-.077 4.495 1.241 6.324 1.308 1.814 3.33 2.962 5.55 3.15 13.561 1.151 25.091 9.507 30.934 21.072 2.352-8.941 6.947-17.254 10.19-22.395 5.45-8.639 9.798-17.953 12.465-27.812 9.344-34.555-3.113-60.858-11.755-73.867z" fill="#ff951f"/><path d="m354.479 45.893c-23.75-19.25-19.392-44.467-19.392-44.467-.485-1.853-3.095-1.92-3.632-.081-2.909 9.961-5.575 29.632 10.115 47.851 22.19 25.767 10.077 64.366-15.432 62.463-19.173-1.43-20.39-19.779-19.812-28.806.111-1.739-1.979-2.702-3.208-1.467-9.277 9.321-30.818 36.429-8.564 69.931 8.83 13.292 5.207 31.005-7.463 39.416 5.446 4.766 9.49 11.217 11.246 18.604l1.215 5.114 1.727-4.964c4.094-11.763 15.172-19.667 27.567-19.667 2.021 0 3.997.204 5.915.591-.295-10.366 4.1-23.724 19.717-39.34 38.536-38.535 23.751-85.928.001-105.178z" fill="#ff7e3e"/><circle cx="152.436" cy="39.891" fill="#fff9e1" r="17.376"/><path d="m132.791 132.696c2.001-2.962 5.833-4.055 9.089-2.579 3.123 1.415 6.512 2.205 9.99 2.301 2.862.079 5.425 1.906 6.443 4.582 1.322 3.474 3.356 6.597 5.925 9.189 2.289 2.31 2.836 5.785 1.335 8.67-5.281 10.151-3.643 21.944 2.653 30.434 3.773-1.747 7.853-2.816 12.075-3.088 2.54-.164 4.911-1.367 6.503-3.302 1.554-1.889 2.237-4.264 1.922-6.687-1.287-9.904 1.813-19.952 8.503-27.569 6.729-7.66 16.065-11.878 26.289-11.878 3.234 0 6.378.424 9.38 1.243-4.237-5.24-10.655-8.576-17.678-8.738-3.233-.075-6.035-2.165-6.964-5.262-3.255-10.847-13.266-18.611-24.828-18.782-2.963-.044-5.548-1.984-6.647-4.736-6.269-15.693-26.23-21.138-39.617-11.154-2.884 2.151-6.873 2.021-9.466-.472-5.954-5.725-13.799-9.493-22.509-10.273 6.592-31.555-17.656-61.016-49.775-60.729-26.908.241-49.153 22.042-49.894 48.94-.816 29.586 23.666 52.983 52.387 51.772 3.537-.149 6.698 2.193 7.492 5.643 3.818 16.583 18.67 28.949 36.412 28.949 12.897 0 24.265-6.535 30.98-16.474z" fill="#fff9e1"/><g fill="#fee886"><path d="m187.618 175.812c-5.247-9.175-5.48-21.08.965-30.534 1.832-2.687 1.699-6.203-.3-8.767-2.244-2.878-3.895-6.22-4.796-9.826-.694-2.777-3.024-4.895-5.857-5.312-3.442-.507-6.714-1.691-9.648-3.466-3.059-1.851-6.993-1.219-9.33 1.486-4.322 5.001-9.929 8.799-16.231 10.954 2.972 1.266 6.169 1.98 9.447 2.071 2.862.08 5.425 1.906 6.443 4.582 1.322 3.474 3.356 6.597 5.925 9.189 2.289 2.31 2.836 5.786 1.335 8.67-5.281 10.151-3.642 21.944 2.653 30.435 3.773-1.748 7.853-2.816 12.074-3.088 2.54-.164 4.911-1.368 6.503-3.302.826-1.004 1.398-2.148 1.713-3.362-.298.088-.599.173-.896.27z"/><path d="m125.942 132.087c-17.618-2.099-30.902-16.134-32.732-33.052-.38-3.52-3.242-6.22-6.772-6.49-28.663-2.194-50.206-28.323-45.896-57.605 1.113-7.564 3.905-14.512 7.941-20.519-23.696 3.543-42.287 23.837-42.963 48.386-.816 29.586 23.666 52.983 52.387 51.772 3.537-.149 6.698 2.193 7.493 5.643 3.818 16.583 18.669 28.949 36.411 28.949 12.897 0 24.266-6.536 30.98-16.475.104-.154.216-.3.33-.444-2.351.172-4.751.124-7.179-.165z"/></g><path d="m322.213 447.524c12.318 0 23.047 6.711 28.794 16.662-3.677-15.52-7.397-40.149-7.471-76.422-9.132 5.007-20.246 5.008-29.38 0-.055 26.755-2.093 47.173-4.635 62.276 3.912-1.616 8.196-2.516 12.692-2.516z" fill="#ea7768"/><path d="m343.537 387.765c-9.132 5.006-20.247 5.008-29.38 0-.02 9.86-.311 18.852-.796 27.041h.001s15.946-10.959 31.25 4.345c-.651-9.322-1.052-19.752-1.075-31.386z" fill="#d85e41"/><path d="m214.254 445.386c1.38 4.093 5.442 6.631 9.73 6.113 9.783-1.182 19.404 2.392 26.098 9.167-4.431-18.455-8.969-47.983-9.058-91.719-10.882 5.966-24.127 5.968-35.011 0-.047 22.897-1.313 41.899-3.144 57.459 5.05 5.379 8.974 11.831 11.385 18.98z" fill="#ea7768"/><path d="m205.218 398.411.003-.001s17.289-14.625 36.649 1.012h.001c-.517-9.287-.824-19.426-.847-30.476-10.882 5.966-24.127 5.968-35.011 0-.023 10.654-.311 20.453-.795 29.465z" fill="#d85e41"/><path d="m103.498 387.765c-.055 26.853-2.11 47.303-4.664 62.423.437.389.873.78 1.313 1.165 1.906-.128 3.839-.087 5.779.147 4.288.518 8.35-2.02 9.73-6.113 3.43-10.172 9.92-18.933 18.372-25.196-.696-9.584-1.126-20.358-1.15-32.426-9.131 5.006-20.246 5.008-29.38 0z" fill="#ea7768"/><path d="m133.539 412.402s.001.001.001.001c-.403-7.538-.644-15.734-.662-24.639-9.131 5.006-20.246 5.008-29.38 0-.019 9.365-.286 17.934-.728 25.786l.005-.008c.001.001 15.424-16.479 30.764-1.14z" fill="#d85e41"/><path d="m398.313 275.104c-3.747-.318-6.312-3.929-5.429-7.584 4.354-18.021-8.837-36.53-27.684-37.748-3.611-.233-6.345-3.349-5.881-6.938 2.298-17.745-11.493-34.55-30.473-34.55-15.072 0-26.888 10.615-29.944 23.892.653 4.339.481 8.787-.566 13.118-.611 2.527-.089 5.186 1.431 7.295 1.507 2.091 3.84 3.415 6.4 3.633 23.563 1.999 42.02 22.133 42.02 45.837 0 12.544-4.959 24.27-13.964 33.016-8.978 8.721-20.837 13.316-33.403 12.955l-1.578-.01v1.58c0 11.091-5.078 21.283-13.931 27.961-5.839 4.405-12.668 6.809-19.67 7.09 5.095 15.015 21.407 24.22 37.404 19.65 1.953-.558 4.017-.079 5.539 1.266 11.577 10.235 28.953 10.23 40.525-.001 1.521-1.345 3.584-1.823 5.536-1.266 19.265 5.503 39.036-8.968 39.036-29.554 0-.01-.002-.02-.002-.03 22.709.661 41.074-17.561 41.074-39.865.001-20.998-16.173-38.027-36.44-39.747z" fill="#85d249"/><g><path d="m339.296 345.991c3.747-.318 6.312-3.928 5.429-7.583-4.354-18.021 8.836-36.53 27.684-37.748 3.611-.233 6.345-3.35 5.881-6.938-1.62-12.503 4.755-24.531 15.299-30.551 1.478-16.537-11.058-32.279-28.389-33.398-3.61-.233-6.345-3.349-5.88-6.938 2.298-17.745-11.493-34.55-30.473-34.55-15.072 0-26.889 10.615-29.944 23.892.653 4.339.481 8.787-.565 13.118-.61 2.527-.089 5.186 1.431 7.295 1.507 2.091 3.84 3.415 6.4 3.632 23.563 1.999 42.02 22.133 42.02 45.837 0 12.544-4.959 24.27-13.964 33.016-8.978 8.721-20.837 13.316-33.403 12.956l-1.578-.01v1.581c0 11.091-5.078 21.282-13.931 27.961-5.839 4.404-12.668 6.809-19.669 7.089 5.078 14.966 21.3 24.156 37.246 19.69.698-20.352 16.591-36.669 36.406-38.351z" fill="#60b550"/></g><path d="m161.728 357.567c-8.857-6.68-13.936-16.874-13.938-27.888l.003-1.694-1.579.046c-12.556.371-24.422-4.233-33.398-12.952-9.008-8.75-13.969-20.476-13.969-33.019 0-23.704 18.457-43.838 42.02-45.837 2.56-.217 4.893-1.542 6.4-3.634 1.52-2.109 2.041-4.768 1.43-7.294-1.048-4.333-1.221-8.782-.568-13.122-3.056-13.267-14.854-23.887-29.94-23.887-18.959 0-32.782 16.791-30.473 34.556.466 3.585-2.268 6.699-5.876 6.932-18.842 1.216-32.051 19.714-27.689 37.747.884 3.655-1.681 7.266-5.428 7.584-20.276 1.72-36.44 18.762-36.44 39.748 0 22.275 18.34 40.527 41.074 39.865 0 .01-.001.02-.001.03 0 20.57 19.755 35.063 39.034 29.554 1.953-.558 4.017-.079 5.539 1.266 11.577 10.235 28.952 10.23 40.524-.001 1.521-1.345 3.584-1.823 5.536-1.266 15.986 4.566 32.308-4.626 37.406-19.648-7.003-.279-13.83-2.682-19.667-7.086z" fill="#60b550"/><g><path d="m53.356 354.718c0 .009-.001.019-.001.019 1.572-.627 3.194-1.175 4.869-1.612 3.639-.948 5.555-4.942 4.064-8.395-7.355-17.033 2.527-37.502 20.892-41.893 3.516-.841 5.683-4.373 4.616-7.827-4.703-15.23 3.317-31.855 18.305-37.601 7.499-11.723 20.148-19.946 34.766-21.187 2.561-.217 4.893-1.542 6.4-3.634 1.52-2.109 2.041-4.768 1.43-7.294-1.048-4.333-1.221-8.782-.568-13.122-3.056-13.267-14.854-23.887-29.94-23.887-18.959 0-32.782 16.791-30.474 34.556.466 3.584-2.269 6.699-5.876 6.931-18.843 1.216-32.051 19.714-27.689 37.747.884 3.655-1.681 7.266-5.428 7.584-20.277 1.72-36.44 18.762-36.44 39.748-.001 22.276 18.339 40.528 41.074 39.867z" fill="#389f4d"/></g><path d="m423.962 365.157c-22.963-7.473-30.531-24.407-33.002-33.844-.485-1.853-3.095-1.92-3.632-.081-2.908 9.961-5.574 29.632 10.116 47.851 22.19 25.767 10.077 64.366-15.432 62.463-19.173-1.43-20.39-19.779-19.812-28.806.111-1.739-1.979-2.702-3.208-1.467-9.277 9.321-30.818 36.429-8.564 69.931 2.551 3.84 4.045 8.049 4.598 12.295 42.772-17.682 79.45-47.114 105.994-84.289-6.572-21.775-20.873-38.786-37.058-44.053z" fill="#ff951f"/><path d="m409.479 375.474c-22.811-17.091-21.316-39.879-20.533-45.56-.704.062-1.375.483-1.618 1.317-2.908 9.961-5.574 29.632 10.116 47.851 22.19 25.767 10.077 64.366-15.433 62.463-19.173-1.43-20.39-19.779-19.811-28.806.111-1.739-1.979-2.702-3.208-1.467-9.277 9.321-30.818 36.429-8.564 69.931 2.551 3.84 4.045 8.049 4.599 12.295 31.827-13.157 60.275-32.824 83.69-57.342 1.102-25.025-10.248-46.452-29.238-60.682z" fill="#ff7e3e"/><path d="m291.275 491.417c.001-14.014-13.221-22.995-25.428-20.022-3.982.97-8.179-1.009-9.991-4.685-5.837-11.843-18.713-18.847-31.872-17.257-4.288.518-8.35-2.02-9.73-6.113-6.937-20.575-26.383-35.393-49.298-35.393s-42.361 14.818-49.299 35.394c-1.38 4.093-5.442 6.63-9.73 6.113-2.645-.319-5.275-.276-7.842.069 43.356 38.843 100.622 62.477 163.415 62.477 4.081 0 8.137-.105 12.17-.302 9.796-1.622 17.604-10.108 17.605-20.281z" fill="#fff442"/><g><path d="m144.165 473.927c4.302-.39 7.715-3.751 8.208-8.042 1.515-13.168 11.321-24.061 24.197-26.984 3.997-.908 6.896-4.529 6.88-8.627-.025-6.081 2.733-11.735 7.126-15.588-7.562-4.29-16.305-6.74-25.622-6.74-22.915 0-42.361 14.818-49.299 35.394-1.38 4.093-5.441 6.63-9.73 6.113-2.645-.319-5.274-.275-7.842.069 11 9.855 22.899 18.726 35.554 26.486 3.402-1.045 6.926-1.754 10.528-2.081z" fill="#ffe400"/></g><path d="m359.951 472.013c-2.741.331-5.338-1.291-6.22-3.908-4.435-13.154-16.867-22.627-31.517-22.627s-27.082 9.473-31.517 22.628c-.882 2.617-3.479 4.239-6.22 3.908-8.409-1.015-16.642 3.459-20.375 11.03-1.16 2.353-3.846 3.615-6.395 2.996-7.791-1.89-16.238 3.827-16.25 12.782-.008 6.572 5.074 12.044 11.425 13.011 2.862.099 5.732.167 8.619.167 42.821 0 83.069-10.997 118.094-30.304-4.006-6.747-11.745-10.637-19.644-9.683z" fill="#fff442"/><g><path d="m296.088 506.445c.234-8.439 5.851-15.939 13.917-18.524 2.63-.843 4.313-3.4 4.023-6.146-1.457-13.805 5.89-27.601 19.205-33.712.292-.134.59-.239.885-.364-3.699-1.42-7.705-2.221-11.904-2.221-14.65 0-27.082 9.474-31.517 22.628-.882 2.617-3.479 4.239-6.221 3.908-8.408-1.015-16.642 3.459-20.375 11.031-1.16 2.352-3.846 3.615-6.395 2.996-7.791-1.89-16.238 3.827-16.25 12.782-.008 6.572 5.074 12.044 11.425 13.011 2.862.099 5.732.167 8.619.167 11.328 0 22.472-.777 33.39-2.266.717-.927 1.164-2.065 1.198-3.29z" fill="#ffe400"/></g><path d="m299.829 225.656c5.189-21.475-10.531-43.532-32.99-44.982-4.303-.278-7.561-3.992-7.007-8.267 2.739-21.146-13.696-41.172-36.314-41.172-22.593 0-39.065 20.009-36.314 41.179.555 4.272-2.704 7.983-7.003 8.26-22.454 1.449-38.194 23.493-32.996 44.982 1.054 4.355-2.003 8.659-6.468 9.038-24.163 2.05-43.424 22.358-43.424 47.366 0 26.544 21.855 48.294 48.947 47.506 0 .012-.002.024-.002.036 0 24.513 23.541 41.783 46.516 35.219 2.327-.665 4.787-.094 6.6 1.509 13.796 12.197 34.502 12.19 48.292-.001 1.812-1.602 4.271-2.173 6.597-1.508 22.957 6.558 46.518-10.686 46.518-35.218 0-.012-.002-.024-.002-.036 27.061.787 48.947-20.927 48.947-47.506 0-25.024-19.273-45.317-43.425-47.366-4.468-.38-7.525-4.683-6.472-9.039z" fill="#a3ea6e"/><path d="m179.861 347.43c-9.633-25.892 2.486-54.338 26.713-65.768 4.477-2.112 5.984-7.746 3.216-11.849-13.659-20.246-5.854-49.133 16.835-59.282 4.344-1.943 6.289-7.04 4.068-11.249-10.727-20.334-2.107-46.556 20.005-55.924-6.583-7.344-16.142-12.124-27.182-12.124-22.593 0-39.065 20.009-36.314 41.179.555 4.272-2.704 7.983-7.003 8.26-22.454 1.449-38.194 23.493-32.996 44.982 1.053 4.355-2.003 8.659-6.469 9.038-24.163 2.05-43.424 22.358-43.424 47.366 0 26.544 21.855 48.294 48.947 47.506 0 .012-.002.024-.002.036 0 23.878 22.336 40.873 44.728 35.671-4.745-4.996-8.578-11.003-11.122-17.842z" fill="#85d249"/></g></svg>