<svg id="Layer_1" enable-background="new 0 0 512 512" height="512" viewBox="0 0 512 512" width="512" xmlns="http://www.w3.org/2000/svg"><g><path d="m145.191 397.594c48.477-21.326 87.67 27.827 119.26 15.307 66.393-26.314 91.245 24.401 130.853-2.924 31.484-21.72 58.859-28.556 78.155-30.04 17.588-33.797 27.541-72.203 27.541-112.937 0-135.31-109.69-245-245.001-245-135.31 0-245 109.691-245 245 0 61.841 22.922 118.322 60.72 161.435 28.305 4.749 26.651-10.244 73.472-30.841z" fill="#fdca00"/><g><path d="m405.904 403.186c15.295-9.254 29.446-15.044 41.947-18.561-19.47-23.868-23.241-57.384-23.636-76.538-14.905 41.891-24.74 68.488-18.591 94.295.068.286.169.548.28.804z" fill="#ea7768"/></g><path d="m430.981 352.083h-.001c-8.325 2.73-13.753.992-16.524-.551-1.394-.776-2.968-1.153-4.553-1.111-5.786 19.875-8.066 36.071-4.28 51.96.068.287.17.549.281.805 15.294-9.253 29.446-15.044 41.946-18.561-7.976-9.779-13.315-21.176-16.869-32.542z" fill="#d85e41"/><g><path d="m264.451 413.996c26.069-10.332 45.733-8.787 62.401-4.755-31.98-23.688-42.485-57.479-45.918-77.97-9.369 27.239-19.905 58.717-17.034 82.926.184-.068.368-.128.551-.201z" fill="#ea7768"/></g><g><path d="m201.978 400.536c17.248-27.133 37.633-81.883 17.96-126.362-.304-.688-.592-1.376-.877-2.064h-1.187s-9.4 70.616-54.732 122.638c13.735-1.67 26.665 1.419 38.836 5.788z" fill="#c04a27"/></g><g><path d="m217.875 272.11c19.733 44.614-.837 99.567-18.119 126.612 24.482 8.387 45.93 22.711 64.695 15.273.147-.058.291-.11.438-.167-3.234-28.709 12.176-67.504 22.123-97.347 10.685-32.055 3.138-60.233 1.754-64.861-.136-.456-.209-.924-.198-1.399.416-18.846 16.625-40.697 23.129-48.726 2.247-2.773 2.152-6.78-.26-9.411-1.546-1.687-3.474-3.136-5.186-4.247-2.515-1.632-5.759-1.526-8.198.218-14.095 10.077-23.007 23.569-27.582 31.939-1.794 3.282-6.577 3.111-8.117-.297-11.596-25.667-4.132-55.981 3.331-108.219 6.439-45.074-20.92-77.487-33.269-89.566-3.094-3.026-8.011-3.102-11.171-.145l-4.574 4.279c-3.199 2.993-3.405 7.975-.507 11.26 9.771 11.077 28.538 37.971 22.347 75.893-8.253 50.562-44.37 105.253-20.636 158.911z" fill="#ea7768"/></g><path d="m264.451 413.996c.148-.059.29-.109.438-.167-3.234-28.71 12.176-67.504 22.123-97.347 10.685-32.055 3.138-60.233 1.754-64.861-.136-.455-.208-.924-.198-1.399.415-18.846 16.626-40.697 23.129-48.726 2.247-2.773 2.151-6.78-.26-9.412-1.546-1.687-3.474-3.136-5.186-4.247-2.515-1.632-5.759-1.526-8.198.217-14.095 10.077-23.007 23.569-27.582 31.939-1.794 3.282-6.577 3.111-8.117-.297-37.899 14.305-47.621-22.429-47.621-22.429-5.996 24.826-7.872 49.945 3.141 74.842 19.733 44.614-.837 99.566-18.119 126.612 24.484 8.388 45.931 22.712 64.696 15.275z" fill="#d85e41"/><g><path d="m318.595 57.549c-2.049.115-13.608 1.441-21.689 16.57-3.067 5.742-14.882 11.31-31.563 10.87-4.251-.098-7.829 3.255-7.944 7.528s3.255 7.829 7.528 7.944c16.469.449 37.839-4.462 45.632-19.05 3.041-5.692 6.398-7.55 8.036-8.146z" fill="#d85e41"/></g><g><g><path d="m293.855 94.677c-.595 0-1.199-.069-1.803-.213-4.157-.992-6.724-5.167-5.731-9.324.845-3.543.711-8.208-.378-13.138-.325-1.469-1.014-3.068-2.107-4.887-4.642-7.728-4.349-18.391.872-31.694 3.481-8.869 7.995-15.901 8.186-16.196 2.318-3.592 7.108-4.622 10.699-2.304 3.589 2.317 4.621 7.102 2.309 10.692v.001c-5.782 8.997-12.576 25.241-8.797 31.53 1.968 3.275 3.26 6.388 3.952 9.517 1.12 5.073 2.086 12.672.319 20.072-.848 3.553-4.022 5.944-7.521 5.944z" fill="#ea7768"/></g></g><g><g><path d="m101.793 384.739c-3.169 14.48-8.786 29.19-14.537 44.117 10.885-2.013 17.662-9.597 35.662-19.99 1.568-7.542 3.264-15.627 4.997-24.377 8.488-42.852-16.056-75.314-27.266-87.522-2.808-3.058-7.515-3.384-10.695-.714l-4.602 3.864c-3.219 2.703-3.673 7.465-1.065 10.762 8.792 11.116 25.389 37.847 17.506 73.86z" fill="#d85e41"/></g></g><path d="m129.131 357.135c-6.989 6.985-13.842 7.736-18.663 6.952-4.093-.665-6.72-2.436-6.72-2.436l-.007.003c.363 7.166-.152 14.882-1.947 23.086-3.169 14.48-8.786 29.19-14.537 44.117 10.885-2.013 17.662-9.597 35.663-19.99 1.568-7.541 3.263-15.627 4.997-24.377 1.918-9.69 2.137-18.842 1.214-27.355z" fill="#c04a27"/><g><g><path d="m114.96 348.646c-2.377-3.553-1.423-8.36 2.13-10.736l18.518-12.387c3.455-2.311 5.669-6.009 6.076-10.147l1.608-16.366c.418-4.254 4.195-7.37 8.459-6.945 4.253.418 7.363 4.205 6.945 8.459l-1.608 16.366c-.861 8.765-5.553 16.601-12.873 21.499l-18.519 12.387c-3.532 2.362-8.344 1.445-10.736-2.13z" fill="#ea7768"/></g></g><g><g><path d="m354.955 288.873c-2.276-3.618-1.19-8.396 2.428-10.672l7.544-4.747c.484-.304 1-.555 1.539-.745 6.052-8.633 10.428-10.182 11.866-10.691 4.03-1.423 8.453.684 9.879 4.713 1.41 3.982-.635 8.349-4.574 9.828-.511.301-2.187 1.711-4.588 5.117-1.648 2.338-3.875 4.141-6.481 5.259l-6.941 4.367c-3.631 2.284-8.405 1.174-10.672-2.429zm28.546-12.266c-.001 0-.002.001-.002.001s.001 0 .002-.001z" fill="#ea7768"/></g></g><g><g><path d="m97.587 383.063c-4.006-4.006-12.698-5.375-15.428-5.539-4.257-.256-7.517-3.908-7.275-8.165.243-4.258 3.877-7.506 8.129-7.289 1.673.09 16.603 1.134 25.519 10.048 3.022 3.023 3.023 7.922 0 10.945-3.023 3.021-7.922 3.022-10.945 0z" fill="#ea7768"/></g></g><g><g><path d="m405.18 280.611c-15.867 43.163-52.568 85.424-56.888 133.828 15.899 4.71 30.113 7.259 47.012-4.399 4.843-3.341 9.589-6.33 14.224-9.001-.364-.503-.649-1.085-.808-1.754-7.102-29.806 7.114-60.65 25.842-114.916 16.16-46.823-6.392-87.081-17.095-102.527-2.682-3.87-7.918-4.963-11.903-2.455l-5.767 3.629c-4.034 2.538-5.279 7.818-2.86 11.924 8.155 13.844 22.665 46.437 8.243 85.671z" fill="#d85e41"/></g></g><path d="m395.304 410.041c4.843-3.341 9.589-6.33 14.224-9.001-.364-.502-.649-1.085-.809-1.754-3.575-15.003-1.745-30.273 3.34-48.657-1.013-.225-2.063-.278-3.104-.138-25.902 3.493-30.304-16.435-30.305-16.44-14.102 25.628-27.821 51.947-30.359 80.389 15.9 4.709 30.114 7.259 47.013-4.399z" fill="#c04a27"/><g><g><path d="m382.221 315.963c-3.245-11.745-9.718-16.718-23.952-24.08-19.241-9.953-17.772-35.701-17.7-36.793.282-4.265 3.949-7.491 8.232-7.213 4.256.281 7.48 3.951 7.215 8.204-.015.274-.815 16.789 9.365 22.054 14.839 7.675 26.6 15.031 31.759 33.706 1.138 4.12-1.279 8.382-5.399 9.52-4.136 1.144-8.387-1.294-9.52-5.398z" fill="#ea7768"/></g></g><path d="m69.675 426.07c44.936 52.585 111.732 85.93 186.325 85.93 95.411 0 178.076-54.543 218.536-134.145-19.347 1.312-47.161 7.997-79.232 30.122-39.608 27.325-64.46-23.39-130.852 2.924-31.59 12.52-70.783-36.632-119.26-15.306-47.925 21.082-45.057 36.296-75.517 30.475z" fill="#725057"/><g><path d="m186.485 495.501c31.405-42.643 89.878-19.554 111.029-46.149 18.386-23.118 37.175-31.267 54.356-35.951-22.241-6.124-47.212-18.435-87.418-2.5-31.59 12.52-70.783-36.632-119.26-15.306-47.924 21.083-45.056 36.296-75.517 30.476 29.545 34.575 68.542 60.828 112.99 74.758 1.201-1.722 2.469-3.494 3.82-5.328z" fill="#603f42"/></g><g><g><path d="m226.495 179.118c-37.596-16.279-38.029-52.024-38.029-53.537 0-4.274 3.465-7.739 7.739-7.739 4.262 0 7.719 3.444 7.739 7.701.015 1.198.694 27.244 28.7 39.371 3.923 1.698 5.725 6.255 4.027 10.177-1.69 3.905-6.237 5.733-10.176 4.027zm-22.551-53.537h.01z" fill="#d85e41"/></g></g><g><g><path d="m179.422 161.253c-6.345 0-12.594-2.291-17.456-6.54-12.26-10.713-20.162-14.514-23.203-14.514-4.274 0-7.739-3.465-7.739-7.739s3.465-7.739 7.739-7.739c8.346 0 19.267 5.998 33.388 18.337 2.611 2.282 6.179 3.208 9.539 2.473l19.711-4.295c4.171-.909 8.3 1.738 9.21 5.914s-1.738 8.299-5.914 9.21l-19.711 4.295c-1.841.402-3.707.598-5.564.598z" fill="#ea7768"/></g></g><g><path d="m268.784.196c-2.751.383-5.061 2.253-6.008 4.865-2.364 6.525-1.363 14.084 3.323 19.871 4.686 5.788 11.872 8.339 18.746 7.383 2.751-.383 5.061-2.253 6.007-4.865 2.365-6.525 1.363-14.084-3.323-19.872-4.685-5.786-11.871-8.338-18.745-7.382z" fill="#fff442"/></g><g><path d="m475.942 292.182c2.771-.881 4.823-3.219 5.338-6.08 1.286-7.149-1.082-14.771-6.939-19.914-5.858-5.143-13.722-6.506-20.645-4.305-2.771.881-4.824 3.219-5.338 6.08-1.287 7.149 1.082 14.771 6.94 19.914 5.856 5.143 13.721 6.506 20.644 4.305z" fill="#fff442"/></g><g><path d="m353.705 147.755c.775-2.802-.062-5.799-2.178-7.793-5.287-4.982-12.965-7.16-20.472-5.062s-12.944 7.942-14.881 14.944c-.775 2.802.062 5.798 2.178 7.792 5.286 4.982 12.965 7.16 20.473 5.062 7.507-2.098 12.943-7.942 14.88-14.943z" fill="#fff442"/></g><g><path d="m332.171 370.109c2.905.112 5.63-1.39 7.086-3.907 3.638-6.288 3.997-14.261.234-21.087-3.764-6.826-10.698-10.778-17.957-11.059-2.905-.112-5.63 1.39-7.086 3.906-3.638 6.288-3.997 14.261-.234 21.088 3.763 6.826 10.698 10.778 17.957 11.059z" fill="#fff442"/></g><g><path d="m182.093 279.581c-.425-2.876-2.404-5.277-5.146-6.244-6.851-2.416-14.754-1.299-20.769 3.659s-8.621 12.502-7.557 19.688c.425 2.876 2.404 5.277 5.146 6.244 6.851 2.416 14.754 1.299 20.769-3.659s8.62-12.502 7.557-19.688z" fill="#fff442"/></g><g><path d="m356.52 289.748c.328-3.413-1.258-6.721-4.122-8.605-7.158-4.705-16.521-5.666-24.81-1.695-8.29 3.971-13.409 11.869-14.228 20.396-.328 3.413 1.257 6.721 4.122 8.605 7.158 4.705 16.521 5.666 24.811 1.694 8.289-3.971 13.408-11.869 14.227-20.395z" fill="#fff442"/></g><g><path d="m369.911 227.979c-1.175-2.132-3.43-3.436-5.863-3.392-6.08.11-11.953 3.298-15.22 8.946-3.268 5.649-3.104 12.329-.168 17.654 1.175 2.132 3.43 3.436 5.863 3.392 6.08-.11 11.953-3.298 15.22-8.946 3.268-5.648 3.104-12.328.168-17.654z" fill="#fff442"/></g><g><path d="m340.043 43.679c-1.404-2.546-4.097-4.104-7.004-4.052-7.263.131-14.278 3.939-18.181 10.686-3.904 6.747-3.708 14.726-.201 21.088 1.404 2.546 4.097 4.104 7.004 4.052 7.263-.131 14.278-3.939 18.181-10.686 3.904-6.747 3.708-14.727.201-21.088z" fill="#fff442"/></g><g fill="#ffe400"><path d="m457.526 282.727c0-7.835 6.352-14.188 14.188-14.188 2.119 0 4.122.477 5.927 1.31-.939-1.315-2.033-2.549-3.3-3.662-5.857-5.143-13.722-6.506-20.645-4.305-2.771.881-4.823 3.219-5.338 6.08-1.287 7.149 1.082 14.771 6.94 19.914 1.554 1.364 3.251 2.454 5.032 3.29-1.754-2.359-2.804-5.273-2.804-8.439z"/><path d="m365.988 242.414c-7.359 0-13.408-5.604-14.116-12.778-1.162 1.126-2.192 2.426-3.043 3.897-3.268 5.648-3.104 12.328-.168 17.654 1.175 2.131 3.429 3.436 5.863 3.392 6.081-.109 11.953-3.298 15.221-8.946.81-1.4 1.407-2.862 1.805-4.352-1.709.728-3.588 1.133-5.562 1.133z"/><path d="m332.214 64.1c-7.835 0-14.188-6.352-14.188-14.188 0-1.579.269-3.092.745-4.511-1.5 1.404-2.83 3.041-3.913 4.912-3.903 6.748-3.708 14.727-.201 21.088 1.403 2.546 4.097 4.104 7.003 4.052 7.263-.131 14.277-3.939 18.181-10.686.817-1.412 1.443-2.879 1.909-4.372-2.52 2.294-5.859 3.705-9.536 3.705z"/><path d="m175.014 296.548c-7.835 0-14.188-6.352-14.188-14.188 0-3.711 1.437-7.079 3.77-9.607-2.995.746-5.875 2.147-8.417 4.243-6.015 4.958-8.621 12.502-7.558 19.688.425 2.876 2.404 5.277 5.146 6.244 6.851 2.415 14.754 1.299 20.77-3.659 1.095-.902 2.073-1.893 2.94-2.949-.801.14-1.621.228-2.463.228z"/><path d="m270.027 25.438c0-7.835 6.352-14.188 14.188-14.188 2.294 0 4.455.557 6.373 1.524-.741-1.828-1.75-3.582-3.058-5.196-4.686-5.788-11.872-8.339-18.746-7.383-2.751.382-5.061 2.253-6.007 4.864-2.364 6.525-1.363 14.084 3.323 19.871 1.29 1.594 2.775 2.933 4.386 4.03-.289-1.127-.459-2.303-.459-3.522z"/><path d="m332.175 145.355c0-4.573 2.172-8.628 5.531-11.223-2.188-.091-4.427.146-6.651.768-7.507 2.098-12.944 7.942-14.881 14.943-.775 2.802.062 5.798 2.178 7.792 5.287 4.982 12.965 7.16 20.473 5.062 2.468-.689 4.707-1.791 6.676-3.199-7.432-.446-13.326-6.598-13.326-14.143z"/><path d="m318.042 362.037c0-7.836 6.352-14.188 14.188-14.188 3.693 0 7.045 1.422 9.569 3.734-.406-2.209-1.164-4.392-2.308-6.468-3.764-6.827-10.698-10.778-17.957-11.059-2.905-.112-5.63 1.39-7.086 3.907-3.637 6.288-3.997 14.261-.233 21.087 1.093 1.982 2.459 3.713 4.017 5.191-.114-.72-.19-1.452-.19-2.204z"/><path d="m346.417 306.679c-9.608 0-17.397-7.789-17.397-17.397 0-4.585 1.788-8.744 4.686-11.852-2.071.401-4.126 1.064-6.12 2.019-8.29 3.971-13.409 11.869-14.228 20.397-.328 3.413 1.257 6.721 4.122 8.604 7.158 4.706 16.521 5.665 24.811 1.694 2.006-.961 3.822-2.157 5.441-3.531-.434.032-.87.066-1.315.066z"/></g></g></svg>