<svg id="Layer_1" enable-background="new 0 0 512 512" height="512" viewBox="0 0 512 512" width="512" xmlns="http://www.w3.org/2000/svg"><g><path d="m502.999 242.686-92.739-168.584c-41.62-32.639-94.067-52.102-151.061-52.102-135.31 0-245 109.69-245 245s109.69 245 245 245 245-109.69 245-245c0-8.206-.411-16.316-1.2-24.314z" fill="#8080c1"/><path d="m149.501 211.587c2.77-.423 5.081-2.292 6.03-4.877 9.596-26.144 34.764-43.709 62.624-43.709 10.872 0 21.325 2.685 30.607 7.501 8.652-20.682 28.701-34.039 51.114-34.039 2.641 0 5.299.189 7.901.562 4.114.591 8.107-1.73 9.49-5.517 6.712-18.364 19.364-33.449 35.282-43.418-3.854-.564-7.794-.865-11.805-.865-3.914 0-7.763.281-11.528.82-4.691.672-9.301-1.858-10.928-6.309-17.427-47.686-63.169-81.736-116.89-81.736-53.664 0-99.394 33.965-116.868 81.571-1.306 3.557-4.461 6.041-8.207 6.613-39.032 5.97-68.881 39.834-68.519 80.619.396 44.605 37.713 80.108 82.32 80.108h23.518c2.168-18.804 16.802-34.409 35.859-37.324z" fill="#515181"/><path d="m82.446 187.608c-.363-40.785 29.486-74.649 68.518-80.619 3.746-.572 6.901-3.056 8.207-6.613 16.553-45.096 58.467-77.931 108.456-81.27-19.179-12.091-41.878-19.106-66.229-19.106-53.664 0-99.395 33.965-116.869 81.571-1.306 3.558-4.461 6.042-8.207 6.614-39.032 5.97-68.881 39.834-68.519 80.619.396 44.605 37.713 80.108 82.32 80.108h22.012c-17.88-14.635-29.47-36.563-29.689-61.304z" fill="#41416b"/><path d="m503 242.686c-6.733-68.34-41.541-128.433-92.74-168.583-3.941-.541-7.961-.837-12.051-.837-37.909 0-70.187 24.027-82.486 57.678-1.148 3.141-4.401 4.927-7.711 4.452-2.657-.381-5.373-.579-8.135-.579-23.664 0-43.946 14.416-52.584 34.94 15.215 7.425 27.46 20.521 33.498 37.043 1.182 3.234 4.577 5.218 8.092 4.715 2.003-.288 4.05-.433 6.082-.433 17.284 0 32.743 10.317 39.384 26.284 1.017 2.448 3.146 4.167 5.694 4.6 5.453.925 10.267 3.418 14.061 6.947h122.626c9.405-.002 18.342-2.252 26.27-6.227z" fill="#41416b"/><g><path d="m332.577 199.482c1.761-.834 2.922-2.535 3.156-4.47 2.09-17.336 14.319-32.555 32.176-37.578 2.077-.584 4.161-1.01 6.24-1.285 2.589-.343 4.658-2.374 4.856-4.979 2.131-27.905 21.321-52.799 49.827-60.817.033-.009.065-.016.098-.025-5.944-5.712-12.174-11.131-18.669-16.225-3.941-.541-7.961-.837-12.051-.837-37.909 0-70.187 24.027-82.486 57.678-1.148 3.141-4.401 4.927-7.711 4.452-2.657-.381-5.372-.579-8.135-.579-23.664 0-43.947 14.416-52.584 34.94 15.214 7.425 27.46 20.521 33.498 37.043 1.182 3.234 4.577 5.218 8.092 4.715 2.003-.288 4.05-.433 6.082-.433 8.022 0 15.649 2.226 22.186 6.204 2.385-7.67 7.878-14.23 15.425-17.804z" fill="#34345b"/></g><g fill="#b8e9fa"><path d="m44.083 340.97c-.504-2.463-3.603-3.293-5.271-1.412l-9.92 11.188c3.448 9.48 7.461 18.688 12.005 27.58 5.463-2.701 9.021-8.839 7.644-15.57z"/><path d="m65.989 297.639-4.458-21.785c-.504-2.463-3.603-3.293-5.271-1.412l-14.753 16.638c-6.988 7.881-3.24 20.361 6.934 23.087 10.173 2.725 19.659-6.209 17.548-16.528z"/><path d="m225.203 492.987-4.458-21.785c-.504-2.463-3.603-3.293-5.271-1.412l-14.753 16.638c-6.988 7.881-3.24 20.361 6.934 23.087 10.174 2.725 19.66-6.209 17.548-16.528z"/><path d="m242.651 427.871-4.458-21.785c-.504-2.463-3.603-3.293-5.271-1.412l-14.753 16.638c-6.988 7.881-3.24 20.361 6.934 23.087 10.174 2.725 19.66-6.209 17.548-16.528z"/><path d="m260.099 362.755-4.458-21.785c-.504-2.463-3.603-3.293-5.271-1.412l-14.753 16.638c-6.988 7.881-3.24 20.361 6.934 23.087 10.174 2.725 19.66-6.209 17.548-16.528z"/><path d="m141.234 427.871-4.458-21.785c-.504-2.463-3.603-3.293-5.271-1.412l-14.753 16.638c-6.988 7.881-3.24 20.361 6.934 23.087 10.174 2.725 19.66-6.209 17.548-16.528z"/><path d="m158.682 362.755-4.458-21.785c-.504-2.463-3.603-3.293-5.271-1.412l-14.753 16.638c-6.988 7.881-3.24 20.361 6.934 23.087 10.173 2.725 19.659-6.209 17.548-16.528z"/><path d="m317.897 492.987-4.458-21.785c-.504-2.463-3.603-3.293-5.271-1.412l-14.753 16.638c-6.988 7.881-3.24 20.361 6.934 23.087 10.173 2.725 19.659-6.209 17.548-16.528z"/><path d="m335.344 427.871-4.458-21.785c-.504-2.463-3.603-3.293-5.271-1.412l-14.754 16.638c-6.988 7.881-3.24 20.361 6.934 23.087 10.175 2.725 19.661-6.209 17.549-16.528z"/><path d="m352.792 362.755-4.458-21.785c-.504-2.463-3.603-3.293-5.271-1.412l-14.753 16.638c-6.988 7.881-3.24 20.361 6.934 23.087 10.174 2.725 19.66-6.209 17.548-16.528z"/><path d="m436.762 427.871-4.458-21.785c-.504-2.463-3.603-3.293-5.271-1.412l-14.753 16.638c-6.988 7.881-3.24 20.361 6.934 23.087 10.173 2.725 19.659-6.209 17.548-16.528z"/><path d="m454.209 362.755-4.458-21.785c-.504-2.463-3.603-3.293-5.271-1.412l-14.753 16.638c-6.988 7.881-3.24 20.361 6.934 23.087 10.174 2.725 19.66-6.209 17.548-16.528z"/><path d="m471.657 297.639-4.458-21.785c-.504-2.463-3.603-3.293-5.271-1.412l-14.753 16.638c-6.988 7.881-3.24 20.361 6.934 23.087 10.174 2.725 19.66-6.209 17.548-16.528z"/></g><path d="m149.213 209.697c2.065-.316 3.804-1.685 4.524-3.646 9.632-26.241 34.839-44.963 64.419-44.963 29.612 0 54.825 18.769 64.432 45.054.897 2.453 3.438 3.849 6.024 3.478 2.075-.298 4.197-.452 6.354-.452 18.55 0 34.443 11.34 41.149 27.462.749 1.799 2.327 3.123 4.248 3.449 13.88 2.355 24.44 14.462 24.376 29.027-.071 16.242-13.696 29.185-29.939 29.185h-177.98c-24.588 0-45.157-19.569-45.376-44.156-.199-22.482 16.254-41.148 37.769-44.438z" fill="#7070ab"/><path d="m163.191 262.902c-.2-22.482 16.253-41.147 37.768-44.438 2.065-.316 3.804-1.685 4.523-3.646 7.919-21.573 26.369-38.054 49.117-43.238-10.558-6.641-23.047-10.492-36.443-10.492-29.581 0-54.788 18.722-64.419 44.963-.72 1.961-2.459 3.33-4.524 3.646-21.515 3.291-37.968 21.957-37.768 44.438.219 24.587 20.788 44.156 45.375 44.156h24.793c-11.019-8.018-18.293-20.822-18.422-35.389z" fill="#616196"/></g></svg>