<svg id="Layer_1" enable-background="new 0 0 512 512" height="512" viewBox="0 0 512 512" width="512" xmlns="http://www.w3.org/2000/svg"><g><path d="m500.649 280.12c.229-4.345.352-8.718.352-13.12-.001-135.31-109.691-245.001-245.001-245.001s-245 109.691-245 245.001c0 37.502 8.438 73.029 23.501 104.805z" fill="#fdca00"/><path d="m498.961 0h-485.922c-8.52 0-14.509 8.376-11.756 16.439 5.522 16.169 17.564 38.903 42.116 42.203 2.643.355 5.094 2.398 6.828 5.656 7.539 14.165 31.944 50.445 75.402 28.531 4.517-2.277 9.364.735 11.824 7.292 5.127 13.664 16.691 33.937 39.998 32.941 4.322-.185 8.183 4.215 9.742 10.762 2.733 11.472 8.9 28.188 22.328 35.41 3.087 1.66 5.503 5.583 6.529 10.591 1.051 5.133 2.327 12.382 3.347 21.255.032-.011.064-.02.096-.031 23.974-8.532 25.063-20.72 44.134-20.72 14.99 0 19.885 7.148 31.347 4.586.337-1.87.667-3.574.977-5.089 1.026-5.008 3.442-8.931 6.529-10.591 13.428-7.222 19.595-23.938 22.328-35.41 1.56-6.547 5.42-10.947 9.742-10.762 23.307.996 34.871-19.277 39.998-32.941 2.46-6.557 7.308-9.569 11.824-7.292 43.458 21.914 67.864-14.366 75.403-28.531 1.734-3.257 4.185-5.3 6.828-5.656 24.551-3.3 36.594-26.034 42.116-42.203 2.751-8.064-3.238-16.44-11.758-16.44z" fill="#fee886"/><path d="m93.093 0s0 34.809 27.088 46.888c1.851.825 3.393 2.641 4.3 5.037 3.943 10.417 17.682 38.268 50.934 34.823 3.456-.358 6.611 2.603 7.701 7.188 2.272 9.555 8.469 24.642 25.21 29.388 3.105.88 5.413 4.465 5.862 8.837.786 7.661 3.49 19.326 12.343 26.841 2.035 1.727 3.362 4.687 3.585 7.993.538 7.965.77 23.377-3.111 40.939 16.948-8.099 19.775-17.607 36.619-17.607 10.557 0 16.106 3.544 22.468 4.748-2.083-10.697-2.983-20.642-3.368-26.943-.235-3.848 1.046-7.586 3.373-9.683 8.351-7.524 10.945-18.812 11.712-26.288.448-4.372 2.757-7.957 5.862-8.837 16.74-4.747 22.937-19.833 25.21-29.388 1.09-4.585 4.245-7.546 7.701-7.188 33.252 3.445 46.991-24.406 50.934-34.823.907-2.396 2.449-4.212 4.3-5.037 27.091-12.078 27.091-46.888 27.091-46.888z" fill="#fff9e1"/><g><path d="m261.57 190.383c.423-2.413.76-4.559 1.016-6.353.523-3.666.089-7.122-1.173-9.334-5.491-9.622-5.18-22.853-4.183-31.389.569-4.871-.518-9.165-2.816-10.612-12.392-7.803-14.15-25.331-13.94-36.177.1-5.205-1.796-8.945-4.639-9.086-27.347-1.359-32.432-34.074-33.378-46.125-.217-2.771-1.066-5.004-2.373-6.197-9.757-8.909-12.605-23.222-13.06-35.11h-93.931s0 34.81 27.088 46.888c1.851.825 3.394 2.641 4.3 5.037 3.943 10.417 17.682 38.268 50.934 34.823 3.457-.358 6.611 2.603 7.702 7.188 2.272 9.555 8.468 24.642 25.209 29.388 3.105.88 5.413 4.465 5.862 8.837.786 7.662 3.49 19.327 12.343 26.841 2.035 1.727 3.362 4.688 3.585 7.993.538 7.965.77 23.376-3.111 40.939 16.233-7.756 19.521-16.799 34.565-17.551z" fill="#fff2b9"/></g><path d="m283.826 510.418c98.135-11.097 178.695-80.155 206.626-172.131-50.891-46.024-106.303-108.577-156.327-192.118-2.062-3.444-6.283-4.26-9.27-1.806-2.969 3.321-3.676 8.041-4.15 13.276h1.622c3.585 8.593 6.228 19.798 3.098 31.065-2.811 10.122-11.553 20.038-20.808 30.537-12.076 13.699-24.564 27.865-24.564 43.862 0 12.742-13.666 17.221-29.49 22.407-15.544 5.095-33.163 10.87-40.328 26.222-7.342 15.734 1.375 29.187 10.604 43.43 9.164 14.142 18.64 28.766 14.276 47.512-7.004 30.091 8.355 43.037 23.209 55.557 14.16 11.935 28.794 24.27 25.502 52.157z" fill="#725057"/><path d="m283.827 510.418c25.227-2.853 49.288-9.544 71.598-19.462-12.519-11.375-23.52-26.529-26.999-46.028-9.461-53.033-46.947-93.035-79.947-105.071-21.45-7.824-22.409-23.77-20.452-33.974.717-3.741-1.15-7.356-4.324-8.973-5.695 3.712-10.487 8.437-13.467 14.822-7.342 15.733 1.375 29.187 10.604 43.43 9.163 14.143 18.64 28.766 14.276 47.512-7.004 30.091 8.355 43.037 23.209 55.557 14.161 11.935 28.794 24.27 25.503 52.157v.03z" fill="#603f42"/><path d="m182.442 414.254c2.726-6.464 5.544-13.147 6.423-21.263 1.874-17.314-10.314-42.389-17.747-55.795-1.746-3.151-4.79-5.274-8.35-5.824-3.532-.548-7.041.545-9.63 2.994-25.227 23.869-31.17 46.764-36.917 68.906-1.218 4.689-2.367 9.118-3.703 13.575-4.266 14.24-13.665 21.921-22.754 29.349-.145.119-.289.236-.434.355 28.159 26.151 62.47 45.762 100.532 56.408 5.633-14.875 8.049-32.581-3.002-46.315-14.628-18.181-9.897-29.4-4.418-42.39z" fill="#603f42"/><path d="m490.414 271.87c-7.377-7.387-21.482-16.195-48.079-20.096-22.395-3.285-42.779-16.069-58.462-29.18 35.388 47.528 71.77 86.153 106.112 117.262 5.917-19.022 9.572-39.04 10.664-59.737-3.687-2.36-7.12-5.129-10.235-8.249z" fill="#8e6877"/><path d="m236.685 403.04c8.996-38.649-38.983-60.639-24.989-90.626s69.968-21.99 69.968-49.311 38.649-49.978 45.313-73.967c3.932-14.154-.896-28.121-5.515-37.197-2.179 10.869.982 26.262-15.337 35.389-20.705 11.579-23.429 0-42.499 0s-20.16 12.188-44.134 20.72c-8.561 3.047-15.456 1.811-20.784-1.036-10.004-5.346-22.001-2.172-28.436 7.927-44.277 69.491-92.624 120.379-135.772 156.866 13.661 28.821 32.776 54.55 56.021 75.853 9.325-7.621 19.092-15.496 23.542-30.349 7.676-25.623 10.011-53.224 40.183-81.773 4.695-4.443 12.329-3.213 15.463 2.441 7.629 13.761 19.366 38.105 17.554 54.841-2.654 24.512-24.107 36.935-1.658 64.836 10.628 13.21 8.204 30.413 2.703 44.868 21.5 6.168 44.209 9.478 67.692 9.478 9.97 0 19.797-.611 29.456-1.769 6.592-58.042-62.087-49.98-48.771-107.191z" fill="#ff4155"/><path d="m236.685 403.04c8.996-38.649-38.983-60.64-24.988-90.626 2.939-6.299 7.734-10.918 13.47-14.543-1.175-.97-2.632-1.628-4.279-1.801-38.654-4.079-28.753-32.893-22.575-58.843 2.88-12.098 9.37-21.263 15.811-27.778-6.125 1.019-11.251-.211-15.416-2.437-10.003-5.346-22.001-2.172-28.436 7.927-44.277 69.492-92.624 120.379-135.772 156.866 13.662 28.821 32.777 54.55 56.021 75.853 9.324-7.621 19.092-15.497 23.542-30.349 7.676-25.623 10.011-53.225 40.184-81.773 4.695-4.443 12.329-3.213 15.462 2.44 7.629 13.761 19.366 38.105 17.554 54.841-2.654 24.513-24.107 36.936-1.658 64.836 10.628 13.21 8.204 30.413 2.703 44.868 21.5 6.168 44.209 9.479 67.692 9.479 9.971 0 19.797-.611 29.456-1.769 6.592-58.042-62.088-49.98-48.771-107.191z" fill="#e80054"/></g></svg>