<svg id="Layer_1" enable-background="new 0 0 512 512" height="512" viewBox="0 0 512 512" width="512" xmlns="http://www.w3.org/2000/svg"><g><path d="m20.29 199.945-9.215 61.158c-.047 1.96-.075 3.925-.075 5.897 0 5.879.221 11.706.628 17.482l3.066 25.084c5.158 29.441 15.578 57.067 30.246 81.887l38.867 49.811c22.556 22.29 49.416 40.225 79.224 52.461l80.292 17.951c4.198.215 8.425.324 12.677.324 22.577 0 44.435-3.069 65.195-8.786l23.79-7.884c7.179-2.8 14.189-5.932 21.02-9.371l44.672-28.965c20.141-16.417 37.631-35.963 51.707-57.912l32.098-75.748c4.256-18.089 6.518-36.947 6.518-56.334 0-135.31-109.69-245-245-245-112.06 0-206.548 75.232-235.71 177.945z" fill="#009cf2"/><path d="m400.963 451.384 11.349-3.04c6.673-1.79 10.634-8.648 8.845-15.324-.291-1.085-.714-2.096-1.25-3.025-2.763-4.784-8.484-7.319-14.072-5.822l-35.52 9.517-27.833-16.07 59.061-15.824c6.672-1.79 10.634-8.648 8.845-15.324-.291-1.085-.714-2.096-1.25-3.025-2.764-4.784-8.483-7.319-14.073-5.822l-83.231 22.301-8.788-5.074v-35.728h14.502c6.996 0 12.668-5.672 12.668-12.668s-5.672-12.668-12.668-12.668h-14.502v-35.727l8.791-5.075 83.228 22.3c6.675 1.789 13.535-2.172 15.323-8.847 1.789-6.67-2.174-13.535-8.846-15.321l-59.061-15.825 27.837-16.072 35.516 9.516c6.675 1.789 13.535-2.171 15.323-8.847 1.789-6.67-2.174-13.535-8.845-15.321l-11.349-3.041 32.076-18.519c5.984-3.454 8.034-11.106 4.579-17.09s-11.106-8.034-17.09-4.579l-32.076 18.519 3.04-11.349c.895-3.335.351-6.72-1.25-9.492-1.6-2.772-4.26-4.936-7.596-5.829-6.675-1.789-13.535 2.172-15.323 8.847l-9.516 35.516-27.837 16.072 15.826-59.061c.894-3.335.351-6.72-1.25-9.493-1.601-2.772-4.26-4.935-7.596-5.828-6.675-1.79-13.535 2.171-15.323 8.847l-22.302 83.228-8.79 5.075-30.941-17.864 7.251-12.56c3.498-6.059 1.422-13.806-4.637-17.304s-13.807-1.422-17.305 4.637l-7.251 12.56-30.941-17.864v-10.148l60.928-60.929c4.093-4.093 4.758-10.314 1.995-15.099-.536-.926-1.201-1.801-1.995-2.595-4.887-4.887-12.807-4.885-17.693-.002l-43.235 43.236v-32.139l26.002-26.002c4.092-4.092 4.756-10.313 1.994-15.098-.536-.926-1.201-1.801-1.995-2.595-4.887-4.887-12.807-4.885-17.694-.002l-8.307 8.308v-37.037c0-2.274-.607-4.409-1.668-6.246-2.163-3.746-6.209-6.266-10.843-6.265-6.91 0-12.511 5.601-12.511 12.511v37.039l-8.308-8.308c-4.886-4.885-12.807-4.885-17.693-.002-4.884 4.885-4.89 12.8 0 17.694l26.001 26.001v32.142l-43.235-43.235c-4.886-4.885-12.807-4.885-17.694-.002-4.885 4.883-4.892 12.798 0 17.694l60.929 60.929v10.15l-30.941 17.864-7.252-12.56c-3.498-6.059-11.245-8.135-17.304-4.637s-8.135 11.246-4.637 17.304l7.252 12.56-30.941 17.864-8.791-5.075-22.302-83.23c-.291-1.085-.714-2.096-1.25-3.025-2.763-4.784-8.483-7.319-14.073-5.822-6.672 1.79-10.633 8.65-8.845 15.324l15.825 59.06-27.836-16.071-9.517-35.517c-.197-.736-.476-1.425-.789-2.091-5.538 19.504-8.715 39.999-9.215 61.158l7.014-1.879 27.833 16.069-34.293 9.189c.599 8.488 1.625 16.857 3.066 25.085l61.875-16.579 8.789 5.075v35.727h-14.503c-6.996 0-12.668 5.672-12.668 12.668s5.672 12.668 12.668 12.668h14.503v35.727l-8.791 5.076-31.627-8.474c10.79 18.258 23.875 34.995 38.868 49.811l5.27-19.668 8.792-5.076 30.94 17.863-7.252 12.56c-3.498 6.059-1.422 13.806 4.637 17.305s13.806 1.422 17.304-4.637l7.252-12.56 30.942 17.864v10.148l-18.661 18.661c24.966 10.249 51.991 16.509 80.292 17.951l-36.609-36.61v-10.151l30.94-17.863 7.251 12.56c3.498 6.059 11.246 8.135 17.305 4.637s8.135-11.246 4.637-17.305l-7.251-12.56 30.941-17.864 8.79 5.075 21.87 81.618c8.106-2.232 16.045-4.864 23.791-7.885l-15.016-56.04 27.836 16.071 8.199 30.598c15.97-8.039 30.939-17.771 44.672-28.965zm-194.251-194.495 58.802 33.949-25.433 14.684-33.369-19.265zm-25.021.001v29.367l-33.368 19.265-25.432-14.683zm-71.312 55.618 25.432 14.683.001 38.531-25.433 14.684zm71.313 123.516-58.802-33.949 25.433-14.684 33.369 19.266zm12.509-51.036-33.368-19.266v-38.531l33.368-19.265 33.369 19.265-.001 38.531zm12.512 51.035v-29.367l33.368-19.265 25.433 14.683zm71.311-55.617-25.433-14.684v-38.531l25.432-14.684v67.899z" fill="#b8e9fa"/><path d="m424.147 141.634c-5.834-1.175-11.786 2.537-13.038 8.703-1.372 6.863 3.888 13.249 10.865 13.249 6.174 0 11.087-5.007 11.087-11.075 0-5.227-3.648-9.804-8.914-10.877z" fill="#e6f8fc"/><path d="m236.955 12.037c-5.834-1.175-11.786 2.537-13.038 8.703-1.372 6.863 3.888 13.249 10.865 13.249 6.174 0 11.087-5.007 11.087-11.075-.001-5.226-3.648-9.803-8.914-10.877z" fill="#b8e9fa"/><path d="m493.128 323.987-14.77 8.528v-17.055c0-6.25-5.067-11.317-11.318-11.317-6.25 0-11.317 5.067-11.317 11.317v17.054l-14.769-8.527c-5.414-3.126-12.334-1.27-15.46 4.142-3.126 5.413-1.271 12.335 4.142 15.46l14.77 8.528-14.77 8.527c-5.413 3.126-7.268 10.047-4.142 15.46 2.096 3.631 5.9 5.661 9.811 5.661 1.92 0 3.866-.489 5.648-1.518l14.769-8.528v17.055c0 4.589 2.736 8.53 6.661 10.307 14.7-22.921 25.676-48.456 32.098-75.748-.458.189-.912.399-1.353.654z" fill="#b8e9fa"/><path d="m404.549 61.574h-10.052l6.404-11.093c2.867-4.964 1.165-11.312-3.799-14.179-4.966-2.867-11.314-1.165-14.179 3.8l-12.397 21.472h-17.172v-17.172l21.473-12.398c4.965-2.866 6.666-9.214 3.799-14.179s-9.214-6.664-14.179-3.799l-11.093 6.405v-10.051c0-5.733-4.647-10.38-10.38-10.38s-10.38 4.647-10.38 10.38v10.051l-11.093-6.405c-4.966-2.866-11.312-1.165-14.179 3.799-2.867 4.965-1.166 11.313 3.799 14.179l21.472 12.398v17.173h-17.173l-12.397-21.472c-2.867-4.966-9.214-6.665-14.179-3.8-4.964 2.867-6.666 9.215-3.799 14.179l6.405 11.093h-10.05c-5.733 0-10.38 4.647-10.38 10.38s4.647 10.38 10.38 10.38h10.051l-6.404 11.093c-2.867 4.965-1.166 11.313 3.799 14.179 1.635.944 3.419 1.392 5.181 1.392 3.587 0 7.076-1.862 8.998-5.191l12.397-21.472h17.173v17.172l-21.472 12.397c-4.965 2.867-6.666 9.215-3.799 14.179 1.923 3.33 5.411 5.192 8.998 5.192 1.761 0 3.546-.449 5.181-1.392l11.093-6.404v10.051c0 5.732 4.647 10.38 10.38 10.38s10.38-4.648 10.38-10.38v-10.051l11.093 6.404c1.635.943 3.419 1.392 5.18 1.392 3.587 0 7.076-1.862 8.999-5.192 2.866-4.964 1.165-11.312-3.799-14.179l-21.473-12.397v-17.174h17.172l12.397 21.472c1.922 3.33 5.412 5.191 8.998 5.191 1.761 0 3.546-.449 5.181-1.392 4.965-2.866 6.666-9.214 3.799-14.179l-6.404-11.093h10.051c5.732 0 10.38-4.647 10.38-10.38s-4.649-10.379-10.381-10.379z" fill="#e6f8fc"/><path d="m163.03 493.725c24.966 10.249 51.991 16.509 80.292 17.951l-36.609-36.61v-10.151l30.94-17.863c-19.589-5.137-8.912-23.613-8.912-23.613l-.044-.11-21.985 12.693v-29.367l12.16-7.021c-19.35-2.475-13.427-19.13-12.366-21.753l-12.306 7.105-33.368-19.266v-38.531l9.099-5.253c-18.076-.047-13.742-20.755-13.693-20.987l-7.917 4.571-25.432-14.683 19.04-10.993c-17.592-2.536-13.121-21.317-13.121-21.317l-30.941 17.864-8.79-5.075-22.302-83.23c-.29-1.085-.714-2.096-1.25-3.025-2.763-4.784-8.483-7.319-14.073-5.822-6.672 1.79-10.633 8.65-8.845 15.324l15.825 59.06-27.836-16.071-9.517-35.517c-.197-.736-.476-1.425-.79-2.091-5.538 19.504-8.715 39.999-9.215 61.158l7.014-1.879 27.833 16.069-34.293 9.189c.598 8.488 1.625 16.857 3.066 25.085l61.875-16.579 8.789 5.075v35.727h-14.504c-6.996 0-12.668 5.672-12.668 12.668s5.671 12.668 12.668 12.668h14.503v35.727l-8.792 5.076-31.627-8.474c10.79 18.258 23.875 34.995 38.868 49.811l5.27-19.668 8.792-5.076 30.94 17.863-7.252 12.56c-3.498 6.059-1.422 13.806 4.637 17.305 6.059 3.498 13.807 1.422 17.305-4.637l7.251-12.56 30.942 17.864v10.148zm-52.651-181.217 25.432 14.683v38.531l-25.433 14.684v-67.898zm12.511 89.567 25.433-14.684 33.369 19.266v29.366z" fill="#8adaf9"/><g fill="#b8e9fa"><path d="m332.595 99.506-21.472 12.397c-4.965 2.867-6.665 9.215-3.799 14.179 1.923 3.33 5.411 5.192 8.999 5.192 1.761 0 3.546-.449 5.18-1.392l11.092-6.404v10.051c0 5.732 4.647 10.38 10.38 10.38s10.38-4.648 10.38-10.38v-10.051c-25.272-2.605-20.76-23.972-20.76-23.972z"/><path d="m294.027 108.998c3.587 0 7.076-1.862 8.999-5.191l12.397-21.472c-11.046-11.046 0-20.76 0-20.76l-12.397-21.472c-2.867-4.966-9.214-6.665-14.179-3.8-4.964 2.867-6.666 9.215-3.799 14.179l6.405 11.093h-10.053c-5.732 0-10.38 4.647-10.38 10.38s4.647 10.38 10.38 10.38h10.051l-6.404 11.093c-2.866 4.965-1.165 11.313 3.799 14.179 1.635.943 3.42 1.391 5.181 1.391z"/></g></g></svg>