<svg id="Layer_1" enable-background="new 0 0 512 512" height="512" viewBox="0 0 512 512" width="512" xmlns="http://www.w3.org/2000/svg"><g><g><path d="m13.813 231.757c4.689 2.168 10.069 3.993 19.13 3.993 22.304 0 22.304-11.06 44.607-11.06 22.305 0 22.305 11.06 44.61 11.06s22.305-11.06 44.611-11.06c22.304 0 22.304 11.06 44.609 11.06 22.302 0 22.302-11.06 44.605-11.06 22.305 0 22.305 11.06 44.61 11.06s22.305-11.06 44.611-11.06 22.306 11.06 44.612 11.06 22.306-11.06 44.611-11.06c22.309 0 22.309 11.06 44.617 11.06 9.066 0 14.448-1.827 19.14-3.996h.28c-17.091-118.608-119.126-209.754-242.466-209.754-123.341 0-225.377 91.147-242.467 209.757z" fill="#009cf2"/></g><path d="m166.771 224.902c22.305 0 22.305 11.06 44.609 11.06 22.302 0 22.302-11.06 44.604-11.06 22.305 0 22.305 11.06 44.61 11.06s22.305-11.06 44.61-11.06c5.682 0 9.913.72 13.437 1.789 6.457-14.201 10.056-29.978 10.056-46.595 0-62.242-50.457-112.7-112.699-112.7s-112.699 50.458-112.699 112.7c0 16.615 3.598 32.389 10.054 46.589 3.522-1.067 7.747-1.783 13.418-1.783z" fill="#ffe400"/><g><path d="m195.612 153.863c1.096-34.721 17.791-65.272 43.142-85.155-54.055 8.301-95.453 55.009-95.453 111.387 0 16.615 3.598 32.389 10.053 46.589 3.521-1.067 7.746-1.783 13.417-1.783 22.305 0 22.305 11.06 44.609 11.06 6.072 0 10.484-.823 14.15-2.016-19.4-20.968-30.891-49.273-29.918-80.082z" fill="#fdca00"/></g><g><path d="m256 38.559c-4.581 0-8.295-3.714-8.295-8.295v-21.969c-.001-4.581 3.713-8.295 8.295-8.295s8.295 3.714 8.295 8.295v21.968c0 4.582-3.714 8.296-8.295 8.296z" fill="#ffe400"/></g><g><path d="m181.092 58.634c-2.867 0-5.655-1.488-7.191-4.149l-10.985-19.025c-2.291-3.968-.932-9.041 3.036-11.332 3.967-2.291 9.041-.932 11.331 3.036l10.984 19.025c2.291 3.967.932 9.041-3.036 11.332-1.306.754-2.732 1.113-4.139 1.113z" fill="#fdca00"/></g><g><path d="m126.234 113.476c-1.407 0-2.834-.358-4.14-1.113l-19.025-10.984c-3.968-2.291-5.327-7.364-3.036-11.332 2.29-3.968 7.364-5.327 11.331-3.036l19.025 10.984c3.968 2.291 5.327 7.364 3.036 11.332-1.536 2.661-4.324 4.149-7.191 4.149z" fill="#fdca00"/></g><g><path d="m106.168 188.391h-21.968c-4.581 0-8.295-3.714-8.295-8.295s3.714-8.295 8.295-8.295h21.968c4.581 0 8.295 3.714 8.295 8.295.001 4.581-3.713 8.295-8.295 8.295z" fill="#fdca00"/></g><g><path d="m427.8 188.391h-21.968c-4.581 0-8.295-3.714-8.295-8.295s3.714-8.295 8.295-8.295h21.968c4.581 0 8.295 3.714 8.295 8.295s-3.714 8.295-8.295 8.295z" fill="#ffe400"/></g><g><path d="m385.766 113.476c-2.867 0-5.655-1.488-7.191-4.149-2.291-3.967-.932-9.041 3.036-11.332l19.025-10.984c3.967-2.29 9.041-.932 11.332 3.036 2.291 3.967.932 9.041-3.036 11.332l-19.025 10.984c-1.307.754-2.734 1.113-4.141 1.113z" fill="#ffe400"/></g><g><path d="m330.909 58.634c-1.408 0-2.834-.358-4.14-1.113-3.968-2.291-5.327-7.364-3.036-11.332l10.984-19.025c2.29-3.968 7.364-5.328 11.332-3.036 3.968 2.291 5.327 7.364 3.036 11.332l-10.985 19.025c-1.536 2.661-4.325 4.149-7.191 4.149z" fill="#ffe400"/></g><path d="m434.429 222.689c-22.306 0-22.306 11.06-44.611 11.06-22.306 0-22.306-11.06-44.612-11.06-22.305 0-22.305 11.06-44.611 11.06-22.305 0-22.305-11.06-44.61-11.06-22.302 0-22.302 11.06-44.604 11.06-22.305 0-22.305-11.06-44.609-11.06-22.305 0-22.305 11.06-44.611 11.06-22.305 0-22.305-11.06-44.61-11.06-22.304 0-22.304 11.06-44.608 11.06-9.061 0-14.44-1.825-19.13-3.993-1.852 12.145-2.813 24.582-2.813 37.244 0 11.144.759 22.11 2.2 32.86 4.839 2.292 10.284 4.283 19.743 4.283 22.304 0 22.304-11.06 44.608-11.06 22.305 0 22.305 11.06 44.61 11.06s22.305-11.06 44.611-11.06c22.305 0 22.305 11.06 44.609 11.06 22.302 0 22.302-11.06 44.604-11.06 22.305 0 22.305 11.06 44.61 11.06s22.305-11.06 44.611-11.06 22.306 11.06 44.612 11.06 22.306-11.06 44.611-11.06c22.309 0 22.309 11.06 44.617 11.06 9.466 0 14.913-1.993 19.755-4.286 1.441-10.749 2.2-21.713 2.2-32.857 0-12.663-.961-25.101-2.814-37.246-4.692 2.169-10.074 3.996-19.14 3.996-22.31 0-22.31-11.061-44.618-11.061z" fill="#5ccbf7"/><path d="m221.339 232.833c-2.792.567-6.023.916-9.958.916-22.305 0-22.305-11.06-44.609-11.06-22.305 0-22.305 11.06-44.611 11.06s-22.305-11.06-44.61-11.06c-22.304 0-22.304 11.06-44.608 11.06-9.06 0-14.44-1.825-19.13-3.993-1.852 12.145-2.813 24.582-2.813 37.244 0 11.144.759 22.11 2.2 32.86 4.839 2.292 10.284 4.283 19.743 4.283 22.304 0 22.304-11.06 44.608-11.06 22.305 0 22.305 11.06 44.61 11.06s22.305-11.06 44.611-11.06c22.304 0 22.304 11.06 44.609 11.06 5.323 0 9.367-.634 12.756-1.593.601-2.975-.258-6.156-2.536-8.435-24.454-24.468-10.497-47.396-2.297-57.071 1.05-1.241 1.729-2.694 2.035-4.211z" fill="#2ebcf6"/><path d="m479.046 303.036c-22.309 0-22.309-11.061-44.617-11.061-22.306 0-22.306 11.061-44.611 11.061-22.306 0-22.306-11.061-44.613-11.061-22.305 0-22.305 11.061-44.61 11.061s-22.305-11.061-44.61-11.061c-22.302 0-22.302 11.061-44.604 11.061-22.305 0-22.305-11.061-44.609-11.061-22.305 0-22.305 11.061-44.611 11.061-22.305 0-22.305-11.061-44.61-11.061-22.304 0-22.304 11.061-44.608 11.061-9.567 0-15.029-2.036-19.909-4.361 3.415 26.457 11.048 51.593 22.207 74.707 20.027-.734 20.802-11.016 42.309-11.016 22.305 0 22.305 11.061 44.61 11.061 22.306 0 22.306-11.061 44.611-11.061s22.305 11.061 44.609 11.061c22.302 0 22.302-11.061 44.604-11.061 22.305 0 22.305 11.061 44.61 11.061s22.305-11.061 44.61-11.061c22.306 0 22.306 11.061 44.613 11.061 22.305 0 22.305-11.061 44.611-11.061 21.516 0 22.288 10.285 42.329 11.016 11.16-23.116 18.793-48.252 22.208-74.711-4.882 2.327-10.345 4.365-19.919 4.365z" fill="#8adaf9"/><path d="m224.29 301.4c-3.419.983-7.506 1.636-12.909 1.636-22.305 0-22.305-11.061-44.609-11.061-22.305 0-22.305 11.061-44.611 11.061-22.305 0-22.305-11.061-44.61-11.061-22.304 0-22.304 11.061-44.608 11.061-9.567 0-15.029-2.036-19.909-4.361 3.415 26.457 11.048 51.593 22.207 74.707 20.027-.734 20.802-11.016 42.309-11.016 22.305 0 22.305 11.061 44.61 11.061 22.306 0 22.306-11.061 44.611-11.061 22.304 0 22.304 11.061 44.609 11.061 5.56 0 9.733-.688 13.212-1.72.796-2.817.231-5.939-1.699-8.327-20.029-24.783-8.661-46.528-.566-56.9 1.183-1.514 1.827-3.286 1.963-5.08z" fill="#5ccbf7"/><path d="m434.429 361.261c-22.306 0-22.306 11.06-44.611 11.06-22.306 0-22.306-11.06-44.612-11.06-22.305 0-22.305 11.06-44.611 11.06-22.305 0-22.305-11.06-44.61-11.06-22.302 0-22.302 11.06-44.604 11.06-22.305 0-22.305-11.06-44.609-11.06-22.305 0-22.305 11.06-44.611 11.06-22.305 0-22.305-11.06-44.61-11.06-21.69 0-22.293 10.457-42.823 11.033 10.381 21.776 23.872 41.783 39.914 59.434.931-.044 1.889-.075 2.909-.075 22.305 0 22.305 11.06 44.61 11.06s22.305-11.06 44.611-11.06c22.305 0 22.305 11.06 44.609 11.06 22.302 0 22.302-11.06 44.604-11.06 22.305 0 22.305 11.06 44.61 11.06s22.305-11.06 44.611-11.06 22.306 11.06 44.612 11.06 22.306-11.06 44.611-11.06c1.027 0 1.991.031 2.928.076 16.042-17.651 29.534-37.659 39.915-59.435-20.544-.572-21.145-11.033-42.843-11.033z" fill="#b8e9fa"/><path d="m224.846 370.523c-3.53 1.075-7.767 1.799-13.465 1.799-22.305 0-22.305-11.06-44.609-11.06-22.305 0-22.305 11.06-44.611 11.06s-22.305-11.06-44.61-11.06c-21.69 0-22.293 10.457-42.822 11.033 10.381 21.776 23.872 41.783 39.914 59.434.931-.044 1.889-.075 2.909-.075 22.305 0 22.305 11.06 44.61 11.06s22.305-11.06 44.611-11.06c22.304 0 22.304 11.06 44.609 11.06 5.843 0 10.148-.763 13.732-1.883.569-2.686-.09-5.563-1.927-7.801-21.073-25.662-8.484-47.977-.294-58.035 1.074-1.322 1.721-2.872 1.953-4.472z" fill="#8adaf9"/><path d="m73.702 430.668c44.851 49.923 109.903 81.332 182.298 81.332s137.446-31.408 182.298-81.332c-1.213-.078-2.498-.121-3.869-.121-22.306 0-22.306 11.06-44.611 11.06-22.306 0-22.306-11.06-44.612-11.06-22.305 0-22.305 11.06-44.611 11.06-22.305 0-22.305-11.06-44.61-11.06-22.302 0-22.302 11.06-44.604 11.06-22.305 0-22.305-11.06-44.609-11.06-22.305 0-22.305 11.06-44.611 11.06-22.305 0-22.305-11.06-44.61-11.06-1.364 0-2.642.043-3.849.121z" fill="#e6f8fc"/><path d="m223.533 444.348c1.037-1.409 1.609-3.029 1.742-4.675-3.616 1.149-7.962 1.935-13.895 1.935-22.305 0-22.305-11.06-44.609-11.06-22.305 0-22.305 11.06-44.611 11.06s-22.305-11.06-44.61-11.06c-1.364 0-2.642.043-3.849.12 39.035 43.45 93.375 72.864 154.537 79.765-29.851-24.459-13.693-53.873-4.705-66.085z" fill="#b8e9fa"/><g fill="#fff442"><ellipse cx="280.544" cy="157.42" rx="24.544" ry="24.544" transform="matrix(.707 -.707 .707 .707 -29.143 244.482)"/><circle cx="317.359" cy="130.878" r="9.484"/></g></g></svg>