<svg id="Layer_1" enable-background="new 0 0 512 512" height="512" viewBox="0 0 512 512" width="512" xmlns="http://www.w3.org/2000/svg"><g><path d="m456.981 104.877-.004.004-85.622-76.064c-9.474-5.066-19.318-9.525-29.484-13.33l-230.131 31.488c-61.058 44.557-100.74 116.651-100.74 198.025 0 135.31 109.69 245 245 245s245-109.69 245-245c0-52.111-16.283-100.413-44.019-140.123z" fill="#41416b"/><path d="m256 490c123.184 0 225.12-90.917 242.403-209.306-23.934-17.698-53.315-27.951-84.112-27.951-58.415 0-110.063 35.105-131.579 89.432-1.715 4.328-6.155 6.909-11.047 6.393-3.188-.329-6.439-.494-9.666-.494-36.938 0-70.564 21.799-85.672 55.533-1.455 3.254-4.193 5.577-7.323 6.214-21.999 4.488-39.448 20.183-46.908 40.363 38.49 25.17 84.483 39.816 133.904 39.816z" fill="#515181"/><path d="m479.093 124.928h-27.743c-1.368 0-2.314-1.368-1.831-2.648l7.458-17.399c-22.086-31.621-51.437-57.79-85.638-76.078l-13.793 39.787c-.304 1.233.63 2.425 1.9 2.425h54.918c1.24 0 2.167 1.138 1.917 2.352l-24.504 83.839c-.251 1.214.677 2.353 1.917 2.353h32.483c1.2 0 2.117 1.07 1.934 2.255l-20.71 79.885c-.336 2.178 2.625 3.163 3.661 1.219l69.759-115.113c.694-1.303-.25-2.877-1.728-2.877z" fill="#feac00"/><path d="m126.526 312.103-33.58 2.054c-1.656.101-2.902-1.483-2.412-3.069l19.425-96.745c.376-1.876-1.126-3.6-3.036-3.483-.99.06-1.882.62-2.366 1.486l-80.903 144.532c-.923 1.65.174 3.581 2.069 3.466l39.318-2.405c1.452-.089 2.642 1.137 2.508 2.586l-19.153 98.226c-.245 2.661 3.411 3.634 4.522 1.204l75.912-144.497c.743-1.63-.516-3.465-2.304-3.355z" fill="#ffe400"/><path d="m353.849 330.718h-46.085c-2.083 0-3.524-2.083-2.788-4.032l52.318-138.68c.736-1.949-.705-4.032-2.788-4.032h-63.461c-2.076 0-3.516-2.07-2.794-4.017l53.631-164.472c-26.726-10.006-55.663-15.485-85.882-15.485-10.416 0-20.679.655-30.753 1.917l-26.17 79.164c-.466 1.257-.288 2.664.478 3.765.766 1.1 2.023 1.758 3.365 1.758h53.234c.427 0 .661.272.742.389s.253.432.103.831l-43.889 116.333c-.475 1.259-.301 2.671.464 3.777.765 1.107 2.025 1.767 3.37 1.767h38.659c.461 0 .694.307.773.438.078.131.239.481.066.812l-22.822 37.662h10.692c1.888 0 3.3 1.734 2.919 3.583l-26.36 127.682c-.382 1.85 1.03 3.583 2.919 3.583h49.47c1.827 0 3.224 1.629 2.946 3.434l-31.541 121.661c-.511 3.316 3.997 4.817 5.576 1.856l106.238-175.311c1.058-1.986-.381-4.383-2.63-4.383z" fill="#ffe400"/><g><path d="m306.408 371.218c2.489-5.849-1.803-12.339-8.159-12.339h-27.773c-5.911 0-10.167-5.673-8.513-11.347l35.057-120.327c1.653-5.674-2.603-11.347-8.513-11.347h-35.036l-19.849 32.756h10.692c1.888 0 3.3 1.734 2.918 3.583l-26.359 127.682c-.382 1.85 1.03 3.583 2.919 3.583h49.47c1.827 0 3.224 1.629 2.946 3.434l-31.541 121.661c-.249 1.619.699 2.799 1.917 3.245z" fill="#fdca00"/></g><path d="m256.154 85.006h-53.234c-1.742 0-2.95-1.736-2.344-3.369l26.42-79.92c-42.764 5.045-82.151 21.1-115.256 45.258l-20.609 89.155c-.388 1.575.805 3.098 2.428 3.098h70.16c1.584 0 2.769 1.454 2.448 3.006l-22.113 107.106c-.32 1.551.865 3.006 2.449 3.006h41.498c1.533 0 2.704 1.366 2.471 2.881l-26.458 102.056c-.429 2.782 3.353 4.04 4.677 1.557l89.118-147.06c.888-1.665-.319-3.676-2.206-3.676h-38.659c-1.747 0-2.956-1.747-2.339-3.382l43.887-116.331c.618-1.638-.591-3.385-2.338-3.385z" fill="#feac00"/><path d="m87.352 336.101h-20.802c-3.472 0-5.856-3.494-4.589-6.727l46.333-118.261c-.414-.186-.877-.283-1.371-.253-.99.06-1.881.62-2.366 1.486l-80.903 144.532c-.923 1.65.175 3.581 2.069 3.466l39.317-2.405c1.452-.089 2.642 1.137 2.508 2.586l-19.153 98.226c-.118 1.285.675 2.171 1.65 2.475l41.953-118.552c1.135-3.207-1.244-6.573-4.646-6.573z" fill="#fdca00"/><g fill="#ff951f"><path d="m207.771 229.857h-16.618c-5.851 0-10.154-5.482-8.765-11.166l23.875-97.669c1.389-5.683-2.914-11.166-8.765-11.166h-44.389c-5.837 0-10.137-5.457-8.773-11.132l19.411-80.734c-18.58 7.558-36.026 17.324-52.005 28.985l-20.611 89.155c-.388 1.575.805 3.098 2.427 3.098h70.16c1.584 0 2.769 1.454 2.448 3.006l-22.112 107.106c-.32 1.551.865 3.006 2.449 3.006h41.498c1.533 0 2.705 1.366 2.471 2.881l-26.458 102.056c-.192 1.248.465 2.185 1.366 2.62l50.676-117.447c2.57-5.958-1.798-12.599-8.285-12.599z"/><path d="m444.204 139.19h-18.341c-3.256 0-5.567-3.175-4.565-6.274l16.75-51.826c-18.965-21.054-41.515-38.815-66.709-52.287l-13.793 39.787c-.304 1.233.63 2.425 1.9 2.425h54.919c1.24 0 2.167 1.138 1.917 2.352l-24.503 83.839c-.251 1.214.676 2.353 1.916 2.353h32.483c1.2 0 2.117 1.07 1.935 2.255l-20.712 79.886c-.181 1.17.592 1.99 1.505 2.202l39.745-98.113c1.278-3.154-1.043-6.599-4.447-6.599z"/></g></g></svg>