<svg id="Layer_1" enable-background="new 0 0 512 512" height="512" viewBox="0 0 512 512" width="512" xmlns="http://www.w3.org/2000/svg"><g><g><path d="m27.176 301.732c22.656 0 22.656-11.235 45.313-11.235s22.657 11.235 45.315 11.235 22.658-11.235 45.316-11.235c22.657 0 22.657 11.235 45.314 11.235 22.655 0 22.655-11.235 45.31-11.235 22.658 0 22.658 11.235 45.315 11.235 22.658 0 22.658-11.235 45.315-11.235 22.659 0 22.659 11.235 45.318 11.235 22.658 0 22.658-11.235 45.316-11.235 22.662 0 22.662 11.235 45.323 11.235 7.299 0 12.239-1.169 16.351-2.75 1.365-10.469 2.077-21.142 2.077-31.983 0-135.31-109.69-245-245-245-135.31.001-245 109.691-245 245.001 0 10.842.712 21.516 2.078 31.986 4.108 1.578 9.046 2.746 16.339 2.746z" fill="#ff7e3e"/></g><g><path d="m253.759 101.455c-4.654 0-8.426-3.773-8.426-8.427v-22.315c0-4.654 3.773-8.427 8.426-8.427 4.654 0 8.426 3.773 8.426 8.427v22.315c0 4.654-3.773 8.427-8.426 8.427z" fill="#fdca00"/></g><g><path d="m177.666 121.847c-2.912 0-5.744-1.511-7.305-4.215l-11.157-19.325c-2.327-4.03-.946-9.184 3.084-11.511 4.031-2.327 9.184-.947 11.511 3.084l11.158 19.325c2.327 4.03.946 9.184-3.084 11.511-1.328.767-2.777 1.131-4.207 1.131z" fill="#fdca00"/></g><g><path d="m121.941 177.557c-1.429 0-2.878-.364-4.205-1.131l-19.326-11.157c-4.031-2.327-5.411-7.481-3.084-11.511 2.327-4.031 7.48-5.412 11.511-3.084l19.326 11.158c4.031 2.327 5.411 7.48 3.084 11.511-1.561 2.702-4.394 4.214-7.306 4.214z" fill="#fdca00"/></g><g><path d="m428.275 253.656h-22.315c-4.654 0-8.427-3.773-8.427-8.426 0-4.654 3.773-8.426 8.427-8.426h22.315c4.654 0 8.427 3.773 8.427 8.426-.001 4.653-3.774 8.426-8.427 8.426z" fill="#fee886"/></g><g><path d="m385.576 177.557c-2.912 0-5.744-1.511-7.305-4.215-2.327-4.03-.946-9.184 3.084-11.511l19.326-11.158c4.03-2.326 9.184-.947 11.511 3.084 2.327 4.03.946 9.184-3.084 11.511l-19.326 11.157c-1.327.767-2.776 1.132-4.206 1.132z" fill="#fee886"/></g><path d="m253.759 130.748c-45.824 0-85.353 26.927-103.645 65.819 25.12 2.603 45.99 19.485 54.364 42.395.851 2.328 3.262 3.653 5.716 3.3 1.97-.283 3.983-.429 6.03-.429 17.604 0 32.686 10.761 39.051 26.061.71 1.708 2.208 2.964 4.032 3.273 13.172 2.235 23.194 13.724 23.133 27.547-.001.137-.01.271-.012.407 4.167 1.635 9.167 2.858 16.632 2.858 22.658 0 22.658-11.235 45.316-11.235 5.772 0 10.069.731 13.65 1.818 6.559-14.426 10.216-30.452 10.216-47.332-.002-63.227-51.257-114.482-114.483-114.482z" fill="#ffe400"/><g><path d="m283.865 134.757c-9.594-2.609-19.686-4.009-30.106-4.009-45.824 0-85.353 26.927-103.645 65.819 24.233 2.511 44.508 18.313 53.427 39.996 3.141-48.085 35.959-88.07 80.324-101.806z" fill="#fdca00"/></g><g fill="#603f42"><path d="m119.846 105.549c-.045-.023-4.774-2.536-9.803-7.721-8.923-9.199-22.801-8.761-31.321.896-2.379 2.698-4.902 5.159-7.514 7.415-2.613-2.256-5.135-4.717-7.515-7.415-8.557-9.701-22.444-10.048-31.32-.896-5.003 5.158-9.686 7.658-9.842 7.74-4.123 2.114-5.768 7.165-3.672 11.305 2.103 4.152 7.175 5.813 11.324 3.711.724-.367 7.271-3.788 14.288-11.022 2.118-2.184 4.617-1.919 6.584.311 4.678 5.304 9.806 9.972 15.239 13.873 2.841 2.052 6.826 2.145 9.829 0 5.433-3.901 10.561-8.569 15.24-13.873 1.951-2.213 4.454-2.507 6.584-.312 7.018 7.235 13.565 10.656 14.288 11.022 4.151 2.101 9.221.441 11.324-3.711 2.101-4.151.439-9.221-3.713-11.323z"/><path d="m167.182 41.336c-.028-.015-2.913-1.559-6.013-4.755-7.033-7.25-18.306-7.174-25.256.703-.994 1.127-2.03 2.179-3.088 3.187-1.058-1.008-2.094-2.061-3.088-3.188-6.965-7.896-18.243-7.934-25.256-.703-3.027 3.122-5.849 4.666-6.006 4.751-4.11 2.12-5.747 7.162-3.654 11.295 2.102 4.152 7.173 5.814 11.324 3.711 5.683-2.877 10.322-7.979 10.63-8.196.644.409 4.128 5.099 11.135 10.131 2.812 2.04 6.768 2.131 9.735.056.03-.021.063-.035.094-.056 7.044-5.057 10.529-9.748 11.136-10.131.161.114 5.13 5.412 10.63 8.196 4.152 2.102 9.254.458 11.356-3.694 2.103-4.152.474-9.205-3.679-11.307z"/><path d="m498.645 195.611c-.029-.015-2.913-1.558-6.013-4.754-7.031-7.25-18.308-7.173-25.256.704-.993 1.127-2.03 2.18-3.088 3.187-1.058-1.008-2.095-2.061-3.088-3.188-6.83-7.743-18.088-8.092-25.256-.703-3.023 3.117-5.84 4.662-6.005 4.751-4.111 2.119-5.748 7.161-3.655 11.295 2.102 4.152 7.171 5.815 11.324 3.712 5.589-2.829 10.371-8.012 10.63-8.196.643.405 4.101 5.081 11.136 10.13 2.922 2.091 6.914 2.101 9.829 0 7.044-5.057 10.529-9.748 11.136-10.13.154.109 5.153 5.423 10.63 8.196 4.153 2.103 9.254.456 11.356-3.695 2.101-4.153.471-9.207-3.68-11.309z"/></g><path d="m72.489 290.744c22.658 0 22.658 11.235 45.315 11.235 22.658 0 22.658-11.235 45.316-11.235 22.657 0 22.657 11.235 45.315 11.235 22.655 0 22.655-11.235 45.31-11.235 15.753 0 20.558 5.429 29.636 8.739.114-.99.179-1.995.183-3.015.061-13.823-9.961-25.312-23.133-27.547-1.824-.309-3.322-1.565-4.032-3.273-6.364-15.3-21.446-26.061-39.051-26.061-2.048 0-4.061.146-6.03.429-2.454.352-4.865-.972-5.717-3.3-9.117-24.945-33.045-42.756-61.146-42.756-28.072 0-51.993 17.767-61.134 42.669-.683 1.861-2.333 3.16-4.293 3.46-20.418 3.123-36.032 20.837-35.842 42.172.05 5.582 1.215 10.887 3.264 15.735 7.038-3.232 12.485-7.252 26.039-7.252z" fill="#fff2b9"/><g><path d="m88.943 291.76c-.19-21.335 15.424-39.049 35.842-42.172 1.96-.299 3.609-1.599 4.293-3.46 7.972-21.718 27.187-38.004 50.591-41.816-10.15-6.547-22.235-10.354-35.214-10.354-28.072 0-51.994 17.767-61.134 42.669-.683 1.861-2.333 3.16-4.293 3.46-20.417 3.123-36.032 20.837-35.842 42.172.05 5.582 1.215 10.887 3.263 15.735 7.038-3.231 12.486-7.251 26.039-7.251 7.396 0 12.372 1.2 16.516 2.813-.031-.596-.055-1.194-.061-1.796z" fill="#fee886"/></g><path d="m467.443 60.282c-1.453-.222-2.677-1.186-3.184-2.566-6.779-18.467-24.518-31.643-45.336-31.643-6.886 0-13.43 1.45-19.356 4.049 1.214 1.437 2.227 3.072 2.977 4.875.572 1.373 1.77 2.338 3.206 2.582 5.635.956 9.706 5.805 9.681 11.531-.028 6.392-5.379 11.593-11.928 11.593h-45.656c-9.949 2.277-18.092 9.286-21.939 18.534-.527 1.266-1.638 2.198-2.99 2.427-9.768 1.658-17.2 10.178-17.155 20.428.05 11.431 9.639 20.54 21.07 20.54h125.257c17.304 0 31.78-13.773 31.934-31.076.14-15.821-11.439-28.958-26.581-31.274z" fill="#fff2b9"/><g fill="#fcde63"><path d="m405.751 37.579c3.017.512 5.577 2.146 7.309 4.427 4.042-3.94 8.979-7.093 14.647-9.11 3.845-1.368 7.759-2.113 11.635-2.299-6.203-2.899-13.12-4.524-20.418-4.524-6.886 0-13.43 1.45-19.356 4.049 1.214 1.437 2.228 3.072 2.978 4.875.571 1.373 1.769 2.339 3.205 2.582z"/><path d="m367.643 121.871c-2.914-8.078.557-16.889 7.801-20.942 1.003-.561 1.618-1.608 1.678-2.755.538-10.281 7.124-19.721 17.427-23.388 1.198-.426 2.407-.76 3.619-1.005 1.509-.305 2.645-1.582 2.658-3.122.029-3.39.493-6.731 1.344-9.956h-44.322c-9.949 2.277-18.092 9.286-21.939 18.534-.526 1.266-1.638 2.198-2.989 2.427-9.769 1.658-17.201 10.178-17.155 20.428.05 11.431 9.639 20.54 21.07 20.54h31.128c-.106-.254-.226-.499-.32-.761z"/></g><path d="m480.332 299.732c-22.661 0-22.661-11.235-45.323-11.235-22.658 0-22.658 11.235-45.316 11.235-22.659 0-22.659-11.235-45.318-11.235-22.658 0-22.658 11.235-45.316 11.235-22.657 0-22.657-11.235-45.315-11.235-22.655 0-22.655 11.235-45.31 11.235-22.657 0-22.657-11.235-45.314-11.235-22.658 0-22.658 11.235-45.316 11.235-22.657 0-22.657-11.235-45.315-11.235-22.657 0-22.657 11.235-45.313 11.235-7.446 0-12.439-1.216-16.599-2.846 3.19 26.226 10.526 51.169 21.33 74.163 18.04-1.445 19.629-11.048 40.582-11.048 22.658 0 22.658 11.235 45.315 11.235 22.658 0 22.658-11.235 45.316-11.235 22.657 0 22.657 11.235 45.314 11.235 22.655 0 22.655-11.235 45.31-11.235 22.657 0 22.657 11.235 45.315 11.235s22.658-11.235 45.316-11.235c22.659 0 22.659 11.235 45.318 11.235 22.658 0 22.658-11.235 45.316-11.235 20.962 0 22.548 9.607 40.602 11.049 10.804-22.995 18.141-47.939 21.33-74.167-4.162 1.631-9.158 2.849-16.609 2.849z" fill="#fdca00"/><path d="m163.12 360.002c21.063 0 22.556 9.705 40.865 11.071.322-3.083-.448-6.262-2.338-8.898-15.272-21.302-7.354-41.761-.253-53.16 1.83-2.937 2.388-6.336 1.788-9.514-17.553-1.586-19.311-11.004-40.062-11.004-22.658 0-22.658 11.235-45.316 11.235-22.657 0-22.657-11.235-45.315-11.235-22.656 0-22.656 11.235-45.313 11.235-7.446 0-12.439-1.216-16.599-2.846 3.19 26.226 10.526 51.169 21.33 74.163 18.04-1.445 19.629-11.048 40.582-11.048 22.658 0 22.658 11.235 45.315 11.235 22.657.001 22.657-11.234 45.316-11.234z" fill="#feac00"/><path d="m435.009 358.879c-22.658 0-22.658 11.235-45.316 11.235-22.659 0-22.659-11.235-45.318-11.235-22.658 0-22.658 11.235-45.316 11.235-22.657 0-22.657-11.235-45.315-11.235-22.655 0-22.655 11.235-45.31 11.235-22.657 0-22.657-11.235-45.314-11.235-22.658 0-22.658 11.235-45.316 11.235-22.657 0-22.657-11.235-45.315-11.235-21.15 0-22.563 9.788-41.087 11.09 10.268 22.135 23.738 42.478 39.824 60.435.418-.008.829-.02 1.263-.02 22.658 0 22.658 11.235 45.315 11.235 22.658 0 22.658-11.235 45.316-11.235 22.657 0 22.657 11.235 45.314 11.235 22.655 0 22.655-11.235 45.31-11.235 22.657 0 22.657 11.235 45.315 11.235s22.658-11.235 45.316-11.235c22.659 0 22.659 11.235 45.318 11.235 22.658 0 22.658-11.235 45.316-11.235.441 0 .859.012 1.283.02 16.086-17.957 29.556-38.299 39.824-60.434-18.54-1.299-19.948-11.091-41.107-11.091z" fill="#ffe400"/><path d="m163.12 430.383c21.12 0 22.561 9.758 41.01 11.083.216-3.107-.658-6.265-2.643-8.875-18.244-23.999-8.266-44.408-.147-54.903 1.755-2.269 2.665-4.993 2.716-7.732-18.376-1.346-19.844-11.077-40.935-11.077-22.658 0-22.658 11.235-45.316 11.235-22.657 0-22.657-11.235-45.315-11.235-21.15 0-22.563 9.788-41.087 11.09 10.268 22.135 23.738 42.478 39.824 60.435.418-.008.829-.02 1.263-.02 22.658 0 22.658 11.235 45.315 11.235 22.656-.001 22.656-11.236 45.315-11.236z" fill="#fdca00"/><path d="m70.248 429.301c44.887 50.715 110.459 82.699 183.511 82.699s138.623-31.984 183.51-82.698c-.73-.026-1.479-.042-2.261-.042-22.658 0-22.658 11.235-45.316 11.235-22.659 0-22.659-11.235-45.318-11.235-22.658 0-22.658 11.235-45.316 11.235-22.657 0-22.657-11.235-45.315-11.235-22.655 0-22.655 11.235-45.31 11.235-22.657 0-22.657-11.235-45.314-11.235-22.658 0-22.658 11.235-45.316 11.235-22.657 0-22.657-11.235-45.315-11.235-.774 0-1.517.015-2.24.041z" fill="#fff442"/><path d="m201.623 448.383c1.73-2.403 2.576-5.229 2.535-8.038-18.476-1.317-19.907-11.086-41.038-11.086-22.658 0-22.658 11.235-45.316 11.235-22.657 0-22.657-11.235-45.315-11.235-.774 0-1.517.016-2.241.041 34.353 38.812 80.828 66.633 133.491 77.564-20.566-24.695-10.31-47.095-2.116-58.481z" fill="#ffe400"/><ellipse cx="287.801" cy="215.267" fill="#fff442" rx="24.544" ry="24.544" transform="matrix(.429 -.903 .903 .429 -30.178 382.775)"/><path d="m329.195 181.582c.848 5.169-2.655 10.046-7.824 10.893-5.169.848-10.046-2.655-10.893-7.824-.848-5.169 2.655-10.046 7.824-10.893 5.168-.848 10.045 2.655 10.893 7.824z" fill="#fff442"/><path d="m319.114 22.103c.939-.144 1.73-.766 2.057-1.658 4.38-11.932 15.842-20.445 29.292-20.445 13.465 0 24.93 8.534 29.298 20.487.408 1.116 1.563 1.75 2.739 1.581.944-.135 1.908-.206 2.889-.206 8.435 0 15.662 5.156 18.711 12.487.34.818 1.058 1.42 1.932 1.568 6.311 1.071 11.113 6.576 11.084 13.199-.032 7.386-6.228 13.271-13.614 13.271h-80.93c-11.18 0-20.534-8.899-20.633-20.079-.09-10.221 7.392-18.709 17.175-20.205z" fill="#fff9e1"/><path d="m324.166 48.809c-.091-10.223 7.391-18.71 17.174-20.207.939-.144 1.729-.766 2.057-1.658 4.05-11.033 14.16-19.128 26.293-20.287-5.3-4.16-11.966-6.657-19.227-6.657-13.451 0-24.913 8.513-29.292 20.445-.328.892-1.118 1.514-2.057 1.658-9.783 1.497-17.265 9.984-17.174 20.207.099 11.18 9.452 20.079 20.633 20.079h7.138c-3.38-3.564-5.499-8.311-5.545-13.58z" fill="#fff2b9"/></g></svg>